<?xml version="1.0" encoding="UTF-8"?>
<svg id="Layer_1" data-name="Layer 1" xmlns="http://www.w3.org/2000/svg" viewBox="0 0 50.25 72.18">
  <defs>
    <style>
      .cls-1 {
        fill: #7c1315;
      }

      .cls-1, .cls-2, .cls-3, .cls-4, .cls-5, .cls-6, .cls-7, .cls-8, .cls-9, .cls-10, .cls-11, .cls-12, .cls-13, .cls-14, .cls-15, .cls-16 {
        stroke-width: 0px;
      }

      .cls-2 {
        fill: #f04c4c;
      }

      .cls-3 {
        fill: #010101;
      }

      .cls-4 {
        fill: #731012;
      }

      .cls-5 {
        fill: #851619;
      }

      .cls-6 {
        fill: #fac9ce;
      }

      .cls-7 {
        fill: #580e0e;
      }

      .cls-8 {
        fill: #9e1c20;
      }

      .cls-9 {
        fill: #fff;
      }

      .cls-10 {
        fill: #f69fa0;
      }

      .cls-11 {
        fill: #b01f24;
      }

      .cls-12 {
        fill: #741112;
      }

      .cls-13 {
        fill: #fdebed;
      }

      .cls-14 {
        fill: #9c1c1f;
      }

      .cls-15 {
        fill: #f26f6f;
      }

      .cls-16 {
        fill: #cd2027;
      }
    </style>
  </defs>
  <path class="cls-15" d="m16.15,37.72c.08.74-.28,1.52-1.13,1.76-.02.19-.05.39-.09.58-.09.41-.22.82-.39,1.21-.11.26-.24.51-.37.75.02.63-.15,1.25-.55,1.67-.2.21-.46.37-.77.46-.09.55-.44,1.01-.91,1.29-.03.6-.37,1.09-.82,1.38-.59.38-1.37.44-1.95-.02-.1-.08-.2-.18-.29-.3-.19-.25-.31-.51-.38-.81-.82-.28-1.28-1.44-1.54-2.86-.17-.92-.26-1.95-.32-2.91-.07-1.2-.09-2.3-.16-2.94.06-.93-.06-2.35.03-3.69,0,0,0,0,0,0,.03-.49.08-.97.18-1.41.04-.19.1-.38.16-.56.22-.62.56-1.12,1.1-1.4.05-.02.1-.04.16-.06.71-.23,1.56.04,1.97.69.84-1.15,2.66-.89,3.18.42.38.83.5,1.75.6,2.65.74.64.84,1.7.99,2.62.79.16,1.24.81,1.32,1.49Z"/>
  <path class="cls-15" d="m11.3,52.44c.02.32-.06.61-.21.86-.27.44-.74.75-1.25.82-.29.05-.59.02-.86-.1-.08-.04-.16-.08-.24-.13-.09-.06-.18-.14-.26-.22-1.03-1.59-1.68-3.45-2.34-5.23-.43-1.1-1.6-3.65-2.25-5.95-.51-1.79-.71-3.44-.01-4.14-.05-1.8-1-7.57,1.34-7.95.36-1.37,2.13-1.44,2.89-.55.22.26.35.59.35,1-.01.52-.06,1.04-.06,1.55,1.25-.35,2.48,1.03,1.94,2.23-.18.33-.31.68-.41,1.03-.19.7-.24,1.44-.27,2.17.12.8.37,1.79.63,2.85.5,2.04,1.05,4.35.84,6.11-.06.53-.2,1.02-.43,1.42.08.23.17.46.2.69.03.23.01.46-.04.68-.08.1-.14.21-.16.33-.15.15-.29.31-.38.49.08-.05.16-.1.25-.14,0,0,.02.01.03.02.1.26.22.53.33.79.18.43.34.87.38,1.34Z"/>
  <path class="cls-15" d="m45.22,32.9c.01.53,0,1.06-.02,1.59-.02.35-.04.71-.08,1.06-.03.16-.09.31-.17.45,0,0,0,.02-.01.02-.08.13-.17.25-.28.35-.17.17-.37.3-.6.39-.67.27-1.49.16-1.97-.49.16,1.19-.9,2.41-2.13,2.07-.2.39-.55.7-1,.84-.04.01-.08.02-.12.03.05.86-.25,1.79-1.07,2.18.06.5-.01.92-.17,1.27-.28-.3-.71-.78-1.06-.97-1.25-1.39-3.5-.94-5.15-.46-1.1.33-2.22.58-3.36.77-.62.1-1.27.19-1.93.26h0s-.03-.01-.04-.02c-.16-.06-.31-.14-.44-.24-.01.11-.04.21-.06.3-.55.04-1.1.05-1.63,0-.62-.05-1.24-.1-1.86-.13,0-.04-.02-.09-.02-.14-.05.05-.1.09-.15.13-.33,0-.67,0-1,.02-.28.04-.57.07-.86.1-.48-.26-.86-.72-.95-1.3h0c-.56,1.9-3.34,1.39-3.34-.54-.32-.05-.58-.19-.8-.39-.18-.17-.33-.37-.44-.59-.13-.25-.21-.53-.25-.81-.07.08-.15.15-.23.21-.86.64-2.19.22-2.59-.79-.02-.06-.04-.12-.06-.18-.14-.54-.06-1.12-.04-1.66-.66.05-1.1-.18-1.39-.57-.52-.69-.55-1.85-.38-2.72-1.53.89-2.55-.25-2.7-1.63-.02-.21-.03-.43,0-.64-.05.4-.1.8-.15,1.2-.06.47-.12.94-.18,1.41,0,0,0,0,0,0-.17,1.37-.3,2.75-.24,4.12.11.84.23,1.68.38,2.51.05.29.11.59.17.88.34.63.45,1.43.15,2.03-.15.31-.41.56-.79.72-1.2.37-1.88-.17-2.3-1.06-.61-1.31-.64-3.39-.88-4.48-.24-1.86.1-3.72.28-5.57.34-3.78,1.16-7.51,2.5-11.07-.26-2.01,1.1-3.81,1.67-5.65.57-1.84,1.11-3.94,2.11-5.57.57-1.12,1.71-2.35,3.06-1.61.42.23.68.57.83.97.27.73.18,1.64.11,2.39.02.01.04.03.06.04.11.08.21.18.29.28.65-.34,1.51-.16,1.99.4.67-.53,1.74-.42,2.29.23.34-2.01,3.28-1.98,3.38.11-.07,1.19-.48,2.34-.69,3.51.24.15.44.36.58.6.11-.48.19-.97.35-1.44.58-1.62,3.15-1.2,3.2.52.02.02.04.03.06.05.24-.08.5-.12.74-.09.28.03.55.14.78.3,1.11-.91,2.79.01,2.74,1.41.04.02.07.04.11.06.23-.13.49-.21.76-.21.07,0,.14,0,.22,0-.04-.86.09-1.86.98-2.23.03-1.21,1.26-1.86,2.24-1.57.3.09.58.27.8.55.05.06.09.13.13.2.25-.1.53-.14.81-.11.07,0,.13.02.2.03.19.05.37.13.53.23.04-.24.13-.46.27-.65.48-.67,1.47-.95,2.21-.47.91-.58,2.19-.04,2.47.99.4.04.79.21,1.06.5.03,0,.07,0,.1.02.03,0,.05.01.08.02.14.03.26.07.38.13.11.05.21.12.3.19,0,0,.02.01.02.02.6.51.7,1.45.74,2.37,0,.01,0,.02,0,.04.02.5.02.99.07,1.41.2,2.13.49,4.25.78,6.36,0,.04,0,.08.01.12.02.23.05.46.07.69.07.66.15,1.32.23,1.98.17,1.47.32,2.95.35,4.42Z"/>
  <path class="cls-15" d="m16.44,53.38c-.11.11-.23.22-.36.32-.09,1.26-.75,2.92-2.31,2.53-.87-.22-1.86-1.39-2.69-2.93-.3-.56-.59-1.17-.84-1.8-.63-1.58-1.05-3.3-1.08-4.7-.02-1.22.27-2.2.98-2.67-.1-1.13-.05-2.29.13-3.43.09-.56.21-1.12.36-1.67.15-.4.43-.73.78-.95.68-.42,1.59-.44,2.2.2.16.18.29.38.39.59.14.29.24.62.31.95.09.43.13.87.16,1.28.02.05.04.11.07.16.39.99.64,2.03.88,3.06-.14.15-.27.29-.4.44-.23.3-.46.6-.69.9-.57.74-1.17,1.5-1.79,2.17-.39.43-.77.87-1.16,1.32-.2.12-.4.27-.54.45-.08.1-.14.21-.16.33-.15.15-.29.31-.38.49.08-.05.16-.1.25-.14,0,0,.02.01.03.02.01,0,.03.02.04.02,0,0,0,0,0,0,0,0,.01,0,.02,0,0,0,.01,0,.02,0,0,0-.01,0-.02,0,.01,0,.02,0,.04,0,.03,0,.05.02.08.02-.02.01-.03.03-.04.05.03,0,.05-.01.08-.02,0,0,0,0,0,0-.02,0-.04.02-.06.03.03,0,.05,0,.08,0,.13.34.6.5.91.26.12,0,.24,0,.36-.03.38.15.72.38,1.04.63.31.24.6.5.92.71.83.46,1.63.84,2.42,1.37Z"/>
  <path class="cls-15" d="m45.07,33.11c.01.41,0,.85,0,1.31-.02.5-.05,1.04-.1,1.59v.02c-.03.37-.07.74-.11,1.13-.42,3.86-1.32,8.22-1.84,9.62-.19.54-.41,1.06-.65,1.58-.04.1-.09.2-.14.3-.35.74-.71,1.47-1.05,2.22-.46,1.46-1.51,3.72-3.39,2.93-.19.7-.45,1.68-.87,2.44-.04.07-.08.14-.13.21-.1.16-.21.31-.34.43-.17.17-.35.31-.56.39,0,0,0,0-.01,0-.1.04-.21.07-.33.08,0,0-.01,0-.02,0-.07,0-.15,0-.23,0-.04,0-.08,0-.13-.01-.03,0-.05,0-.08-.01h0s0,0,0,0c-.06-.01-.11-.03-.17-.05-.02,0-.05-.02-.07-.02-.03-.01-.06-.02-.09-.04-.05-.02-.1-.04-.14-.07-.07-.04-.15-.08-.23-.12-.76.42-1.84.12-2.28-.64-.21,1.09-1.37,2.02-2.46,1.5-.14.09-.3.15-.48.2-.07.02-.13.03-.2.04-.13.17-.28.31-.44.45-.16.14-.36.24-.57.3-.18.22-.4.4-.66.52,0,0-.01,0-.02,0,0,0,0,0,0,0-.04.02-.09.04-.13.05-.1.03-.2.06-.31.07-.14.02-.27.02-.41,0-.06.14-.14.28-.23.4-.03.04-.07.08-.1.12-.07.07-.14.13-.22.19-.07.05-.15.1-.24.14,0,0,0,0-.01,0,0,0,0,0,0,0,.09.32.11.66.04.98-.03.15-.07.29-.13.42,0,.02-.02.04-.03.06h0s-.05.09-.07.14c0,.01-.01.02-.02.04,0,.01.01.03.02.04.03.08.07.15.1.23.01.03.03.07.04.1,0,.02.02.04.02.06.04.1.07.2.09.31.06.24.08.49.05.73,0,.04,0,.08-.02.11-.02.13-.05.25-.1.37.01.02.02.04.03.06.04.06.07.12.11.18.02.03.03.05.05.08.09.14.19.28.29.43,0,.01.02.03.03.04,0,0,0,0,0,0,.06.09.12.17.18.26.05.08.11.15.16.23t0,0c.03.05.07.1.1.15.02.04.05.07.07.11.09.13.17.27.24.41.02.04.04.08.06.12,0,.02.02.03.03.05.02.04.04.08.06.12.03.07.06.15.09.22,0,.03.02.05.03.08.03.08.05.16.07.25,0,.01,0,.02,0,.04,0,0,0,0,0,.01.03.12.04.24.04.37,0,.13,0,.26-.02.39,0,0,0,.01,0,.02,0,.01,0,.03,0,.04,0,0,0,0,0,.01,0,0,0,.01,0,.02,0,0,0,0,0,0-.06.21-.14.39-.25.54,0,0-.01.02-.02.03-.01.02-.02.03-.04.05-.02.03-.05.06-.07.08-.03.04-.07.07-.11.1-.06.06-.13.11-.21.15-.01,0-.02.01-.03.02,0,0,0,0,0,0,0,0-.01,0-.02.01-.06.03-.12.06-.18.09-.01,0-.02,0-.03.01,0,0,0,0-.01,0,0,0-.01,0-.02,0,0,0-.02,0-.02,0,0,0-.02,0-.03,0-.02,0-.03.01-.05.01,0,0,0,0,0,0-.01,0-.02,0-.03,0-.02,0-.03,0-.05.01-.01,0-.03,0-.04,0h-.02s-.02,0-.03,0c-.08.01-.15.02-.23.03,0,0,0,0,0,0,0,0,0,0-.01,0-.01,0-.03,0-.04,0,0,0,0,0,0,0-.02,0-.05,0-.07,0,0,0,0,0-.01,0,0,0-.01,0-.02,0-.02,0-.04,0-.07,0,0,0-.01,0-.02,0-.02,0-.04,0-.07,0,0,0-.02,0-.03,0,0,0,0,0-.01,0-.04,0-.09-.01-.13-.02-.03,0-.05-.01-.08-.02-.04,0-.08-.02-.12-.03h-.01s-.07-.03-.1-.04c-.02,0-.04-.01-.06-.02-.02,0-.04-.02-.07-.03-.11-.05-.22-.12-.33-.19-.15-.11-.29-.25-.41-.4-.56-.55-1.1-1.11-1.63-1.67-.48-.51-.95-1.02-1.43-1.52,0,0,0,0,0,0-.85-.9-1.71-1.78-2.64-2.6-.04-.04-.08-.07-.13-.11-.06-.05-.12-.1-.18-.14-.22-.17-.43-.34-.63-.5l-.1-.08c-.57-.47-1.08-.91-1.61-1.38-.27-.25-.55-.5-.84-.77-.32-.26-.65-.5-.98-.74-.48-.34-.98-.67-1.46-1.01-.2-.14-.4-.28-.59-.43-.27-.2-.54-.42-.8-.64-.22-.17-.46-.37-.69-.59-.57-.54-1.14-1.2-1.39-1.89-.04-.11-.07-.23-.1-.34-.12-.59.02-1.19.63-1.71.25-.14.5-.31.75-.47.22-.15.45-.29.67-.4.66-.33,1.32-.41,2.03.36.05-.06.1-.12.15-.17.31.24.6.5.92.71.83.46,1.63.84,2.42,1.37.12.08.24.16.36.25,1.05.79,2.28,1.23,3.51,1.64,1.38.64,2.97.74,4.48.9.84.08,1.66-.1,2.49-.17,1.67-.12,3.29-.47,4.87-1.08,1.43-.45,2.65-1.45,3.92-2.26.98-.57,1.75-1.41,2.6-2.14.64-.57,1.37-1.02,2.07-1.51.12-.08.27-.15.38-.24.05.03.09.05.14.07-.53-.71-.76-1.6-1.12-2.41-.62-1.28-1.32-2.56-2.35-3.56-.05-.04-.11-.11-.19-.2-.28-.3-.71-.78-1.06-.97-1.25-1.39-3.5-.94-5.15-.46-1.1.33-2.22.58-3.36.77-.62.1-1.27.19-1.93.26h0c-.18.02-.37.03-.55.05-.55.04-1.1.05-1.63,0-.62-.05-1.24-.1-1.86-.13-.06,0-.12,0-.17,0-.33,0-.67,0-1,.02-.28.04-.57.07-.86.1-.65.06-1.31.1-1.95.21-1.03.33-1.92,1.02-2.67,1.82-.14.15-.27.29-.4.44-.23.3-.46.6-.69.9-.18-.46-.35-.92-.51-1.38-.06-.19-.13-.39-.19-.61-.41-1.27-.85-2.87.61-3.5.01-.12.04-.25.09-.37.04-.12.1-.24.17-.35.18-.27.43-.5.73-.63.2-.09.41-.13.62-.13-.01-.36.11-.7.31-.98.44-.59,1.26-.91,1.98-.59,1.1.44,1.22,1.79,1.7,2.74.01,0,.03,0,.04-.01.07-.02.13-.03.2-.04-.06-.74-.15-1.49-.18-2.23-.07-1.9,2.76-2.35,3.26-.51.34,1.59.49,3.22.75,4.83.21-.19.46-.33.73-.4.17-1.02,1.36-1.65,2.29-1.21.14-1.08,1.41-1.75,2.38-1.24.61-1.88,3.48-1.26,3.26.71.39.07.72.26.96.54.37-1.68.84-4.79,3.26-3.37.38-1.87,2.87-2.37,3.44-.37.21-.17.46-.28.72-.33.58-2.1.25-4.24.27-6.39.04-4.19.17-8.44-.48-12.58-.15-.53-.06-.98.17-1.34.28-.43.77-.7,1.28-.76.02,0,.05,0,.07,0,.11,0,.22,0,.32,0,.11.01.21.03.31.07.07.02.14.05.2.08.37.18.67.51.83,1.02.1.54.19,1.08.26,1.63,0,.02,0,.03,0,.05.34,2.58.39,5.2.38,7.81,0,.24,0,.48,0,.72,0,.59,0,1.18-.01,1.77,0,.8,0,1.59,0,2.38.33.4.48,1.27.52,2.42Z"/>
  <path class="cls-15" d="m2.73,36.62c-2.11-.93-1.45-5.68-1.59-7.63-.1-1.32-.68-2.81-.64-4.1.07-2.79,1.77-5.5,4.09-6.94.7-.46,1.46-1.11,2.35-.86.97.22,1.54,1.32,1.23,2.25-.51,1.42-1.21,2.77-1.8,4.16-.56,1.25-1.06,2.53-1.28,3.89-.19,1.1-.28,2.21-.34,3.32-.01.28-.13.55-.3.78.04.8.02,1.73.23,2.48,1.07,1.28-.42,3.34-1.96,2.66Z"/>
  <path class="cls-15" d="m44.14,36.82c-.34-.27-.57-.66-.62-1.09-.06-.44.06-.9.34-1.25.04-.06.09-.11.14-.16.01-.02.03-.04.04-.05.22-.25.43-.49.65-.74.16-.18.33-.36.49-.55.16-.26.36-.5.64-.64.26-.13.52-.22.82-.22.3,0,.6.08.85.23.25.15.45.36.6.6.19.32.24.67.21,1.04-.03.31-.16.58-.34.82-.11.22-.21.43-.32.65-.15.3-.29.59-.49.87-.28.38-.73.61-1.18.71-.19.04-.39.08-.59.12-.08.01-.16.02-.24.02-.36,0-.74-.14-1.01-.36Z"/>
  <path class="cls-15" d="m45.18,34.48c-.66-.31-.75-1.03-1.11-1.59-.26-.64-.3-1.34-.42-2.01-.11-1.03-.29-2.09-.1-3.12.14-.63.63-1.15,1.27-1.3.88-.59,2.21-.04,2.45.98.57.48.55,1.28.58,1.97.03.76.25,1.43-.03,2.14-.02.83.05,1.76-.46,2.46-.5.68-1.45.88-2.19.48Z"/>
  <path class="cls-15" d="m47.04,36.02c-.53-.24-.14-.84,0-1.21.08-.25.11-.51.14-.77-.22-.22-.12-.56-.12-.84-.39-.2-.3-.73-.36-1.1,0-.47-.18-1.19.3-1.48,0-.06,0-.12-.01-.17-.23.18-.58.06-.66-.22-.06-.24-.05-.49-.07-.73-.9.49-.73-.97-.8-1.47-.02.02-.04.03-.06.04-.15.64-.91.51-.94-.12-.27-1.87-.34-3.75-.46-5.64-.18-1.18-.29-2.37-.46-3.56-.13-.47.02-1.05.62-.83,7.44,3.24,4.62,5.93,4.69,12.35.45.26.11,1.03.13,1.46-.11,1.06-.31,2.13-.79,3.08-.25.43-.48,1.38-1.13,1.2Z"/>
  <path class="cls-15" d="m25.73,69.56c-2.84-2.22-.44-2.93-.54-1.82.27.4.57.8.96,1.08.48.28.07,1.01-.42.74Z"/>
  <path class="cls-15" d="m26.42,69.91c-.59-.07-2.66-1.45-1.82-2.06.3-.18.57.06.69.33.38.46.87.8,1.45.95.51.21.2.98-.31.79Z"/>
  <path class="cls-15" d="m26.32,70.24c-.25-.5-.4-1.09-.85-1.45-.39-.39.19-.98.59-.61.54.43.75,1.11,1.04,1.71.1.21-.01.47-.22.56-.21.09-.45,0-.56-.22Z"/>
  <path class="cls-15" d="m26.41,70.67c-.13-.09-.16-.25-.19-.4-.09-.42-.21-.84-.45-1.2-.28-.48.44-.91.72-.44.33.49.47,1.07.59,1.64.08.36-.39.63-.67.4Z"/>
  <path class="cls-15" d="m26.74,70.35c-.96-.36.54-2.15.91-2.59,1.02-1.43,2.14-2.81,3.5-3.93.25-.22.51-.43.77-.63.43-.34.96.31.52.66-.51.41-1.01.82-1.45,1.23-.88.85-1.66,1.79-2.37,2.78-.4.59-.93,1.09-1.23,1.74-.1.33-.18.86-.65.75Z"/>
  <path class="cls-15" d="m27.81,68.23c-.58-.19-.19-.92-.1-1.33.43-1.26,1.35-2.26,2.25-3.21,1.13-1.2,2.44-2.21,3.59-3.39.38-.39.99.19.61.59-.12.13-.26.26-.38.39-1.68,1.6-3.57,3.04-4.85,5.01-.19.33-.34.68-.46,1.04-.11.36-.1,1.01-.65.9Z"/>
  <path class="cls-15" d="m28.6,66.83c-.49-.44.25-.94.53-1.28.51-.54,1.08-1.1,1.62-1.58,1.12-1.1,2.3-2.14,3.52-3.12,1.03-.79,1.61-1.96,2.52-2.87.39-.39.99.19.61.59-.6.6-1.07,1.32-1.6,1.97-.64.74-1.44,1.32-2.19,1.95-.88.68-1.62,1.51-2.45,2.24-.6.57-1.2,1.15-1.76,1.76-.18.26-.48.59-.8.34Z"/>
  <path class="cls-15" d="m32.97,62.99c-.36-.31.17-.99.52-1.02,1.37-1.12,2.46-2.47,3.73-3.69,2.08-2.07,3.67-4.6,4.62-7.37.11-.34.65-.35.78-.01.05.11.04.22,0,.33-.13.4-.29.78-.45,1.16-.26.56-.48,1.14-.78,1.68-1.26,2.55-3.32,4.54-5.27,6.57-.63.67-1.29,1.31-1.99,1.9-.33.23-.74.83-1.17.46Z"/>
  <path class="cls-15" d="m26.64,67.73c-.37-.23-.33-.76-.43-1.14-.9.48-.79-1-.82-1.52-.5-.04-.43-.64-.43-1,.02-.87.03-1.78.07-2.62.02-.54.05-1.08.1-1.63.04-.28,0-.62.21-.84.25-.26.7-.09.73.27.02,0,.04,0,.07.02.06-.65.96-.51.85.13.02,0,.05,0,.07,0,.03-.04.06-.08.1-.11-.03-.47.48-.82.81-.39.01-.02.03-.04.05-.06,0-.14.02-.29.03-.43.02-.32.44-.49.68-.29.08-.11.2-.18.34-.19.05,0,.09,0,.13.02.09-.12.24-.19.39-.17.06,0,.12.03.16.05.01-.25.13-.53.42-.55.08-.08.18-.13.3-.13.1,0,.2.03.28.09.02,0,.04-.02.06-.02.03-.14.06-.28.1-.42.06-.2.24-.34.45-.32.03-.18.06-.35.1-.52.09-.43.75-.41.83.02.12.04.23.13.27.25.08-.4.34-.89.8-.57.28-.46.93-.12.78.38.1-.12.28-.17.42-.13.07.02.14.05.19.11.08-.44.74-.45.83-.01.07-.02.15-.02.22,0,.06.01.11.04.15.07.16-.6.33-1.2.54-1.79.09-.31.3-.73.69-.57.11-.37.36-.98.84-.67.12-.27.15-.68.5-.74.22-.27.71-.13.74.22.02,0,.04,0,.06,0,.08,0,.15.04.2.08.16-.49.32-.98.49-1.47.1-.31.21-.78.64-.7.02-.05.05-.09.08-.14.11-.17.38-.22.55-.11.17-.38.17-1.13.72-1.12.08-.26.1-.61.4-.7.27-.09.58.16.54.45-.12.86-.47,1.68-.63,2.53.04.22.03.47-.19.59-.22.57-.42,2.37-1.09,2.46-.17.49-.45,1.77-1.18,1.2-.22.49-.32,1.51-1.05,1.42-.14.17-.38.3-.59.21-.1.24-.19.51-.41.66-.13.3-.32.72-.7.69,0,0,0,0-.01.01-.09.1-.23.14-.37.12-.2.53-.3,2.11-1.18,1.6-.1.26-.11.63-.43.71-.1.32-.33.72-.72.63-.06.45-.5,1.06-.93.57-.03.03-.06.06-.09.08-.13.12-.34.12-.49.02-.08.26-.15.53-.36.72-.27.29-.77.04-.77-.34,0,0,0,0,0,0-.05.03-.1.05-.15.06-.07.34-.05.82-.43.98-.06.46-.72.65-.89.15-.01,0-.03.01-.04.02-.06.36-.03.91-.45,1.05,0,.42-.32.9-.75.59,0,.09-.02.18-.06.27-.05.1-.12.18-.23.23-.04.38-.16.98-.66.93.02.46-.4,1.03-.85.6-.13.19-.38.27-.59.16Z"/>
  <path class="cls-15" d="m41.69,52.53c-.36-.41.18-.89.37-1.25-.72-.14-.21-.94-.11-1.38.22-.97.39-1.94.6-2.91-.03-.04-.04-.08-.06-.12-.06-.24.01-.5.08-.73-.09-.12-.12-.28-.07-.42.16-.44.32-.94.46-1.36.36-1.08.63-2.19.94-3.27,0,.01,0,.02,0,.04.27-1.52.49-3.04.76-4.56-.02-.62.79-.81.89-.15.02,0,.03-.01.05-.02.13-.04.27,0,.37.07.04-.27.02-.57.13-.81.15-.28.58-.29.74-.01.25.89.02,1.88,0,2.8-.08,1.36-.12,2.71-.38,4.05-.33,1.88-.94,3.69-1.47,5.51-.34.98-.91,1.85-1.51,2.69-.1.2-.14.47-.38.55-.18.35-.43.65-.62,1-.06.34-.5.57-.77.3Z"/>
  <path class="cls-15" d="m10.2,55.81s-.09-.08-.13-.12c-.26,0-.4-.24-.54-.43-.32-.32-.61-.68-.77-1.1-.21-.5.53-.84.77-.35.31.23.51.59.72.92.18.16.37.31.54.47.39.39-.19.98-.59.61Z"/>
  <path class="cls-15" d="m13.53,11.02c-1.06-.76-1.84-1.81-2.62-2.84-1.55-1.95-2.72-4.17-3.98-6.31-.11-.2.02-.47.22-.56.35-.15.57.18.68.46,1.3,2.11,2.43,4.32,4.01,6.23.65.85,1.31,1.71,2.19,2.34.44.33-.06,1.01-.51.68Z"/>
  <path class="cls-15" d="m14.23,11.24c-1.01-.9-1.76-2.05-2.6-3.1-1.36-1.74-2.67-3.6-3.94-5.38-.33-.43.32-.96.66-.52.09.12.18.25.26.37,1.46,2.05,2.93,4.09,4.49,6.06.54.63,1,1.35,1.63,1.89.43.34-.06,1.01-.51.68Z"/>
  <path class="cls-15" d="m14.58,10.12c-2.3-2.21-4.12-4.83-6.43-7.02-.39-.38.19-.99.59-.61,1.48,1.36,2.7,2.97,4.04,4.46.78.82,1.48,1.72,2.3,2.49.44.34-.06,1.01-.51.68Z"/>
  <path class="cls-15" d="m14.21,10.48c-.74-.45-1.15-1.31-1.68-1.97-.54-.72-1.06-1.46-1.58-2.19-.68-.94-1.38-1.87-2.16-2.74-.15-.2-.42-.36-.43-.63,0-.49.61-.57.84-.18,1.59,1.72,2.86,3.7,4.26,5.58.35.46.66.96,1.08,1.35.5.22.18.98-.33.78Z"/>
  <path class="cls-15" d="m15.63,10.15c-.24-.04-.42-.22-.61-.35-.54-.45-1.04-.94-1.53-1.43-1.72-1.62-3.13-3.53-4.88-5.11-.17-.16-.17-.44,0-.6.16-.17.43-.16.6,0,.48.44.95.89,1.39,1.37,1.34,1.46,2.56,2.89,4,4.23.44-.17.71.39,1,.64.22.28.64.59.48.99-.07.17-.25.3-.44.26Z"/>
  <path class="cls-15" d="m16.77,9.99c-.19-.01-.34-.13-.47-.22-.74-.51-1.43-1.1-2.13-1.65-1.49-1.26-3.01-2.5-4.38-3.87-.57-.42-.03-1.21.5-.71.4.5.91.89,1.39,1.32.41-.08.91.53,1.27.72,1.49.69,2.89,1.63,4.41,2.3.63.17.46,1.03-.17.85-.14-.06-.28-.13-.42-.2-.04.06-.1.1-.16.13.22.2.46.41.61.68.15.3-.09.69-.43.66Z"/>
  <path class="cls-15" d="m12.9,7.65c-.04-.33-.22-.83.2-.99-.05-.13-.03-.28.04-.4-.07-.63.59-.56.99-.39.3.04.62-.18.9-.04.16.09.25.28.2.46.24.13.49.26.72.42.21.2.15.57-.11.7-.21.17-.49.08-.73.04-.47,0-.94-.01-1.41-.02.17.58-.71.81-.82.21Z"/>
  <path class="cls-15" d="m37.65,6.93c-.78-.55-1.68-.94-2.52-1.41-1.31-.52-2.65-.97-3.96-1.5-1.75-.61-3.6-.65-5.42-.83-1.55-.08-3.03.34-4.54.6-2.26.46-4.35,1.48-6.5,2.27-.32.71-1.19-.03-.72-.56.5-.33,1.2-.52,1.74-.71.66-.27,1.32-.54,1.97-.82,1.44-.57,2.94-.96,4.47-1.22,1.06-.22,2.13-.43,3.23-.41,2.46.14,4.99.3,7.26,1.35.9.37,1.83.64,2.73,1.01.91.46,1.82.92,2.68,1.46.62.32.19,1.2-.4.76Z"/>
  <path class="cls-15" d="m37.05,6.09c-.13-.14-.29-.26-.46-.34-.33.02-.8.03-.82-.41,0-.54.66-.45,1.03-.42.17.06.33.16.48.26,1.08.66.24,1.46-.24.91Z"/>
  <path class="cls-15" d="m37.34,6.76c-.82-1,1.23-1.81,1.84-2.34,1.43-1.05,2.89-2.04,4.33-3.05.1-.09.24-.12.36-.17.16-.1.32-.22.52-.16.38.08.43.66.07.79-.55.26-1.02.64-1.53.98-.78.55-1.59,1.03-2.32,1.64-.83.65-1.79,1.13-2.57,1.84.33.48-.39.97-.7.48Z"/>
  <path class="cls-15" d="m39.58,10.14c-.16-.16-.17-.44,0-.6.31-.31.59-.63.84-.99.7-1.39,1.51-2.72,1.97-4.21.44-1.12.93-2.24,1.67-3.2.33-.44,1,.06.68.51-.31.42-.6.86-.83,1.33-.57,1.12-.9,2.33-1.43,3.46-.42.82-.87,1.65-1.28,2.47-.28.45-.63.85-1,1.22-.16.16-.43.17-.6,0Z"/>
  <path class="cls-15" d="m39.52,10.61c-.18-.14-.22-.41-.08-.59.31-.41.62-.82.91-1.25.24-.37.45-.76.66-1.14.27-.38.42-1.04.94-1.12.2,0,.38.14.44.33.07.6-.41,1.11-.72,1.59-.31.76-.85,1.65-1.55,2.09-.13.2-.42.25-.61.1Z"/>
  <path class="cls-15" d="m42.3,15.28c-.35-1.39-.55-2.81-1.02-4.17-.09-.46-.74-1.13-.16-1.46.65-.26.82.99,1.03,1.4.42,1.31.63,2.66.95,3.99.15.53-.65.77-.81.24Z"/>
  <path class="cls-15" d="m43.65,17.79c-.79-1.79-1.38-3.68-2.33-5.4-.28-.47.44-.91.72-.44.23.38.44.78.61,1.19.59,1.43,1.18,2.87,1.76,4.3.22.5-.54.84-.77.34Z"/>
  <path class="cls-15" d="m42.38,16.83s-.05-.05-.07-.07c-.46-.17-.58-.88-.82-1.28-.03.52-.72.64-.91.15.08.61-.47,1.09-.91.54-.29-.53-.45-1.11-.65-1.68.05.54-.49,1-.89.5-.03-.01-.06-.03-.09-.05-.07.05-.16.09-.25.09,0,0-.02,0-.03,0-.05.32-.41.54-.7.37-.27-.2-.43-.51-.55-.82.04.34-.31.68-.64.48-.56-.41-.9-3.04-1.1-3.83-.3,1.63-.25,3.31-.65,4.93-.14.53-.95.33-.82-.2.36-1.5.33-3.06.59-4.58.13-.65.18-1.38.57-1.94-.04-.83-.35-2.37.43-2.9.25-.14.54-.01.69.21.05-.62.75-1.1,1.08-.38,0,0,.02,0,.03.01.01,0,.02,0,.03,0,.1-.38.5-.4.79-.21.48-.56,1-1.08,1.55-1.56.26-.22.63-.62.96-.3.24-.17.48-.5.81-.39.24-.17.55-.42.86-.27.41-.47.77-1,1.26-1.39.3-.2.73.12.63.46-.14.34-.4.62-.58.95.18.63-1.14,2.53-1.45,3.27-.14.26-.3.51-.42.79,0,.45-.2.89-.52,1.21,0,.11-.01.22-.04.33-.02.07-.03.14-.06.21.33,0,.52.18.62.48.14.3.28.6.41.91.56,1.28,1.09,2.56,1.21,3.95.14.55.81,2.52-.4,2.05Z"/>
  <path class="cls-15" d="m30.08,19.41s-.05-.08-.07-.13c-.35.2-.64-.13-.72-.45-.28.31-.72.05-.77-.32-.37-.16-.39-.73-.54-1.06-.09.05-.2.06-.3.04-.01,0-.02,0-.03,0-.04.33-.52.47-.73.21-.12.29-.53.35-.72.1-.22-.33-.32-.73-.45-1.1-.02-.02-.04-.03-.06-.05-.04.31-.37.53-.66.36-.15.26-.51.32-.72.1-.22-.26-.29-.61-.41-.93-.02,0-.04,0-.06,0,.01,1.11-.95,1.24-1.11.11-.01,0-.03.01-.04.02-.14.05-.32.04-.44-.06.03.93.18,1.89.02,2.81-.07.35-.56.42-.77.15-.17-.27-.18-.61-.25-.91-.48-.36-.49-1.14-.64-1.68-.14.23-.44.37-.68.19-.43-.42-.3-1.24-.39-1.8-.63.25-.7-.53-.68-.97-.06.51-.56,1.07-.94.47-.14-.58-.02-1.19,0-1.77,0,0,0,0,0,0-.06.14-.15.29-.29.37-.11.53-.42,1.86-1.18,1.26-.07.15-.18.29-.34.34-.09.03-.19.02-.28,0-.1.37-.56.71-.86.34-.22-.31-.1-.73-.1-1.09-.06-.04-.11-.09-.15-.15-.04,0-.07,0-.11-.01-.17.33-.67.5-.89.13-.18.18-.44.3-.68.2-.28.23-.71.02-.73-.34.04-.86.33-1.69.53-2.52.19-.73.49-1.43.74-2.14.25-.54.62-1.93,1.43-1.55.13-.29.29-.67.65-.69.15-.36.13-.92.54-1.08.25-.08.53.11.55.37.07-.02.14-.02.21,0,.07.02.13.05.18.1.08-.02.17-.02.25,0,.08-.45.68-.58.85-.13.07-.04.16-.06.25-.05.14.02.26.1.32.22.05,0,.09.02.13.04.02,0,.04,0,.07,0,.05-.16.08-.33.15-.47.32-.48.95-.08.76.43.05.02.11.05.15.09,0,0,0,0,.01.01.07-.16.26-.26.43-.24.37.04.42.44.36.73.09-.33.14-.84.58-.83.35,0,.49.35.42.65.06,0,.13,0,.19.03.1.04.18.12.23.22.2-.95,1.1-.82,1.05.15.01,0,.02.01.04.02,0,0,0,0,.01,0,.1-.31.56-.36.74-.09-.02-.49.63-.78.87-.3.06.14.07.29.1.43.03,0,.06,0,.08.01.11.03.19.09.25.18.07,0,.14,0,.2.02-.04-.27-.02-.6.29-.69.2-.06.42.04.51.24.06.15.06.32.09.48-.04-.49.48-.89.83-.42.15.27.12.61.16.91.05-.02.1-.03.15-.04-.03-.3-.09-.54.04-.82.12-.3.53-.35.74-.1.16,0,.3.07.39.2.05.07.07.15.09.23.2-.36.75-.33.9.06.43-.45.83.03.85.5.01-.01.02-.02.04-.03-.04-.5-.07-1.7.74-1.35.09-.34.56-.54.81-.24.16-.34.62-.41.88-.13.68-.22,1.14.48,1.43.99,1.24.78,1.4,4.05,1.63,5.44.07.88.33,1.8.11,2.67-.46.76-1.08-.12-1.34-.58-.07.09-.18.15-.3.16.03.56.68,1.94-.03,2.2-.65.18-.97-1.35-1.22-1.8-.06.07-.13.11-.22.14-.15.04-.32,0-.43-.12-.04.32-.42.55-.69.33-.16-.13-.25-.33-.35-.51.03.49.3,1.46-.43,1.51.06.51.75,1.84-.22,1.79-.03.03-.07.06-.12.08-.07.03-.14.04-.21.03.06.26.19.53.13.8-.07.36-.6.43-.77.12Z"/>
  <path class="cls-15" d="m26.91,8.19c-.03-.06-.04-.13-.03-.19-.06-.03-.11-.08-.15-.15-.05-.08-.06-.16-.06-.24-.44.12-.98.56-1.41.25-.22.11-.44.21-.67.31-.29.14-.64-.13-.59-.44-.43.15-1.02.77-1.46.46-.34.14-.74-.16-.62-.52-.45.16-1.05.7-1.51.36-.26-.26-.08-.64.2-.8-.47.14-1.35.93-1.7.32-.4.17-.79.39-1.22.48-.39.08-.65-.44-.37-.71.15-.14.35-.22.54-.32-.5.23-1,.46-1.51.68-.33.21-.88.18-.86-.32-.31.03-.54-.32-.42-.6-.06-.05-.11-.12-.13-.2,0,0,0,0,0,0-.02,0-.05,0-.07.01-.09.02-.19,0-.27-.05-.2.07-.39.13-.59.19-.46.14-.75-.52-.34-.77.76-.34,1.56-.61,2.31-.98,1.21-.57,2.46-1.03,3.68-1.56.37-.15.73-.31,1.11-.42.42-.13.74.45.39.73.43-.11.86-.22,1.29-.34.4-.05,1.15-.48,1.47-.24.48-.11.94-.32,1.42-.38.16-.04.33-.06.47.03.65.05,1.29.13,1.93.24.07-.03.13-.05.2-.07.18-.05.38.02.48.18.82.14,8.23,1.33,7.62,2.35.31.03.55.23.86.25.27,0,.55.21.5.51.46.31,1.08.6,1.29,1.14.05.25-.17.48-.41.49-.9-.23-1.74-.68-2.61-1-1.28.38-2.63.73-3.97.74-.82.21-1.64.41-2.46.61-.37.06-.87.35-1.16-.02-.38.09-.95.52-1.2,0Z"/>
  <path class="cls-1" d="m17.82,61.98c-.85-.68-1.65-1.43-2.58-2.02-.96-.62-1.83-1.37-2.71-2.08-.29-.35.15-.86.54-.63.39.22.69.54,1.04.82.12-.24.48-.31.67-.11.31.34.62.69.98.98.41.43,2.75,1.6,2.4,2.18.25.18.48.53.22.8-.14.15-.39.17-.56.04Z"/>
  <path class="cls-1" d="m17.34,61.5c-1.79-1.3-3.56-2.62-5.32-3.95-.44-.33.06-1,.51-.68.38.27.76.55,1.13.83,1.36,1.1,2.81,2.05,4.2,3.11.44.34-.06,1-.51.68Z"/>
  <path class="cls-1" d="m18.13,62.01c-1.42-1.16-2.89-2.27-4.28-3.47-.3-.36-1.33-.82-.87-1.35.16-.17.43-.17.6,0,.37.32.73.65,1.1.97,1.29,1.09,2.64,2.12,3.95,3.19.43.34-.06,1.01-.51.68Z"/>
  <path class="cls-1" d="m17.89,61.58c-1.7-1.26-3.25-2.7-4.8-4.14-.39-.39.19-.98.59-.61.34.3.67.61.99.92,1.18,1.12,2.42,2.18,3.72,3.15.44.33-.06,1-.51.68Z"/>
  <path class="cls-1" d="m19.73,62.42c-2.29-1.67-4.49-3.46-6.71-5.23-.44-.33.06-1,.51-.68.22.16.44.33.65.5,1.57,1.34,3.24,2.57,4.86,3.85.4.29.8.58,1.19.88.44.33-.06,1.01-.51.68Z"/>
  <path class="cls-1" d="m21.16,63.77c-2.09-1.81-4.38-3.39-6.56-5.08-.43-.34.06-1.01.51-.68,2.21,1.72,4.53,3.32,6.65,5.16.39.39-.19.99-.59.61Z"/>
  <path class="cls-1" d="m21.82,65.25c-2.13-1.75-4.28-3.54-6.05-5.67-.14-.18-.11-.45.07-.59.42-.31.71.23.95.5,1.19,1.35,2.53,2.54,3.89,3.71.54.47,1.07.96,1.65,1.38.44.33-.06,1-.51.68Z"/>
  <path class="cls-1" d="m21.66,65.5c-1.82-1.64-3.57-3.35-5.38-5-.39-.38.19-.99.59-.61,1.34,1.24,2.67,2.49,4,3.74.45.43.9.85,1.37,1.26.39.39-.19.98-.59.61Z"/>
  <path class="cls-1" d="m21.81,64.27c-1.41-1.09-2.83-2.18-4.17-3.36-.32-.28-.66-.55-.99-.83-.18-.14-.23-.41-.08-.59.47-.52.97.33,1.37.56,1.4,1.25,2.89,2.4,4.38,3.54.44.33-.06,1-.51.68Z"/>
  <path class="cls-1" d="m21.74,63.8c-1.05-.74-2.11-1.49-3.16-2.24-.39-.29-.77-.59-1.16-.89-.18-.14-.22-.41-.08-.59.14-.18.41-.23.59-.08.37.29.74.59,1.12.87,1.06.76,2.12,1.51,3.19,2.26.44.33-.06,1.01-.51.68Z"/>
  <path class="cls-1" d="m21.51,63.5c-1.45-.88-2.83-1.87-4.15-2.95-.44-.34.06-1,.51-.68.26.2.52.42.78.62,1.05.82,2.14,1.57,3.28,2.26.48.28.07,1.01-.42.74Z"/>
  <path class="cls-1" d="m21.42,63.12c-1.15-.76-2.25-1.61-3.45-2.29-.48-.27-.07-1,.42-.74,1.2.68,2.31,1.52,3.45,2.29.48.28.07,1.01-.42.74Z"/>
  <path class="cls-1" d="m21.25,63.15c-1.54-1.07-3.29-1.87-4.66-3.17-.22-.26-.01-.68.32-.69.38.04.7.32,1.03.49.81.48,1.65.92,2.44,1.42.3.21.9.38.75.85.21.13.43.26.62.42.44.34-.06,1-.51.68Z"/>
  <path class="cls-1" d="m20.59,61.32c-1.03-.7-2.02-1.46-3-2.2,1.25.3,2.2,1.26,3,2.2Z"/>
  <path class="cls-1" d="m20.98,61.57c-.6-.42-1.2-.85-1.8-1.29-.75-.58-1.45-1.2-2.18-1.78,1.61.56,2.88,1.82,3.98,3.07Z"/>
  <path class="cls-1" d="m21.25,61.76c-.54-.44-1.06-.91-1.61-1.32-.55-.42-1.11-.81-1.64-1.26-.35-.31-.69-.63-1.08-.88,1.74.4,3.29,2.08,4.33,3.46Z"/>
  <path class="cls-1" d="m21.55,62.05c-1.16-1.11-2.55-1.96-3.77-2.99-.34-.29-.63-.64-1.03-.85.82.08,1.51.64,2.18,1.09,1.01.76,1.92,1.71,2.62,2.75Z"/>
  <path class="cls-1" d="m22.29,62.96c-1.3-1.41-2.3-3.08-3.68-4.42,1.99.6,2.86,2.7,3.68,4.42Z"/>
  <path class="cls-1" d="m22.86,63.92c-.51-.71-1.08-1.36-1.61-2.05-.91-1.19-1.82-2.38-2.75-3.56,1.58.73,2.6,2.24,3.41,3.73.34.61.7,1.23.95,1.88Z"/>
  <path class="cls-1" d="m22.9,63.75c-.46-.73-.92-1.45-1.36-2.2-.45-.79-.71-1.64-1.24-2.36,1.45.62,2.18,3.14,2.6,4.56Z"/>
  <path class="cls-1" d="m23.19,64.54c-.22-.67-.44-1.32-.75-1.94-.63-1.13-1.23-2.21-1.78-3.36-.05-.13-.1-.26-.15-.39.11.11.21.24.31.36.52.51.91,1.11,1.25,1.75.62,1.1,1.12,2.32,1.12,3.59Z"/>
  <path class="cls-1" d="m23.99,65.38c-.68-1.22-1.3-2.47-1.91-3.72-.4-.77-.58-1.63-.88-2.42,1.59,1.62,2.19,4.03,2.8,6.14Z"/>
  <path class="cls-1" d="m23.91,65.54c-.97-2.01-1.81-4.14-2.24-6.33,1.53,1.74,1.76,4.16,2.24,6.33Z"/>
  <path class="cls-1" d="m24.13,66.43c-.6-1.48-1.15-2.97-1.59-4.5-.27-1.06-.4-2.1-.54-3.18.56.88.83,1.91,1.11,2.91.44,1.56.75,3.18,1.02,4.77Z"/>
  <path class="cls-1" d="m24.46,65.81c-1-1.31-1.93-4.47-1.61-6.09.24.81.56,1.59.76,2.41.35,1.22.37,2.51.85,3.68Z"/>
  <path class="cls-1" d="m24.43,65.63c-.46-.78-.74-1.67-.97-2.54-.3-1.06-.15-2.18-.15-3.24.5.76.5,1.76.67,2.64.12,1.05.23,2.12.45,3.15Z"/>
  <path class="cls-1" d="m24.31,65.35c-.7-1.53-.85-3.27-.52-4.91,0-.03,0-.06.02-.08.01.14.01.29.02.43.06,1.53.38,3.05.48,4.57Z"/>
  <path class="cls-1" d="m24.43,65.8c-1.08-1.78-1.02-4.69-.62-6.68.66,2.17.1,4.5.62,6.68Z"/>
  <path class="cls-1" d="m25,66.93c-1.1-2.41-1.22-5.15-.87-7.73.51,1.56.5,3.28.55,4.9.05.95.18,1.9.32,2.83Z"/>
  <path class="cls-1" d="m25.08,67.38c-.84-2.45-1.3-5.2-.61-7.73.63,2.52.31,5.17.61,7.73Z"/>
  <path class="cls-1" d="m25.04,66.2c.02-2.19-.03-4.39-.19-6.57,1.13,1.95.71,4.49.19,6.57Z"/>
  <path class="cls-1" d="m25.16,66.85c-.14-.71-.03-1.46-.05-2.18.01-.8-.03-1.6.04-2.41.03-.66.07-1.33.05-1.99-.04-.31.09-.68-.1-.94.37.19.46.87.58,1.25.47,2.1-.23,4.21-.53,6.27Z"/>
  <path class="cls-1" d="m26.15,67.74c-.4-.97-.44-2.06-.54-3.1-.16-1.79.09-3.6.45-5.33.28.91.21,1.9.2,2.84-.03,1.86-.24,3.74-.11,5.59Z"/>
  <path class="cls-1" d="m26.21,67.22c-.7-2.39-.43-5.32.58-7.59.05-.13.44-.83.41-.66-.12,1.12-.34,2.23-.54,3.34-.24,1.62-.44,3.28-.46,4.91Z"/>
  <path class="cls-1" d="m26.54,67.49c-1.01-2.35.03-6.36,1.31-8.48-.11,2.83-1.6,5.6-1.31,8.48Z"/>
  <path class="cls-1" d="m26.49,67.4c-.47-.82-.39-1.81-.37-2.72.12-1.73.3-3.57,1.26-5.06.1-.14.23-.26.38-.35-.08.14-.14.29-.17.45-.2,1.13-.4,2.26-.63,3.38-.29,1.4-.76,2.86-.46,4.29Z"/>
  <path class="cls-1" d="m26.86,67.29c-.28-1.45-.25-2.97,0-4.42.3-1.32.87-2.58,1.64-3.69.06-.07.14-.14.22-.18-.1.15-.14.33-.17.49-.11.58-.28,1.17-.48,1.72-.63,1.97-1,4.03-1.21,6.08Z"/>
  <path class="cls-1" d="m27.34,68.04c-.78-2.62,0-6.42,1.81-8.47.07-.05.04-.03.1-.07-.03.05-.07.11-.09.18-.84,2.73-1.8,5.5-1.82,8.37Z"/>
  <path class="cls-1" d="m27.29,67.83c-.66-2.68,1.04-6.51,2.64-8.64.08-.12.2-.22.33-.26-.07.07-.14.16-.17.26-.91,2.88-2.62,5.58-2.8,8.64Z"/>
  <path class="cls-1" d="m27.37,64.89c-.5-2,.45-4.62,2.03-5.93,1.09-.97,2.58-.81,3.93-.8.13,0,.26-.03.37-.05-.49.34-1.11.47-1.66.65-1.47.44-2.59,1.58-3.46,2.79-.73.97-1.2,2.12-1.22,3.33Z"/>
  <path class="cls-1" d="m28.45,62.87c0-2.14,2.38-4.06,4.39-4.33-.22.12-.45.23-.67.36-1.12.64-2.03,1.56-2.81,2.58-.35.43-.72.86-.91,1.39Z"/>
  <path class="cls-1" d="m29.35,61.17c.46-1.67,2.31-2.45,3.85-2.84-1.34.84-2.79,1.66-3.85,2.84Z"/>
  <path class="cls-1" d="m30.49,60.69c1-.97,1.9-2.38,3.36-2.63-.38.24-.67.58-.99.9-.69.69-1.48,1.33-2.37,1.72Z"/>
  <path class="cls-1" d="m30.45,60.62c.77-.7,1.61-1.3,2.46-1.91.42-.31.85-.64,1.3-.9-.57.61-1.16,1.2-1.84,1.69-.61.4-1.25.82-1.91,1.12Z"/>
  <path class="cls-1" d="m31.72,60.57c.68-.82,1.3-1.68,1.98-2.5.42-.45.86-.95,1.4-1.24-.16.24-.28.49-.42.74-.7,1.24-1.66,2.36-2.96,2.99Z"/>
  <path class="cls-1" d="m32.59,60.63c.38-.75.69-1.53,1.17-2.22.53-.67,1.05-1.32,1.69-1.86-.59,1.45-1.63,3.11-2.86,4.07Z"/>
  <path class="cls-1" d="m33.34,60.94c.3-1.69,1.43-3.09,2.35-4.49-.07,1.77-1.51,3.05-2.35,4.49Z"/>
  <path class="cls-1" d="m33.62,60.64c.16-.55.5-1.04.79-1.53.71-1.21,1.54-2.34,2.41-3.44-.39,2.12-1.92,3.4-3.2,4.97Z"/>
  <path class="cls-1" d="m34.66,60.22c.25-.82.79-1.52,1.25-2.23.72-1.09,1.61-2.04,2.48-3.01-.49,2.18-2.46,3.54-3.73,5.24Z"/>
  <path class="cls-1" d="m34.84,59.67c-.05-.74.4-1.43.78-2.04.37-.55.82-1.04,1.35-1.44.57-.47,1.18-.9,1.86-1.18-.12.11-.27.21-.4.32-.96.78-1.81,1.69-2.55,2.67-.23.3-.44.61-.66.92-.17.24-.32.48-.38.76Z"/>
  <path class="cls-1" d="m35.63,58.26c.61-.86,1.24-1.7,1.96-2.47.7-.73,1.54-1.32,2.28-1.99-.44.83-1.08,1.47-1.68,2.16-.75.86-1.55,1.76-2.56,2.29Z"/>
  <path class="cls-1" d="m35.82,58.8c1.16-1.26,2.22-2.61,3.26-3.97.41-.54.76-1.11,1.19-1.64,0,0,0,0,0,0-.27.82-.65,1.66-1.15,2.35-.91,1.25-2.08,2.34-3.31,3.25Z"/>
  <path class="cls-1" d="m36.7,58.19c1.29-1.36,2.36-2.9,3.51-4.37-.41,1.89-1.92,3.37-3.51,4.37Z"/>
  <path class="cls-1" d="m38.27,57c.98-1.15,1.54-2.6,2.57-3.71-.27,1.5-1.26,2.93-2.57,3.71Z"/>
  <path class="cls-1" d="m38.93,56.91c.5-.94,1.05-1.87,1.6-2.79.26-.48.64-.87.8-1.38.1,1.69-1.34,3.03-2.4,4.17Z"/>
  <path class="cls-1" d="m39.74,56.01c.55-1.38,1.37-2.64,2.23-3.83-.05,1.56-1.27,2.73-2.23,3.83Z"/>
  <path class="cls-1" d="m39.72,56.19c.71-1.48,1.41-2.97,2.42-4.26-.22,1.67-1.34,3.05-2.42,4.26Z"/>
  <path class="cls-1" d="m26.96,69.63c.11-1.96,1.22-3.68,2.71-4.89,1.29-1.03,2.56-2.09,3.85-3.12,1.02-.78,1.87-1.74,2.75-2.66.69-.63,1.48-1.14,2.21-1.72.55-.48.97-1.07,1.38-1.67.19-.28.39-.55.6-.81-.03.12-.08.24-.12.36-1.16,3.38-1.39,3.12-3.77,5.45-1.48,1.6-3.19,2.93-4.88,4.29-1.78,1.36-3.6,2.8-4.74,4.76Z"/>
  <path class="cls-1" d="m27.6,66.46c-.08-.04-.16-.11-.21-.2-.09-.15-.09-.33-.03-.48,0,0,0,0,0,0,.1-.24.2-.48.31-.72.05-.11.1-.21.16-.31-1.34-.29.04-1.98.57-2.48.4-.72,1.05-1.93,1.86-2.11.47-.61,1.45-1.88,2.01-.65.12-.1.25-.2.4-.26.17-.08.36-.06.53.02.09-.01.18,0,.26.02.07.02.13.05.19.09.37-.44,1.42-1.81,2.03-1.64.28-.28.57-.56.88-.81,0,0,0,0,0,0,.33-.27.86-.02.87.4.36-.38.65-.82.97-1.24.34-.51.88-.74,1.35-.24.31.38-.07.84-.32,1.11-.32.37-.68.71-1.04,1.04-.32.29-.7.52-.96.88-.32.39-.64.79-1.01,1.13-.27.26-.66.54-1.03.3-.37.32-.81.58-1.1.98-.46.55-.93,1.09-1.42,1.61-.33.3-.85,1.02-1.34.74-.34.43-1.09,2.16-1.8,1.62-.03.02-.06.04-.09.06,0,0,0,0,0,0-.04.02-.08.04-.12.05,0,0-.02,0-.03,0-.17.28-.35.56-.6.77-.02.02-.05.04-.08.05-.24.51-.82.77-1.22.27Z"/>
  <path class="cls-1" d="m30.33,60.72c.33-.64.67-1.31,1.29-1.71.17-.11.44-.27.64-.14.23.16.1.5-.14.58-.08.03-.46.3-.31.11-.46.43-1,.78-1.49,1.15Z"/>
  <path class="cls-1" d="m24.12,65.7c-.92-.83-1.61-1.88-2.42-2.82-.27-.34-.53-.69-.79-1.04-.12-.11-.21-.35-.38-.35.12-.2.82.34,1,.49,1.18.98,1.82,2.42,2.59,3.71Z"/>
  <path class="cls-1" d="m22.85,65.3c-.91-.56-2.28-2.21-2.4-3.29.33.54.91.91,1.23,1.47.37.62.7,1.28,1.17,1.82Z"/>
  <path class="cls-1" d="m24.32,65.35c-.87-.85-1.67-1.77-2.61-2.54-.66-.53-1.17-1.21-1.82-1.74,1.94.61,3.49,2.54,4.43,4.28Z"/>
  <path class="cls-1" d="m23.7,64.3c-.94-.66-1.79-1.43-2.58-2.26-.3-.25-1.04-1.34-1.41-1.14.19-.32.59-.1.85,0,1.41.71,2.21,2.19,3.13,3.4Z"/>
  <path class="cls-1" d="m24.18,66.48c-1.37-.72-2.82-1.81-3.43-3.28-.16-.45-.43-1.05-.11-1.47-.06.36.22.63.38.93.9,1.39,2.07,2.6,3.16,3.83Z"/>
  <path class="cls-1" d="m24.3,68.11c-.57-.43-1.07-1.02-1.52-1.53-.61-.69-1.23-1.39-1.52-2.28-.14-.38-.29-.78-.19-1.19.05.11.07.26.13.37.55.88,1.17,1.68,1.86,2.45.44.56.81,1.17,1.19,1.77.17.22.31.49.54.66-.17,0-.34-.15-.48-.25Z"/>
  <path class="cls-1" d="m25.48,68.77c-1.19-.77-2.74-2.93-3.38-4.22,1.61.98,2.34,2.75,3.38,4.22Z"/>
  <path class="cls-1" d="m25.85,68.83c-1.45-1.45-2.63-3.19-3.64-4.97,1.76,1.19,2.6,3.21,3.64,4.97Z"/>
  <path class="cls-1" d="m25.14,67.8c-.63-.61-1.11-1.36-1.57-2.1-.23-.33-.35-.77-.63-1.04.33.04.56.37.79.58.7.71.98,1.7,1.41,2.57Z"/>
  <path class="cls-1" d="m26.48,69.2c-1.23-1.34-2.24-2.86-3.29-4.34-.49-.67-.81-1.45-1.33-2.09,2.01.98,3.51,4.51,4.62,6.43Z"/>
  <path class="cls-1" d="m25.1,68.1c-.71-1.06-1.52-2.12-2.24-3.16-.37-.51-.6-1.12-1.06-1.55.49.12.87.54,1.22.89.88.91,1.44,2.05,1.97,3.18.08.21.32.35.37.57.02.16-.2.22-.27.07Z"/>
  <path class="cls-1" d="m25.78,69.13c-.11-.09-.18-.21-.21-.34-.05-.02-.09-.04-.13-.08-.09-.07-.16-.17-.19-.29,0,0,0,0,0,0-.01-.05-.04-.08-.05-.13,0,0,0,0,0,0-.25-.45-.4-.95-.61-1.42-.29-.58-.62-1.15-.95-1.72-.35-.65-.77-1.27-1.11-1.93-.03-.09.08-.16.16-.1.37.34.63.78.92,1.18,0-.36.44-.6.74-.41.17.1.24.29.33.46.1-.07.21-.11.33-.11s.22.04.31.1c.16-.12.39-.16.58-.07.09.04.17.1.24.17.28-.16.65-.08.82.22.1.17.13.38.13.58.35-.13.72.19.67.56-.02.14-.06.27-.1.41-.01.72.17,1.83-.55,2.25,0,.01-.01.02-.02.03-.08.14-.21.23-.35.28-.08.41-.61.64-.95.37Z"/>
  <path class="cls-1" d="m26.04,69.27c-.89-.18-1.49-1.03-1.7-1.86.6.59,1,1.4,1.7,1.86Z"/>
  <path class="cls-1" d="m26.31,69.91c-.87-.51-1.56-1.33-1.89-2.28.65.74,1.21,1.57,1.89,2.28Z"/>
  <path class="cls-1" d="m26.46,70.96c-.7-1.16-1.65-2.16-2.18-3.41.47.52.94,1.04,1.33,1.63.34.56.64,1.16.85,1.77Z"/>
  <path class="cls-1" d="m26.64,71.36c-.53-1.11-1.13-2.19-1.66-3.3.95.93,1.41,2.01,1.66,3.3Z"/>
  <path class="cls-1" d="m26.65,72.18c-.38-1.14-.55-2.36-1.05-3.45.85.91.94,2.27,1.05,3.45Z"/>
  <path class="cls-1" d="m26.72,72.05c-.23-.86-.38-1.75-.48-2.63.38.82.46,1.74.48,2.63Z"/>
  <path class="cls-1" d="m26.62,71.58c-.22-.76-.13-1.54,0-2.31.1-.6.22-1.21.36-1.78-.02.56-.06,1.11-.11,1.66-.09.81-.31,1.62-.25,2.43Z"/>
  <path class="cls-1" d="m26.63,71.58c-.18-1.05-.02-2.12.44-3.08-.18,1.01-.22,2.07-.44,3.08Z"/>
  <path class="cls-1" d="m26.65,71.15c-.44-.79-.51-1.71-.45-2.59.22.85.36,1.72.45,2.59Z"/>
  <path class="cls-1" d="m26.16,70.33c-.18-.7-.16-1.44-.12-2.15.27.68.34,1.45.12,2.15Z"/>
  <path class="cls-1" d="m26.46,70.43c-.32-.82-.26-1.73.03-2.54.08.84.15,1.71-.03,2.54Z"/>
  <path class="cls-1" d="m26.55,70.02c-.22-1.15.04-2.4.75-3.33-.41,1.06-.48,2.24-.75,3.33Z"/>
  <path class="cls-1" d="m26.59,70.28c.01-1.04.43-2.03,1.2-2.74-.43.89-.67,1.9-1.2,2.74Z"/>
  <path class="cls-1" d="m26.69,70.65c.09-1.34.87-2.5,1.74-3.47-.51,1.18-.98,2.42-1.74,3.47Z"/>
  <path class="cls-1" d="m26.85,70.52c.05-.95.49-1.81,1.15-2.48-.36.83-.64,1.73-1.15,2.48Z"/>
  <path class="cls-1" d="m25.27,69.2c-.43-.45-.73-1-1.15-1.46-.27-.27.02-.74.38-.62-.06-.3-.14-.62-.22-.91.38.62.98,1.22,1.03,1.97.16.27.44.54.42.87-.03.22-.33.32-.47.14Z"/>
  <path class="cls-7" d="m23.46,66.7c-.95-.7-1.88-1.6-2.24-2.75.89.79,1.59,1.77,2.24,2.75Z"/>
  <path class="cls-7" d="m23.87,67.65c-1.01-1.1-2.48-2.24-2.81-3.76.39.57.92,1.03,1.34,1.58.54.71,1.05,1.41,1.47,2.18Z"/>
  <path class="cls-7" d="m22.18,66.47c-.15-.02-.27-.12-.34-.25-.3-.36-.53-.77-.87-1.09-.6-.58-1.18-1.18-1.76-1.78-.24-.24-.47-.5-.68-.76-.08-.1-.15-.22-.17-.35-.04-.29.17-.59.47-.63.24-.03.46.1.57.3.23.24.4.54.65.76.73.63,2,1.53,2.28,2.46.19.3.54.65.39,1.03-.09.21-.32.34-.54.29Z"/>
  <path class="cls-7" d="m21.06,64.48c-.96-.88-1.97-1.7-2.97-2.52-.9-.78-1.74-1.63-2.63-2.43,0,0,0,0,0,0,0,0,0,0,0,0-.43-.38-.86-.76-1.33-1.1.1.05.22.12.33.19,1.37.83,2.5,1.98,3.62,3.11.96.95,2.03,1.81,2.97,2.76Z"/>
  <path class="cls-7" d="m20.77,63.92c-.82-.68-1.73-1.23-2.58-1.85-.82-.59-1.61-1.26-2.37-1.93-.62-.55-1.25-1.11-1.79-1.74.71.45,1.44.88,2.1,1.41.78.61,1.47,1.31,2.2,1.98.77.75,1.7,1.36,2.45,2.13Z"/>
  <path class="cls-7" d="m19.69,62.75c-.85-.41-1.56-1.05-2.29-1.63-.83-.69-1.7-1.38-2.52-2.07-.36-.32-.71-.67-1.11-.93.49.11.93.34,1.35.6.57.35,1.12.74,1.62,1.19,1,.93,1.85,2.04,2.95,2.84Z"/>
  <path class="cls-7" d="m21.16,64.36c-.46-.36-.88-.77-1.31-1.15-.5-.44-1.03-.86-1.54-1.29-.92-.81-1.79-1.67-2.72-2.46,0,0,0,0,0,0,0,0,0,0,0,0-.36-.32-.73-.64-1.08-.94,1.53.78,2.8,1.96,3.96,3.2.88.89,1.84,1.72,2.68,2.64Z"/>
  <path class="cls-7" d="m25.55,68.97c-.57-.84-1.06-1.74-1.58-2.61-.7-1.11-1.39-2.25-1.8-3.49.72.97,1.38,1.95,1.95,3.01.52,1.01.94,2.08,1.44,3.1Z"/>
  <path class="cls-7" d="m25.34,68.77c-.48-.43-.82-1.03-1.22-1.54-.87-1.22-1.82-2.5-2.11-3.98.54.77,1.13,1.5,1.6,2.32.62,1.04,1.02,2.21,1.72,3.19,0,0,.01-.02.01-.01,0,0,0,.02-.02.02Z"/>
  <path class="cls-7" d="m26.36,70.62c-.91-1.17-1.72-2.43-2.52-3.68-.75-1.23-1.58-2.46-1.98-3.84.51,1.01,1.19,1.92,1.76,2.9.89,1.55,1.75,3.15,2.74,4.63Z"/>
  <path class="cls-7" d="m26.15,69.71c-.14-.33-.13-.7-.22-1.05-.14-.8-.32-1.57-.48-2.35,0,.01,0,.02,0,.03-.27-1.2-.57-2.38-.7-3.6-.03-.24-.08-.48-.12-.7.11.19.22.37.31.57.44,1.09.73,2.25.93,3.42.18,1.22.21,2.47.27,3.69Z"/>
  <path class="cls-7" d="m26.56,70.43c-.44-1.12-.82-2.27-1.06-3.45-.31-1.58-.41-3.19-.42-4.8.51,1.13.64,2.4.81,3.62.2,1.55.43,3.1.67,4.63Z"/>
  <path class="cls-7" d="m27.48,68.39s-.02-.1-.02-.14c0,0,0,0,0,0-.13-.95-.34-1.88-.49-2.83-.18-1.01-.15-2.05-.15-3.06.52,1.05.6,2.28.68,3.44.03.76.05,1.51.02,2.27,0,.1,0,.21-.01.3,0,.02-.02.03-.04.02Z"/>
  <path class="cls-7" d="m26.99,68.37c-.18-1.27-.42-2.53-.6-3.8-.09-.94-.18-1.9.05-2.83.04.4.14.84.23,1.22.13.64.2,1.28.25,1.93.07,1.15.1,2.33.08,3.47Z"/>
  <path class="cls-7" d="m27.66,70.03c-.1-1.18-.43-2.33-.63-3.5-.35-1.62-.56-3.27-.59-4.92.57,1.85.78,3.8.98,5.72.09.89.25,1.8.24,2.69Z"/>
  <path class="cls-7" d="m27.35,68.11c-.47-2.27.66-4.56,2.12-6.25.14-.16.3-.33.46-.47-.13.17-.27.34-.39.51-.67.94-1.1,2.02-1.42,3.13-.31,1.01-.65,2.03-.77,3.07Z"/>
  <path class="cls-7" d="m27.5,68.06c-.08-2.95,1.77-5.55,3.78-7.54.04-.04.09-.09.13-.11-.07.09-.15.18-.22.27-1.78,2.15-2.63,4.86-3.69,7.39Z"/>
  <path class="cls-7" d="m27.53,68.69c-.49-2.07,1.98-5.13,3.38-6.53.2-.19.39-.41.61-.57-.04.04-.08.09-.12.13-.75.88-1.36,1.85-1.9,2.87-.51.94-1.03,1.85-1.48,2.81-.19.42-.47.82-.5,1.29Z"/>
  <path class="cls-7" d="m27.24,69.19c.32-1.18.68-2.38,1.37-3.4.69-1.03,1.51-1.97,2.38-2.85.63-.65,1.35-1.22,1.95-1.9.18-.18.37-.38.55-.55-.13.17-.27.33-.4.48-.59.74-1.25,1.4-1.83,2.14-.67.85-1.31,1.74-1.92,2.63-.78,1.1-1.28,2.39-2.1,3.45Z"/>
  <path class="cls-7" d="m27.66,68.91c.4-1.06.86-2.06,1.55-2.96,1.24-1.69,2.77-3.16,4.1-4.77.23-.28.45-.59.66-.87-.11.19-.23.37-.34.56-1.11,1.73-2.42,3.32-3.67,4.95-.82.98-1.49,2.1-2.3,3.08Z"/>
  <path class="cls-7" d="m31.77,64.5c.42-1.2,1.13-2.27,1.8-3.34.6-.95,1.23-1.86,1.97-2.68-.71,1.07-1.19,2.25-1.83,3.35-.55.96-1.23,1.84-1.94,2.67Z"/>
  <path class="cls-7" d="m32.17,63.76c.52-1.82,1.58-3.46,2.92-4.78-1.01,1.57-1.56,3.46-2.92,4.78Z"/>
  <path class="cls-7" d="m31.77,64.05c.21-1.53,1.13-2.82,2.15-3.93-.41.69-.72,1.45-1.11,2.15-.33.6-.69,1.2-1.04,1.78Z"/>
  <path class="cls-7" d="m29.69,65.61c.97-1.96,1.63-2.93,3.46-4.2-1.28,1.3-1.91,3.18-3.46,4.2Z"/>
  <path class="cls-7" d="m28.75,66.67c.14-.85.62-1.6,1.07-2.32.89-1.33,2.17-2.32,3.37-3.35-.13.17-.29.35-.43.51-1.06,1.15-1.93,2.45-2.87,3.71-.36.49-.82.93-1.15,1.44Z"/>
  <path class="cls-7" d="m34.07,62.28c.22-.99.97-1.75,1.6-2.51.72-.88,1.61-1.6,2.29-2.51-.36.97-1.06,1.81-1.66,2.65-.67.85-1.54,1.55-2.23,2.36Z"/>
  <path class="cls-7" d="m33.81,62.35c.35-.48.63-1,.99-1.46.48-.62.97-1.23,1.4-1.89.66-.99,1.1-2.1,1.8-3.06.1-.14.22-.27.35-.38-.06.1-.12.2-.17.3-.49.95-.7,1.97-1.18,2.91-.34.73-.84,1.37-1.38,1.96-.56.58-1.11,1.19-1.8,1.62,0,0,0,0,0,0Z"/>
  <path class="cls-7" d="m36.36,59.92c.49-.8.98-1.62,1.53-2.37.36-.5.78-.97,1.09-1.49-.16.46-.43.87-.67,1.3-.52.94-1.15,1.85-1.96,2.56Z"/>
  <path class="cls-7" d="m36.8,59.64c.31-.25.51-.57.72-.9.69-1.08,1.54-2.03,2.25-3.09.04-.05.07-.11.11-.16-.04.16-.1.31-.17.47-.55,1.22-1.59,3.24-2.91,3.68Z"/>
  <path class="cls-7" d="m38.18,58.35c.42-.58.72-1.24,1.1-1.85.6-1.03,1.28-1.97,1.85-3-.17,1.31-.77,2.53-1.59,3.56-.38.49-.79,1.03-1.36,1.29Z"/>
  <path class="cls-7" d="m38.9,57.35c.29-.56.61-1.1.93-1.64.4-.63.9-1.23,1.13-1.94-.08.52-.31.99-.55,1.45-.42.77-.93,1.49-1.51,2.13Z"/>
  <path class="cls-5" d="m16.61,59.18c-1.37-.72-2.7-1.56-3.79-2.67.64.28,1.28.63,1.85,1.05.67.51,1.31,1.09,1.94,1.63Z"/>
  <path class="cls-5" d="m16.88,59.41c-.33-.11-.61-.31-.91-.47-1.04-.57-1.99-1.31-2.66-2.3.71.39,1.41.84,2.02,1.38.52.47,1.03.96,1.56,1.39Z"/>
  <path class="cls-5" d="m16.4,59.41c-1.28-.61-2.56-1.41-3.35-2.62.69.37,1.39.79,1.97,1.33.49.41.91.89,1.43,1.27.01,0,.03.02.04.01-.02.02-.07,0-.1,0Z"/>
  <path class="cls-5" d="m16.59,59.46c-1.19-.39-2.13-1.22-2.97-2.11,1.02.15,1.82.94,2.54,1.62.23.19.46.4.72.54-.09.02-.2-.03-.29-.05Z"/>
  <path class="cls-5" d="m16.97,59.56c-1.31-.51-2.59-1.25-3.41-2.42,1.38.44,2.38,1.52,3.47,2.42,0-.02,0,0,.01,0,0,.03-.05,0-.07,0Z"/>
  <path class="cls-5" d="m17.93,60.18c-1.45-.69-3.05-1.34-4-2.71,1.53.56,2.83,1.6,4,2.71Z"/>
  <path class="cls-11" d="m16.75,59.46c-.5-.15-.95-.46-1.39-.73-.86-.51-1.61-1.16-2.27-1.9.49.23.99.5,1.44.83.78.55,1.45,1.26,2.23,1.8Z"/>
  <path class="cls-11" d="m17.98,60.24c-1.63-.91-3.29-1.86-4.53-3.27,1.68.85,3.1,2.08,4.53,3.27Z"/>
  <path class="cls-11" d="m18.99,60.69c-1.06-.72-2.18-1.35-3.24-2.06-.82-.53-1.56-1.17-2.31-1.79.75.39,1.46.88,2.16,1.36,1.14.81,2.32,1.61,3.4,2.49Z"/>
  <path class="cls-11" d="m20.46,60.97c-1.34-.75-2.77-1.44-3.74-2.67,1.33.76,2.59,1.68,3.74,2.67Z"/>
  <path class="cls-11" d="m19.95,60.57c-1.01-.49-1.99-1.07-2.7-1.95,1.03.42,1.93,1.17,2.7,1.95Z"/>
  <path class="cls-11" d="m21.93,61.8c-.74-.66-1.3-1.5-1.95-2.22,1,.31,1.53,1.34,1.95,2.22Z"/>
  <path class="cls-11" d="m22.13,61.97c-.81-.79-1.49-1.67-2.1-2.61,1,.58,1.57,1.63,2.1,2.61Z"/>
  <path class="cls-11" d="m21.78,61.3c-.46-.56-.91-1.15-1.33-1.74.67.36,1.09,1.05,1.33,1.74Z"/>
  <path class="cls-11" d="m22.03,61.21c-.44-.48-.83-1.01-1.17-1.56.57.36.94.95,1.17,1.56Z"/>
  <path class="cls-11" d="m22.54,61.66c-.48-.57-.86-1.22-1.18-1.88.6.47.94,1.18,1.18,1.88Z"/>
  <path class="cls-11" d="m23.63,61.85c-.25-.39-.39-.85-.37-1.31.21.4.33.87.37,1.31Z"/>
  <path class="cls-11" d="m23.75,61.99c-.23-.53-.3-1.11-.34-1.69.28.51.31,1.12.34,1.69Z"/>
  <path class="cls-11" d="m24.04,62.01c-.23-.78-.26-1.6-.26-2.4.33.76.28,1.6.26,2.4Z"/>
  <path class="cls-11" d="m24.18,61.59c-.12-.68-.17-1.37-.12-2.05.24.66.24,1.38.12,2.05Z"/>
  <path class="cls-11" d="m24.38,62.23c-.09-.77-.11-1.55-.06-2.31.21.75.17,1.55.06,2.31Z"/>
  <path class="cls-11" d="m25.39,62.72c-.15-.91-.24-1.85-.28-2.76.34.87.36,1.84.28,2.76Z"/>
  <path class="cls-11" d="m25.54,62.66c-.31-.8-.46-1.68-.29-2.53.21.82.26,1.7.29,2.53Z"/>
  <path class="cls-11" d="m26.1,63.37c-.12-.43-.25-.85-.34-1.29-.12-.57-.13-1.16-.16-1.73.48.92.53,2,.51,3.02Z"/>
  <path class="cls-11" d="m26.43,63.19c0-1.31.18-2.7.88-3.83-.15.5-.26,1.02-.38,1.53-.15.77-.39,1.53-.5,2.3Z"/>
  <path class="cls-11" d="m26.8,62.84c.08-1.1.15-2.29.85-3.19-.12.41-.19.83-.28,1.25-.16.65-.36,1.31-.57,1.94Z"/>
  <path class="cls-11" d="m27,62.91c.16-1.16.41-2.34.98-3.38,0,0,0,0,0,0,.07-.14.15-.3.22-.43-.42,1.26-.87,2.52-1.19,3.8Z"/>
  <path class="cls-11" d="m28.38,60.66c.08-1.01,1.12-1.67,2.04-1.8-.79.44-1.56,1.05-2.04,1.8Z"/>
  <path class="cls-11" d="m28.81,59.81c.43-1.02,1.49-1.58,2.54-1.71.12-.02.27-.02.38-.01-.13.03-.27.05-.39.09-.95.33-1.88.86-2.52,1.63Z"/>
  <path class="cls-11" d="m30.94,59.26c-.14-.09-.14-.3.01-.37.06-.03.12-.03.18-.05.37-.15.74-.29,1.12-.42.58-.2,1.17-.41,1.73-.65-.45.31-2.62,1.67-3.05,1.49Z"/>
  <path class="cls-11" d="m33.16,59.07c.59-.94,1.55-1.57,2.38-2.28-.27.38-.62.78-.97,1.09-.46.4-1,.74-1.4,1.19Z"/>
  <path class="cls-11" d="m33.51,59.18c.51-.77,1.16-1.46,1.89-2-.41.85-1.15,1.46-1.89,2Z"/>
  <path class="cls-11" d="m35.36,57.84c.64-.67,1.27-1.42,2.12-1.82-.53.79-1.27,1.41-2.12,1.82Z"/>
  <path class="cls-11" d="m37.22,56.51c.25-.44.61-.8.95-1.18.39-.39.88-.67,1.35-.95-.59.87-1.51,1.48-2.3,2.13Z"/>
  <path class="cls-11" d="m38.59,55.46c.49-.61,1.02-1.19,1.6-1.71-.34.73-.94,1.28-1.6,1.71Z"/>
  <path class="cls-11" d="m38.99,55.45c.34-.48.75-.9,1.12-1.36.47-.58.99-1.16,1.59-1.59-.38.59-.76,1.19-1.25,1.69-.44.46-.99.85-1.46,1.26Z"/>
  <path class="cls-11" d="m40.47,54.25c.39-.86.94-1.66,1.67-2.26-.43.84-1.05,1.57-1.67,2.26Z"/>
  <path class="cls-11" d="m40.58,53.77c.45-.84,1.07-1.61,1.87-2.14-.44.85-1.16,1.53-1.87,2.14Z"/>
  <path class="cls-11" d="m40.4,54.29c.6-1,1.22-2.04,2.14-2.78-.5,1.07-1.27,2-2.14,2.78Z"/>
  <path class="cls-6" d="m37.26,44s.04.02.06.03c-.07.02-.13.05-.2.09-.04,0-.08,0-.12,0,.09-.04.17-.08.25-.12Z"/>
  <path class="cls-13" d="m37.33,44.03s-.05-.02-.06-.03c-.08.04-.17.08-.25.12.04,0,.08,0,.12,0,.06-.03.13-.06.2-.09Zm3.94,4.79s-.09-.05-.14-.07c-.12.09-.26.16-.38.24-.71.49-1.44.93-2.07,1.51-.85.74-1.62,1.58-2.6,2.14-1.26.81-2.49,1.81-3.92,2.26-1.58.61-3.2.96-4.87,1.08-.83.07-1.66.25-2.49.17-1.51-.16-3.1-.26-4.48-.9-1.23-.41-2.46-.85-3.51-1.64-.12-.09-.24-.17-.36-.25-.79-.53-1.59-.91-2.42-1.37-.32-.22-.62-.47-.92-.71-.32-.25-.66-.48-1.04-.63-.12.03-.24.04-.36.03-.31.25-.78.09-.91-.26-.03,0-.05,0-.08,0,.02-.01.04-.02.06-.03,0,0,0,0,0,0-.03,0-.05.01-.08.02.01-.02.03-.04.04-.05-.03,0-.05-.01-.08-.02-.01,0-.03,0-.04,0,0,0,.01,0,.02,0,0,0-.01,0-.02,0,0,0-.01,0-.02,0,0,0,0,0,0,0-.01,0-.03-.01-.04-.02,0,0-.02-.01-.03-.02-.08.05-.16.1-.25.14.09-.18.23-.34.38-.49.02-.12.08-.23.16-.33.14-.18.34-.33.54-.45.39-.44.77-.89,1.16-1.32.62-.68,1.21-1.43,1.79-2.17.24-.31.47-.61.69-.9.13-.15.26-.3.4-.44.75-.79,1.63-1.48,2.67-1.82.5-.09,1-.13,1.51-.17.15-.03.29-.07.44-.09-.04.02-.08.05-.13.07.04,0,.09,0,.13-.01.29-.03.57-.06.86-.1.33-.02.67-.03,1-.02.06,0,.12,0,.17,0,.62.02,1.24.08,1.86.13.53.04,1.08.03,1.63,0,.18-.01.37-.03.55-.05h0c.66-.07,1.31-.16,1.93-.26,1.13-.19,2.25-.44,3.36-.77,1.65-.49,3.89-.93,5.15.46.35.19.79.67,1.06.97.08.08.14.15.19.2.47.46.88.99,1.24,1.54.16.12.3.26.42.41.54.62.77,1.44.94,2.25,0,0,0,0,0,.01,0,0,0,0,0,.01.26.42.45.91.64,1.36-.02-.02-.05-.04-.07-.06.09.16.18.31.29.46Z"/>
  <path class="cls-13" d="m36.84,26c-.57-.06-.82-.82-.4-1.21.13-.12.25-.17.38-.26,1.21-.66,1.21-2.8,1.29-4.03.02-.26.06-.54.11-.79.15.86.63,1.64.63,2.52.14,1.11-.12,2.27-.9,3.1-.32.29-.63.75-1.11.66Z"/>
  <path class="cls-13" d="m38.31,21.31c-.23-.16-.33-.44-.49-.64-.16-.23-.38-.47-.36-.76,0-.26.29-.42.53-.35,0,0-.02,0-.03.01-.4.23-.03.53.08.82.15.29.18.62.27.92Z"/>
  <path class="cls-13" d="m38.02,21.62c-.09-.03-.18-.08-.23-.16,0,0,0,0,0,0-.14-.16-.1-.38-.19-.56-.19-.47-.86-1.09-.44-1.58,0,0,0,0,0,0,.29-.3.74-.09.86.26,0,0,.02,0,.02,0,0,0,0,0,0,0-.08-.08.05-.19.13-.13.11.1.07.31-.06.38.11.33.2.68.36.99.07.13.13.28.11.43-.05.26-.31.44-.56.37Z"/>
  <path class="cls-13" d="m32.44,23.83c-.28-.26-.17-.73.04-1,0,.33-.05.67-.04,1Z"/>
  <path class="cls-13" d="m32.37,23.47c-.17-.16-.16-.46-.02-.64,0,.19.04.39.1.57.04,0,.1,0,.14,0-.06.04-.14.13-.21.07Z"/>
  <path class="cls-13" d="m32.26,23.59c-.23-.09-.18-.66-.03-.71,0,.04,0,.09,0,.13.04.2-.02.47.18.6-.04,0-.1,0-.14-.02Z"/>
  <path class="cls-13" d="m32.11,23.76c-.22-.28-.29-.74,0-.98-.08.29.02.59.09.87.19-.09.13-.06.04.08-.03.05-.1.1-.14.03Z"/>
  <path class="cls-13" d="m36.83,25.79c-.75-.04-1.5-.19-2.23-.35-1.21-.23-2.09-.66-2.48-1.9-.03.01-.09.03-.11-.02-1.51-.85,3.01-3.27,3.68-3.6.88-.47,1.75-.78,2.67-1.11.71-.24,1.56-.46,2.3-.25.6.12,1.21.64,1.5,1.18.36.96.28,2.1-.11,3.04-.32.64-.74,1.17-1.23,1.66-.32.31-.72.51-1.12.69-.91.45-1.92.74-2.95.66,0,0,.09,0,.09,0Zm.42-1.38c1-.09,2.1-.44,2.79-1.2.46-.52.86-1.11.9-1.8.01-.34.07-.7-.05-1.03-.23-.37-.65-.63-1.09-.58-1.71.17-3.27,1-4.77,1.8-.78.38-1.6.68-2.38,1.07-.11.21-.17.46-.09.69.71.89,1.33.77,2.34.81.79.03,1.56.29,2.35.25Zm-5.14-.94c0-.26.13-.47.26-.67-.26.12-.55.4-.28.67,0,0,.01,0,.02,0Z"/>
  <path class="cls-13" d="m32.04,23.11c.13-.76,1.18-1.32,1.89-1.37-.29.13-.54.31-.77.51-.33.34-.81.53-1.12.86Z"/>
  <path class="cls-13" d="m32.07,23.09c.13-.37.45-.66.8-.83.06-.02.19-.11.23-.04,0,.04-.04.06-.06.07,0,0,0-.01,0-.02-.26.23-.44.52-.71.74,0,0,.02,0,.02,0-.07.05-.26.25-.28.07Z"/>
  <path class="cls-13" d="m32.13,23.09s-.04-.06-.03-.09c0,0,0,0,0,0,.42-.57,1.14-.88,1.79-1.08-.4.29-1.3,1.2-1.76,1.16Z"/>
  <path class="cls-13" d="m32.37,23.16s-.07-.02-.1-.03c.22-.08.34-.32.53-.45.37-.3.83-.53,1.29-.62-.53.42-1.03.98-1.73,1.1Z"/>
  <path class="cls-13" d="m32.93,24.31c-.11-.05-.19-.12-.25-.22,0-.01-.01-.02-.02-.03-.14-.04-.27-.13-.35-.25-.22-.32-.26-.88.12-1.11.2-.55,1.03-.47,1.11.12.03.19.07.37.04.57.08.21.12.44.03.65-.11.26-.42.39-.67.28Z"/>
  <path class="cls-13" d="m32.12,23.2s0,0,0,0c0,0,0,0,0,0-.02-.03-.04-.08-.01-.11.05-.05.13.06.15.09-.04,0-.08-.03-.11-.04,0,0,0,0,0,0,0,.02.01.09-.03.07Z"/>
  <path class="cls-13" d="m35.02,24.84c-.17.08-.37.07-.53-.02-.31,0-.69-.19-.73-.52,0,0,0,0,0,0,.01-.38-.31-.69-.43-1.05-.17-.41-.47-1.12.1-1.34.19-.17.4-.4.68-.37.1-.41.65-.57.96-.3.06,0,.13,0,.19.03.04-.02.09-.03.13-.04.1-.32.49-.46.77-.31.05-.03.11-.06.17-.07.01-.32.27-.62.61-.54.11-.11.26-.17.42-.15.02-.12.07-.21.15-.29,0,0,0,0,0,0,.18-.19.49-.1.62.1.08-.32.53-.46.78-.23.1-.05.22-.06.33-.03.09.02.16.07.22.14.07-.03.14-.04.22-.03.18-.26.57-.31.81-.11.36-.11.74.2.73.57.25.56.47,1.45-.08,1.89.05.49-.03,1.34-.7,1.27-.01.04-.03.07-.05.11-.07.14-.18.24-.32.27-.1.25-.42.38-.67.26-.05.03-.11.05-.17.05-.16.12-.4.13-.57,0-.04-.03-.08-.07-.11-.12-.05,0-.11,0-.16-.02-.18.1-.42.07-.57-.07-.02.01-.03.02-.05.03-.06.19-.18.37-.37.44-.02,0-.04.02-.07.02-.05.14-.12.27-.24.36-.14.11-.34.12-.49.03-.09.03-.2.04-.29.02-.19.13-.46.12-.64-.02,0,0-.02-.01-.02-.02-.1.09-.24.13-.38.13-.1,0-.19-.02-.28-.07Z"/>
  <path class="cls-13" d="m12.39,25.36c-1.82-.28-3.2-1.84-3.41-3.64-.33-1.65-.11-3.07,1.73-3.55,1.47-.36,3.2-.06,4.46.76.58.41,1.18.79,1.71,1.27.58.57,1.09,1.16,1.63,1.76.12.15.3.3.27.51-.09-.21-.33-.29-.52-.4.36.9,0,2.08-.96,2.41-1.46.86-3.25,1.11-4.9.89Zm1.58-1.32c.85-.05,1.66-.22,2.49-.33.35-.1.63-.18.97-.26.48-.29.74-.86.78-1.4-.73-.33-1.42-.72-2.11-1.12-.3-.12-.6-.22-.87-.38-.76-.35-1.41-.91-2.26-1.04-.83-.15-1.82-.23-2.55.29-.18.21-.13.53-.16.78,0,.36.02.8.08,1.13.06.27.21.62.32.84.68,1.35,1.92,1.58,3.31,1.49Z"/>
  <path class="cls-13" d="m17.16,24.51c.32-.08.52-.37.64-.66.19-.52.58-1,.48-1.57-.05-.2-.18-.38-.25-.57.02,0,.05.03.07.04.92.29,1.06,1.38.5,2.07-.31.44-.87.91-1.44.7Z"/>
  <path class="cls-13" d="m18.78,22.99c-.13-.55-.46-1.04-.84-1.45.15,0,.3.07.42.17.48.26.71.8.42,1.29Z"/>
  <path class="cls-13" d="m18.82,23.22c0-.28-.12-1.19-.41-1.26.14-.08.25-.02.34.08.35.3.38.85.06,1.17Z"/>
  <path class="cls-13" d="m18.87,22.68c0-.06-.03-.12-.05-.17-.05-.12-.07-.25-.11-.37,0-.03-.05,0-.06-.01.2-.21.37.45.22.55Z"/>
  <path class="cls-13" d="m18.93,22.62c-.08-.19-.11-.47-.31-.56.3-.12.44.36.31.56Z"/>
  <path class="cls-13" d="m19,22.61c-.09-.21-.17-.44-.29-.63.29.04.39.39.29.63Z"/>
  <path class="cls-13" d="m19,22.54s-.03-.06-.05-.09c0,0,0,0,0,0-.05-.11-.1-.22-.13-.33.16.08.23.26.18.42Z"/>
  <path class="cls-13" d="m18.82,22.69c-.16-.31-.31-.61-.48-.9.34.12.54.55.48.9Z"/>
  <path class="cls-13" d="m18.98,22.61c-.06-.18-.15-.39-.32-.47.24-.1.46.28.32.47Z"/>
  <path class="cls-13" d="m19.11,22.67c-.06-.22-.19-.4-.27-.62.24.07.41.39.27.62Z"/>
  <path class="cls-13" d="m17.03,24.51c-.24-.05.13-.07.21-.09.28-.04.31-.23.25-.47-.05-.22.07-.45.04-.68-.02-.52-.24-1.13.07-1.59.31-.4.98-.08.84.41,0,0,0,0,0,0-.08.39.28,1.31-.33,1.38-.05.19.03.4-.09.57-.19.53-.46.71-1,.46,0,0,0,0,0,0Z"/>
  <path class="cls-13" d="m13.72,25.05c-.08-.06-.15-.15-.2-.24-.23.19-.6.19-.83-.01-.42.08-.65-.24-.84-.56-.24-.2-.5-.39-.71-.62-.45-.44-.66-1.05-.81-1.64-.16-.32-.27-.67-.37-.96-.11-.3-.16-.63-.38-.87,0,0,0,0,0,0-.44-.58.19-1.35.85-1.05.08-.03.16-.05.25-.05.17,0,.33.06.45.17.04-.02.09-.04.13-.05.1-.03.21-.04.31-.02.16-.1.38-.14.56-.08.06.02.13.04.18.08.12-.08.26-.13.41-.13.26-.01.46.12.62.3.07-.02.13-.03.21-.03.22,0,.43.1.58.27.66-.36,1.19.36,1.43.9.45-.39,1.03-.12,1.25.38.29.17.43.52.53.84.03.06.04.12.1.16.05.03.11.11.12.17,0,.01.06.07.04.06.06.09.12.18.16.29.36.4.69,1.11.14,1.5-.03.39-.41.7-.8.61-.27.35-.85.32-1.08-.06-.16.12-.37.16-.56.1-.07-.02-.14-.05-.21-.1,0,0-.01,0-.02,0,0,.02,0,.04-.01.05-.07.26-.31.44-.57.45-.21.29-.64.35-.92.13Z"/>
  <path class="cls-13" d="m17.58,22.01s-.04-.03-.06-.04c-.08.01-.13-.06-.18-.12-.05-.03-.06-.11,0-.12-.03-.06-.05-.1-.08-.15-.07-.09.07-.21.15-.12.09.01.12.12.16.18.02-.01.03.02.02,0,0,0,0,0,0,0,0,0,0,0,0,0,0,.01-.01.02-.03.01.05.08.08.16.04.24-.01.03-.03.05-.06.06,0,.02.03.03.03.05Z"/>
  <path class="cls-4" d="m15.51,25.09c-.13-.04-.24-.11-.33-.2-.62-.16-1.06-.74-1.31-1.29-.2-.42-.3-.73-.43-1.12-.13-.38-.24-.67-.19-1.06.06-.55,0-1.19.35-1.66.27-.35.77-.31,1.06-.02.32.3.05.74.21,1.11.15,0,.29.05.41.14.12.09.19.21.23.35,0,0,0,0,0,0,0,.01,0,.02,0,.04.44-.27,1.03.09,1.02.6.06,0,.11.02.16.03.05-.06.12-.11.19-.14-.13-.75-.96-1.1-1.2-1.8.41.43,1.01.53,1.49.84.56.4.85,1.16.67,1.82,0,0,0,0,0,0-.14.51,0,1.23-.67,1.43-.07.1-.15.19-.26.25-.01,0-.02.01-.03.02-.12.19-.33.32-.55.34-.17.27-.5.43-.81.33Z"/>
  <path class="cls-4" d="m16.33,22.61c-.19-.15-.32-.36-.47-.55-.2-.13-.34-.33-.48-.51,0,0-.01,0-.02,0-.13.21-.42.3-.63.17-.45-.33-.46-1.23-.2-1.69-.05-.09-.1-.18-.14-.27,0,0,0,0-.01,0,0,0,0,0-.01,0-.22.63-.93.58-.98-.1,0-.48.52-.95.99-.86.69-.58,2.88,1.76,3.34,2.31.39.44-.2,1.04-.65.7-.05,0-.1,0-.15-.02.06.13.11.27.13.41.06.38-.39.67-.7.43Z"/>
  <path class="cls-4" d="m35.43,24.99c-.43-.11-.75-.44-1.08-.72-.5-.49-.85-1.09-.99-1.78-.08-.34-.24-.87.21-1.01.11-.22.38-.36.62-.34.25-.49.82-.85,1.37-.7,0,0,0,0,.01-.01.13-.13.31-.18.48-.13.22-.41.89-1.02,1.26-.46.3.61.21,1.32.28,1.98.15,1.41-.37,3.48-2.18,3.18Z"/>
  <path class="cls-8" d="m15.57,22.67c-1.46-.4-2.52-2.2-1.93-3.64.14-.42.87-.64,1.04-.13.07.22-.07.45-.28.52-.45,1.23,1.16,3.16,2.39,2.25.29-.22.22-.7.69-.66.45.06.44.56.23.86-.41.74-1.34,1.05-2.13.8Z"/>
  <path class="cls-8" d="m16.13,22.5c-.23-.04-.42-.18-.58-.35-.46.02-.88-.29-1.17-.63-.35-.45-.44-1.04-.49-1.59,0-.24-.05-.53.1-.73.17-.24.56-.33.76-.07.54.02.83.59,1.17.94.06,0,.13.03.19.07.02.01.04.02.06.04.29.04.61.24.83.42.24.03.38.28.39.51.2.35.08.88-.36.95-.05.05-.11.1-.19.13-.02.01-.05.02-.07.03-.13.22-.39.34-.64.3Z"/>
  <path class="cls-8" d="m34.03,23.33c-.85-.32-1.09-1.47-.54-2.16.22-.24.67-.29.81.05.43-.66,1.21-1.17,2.02-1.08.01-.09.05-.18.12-.24.16-.15.38-.17.56-.06.36,0,.45.38.49.67.03.35.11.7-.06.97-.05.77-.62,1.44-1.35,1.67-.64.25-1.39.43-2.06.18Z"/>
  <path class="cls-9" d="m35.67,21.27c-.12-.2-.05-.46.14-.58.37-.2,1.01-.73,1.3-.18.17.43-.24.58-.56.71-.28.19-.65.42-.89.05Z"/>
  <path class="cls-9" d="m16.43,21.7c-.3-.11-.72-.2-.62-.62.1-.38.5-.36.79-.22.82.18.55,1.2-.17.84Z"/>
  <path class="cls-12" d="m39.22,8.64c-.7-.32-1.4-.81-1.8-1.47-.73-.53-.25-2.02.72-1.78,1.21-.08,1.11,1.5.2,1.87.18.26.82,1.39,1.09,1.35,0,0,.01-.02.02-.01-.05.1-.15.07-.23.04Z"/>
  <path class="cls-12" d="m39.14,9.11c-.76-.38-1.31-1.22-1.25-2.08-.01-.07.04-.13.1-.16.36-.23.26-.17.09.12.14.52.54.94.89,1.31.27.27.45.74.89.72.01,0,.03,0,.04,0-.19.21-.5.2-.74.09Z"/>
  <path class="cls-12" d="m39.16,9.85c-.87-.42-1.27-1.4-1.44-2.3-.01-.18-.16-.75.04-.82.34-.15.29-.14.07.11.32.86.94,1.65,1.73,2.1.24.11.45-.09.57-.26.2-.23.41-.45.61-.68.13-.16.27-.33.35-.51.03.23-.01.47-.08.69-.27.98-.55,2.23-1.87,1.68Z"/>
  <path class="cls-12" d="m39.58,9.28c-.32.08-.56-.31-.69-.55-.64.02-.89-.72-.7-1.25-.07-.17-.07-.35-.04-.53-1.97-1.09,2.35-2.83,3.18-3.2.1-.04.21-.09.31-.11-.23.2-.46.4-.7.6.65-.06.89.7.7,1.22.23.08.42.28.46.54.01.09,0,.18-.02.27.09.3-.08.55-.25.77-.43.84-1.02,2.62-2.25,2.22Z"/>
  <path class="cls-12" d="m40.06,4.5c.78-.97,1.91-1.55,3-2.1-.81.91-1.86,1.66-3,2.1Z"/>
  <path class="cls-12" d="m39.24,5.52c.28-.45.69-.81,1.05-1.21.65-.67,2.15-2.27,3.09-2.27-.32.13-.55.4-.79.65-.33.35-.68.69-1.04,1-.72.65-1.58,1.18-2.31,1.83Z"/>
  <path class="cls-12" d="m40.49,5.35c.81-1.67,2.12-3.1,3.63-4.17-.8,1.69-2.44,2.79-3.63,4.17Z"/>
  <path class="cls-12" d="m40.38,5.97c.3-.64.77-1.24,1.15-1.83.59-.87,1.57-2.34,2.62-2.62-.23.15-.35.41-.52.62-.34.48-.68.95-1.04,1.41-.65.88-1.51,1.59-2.21,2.42Z"/>
  <path class="cls-12" d="m41.52,5.41c.59-1.02,1.14-2.08,1.87-3.01.11-.14.23-.28.35-.42.17-.2.36-.37.54-.57.02-.03.04-.06.03-.09.14,0-.26.87-.33.98-.56,1.11-1.38,2.05-2.23,2.94-.08.06-.09.2-.19.23-.03,0-.06-.04-.04-.07Z"/>
  <path class="cls-12" d="m41.56,6.88c.34-.85.71-1.68,1.09-2.52.53-1.2,1.12-2.41,1.94-3.44-.28.95-.68,1.91-1.12,2.79-.59,1.08-1.29,2.11-1.9,3.16Z"/>
  <path class="cls-12" d="m42.67,4.86s0,0,0,0c.35-.69.59-1.42.88-2.14.27-.69.68-1.31,1.12-1.89.02-.05.11-.04.1.02-.16.8-.5,1.55-.88,2.27-.36.61-.75,1.25-1.24,1.75Z"/>
  <path class="cls-12" d="m41.52,5.79c.14-.71.57-1.34.85-2.01.51-1.04,1.11-2.18,2.15-2.77-.54.82-.95,1.78-1.5,2.58-.47.75-1.11,1.41-1.5,2.2Z"/>
  <path class="cls-12" d="m41.15,6.45c-.01-.16.1-.32.15-.47.25-.56.55-1.1.83-1.64.47-.83.91-1.78,1.68-2.37-.38.77-.62,1.57-1.09,2.32-.36.61-.82,1.16-1.22,1.74-.12.13-.11.32-.22.45-.04.04-.12.02-.14-.04Z"/>
  <path class="cls-12" d="m40.66,7.08s-.03-.05-.04-.08c-.45-.13-.26-.65-.12-.95-.19-.28.02-.53.14-.78-.12.01-.22-.02-.31-.08-.4.11-.81-.3-.69-.7,0,0,0,0,0,0,.11-.34.47-.51.73-.73.48-.49,1.6-2.2,2.34-1.41.1,0,.2.02.3.08.12.07.2.19.23.32,1.54.4-.62,2.85-1.07,3.53-.12.31-.16.81-.55.88-.25.28-.76.26-.95-.08Z"/>
  <path class="cls-12" d="m41.42,7.85c-.08-.03.01-.15.03-.2,0,.02,0,.05,0,.07.68-1.37,1.03-2.89,1.73-4.25,0,0,0,0,0,0,.05-.08.17-.04.16.06-.07.37-.16.74-.26,1.11-.28,1.07-.81,2.07-1.44,2.98-.07.08-.12.21-.22.25,0,0,0,0-.01,0Z"/>
  <path class="cls-12" d="m40.61,9.37s.01.02.03.03c0,0,0,0,.01,0,.71-1.38,1.21-2.87,1.79-4.3.03-.05.11-.03.11.03-.04.39-.11.78-.2,1.16-.22,1-.68,1.93-1.31,2.74-.06.06-.39.56-.43.35Z"/>
  <path class="cls-12" d="m40.17,9.85c-.65-.12-.59-.96.08-.97.27-.28.44-.64.58-1,.08-.21.1-.46.27-.62,0,0,0,0,0,0,.14-.14.36-.21.56-.17.14-.24.28-.49.39-.73.02.29-.05.59-.09.88.47.43.05,1.07-.27,1.46-.34.54-.83,1.19-1.53,1.15Z"/>
  <path class="cls-12" d="m37.88,5.97c.02-.21.31-.21.46-.22-.14.11-.36.08-.46.22Z"/>
  <path class="cls-12" d="m37.55,6.58c.09-.26.25-.5.45-.67-.09.15-.18.29-.28.42,0,0,0,0,0,0-.06.08-.12.18-.18.25Z"/>
  <path class="cls-12" d="m8.24,3c-.56-.5-1.14-1.12-1.24-1.89.48.58.93,1.2,1.24,1.89Z"/>
  <path class="cls-12" d="m8.03,2.7c-.58-.5-1.04-1.13-1.36-1.83.63.45,1.03,1.15,1.36,1.83Z"/>
  <path class="cls-12" d="m12.06,10.08c-1.08-.33-1.8-1.99-2.46-2.86-.78-1.03-1.2-2.24-1.57-3.46-.33-.94-.77-1.85-1.29-2.7.82.77,1.65,1.56,2.26,2.51.36.58.63,1.21.94,1.82.37.68.8,1.33,1.24,1.97.22.35.53.77.78,1.07.33.46.89.98,1.46.57.65-.28.99-.94.96-1.63.23.47.26,1.09.06,1.57-.44.85-1.41,1.58-2.38,1.14Z"/>
  <path class="cls-12" d="m14.19,8.16c-.43-.75-1.07-1.36-1.82-1.8-.83-.59-1.73-.99-2.45-1.71-.94-.85-1.78-1.83-2.69-2.72-.13-.13-.11-.35.07-.43.36-.16,1.46.87,1.74,1.13.37.34.8.59,1.19.89.44.38.95.67,1.4,1.03.72.5,1.4,1.11,1.9,1.83.35.53.55,1.16.64,1.77Z"/>
  <path class="cls-12" d="m12.73,9.37c-1.15-.82-2.09-1.9-2.64-3.2-.23-.53-.93-1.78-.72-2.31.06.4.45.7.64,1.06.38.54.82,1.04,1.27,1.52.56.93,1.05,1.92,1.46,2.92,0,0,0,0,0,0Z"/>
  <path class="cls-12" d="m13.34,9.89c-.72-.52-1.33-1.25-1.79-1.97-.8-1.19-1.63-2.4-2.17-3.74,1.03,1.06,2,2.23,2.83,3.47.36.62.76,1.22,1.13,1.83,0-.03-.01-.06-.01-.09.06.08.13.16.19.25.14.17.04.39-.18.25Z"/>
  <path class="cls-12" d="m13.63,9.75c-.38-.03-.43-.43-.62-.66-.33,0-.48-.31-.61-.57-.98-.89-2-1.77-2.85-2.79-.31-.43-.69-.92-.66-1.48.04-.48.73-.67,1.01-.29.82-.26.74.57,1.15.98.31-.28.87-.12.94.31.15.18.31.35.47.52,0-.13.09-.25.22-.31.39-.15.68.3.94.52.44.32,1.15.65,1.05,1.29.18.37.32.87.05,1.23.04.3-.14.66-.44.74-.02.32-.35.56-.66.52Z"/>
  <path class="cls-12" d="m15.03,7.57c-.21-.47-.71-.64-1.09-.92-.39-.29-.71-.63-1.08-.93.46.07.88.33,1.28.57.49.24,1.02.67.9,1.28Z"/>
  <path class="cls-12" d="m15.06,8.23c.05-.28.01-.57-.19-.78-.52-.5-.82-1.29-1.51-1.59.55-.18,1.4.44,1.71.89,0,0-.01-.02-.02-.02,0,0,0,0,0-.01.37.44.5,1.13,0,1.52Z"/>
  <path class="cls-12" d="m14.24,9.06c.21-.14.3-.4.39-.63.19-.32.31-.69.36-1.06.05-.36-.28-.63-.46-.91-.08-.01-.17-.01-.24-.02.08-.05.17-.12.26-.14.28.07.58.21.81.39.9.73-.23,2.29-1.13,2.37Z"/>
  <path class="cls-12" d="m13.46,9.93c-.23-.03-.43-.19-.6-.33.04,0,.09.02.13.03.26.06.56,0,.73-.19.2-.19.48-.32.54-.61-.16-.22-.04-.49-.04-.73,0-.45-.13-1,.17-1.38.21-.22.59-.19.77.05.27.42.03.99.03,1.46.19.52-.16,1.14-.58,1.43-.35.15-.76.3-1.15.28Z"/>
  <path class="cls-12" d="m12.88,10.09c-.3-.1-.55-.32-.64-.62.32.36.82.34,1.24.29.36-.01.75-.11.93-.44.06.79-.93,1.04-1.53.77Z"/>
  <path class="cls-14" d="m13.43,7.13c-1.94-.57-3.51-1.96-4.68-3.58-.39-.52-.92-.96-1.14-1.59.38.4.87.68,1.33.99,1.25.87,2.49,1.73,3.58,2.76.57.42,1.23,1.44,2.02,1.07-.18.32-.72.47-1.11.34Z"/>
  <path class="cls-14" d="m13.14,8.8c-1.14-.33-1.84-1.39-2.55-2.26-.79-1.15-1.5-2.32-2.12-3.56-.09-.17-.18-.35-.24-.52.26.32.55.6.8.92.61.74,1.37,1.32,2.03,1.99.62.6,1.12,1.33,1.78,1.86.28.16.64.45.95.22.14-.12.37-.21.38-.42.02-.47-.49-.7-.7-1.07-.36-.5-.78-.96-1.16-1.44.54.33,1.13.62,1.66.99.48.29,1.04.56,1.21,1.12.5,1.17-.86,2.51-2.03,2.17Z"/>
  <path class="cls-14" d="m13.37,8.04c-.7-.34-2.87-1.66-1.91-2.56-.01-.52.64-.86,1.04-.5.44-.1.67.38,1,.58.59.47,1.57,1.63.62,2.2-.15.25-.46.37-.74.29Z"/>
  <path class="cls-14" d="m38.32,7.76c-1.6-.69-.53-2.73.51-3.45.37-.37.8-1.02,1.4-.78.16-.11.36-.13.54-.06.4-.63,1.34-1.72,2.05-.89.11-.11.2-.24.32-.34-.06.18-.13.36-.21.54.02.05.03.11.04.17.28-.42.58-.86.86-1.27.17-.25.35-.51.52-.76-.16.66-.42,1.28-.58,1.94-.31.97-.43,2.04-1.08,2.87-.95,1.37-2.65,2.54-4.35,2.03Z"/>
  <path class="cls-14" d="m41.82,4.11c.33-.79.79-1.53,1.5-2.04-.32.79-.89,1.46-1.5,2.04Z"/>
  <path class="cls-14" d="m41.69,3.64c.07-.59.7-.93,1.06-1.35.2-.2.69-1.04.98-.7.32-.22.65-.45.95-.67-.25.49-.59.93-.92,1.37-.47.49-.88,1.81-1.56,1.87-.27,0-.51-.23-.51-.51Z"/>
  <path class="cls-14" d="m42.61,3.68c.54-.93,1.09-1.86,1.92-2.56-.53.91-1.19,1.8-1.92,2.56Z"/>
  <path class="cls-16" d="m14.58,6.42c-.77-.04-1.54-.29-2.24-.54.02,0,.04.01.06.02-1.97-.57-3.13-2.33-4.3-3.87-.07-.1-.1-.23-.13-.34.08.07.14.17.24.23,1.1.69,2.23,1.32,3.24,2.12.52.44,1.1.81,1.66,1.2.49.39.99.8,1.48,1.17Z"/>
  <path class="cls-16" d="m37.34,5.93c.49-.88,1.56-1.29,2.36-1.84,1.03-.64,2.17-1.14,3.15-1.83.39-.27.81-.51,1.08-.9-.04.47-.42.88-.66,1.24-.72,1.07-1.74,1.92-2.93,2.41-.94.47-2.1.42-3,.92Z"/>
  <path class="cls-10" d="m15.08,5.95c-.13-1.03,3.96-2.44,4.88-2.69,3.55-1.14,7.41-1.38,11.03-.46,1.56.38,3.11.86,4.41,1.84.57.37,1.13.78,1.66,1.19-.97-.21-1.92-.5-2.86-.82-2.11-.75-4.3-1.28-6.52-1.54-1.77-.12-3.56.06-5.3.4-1.28.27-2.51.73-3.79,1.01-.69.17-1.35.34-2.04.44-.48.12-1.03.2-1.39.57.05.02.11.04.15.07-.08,0-.15.01-.22,0Z"/>
  <path class="cls-10" d="m14.43,5.96c-.23-.26-.34-.61.05-.78.31-.23.73-.65,1.1-.28.16-.04.33-.04.49-.05-.12.09-.26.16-.37.27.06.21-.08.41-.23.52-.18.39-.7.73-1.04.32Z"/>
  <path class="cls-10" d="m14.74,5.41c.78-1.07,2.4-1.16,3.61-1.25-.79.27-1.56.6-2.36.82-.42.13-.88.2-1.25.43Z"/>
  <path class="cls-10" d="m37.09,5.65s-.07-.01-.11-.02c-.33.05-.68-.12-.99-.23-.2-.11-.13-.43.09-.45.16-.02.31.09.45.17.15.12.72.21.52.47.01.02.07.08.03.06h0Z"/>
  <path class="cls-10" d="m37,5.86s0-.09.01-.13c0,0,0,0,0,0,0-.06,0-.12.03-.17.06.1.05.24-.04.31Z"/>
  <path class="cls-10" d="m36.95,6.11c0-.12.07-.22.1-.33,0,0-.01,0,0,0,.05-.02.03.11.03.13-.02.08-.06.16-.12.2Z"/>
  <path class="cls-10" d="m36.91,6.22c.03-.26.16-.52.3-.74.05.29-.09.56-.3.74Z"/>
  <path class="cls-10" d="m36.94,6.15s.01-.06.02-.08c0,0,0,0,0,0,0,0,0-.02,0-.03,0,0,0,0,0,0,.04-.18.11-.32.28-.41-.07.18-.14.4-.3.52Z"/>
  <path class="cls-10" d="m36.66,5.82c-.07-.29.31-.3.47-.36h0s0,0,0,0h0s.1-.03.15,0c.03.02.05.04.06.07.17.15-.23.4-.34.24,0,0-.02,0-.02,0-.02,0-.03,0-.05,0,0,.03.02.12-.02.07-.04.13-.22.09-.25-.03Z"/>
  <path class="cls-10" d="m29.95,20.76c.4-1.72,1.42-3.27,2.89-4.26,1.83-1.23,4.04-1.88,6.24-1.56.17.02.35.05.51.09-.46.06-.91.22-1.36.35-2.87,1-6.54,2.81-8.28,5.37Z"/>
  <path class="cls-10" d="m20.29,19.11c-1.33-2.44-3.14-3.86-5.68-4.91-.19-.08-.38-.22-.59-.21.21-.12.46-.03.68-.03,2.21-.05,4.57,1.12,5.25,3.34.18.59.25,1.21.34,1.81Z"/>
  <path class="cls-10" d="m.92,24.96c-.22-.46-.19-.98-.2-1.47-.04-.94.2-1.91.86-2.61.48-.49,1.05-.88,1.72-1.05.56-.14,1.42-.29,1.76.31.13.27.1.6.07.89-.11-.24-.21-.5-.43-.66-.73-.05-1.38.53-1.95.94-1.14.85-1.73,2.29-1.84,3.66Z"/>
  <path class="cls-10" d="m2.27,21.06s0-.08,0-.11c-.48-.15-.59-.84-.18-1.13,0,0,0,0,0,0,.72-.45,1.8-2.15,2.55-2.08.09-.08.21-.13.33-.14.13-.02.27,0,.38.06.47-.24.87-.02.66.53.04.31-.04.59-.16.88-.14.57.05,1.4-.56,1.72-.38.18-.84-.13-.87-.51,0,0,0,0,0,0-.04,0-.07-.02-.11-.03-.23.28-.67.41-.98.18-.25.29-.58.65-1.01.53-.01.03-.02.08-.04.1Z"/>
  <path class="cls-10" d="m4.74,18.41c.25-.4.6-.87,1.12-.84-.38.27-.68.67-1.12.84Z"/>
  <path class="cls-10" d="m4.6,18.29c.19-.45.85-1.17,1.34-.74-.34-.03-.54.29-.83.44-.17.1-.35.2-.52.3Z"/>
  <path class="cls-10" d="m4.2,18.62c.26-.54.9-1.28,1.56-1.09-.34.13-.54.48-.86.67-.23.15-.48.27-.7.43Z"/>
  <path class="cls-10" d="m3.62,19.56c.48-.78.96-1.65,1.88-1.99.04-.01.12-.07.16-.01,0,0,0,.03,0,0,0,0-.01,0-.02,0-.54.8-1.19,1.5-2.01,2Z"/>
  <path class="cls-10" d="m49.09,22.7c-.27-.54-.69-.98-1.14-1.38-1.02-.99-1.75-.3-2.12.82-.04.11-.07.24-.12.35-.1-.46-.1-.94.03-1.4.24-1.13,1.39-1.66,2.34-.94.65.46,1.22,1.86,1,2.56Z"/>
  <path class="cls-10" d="m45.86,21.29c-.06,0-.11-.04-.14-.08,0,0,0,0,0,0-.09-.19-.25-.32-.32-.51-.05-.19-.14-.36-.23-.54-.11-.35-.51-.62-.43-1.01-.17-.48.34-.96.81-.75.59.28.58,1.09,1.09,1.45.16.15.38.27.51.43-.1-.06-.22-.08-.32-.12.07.07.11.15.14.24,0,0,0,0,0,0,.12.38-.28.75-.65.61-.06.04-.14.07-.21.09-.01.12-.12.21-.24.19Z"/>
  <path class="cls-10" d="m47.42,20.36s0,0,0,0c0,0,0,0,0,0,0,0,0,0,0,0-.25-.09-.51-.16-.77-.26-.4-.13-.7-.47-1.09-.6.54-.18,1.53.47,1.86.87Z"/>
  <path class="cls-10" d="m46.6,20.53c-.33-.21-.51-.58-.85-.77,0,0,0,0,0,0-.35-.25-.14-.85.29-.83.34,0,.63.27.93.43.22.16.48.26.66.45.44.72-.47,1.19-1.03.71Z"/>
  <path class="cls-10" d="m5.21,17.85c.16-.32.5-.5.85-.53-.25.21-.56.38-.85.53Z"/>
  <path class="cls-10" d="m5.4,17.89c.09-.34.41-.61.76-.64-.25.21-.5.45-.76.64Z"/>
  <path class="cls-10" d="m4.99,21.97c-.29-.98-.17-1.51-1.43-1.56-.13,0-.27-.02-.39-.05.27-.09.53-.25.81-.3.46-.07,1.08.1,1.2.6.08.44-.08.89-.19,1.31,0,0,0,0,0,0Z"/>
  <path class="cls-10" d="m25.97,40.24c-2.08.03-3.45-1.51-4.39-3.19-.87-1.59-.82-3.43-.78-5.19.06-2.38.47-4.72,1.12-7.01.16-1.03.15,1.16.13,1.43-.02,2.39-.09,4.78.01,7.18.08,1.39.4,2.82,1.36,3.87,1.02,1.52,2.91,2.25,4.69,2.19.21,0,.41-.08.6-.13-.18.17-.37.33-.59.44-.69.36-1.45.45-2.21.4,0,0,.07,0,.07,0Z"/>
  <path class="cls-10" d="m23.06,39.33c-1.32-.65-1.87-2.26-1.93-3.64,0-.11,0-.23.02-.32.18.55.4,1.08.72,1.56.59.73,1.01,1.58,1.69,2.23.17.15.37.26.57.36-.36.07-.73-.01-1.06-.18Z"/>
  <path class="cls-10" d="m22.37,38.14c-.76-.63-1.31-1.69-1.12-2.68.07.46.27.88.44,1.3.19.48.4.96.68,1.38Z"/>
  <path class="cls-10" d="m19.84,27.8c-.15-.44.23-.93.6-1.14.24-.11.56-.05.76.11,0,0-.02,0-.03,0-.23.03-.45.08-.62.23-.25.25-.57.46-.7.79Z"/>
  <path class="cls-10" d="m19.65,27.82c-.09-.78.94-1.52,1.53-1.29-.55.37-1.13.76-1.53,1.29Z"/>
  <path class="cls-10" d="m20.43,26.75c.11-.25.4-.42.67-.46.1-.01.13.13.05.16-.22.15-.48.2-.72.3Z"/>
  <path class="cls-10" d="m32.34,27.55c-.42-.37-1.09-.5-1.52-.09.05-.21.1-.46.33-.54.48-.34,1.14.09,1.18.63Z"/>
  <path class="cls-10" d="m31.26,27.27c-.12-.05-.22-.13-.32-.2,0,0,0,0-.01,0-.04,0-.06-.02-.07-.05-.04-.03-.1-.05-.13-.09-.05-.08,0-.21.11-.19.09.02.18.04.27.07.13.02.47.14.56.31.07.27-.26.26-.42.15Z"/>
  <path class="cls-10" d="m12.77,42.57c.38-1.75,1.37-3.17,3.29-2.24-.47.17-.99.19-1.42.47-.68.53-1.25,1.19-1.87,1.77Z"/>
  <path class="cls-10" d="m38.47,38.29c-.64-.76-1.52-1.47-2.54-1.53.25-.25.93-.31,1.29-.25.79.13,1.27,1.04,1.25,1.78Z"/>
  <path class="cls-10" d="m38.74,38.17c-.15-.29-.41-.5-.64-.71-.4-.43-.95-.6-1.52-.7-.14-.02-.3-.09-.44-.03.2-.3,1.24-.42,1.57-.32.66.25,1.11,1.07,1.02,1.76Z"/>
  <path class="cls-10" d="m11,49.14c.88-.51,1.23-2.25,1.85-3.14,1.45-2.82,3.97-4.75,7.26-3.97.18.04.37.07.55.1-.29.07-.61.12-.92.18-.99.22-1.93.64-2.78,1.2-.72.43-1.43.91-1.99,1.54-.73.89-1.45,1.79-2.22,2.64-.53.53-.95,1.35-1.76,1.45Z"/>
  <path class="cls-2" d="m13.25,56.8c-3.39-2.17-4.18-3.36-6.26-6.7-1.19-1.94-2.27-3.95-3.03-6.1-.58-1.46-.8-3.07-.99-4.62-.03-.37-.03-.74.02-1.11.06.5.14,1.02.3,1.51.73,1.99,1.59,3.92,2.43,5.87.68,1.1,1.23,2.29,1.92,3.39.72,1.04,1.29,2.06,2.03,3.07,1.2,1.55,2.43,3.1,3.56,4.7Z"/>
  <path class="cls-2" d="m11.11,56.1c-1.14-.38-1.97-1.31-2.64-2.26-.83-1.14-1.94-2.74-2.04-4.15.22.47.58.86.84,1.31.52.83,1.24,1.51,1.8,2.31.61.97,1.18,2.02,2.03,2.8Z"/>
  <path class="cls-2" d="m11.67,56.61c-1.32-.72-2.43-1.8-3.25-3.05-.36-.58-.84-1.22-.86-1.93.46.75,1.15,1.36,1.69,2.06.77,1.01,1.59,1.98,2.43,2.91Z"/>
  <path class="cls-2" d="m12.36,57.03c-1.34-.87-2.49-2.05-3.43-3.34-.8-1.12-1.74-2.21-2.08-3.57.82,1.2,1.86,2.27,2.75,3.43.87,1.19,1.81,2.36,2.76,3.48Z"/>
  <path class="cls-2" d="m12.38,56.46c-1.01-.49-1.75-1.38-2.55-2.14-.36-.37-.68-.78-1.01-1.18-.42-.48-.8-1.02-.95-1.65.57.81,1.39,1.42,2.03,2.19.85.91,1.63,1.88,2.48,2.78Z"/>
  <path class="cls-2" d="m37.76,55.51c.56-.63,1.04-1.33,1.49-2.04.69-.98,1.38-1.96,1.9-3.04.79-1.54,1.63-3.09,2.14-4.72,1.19-2.87,2.23-5.85,2.39-8.98.11-1.49.41-2.94.76-4.36.15,1.33.33,2.67.45,4.01.12,3.72-1.33,7.24-2.63,10.65-.41,1.15-.95,2.27-1.53,3.32-.32.63-.66,1.35-1.02,1.9-.97,1.42-2.5,2.4-3.95,3.26Z"/>
  <path class="cls-2" d="m40.89,54.54c.31-1.1.86-2.12,1.25-3.19.57-1.48,1.05-2.91,1.56-4.4.57-1.49,1.11-2.99,1.66-4.48.42-.9.77-1.82.98-2.79.05-.23.08-.48.11-.71.04.32.07.65.04.97-.14,1.42-.47,2.81-.79,4.2-.36,1.35-.85,2.68-1.22,4.02-.46,1.53-.8,3.17-1.87,4.41-.6.64-1.2,1.28-1.72,1.97Z"/>
  <path class="cls-2" d="m23.67,57.29c-1.73-.15-3.28-.99-4.85-1.67-1.49-.63-2.93-1.4-4.27-2.29-.78-.54-1.44-1.08-2.18-1.66-.41-.26-.84-.49-1.17-.85.46.21.97.28,1.45.4.45.17.89.35,1.32.57,1.32.54,2.46,1.34,3.7,1.94,1.8.84,3.57,1.78,5.51,2.22,2.16.4,4.32-.26,6.37-.86,1.55-.39,3.09-.81,4.55-1.49,1.62-.83,3.11-1.83,4.72-2.66.11-.07.21-.16.31-.23-.22.45-.62.82-.93,1.2-.62.64-1.28,1.31-1.96,1.86-.56.4-1.18.7-1.79,1.01-1.6.74-3.32,1.12-5,1.61-1.86.62-3.82,1.07-5.78.9Z"/>
  <path class="cls-2" d="m20.57,37.13c0-.08.07-.14.14-.14s.14.07.14.14-.07.14-.14.14-.14-.07-.14-.14Z"/>
  <path class="cls-2" d="m24.9,41.9c-1.5-.33-3.24-.95-3.84-2.47-.21-.69-.33-1.42-.34-2.13.11.35.27.68.43,1,.44,1.05,1.44,1.52,2.44,1.89.63.19,1.25.45,1.91.51,1.07.04,2.14-.18,3.16-.5.56-.16.93-.63,1.27-1.08.17-.25.34-.51.5-.75-.15.79-.27,1.65-.83,2.27-1.24,1.12-3.08,1.49-4.7,1.27Z"/>
  <path class="cls-2" d="m35.92,26.75c-1.02-.23-2.12-.56-2.79-1.39-.26-.32-.44-.71-.69-1.02.31.16.53.41.81.6.79.53,1.78.5,2.69.62,1.71-.01,4.15.01,5.49-1.14-.88,1.89-3.58,2.6-5.51,2.33Z"/>
  <path class="cls-2" d="m13.53,26.95c-1.46-.1-2.88-.8-3.82-1.92-.61-.82-.82-1.85-.98-2.83.4.74.89,1.47,1.52,2.05,1.01.7,2.19,1.27,3.43,1.41.9.17,1.86-.05,2.73-.25.55-.13,1.18-.06,1.67-.4-.23.41-.69.66-1.11.86-1.05.61-2.19,1.23-3.44,1.08Z"/>
  <path class="cls-2" d="m2.14,36.22c-.65-.85-.86-1.99-.98-3.03-.12-1.29.16-2.59.2-3.88,0-.12-.04-.25-.04-.37.28.37.33.85.43,1.3.35,1.48.48,3.01.42,4.53-.02.48-.11.98-.03,1.45Z"/>
  <path class="cls-2" d="m2.15,36.7c-.82-.83-.98-2.22-.68-3.3.09.62.37,1.24.49,1.83.13.48.11.99.18,1.47Z"/>
  <path class="cls-2" d="m47.18,35.51c-.13-2.22,1.52-4.08,1.57-6.24.4.69.31,2.53.09,3.31-.33,1.09-1.14,1.95-1.66,2.94Z"/>
  <path class="cls-2" d="m47.56,35.51c.16-.65.22-1.31.46-1.94.22-.63.56-1.2.6-1.86.34.95-.38,3.08-1.06,3.79Z"/>
  <path class="cls-2" d="m47.51,34.81c.21-.64.42-1.31.78-1.88-.05.69-.3,1.39-.78,1.88Z"/>
  <path class="cls-2" d="m47.48,33.38c-.2-.39-.31-.83-.4-1.24.31.34.41.8.4,1.24Z"/>
  <path class="cls-2" d="m47.82,33.29c-.08-.08-.16-.16-.24-.25,0,0,0,0,0,0-.13-.15-.22-.33-.28-.51.22.21.43.46.51.75Z"/>
  <path class="cls-2" d="m11.95,11.47c-.58-.16-1.04-.54-1.46-.95-.24-.31-.56-.11-.8.07-.07.04-.28.14-.12,0,.39-.84.86-.89,1.63-.46.52.22,1.04.59,1.63.57.49-.06.99-.2,1.44-.37-.52.7-1.39,1.43-2.32,1.13Z"/>
  <path class="cls-2" d="m10.18,9.96c-.09-.07-.09-.16-.07-.25-.12-.13.02-.45.22-.34.28-.22.22-.15.13.12.17.19,0,.65-.27.48Z"/>
  <path class="cls-2" d="m10.77,9.87c-.21-.14-.34-.35-.41-.59.2.13.34.37.41.59Z"/>
  <path class="cls-2" d="m10.92,10.05c-.21-.12-.36-.33-.36-.57.03.03.06.08.08.12,0,0,0,0,0,0,.11.14.2.3.27.45Z"/>
  <path class="cls-2" d="m9.64,10.06c-.26-.13.47-.9.6-1.04-.06.25-.27,1.08-.6,1.04Z"/>
  <path class="cls-2" d="m10.46,10.16c-.06-.03-.11-.08-.15-.13-.36.06-.44-.31-.3-.57.02-.11.05-.23.14-.31,0,0,0,0,0,0,.32-.22.57.16.59.46.19.23.07.67-.29.54Z"/>
  <path class="cls-2" d="m42.21,11.24c-1.18-1.06-1.47.72-3.59-1.38.59.06,1.17.31,1.77.33.36.05.73,0,1.08.09.4.14.71.55.74.97Z"/>
  <path class="cls-2" d="m41.49,10.44c-.03-.09-.04-.17-.04-.26-.08.13-.04-.17,0-.21.12-.12.19.09.21.19.08.02.14.18.12.26-.01-.02-.03-.03-.05-.04.02.15-.18.22-.23.06Z"/>
  <path class="cls-2" d="m42.39,11.73c-.85-.48-1.82-.55-2.78-.52-1.26-.02-1.84-1.33-1.92-2.41,0-.11.03-.23.05-.34.06.17.1.35.22.49.28.48.7.86,1.2,1.09.37.1.81.08,1.18.15.87.14,1.66.75,2.05,1.53Z"/>
  <path class="cls-2" d="m30.59,20.68c1.01-1.13,2.42-1.98,3.63-2.87,2.02-1.33,3.83-1.92,6.25-1.93-2.14.89-4.21,1.91-6.22,3.05-1.17.68-2.52,1.04-3.67,1.74Z"/>
  <path class="cls-2" d="m20.28,20.08c-1.13-.59-2.14-1.4-3.25-2.03.02.01.03.02.03.02h.02c-1.86-1.21-3.57-2.73-5.78-3.25-.21-.08-.44-.08-.66-.1.15-.03.31-.12.47-.11,1.86-.19,3.53.14,5.02,1.3.78.48,1.43,1.13,2.11,1.72.81.72,1.37,1.62,2.03,2.44Z"/>
  <path class="cls-2" d="m20.55,19.77c-.42-.16-.84-.4-1.11-.77.42.16.83.41,1.11.77Z"/>
  <path class="cls-3" d="m25.44,40.85c-4.93-.15-5.65-3.83-5.36-7.96.27-3.19.68-6.48,2.12-9.37-.36,3.85-1.42,7.65-1.22,11.54.11,3.44,1.77,5.08,5.25,4.86,3.08-.19,4.44-1.68,4.57-4.73.25-3.93-.93-7.77-.93-11.69,1.36,2.95,1.6,6.26,1.8,9.46.27,4.73-.94,7.89-6.22,7.89h-.01Z"/>
  <path class="cls-3" d="m19.97,30.01c-1.35-.72-1.22-2.96.14-3.62.36-.19.79-.27,1.18-.15.24.08.01.05-.1.08-1.36.35-1.75,2.24-1.14,3.36.13.2.33.36.52.48-.21-.01-.41-.06-.6-.15Z"/>
  <path class="cls-3" d="m30.39,26.35c2.58-.39,3.75,3.31,1.18,4.19,1.44-1.26.54-3.73-1.18-4.19Z"/>
  <path class="cls-3" d="m13.56,46.04c1.33-2.07,2.96-4.09,5.64-4.16,1.18-.08,2.36.05,3.54.13,1.68.12,3.29.01,4.92-.31,3.72-.67,7.34-3.64,10.47.03,1.6,2.01,2.78,4.46,3.13,7.01-.61-1.01-1.25-2-1.82-3.04-.74-1.34-1.33-2.82-2.51-3.84-1.67-1.64-3.97-.86-5.87-.14-1.32.47-2.68.82-4.06,1.06-1.71.28-3.46.27-5.19.12-1.27-.07-2.59-.22-3.82.18-3.18,1.14-3.87,5.48-7.57,7.1,1.2-1.25,2.14-2.73,3.16-4.13Z"/>
  <path class="cls-3" d="m23.52,56.15c-3.87-.23-7.14-2.52-10.43-4.33-.91-.49-1.79-1.21-2.83-1.3,2.16-.38,4.29,1.21,6.13,2.16,1.75,1,3.57,1.96,5.56,2.37,4.17.71,8.74.38,12.45-1.79,2.07-1.2,3.74-2.98,5.88-4.08.4-.21.84-.39,1.28-.44-.22.14-.44.31-.62.47-1.9,1.95-4.09,3.63-6.43,5.03-2.64,1.47-5.67,2.03-8.68,2.03-.78,0-1.56-.04-2.33-.11Z"/>
  <path class="cls-3" d="m24.38,49.32c-1.22-.1-2.37-.53-3.52-.94-1.84-.64-3.83-1.02-5.75-.6-1.19.23-2.26.65-3.36,1.09.6-.53,1.2-1.05,1.91-1.42,3.2-1.82,6.82-.07,10.02.83,2.3.48,4.7-.13,6.75-1.19,2.62-1.13,5.1-3.66,8.05-3.53.47.03.98.1,1.37.37-.72-.12-1.43.14-2.11.34-4.12,1.58-7.74,5.1-12.31,5.1-.34,0-.68-.02-1.03-.06Z"/>
  <path class="cls-3" d="m34.92,37.11c2.33-.96,3.84-.03,4.29,2.41-1.52-1.76-1.96-2.15-4.29-2.41Z"/>
  <path class="cls-3" d="m15.34,40.33c.67-.14,1.36-.05,2.02-.11-.6.38-1.29.56-1.92.87-1.1.58-1.94,1.55-2.75,2.46.29-1.39,1.14-2.93,2.65-3.22Z"/>
  <path class="cls-3" d="m39.89,10.66c-2.05-.36-3.29-2.89-2.81-4.81,0,.43.19.84.37,1.22.53.97,1.22,1.93,2.2,2.49,1.56.82,2.28-2.33,2.78-3.31.75-1.89,1.53-3.77,2.47-5.57.11-.22.23-.46.34-.67-.12,1.21-.39,2.41-.8,3.55-.29.79-.64,1.55-.95,2.34-.76,1.54-1.32,4.78-3.44,4.78-.05,0-.11,0-.17,0Z"/>
  <path class="cls-3" d="m44.05.88c.52-.28,1.04-.57,1.54-.86-1.61,2.07-4,3.26-6.13,4.7-.73.56-2.21,1.1-2.27,2.12-.66-2.01,5.32-5.06,6.86-5.96Z"/>
  <path class="cls-3" d="m12.45,11c-1.63-.44-2.53-2.77-3.39-4.11-1.1-1.98-1.98-3.97-2.62-6.13,1.04,1.17,2.29,3.58,3.19,5.29.51.93,1.06,1.83,1.65,2.71,1.08,2.02,2.5,1.69,3.66-.04.36-.54.62-1.16.75-1.78.32,1.75-.85,4.12-2.75,4.12-.16,0-.33-.02-.51-.05Z"/>
  <path class="cls-3" d="m12.42,5.3c-2.1-1.32-4.28-2.69-5.84-4.65,1.15.72,2.43,1.22,3.53,2.03.99.69,2.02,1.34,3.02,2,.96.74,2.34,1.37,2.76,2.56-.9-1-2.4-1.17-3.48-1.94Z"/>
  <path class="cls-3" d="m13.15,4.68s0,0,0,0c0,0,.01,0,.02.01,0,0-.01,0-.02-.01Z"/>
  <path class="cls-3" d="m13.14,4.67s0,0,0,0c0,0,.01,0,.02.01h0Z"/>
  <path class="cls-3" d="m35.23,26.04c-1.45-.18-2.94-1.09-3.39-2.53-.02-.08-.04-.17-.05-.25.07.11.15.24.25.34,1.85,1.87,4.88,2.01,7.26,1.23,1.48-.4,2.45-1.8,2.53-3.29.24-3.27-2.36-2.73-4.47-1.73-1.5.69-4.82,2.15-5.7,3.43-.03.07-.06.16-.02.23-.07-.04-.08-.15-.08-.23.63-2.17,3.2-3.17,5.06-4.1,1.53-.67,3.44-1.63,5.01-.56,1.5,1.16,1.25,3.54.45,5.05-1.09,1.93-3.5,2.48-5.65,2.48-.42,0-.83-.02-1.21-.06Z"/>
  <path class="cls-3" d="m34.88,25.47c-1.08-.28-1.78-1.26-1.87-2.34-.06-.68-.12-1.59.45-2.07-.47.86.48,3.05,1.39,3.4,1.83.81,2.51-.68,2.54-2.27.05-.92.05-1.9-.34-2.75,1.86,1.74,1.53,6.18-1.27,6.18-.28,0-.58-.04-.91-.14Z"/>
  <path class="cls-3" d="m13.35,25.79h0c-1.49-.06-3-.6-3.97-1.77-1.13-1.31-1.75-3.27-1.15-4.94.75-2.02,3.26-2.09,5.04-1.6,1.32.35,2.46,1.13,3.51,1.97,1.13.84,1.93,2.01,2.87,3.03-.93-.4-1.73-1.07-2.58-1.62-1.41-.97-2.72-2.19-4.45-2.51-3.53-.79-4.55,1.77-2.86,4.54,1.15,1.88,3.51,2.14,5.52,1.99,1.14-.13,2.42-.17,3.34-.93.25-.22.45-.49.61-.78-.03.28-.12.57-.24.82-.91,1.61-2.88,1.82-4.64,1.82-.35,0-.68,0-1-.02Z"/>
  <path class="cls-3" d="m14.55,24.96c-2.18-.75-2.56-5.53-.29-6.29,0,0,0,0,.01,0,0,0,.02,0,.02,0-.14.06-.26.17-.34.28-.7,1.31-.37,3.54.43,4.75,1.63,1.39,3,0,3.3-1.75.08-.37.11-.76.09-1.13.92,1.96-.07,4.37-2.09,4.37-.35,0-.73-.07-1.13-.23Z"/>
  <path class="cls-3" d="m19.21,23.01c.06.42-.16.83-.48,1.08.1-.38.28-.75.48-1.08Z"/>
  <path class="cls-3" d="m17.36,24.78c.86-.57,1.78-1.5,1.75-2.6.83,1.16-.51,2.6-1.73,2.6,0,0-.01,0-.02,0Z"/>
  <path class="cls-3" d="m35.13,15.97c2.08-1.19,4.86-1.83,6.98-.4-.68-.08-1.35,0-2.02.13-2.25.57-4.33,1.69-6.32,2.86-1.4.82-2.9,1.6-4,2.81.75-2.55,3.11-4.22,5.36-5.39Z"/>
  <path class="cls-3" d="m10.58,14.68c-2.23.1-1.2,0,.17-.58,1.82-.86,3.24-.85,5.05.06,2.68,1.16,4.66,3.66,5.38,6.46-2.79-2.91-6.28-6.22-10.6-5.94Z"/>
  <path class="cls-3" d="m37.66,5.57c-.43-.14-.87-.26-1.3-.4-.58-.18-1.15-.38-1.72-.59-.47-.18-.94-.38-1.4-.56-.5-.2-1.01-.38-1.46-.54-.08-.03-.17-.06-.2-.07-.05-.02-.09-.03-.11-.04-.01,0-.02,0-.03-.01h0c-.74-.25-1.48-.47-2.24-.63-.6-.12-1.2-.2-1.8-.25-1.05-.07-2.11-.04-3.13.03-.75.05-1.5.15-2.24.3-.77.16-1.53.38-2.26.64-.38.14-.77.28-1.14.44-.38.16-.74.32-1.12.49-.73.32-1.46.64-2.22.9-.34.12-.7.23-1.07.26-.1,0-.2.01-.31,0-.05,0-.1-.01-.14-.04,0,0,0,0,0,0,0,0,0,0,0,0,.01,0,.02,0,.03,0,.03,0,.06,0,.09-.01.04-.01.09-.02.13-.04,0,0,0,0,0,0h0c.08-.03.15-.06.22-.09.3-.15.59-.34.84-.52.02-.01.04-.03.06-.04,0,0,.02-.01.03-.02.68-.46,1.37-.91,2.12-1.27.37-.17.74-.34,1.11-.5s.75-.3,1.13-.44c.75-.28,1.53-.5,2.32-.66.37-.07.74-.14,1.11-.18.37-.04.75-.07,1.1-.1.81-.06,1.62-.09,2.44-.09.96,0,1.91.11,2.85.29.82.16,1.62.4,2.41.67.72.24,1.44.5,2.14.79.29.12.58.25.81.36.56.28,1.11.6,1.64.94.4.26.79.54,1.16.84.05.04.11.09.16.13,0,0,0,0,0,0h0Z"/>
  <path class="cls-3" d="m16.32,61.33c-2.39-2.06-5.04-3.84-7.11-6.24,2.16.92,3.94,2.47,5.77,3.9,2.7,2.05,5.1,4.42,6.61,7.49-1.83-1.64-3.38-3.57-5.26-5.15Z"/>
  <path class="cls-3" d="m18.57,61.77c-.11-.22-.23-.43-.34-.64.48.43.92.9,1.34,1.37,1.39,1.59,2.2,3.59,3.48,5.25-2.18-1.44-3.35-3.71-4.48-5.98Z"/>
  <path class="cls-3" d="m20.51,62.8c1.53,2.37,3.03,4.76,4.88,6.89-3.02-1.86-3.92-3.58-4.88-6.89Z"/>
  <path class="cls-3" d="m21.47,62.4c-.05-.19-.1-.38-.14-.57.16.24.29.52.44.78,1.46,2.45,2.55,5.17,4.41,7.35-2.8-1.48-3.91-4.69-4.71-7.56Z"/>
  <path class="cls-3" d="m24.76,65.67c-.19-1.86-.35-3.77,0-5.61.19,1.54.49,3.07.6,4.62.24,1.75.15,3.58.91,5.21-1.11-1.13-1.44-2.68-1.52-4.21Z"/>
  <path class="cls-3" d="m26.01,65.76c-.23-2.08-.07-4.17.31-6.22.04.31.05.66.07.97.17,1.89.21,3.79.48,5.66.39,1.8.4,3.62-.18,5.38-.02-1.96-.48-3.85-.69-5.78Z"/>
  <path class="cls-3" d="m28.38,64.3c-.08,2.14-.95,4.16-1.3,6.25-.58-2.32.19-4.25,1.3-6.25Z"/>
  <path class="cls-3" d="m29.59,65.71c1.17-1.56,2.38-3.09,3.49-4.7-.47,2.15-1.82,3.93-3.2,5.58-.88,1.14-2.01,2.16-2.54,3.51.19-1.69,1.22-3.11,2.26-4.39Z"/>
  <path class="cls-3" d="m34.73,60.19c-.6,3.13-3.23,5.22-5.65,7.04,1.76-2.44,4.12-4.42,5.65-7.04Z"/>
  <path class="cls-3" d="m36.01,60.28c1.1-1.29,2.03-2.72,3.06-4.07-1,3.98-4.37,6.74-7.62,8.94,1.36-1.77,3.04-3.25,4.57-4.87Z"/>
  <path class="cls-3" d="m39.87,56.31c.44-.64.87-1.38,1.2-2.05.53-1.11,1-2.27,1.88-3.16.45-.46.94-.91,1.43-1.32-.53.84-1.08,1.66-1.5,2.52-.51,1.05-.97,2.11-1.56,3.12-.67,1.14-1.49,2.19-2.35,3.19-.86.95-1.93,1.7-2.84,2.59,1.13-1.71,2.61-3.17,3.74-4.88Z"/>
  <path class="cls-3" d="m10.6,55.19c1.72.82,3.32,1.83,4.47,3.37-1.69-.8-3.28-1.93-4.47-3.37Z"/>
  <path class="cls-3" d="m12.43,55.53c2.93,1.47,5.65,3.42,7.97,5.73-2.95-1.46-5.66-3.38-7.97-5.73Z"/>
  <path class="cls-3" d="m16.37,57.22c1.98.51,3.41,2.12,4.55,3.72-1.64-1.13-2.97-2.56-4.55-3.72Z"/>
  <path class="cls-3" d="m18.59,57.75c1.23.61,2.07,1.78,2.67,2.98-1.06-.86-1.83-1.93-2.67-2.98Z"/>
  <path class="cls-3" d="m20.61,59.04c.23.08.41.41.49.65-.21-.18-.33-.43-.49-.65Z"/>
  <path class="cls-3" d="m21.5,58.99c.27.27.41.66.44,1.03-.22-.3-.37-.67-.44-1.03Z"/>
  <path class="cls-3" d="m23.12,61.63c-.25-.76-.25-1.59-.53-2.33.78.75,1.01,2.79,1.05,3.85-.19-.5-.37-1.01-.52-1.53Z"/>
  <path class="cls-3" d="m28.54,58.22c-.24,1.1-.76,2.15-1.17,3.19-.05-1.17.49-2.27,1.17-3.19Z"/>
  <path class="cls-3" d="m28.98,59.36c-.17.56-.54,1.04-.7,1.58-.12-.59.3-1.19.7-1.58Z"/>
  <path class="cls-3" d="m32.64,58.1c-1.05,1.21-2.67,1.6-3.74,2.73-.06.07-.11.15-.15.22.32-1.87,2.37-2.38,3.89-2.96Z"/>
  <path class="cls-3" d="m34.62,57.52c-.64.77-1.54,1.32-2.13,2.11.16-1.08,1.2-1.74,2.13-2.11Z"/>
  <path class="cls-3" d="m37.18,55.69c.68-.59,1.38-1.16,2.12-1.69-.58.9-1.27,1.81-2.18,2.41-.49.33-1.11.49-1.53.93.27-.76,1.03-1.14,1.59-1.66Z"/>
  <path class="cls-3" d="m40.72,52.88c-.45,1.11-1.22,2.09-2.18,2.81.55-1.06,1.27-2.04,2.18-2.81Z"/>
  <path class="cls-3" d="m42.22,51.55c-.73,1.37-1.54,2.75-2.69,3.82.62-1.43,1.39-2.91,2.69-3.82Z"/>
  <path class="cls-3" d="m36.22,55.83c-.95,1.44-1.87,2.96-3.08,4.21.72-1.59,1.64-3.18,3.08-4.21Z"/>
  <path class="cls-3" d="m46.17,42.87c.64-3.16.64-6.37.42-9.56-.32-6.72-1.49-13.36-3.8-19.69-.49-1.28-.68-2.67-1.21-3.93-.01-.03-.04-.05-.05-.07.16.09.29.24.4.39,1.42,1.91,2.04,4.24,2.74,6.48,1.75,5.36,2.47,11.01,2.84,16.61.4,6.07.22,12.97-3.91,17.82.7-2.71,2.05-5.31,2.57-8.05Z"/>
  <path class="cls-3" d="m4.17,46.31c-1.06-2.72-1.96-5.55-2.15-8.48-.4-7.18,2.01-14.12,4.17-20.87,1.17-2.88,1.93-6.07,4.2-8.32-1.3,3.55-2.75,7.06-3.93,10.65-2.09,6.85-4.54,14.09-3.06,21.31.75,3.27,2.05,6.46,3.48,9.47.94,1.73,1.82,3.5,2.66,5.27-2.83-2.23-4.01-5.83-5.37-9.04Z"/>
  <path class="cls-3" d="m48.8,27.47c.13-1.26.49-2.49.42-3.77-.09-2.16-1.53-3.79-3.38-4.73-.34-.23-.75-.52-.85-.93.14.19.36.29.58.36.95.29,2,.42,2.77,1.11,1.2,1.04,1.83,2.64,1.92,4.21.07,1.44-.36,2.83-.47,4.25-.12,2.79.6,6.56-2.38,8.09,1.93-2.46,1.17-5.73,1.41-8.6Z"/>
  <path class="cls-3" d="m.62,28.95c-.22-1.78-.83-3.52-.55-5.34.19-2.66,1.81-5.31,4.43-6.15.59-.2,1.24-.35,1.86-.31-.6.2-1.13.53-1.66.88-2.77,1.76-3.91,4.14-3.68,7.39.06,1.1.44,2.15.53,3.24.08,1.43,0,2.87.03,4.31-.03,1.19-.06,2.44.45,3.53C0,34.55.82,31.47.62,28.95Z"/>
  <path class="cls-3" d="m4.33,20.77c-.7.64-.94,1.64-1.28,2.49-.33.96-.76,1.89-1.2,2.79.18-1.7.72-4.59,2.49-5.28Z"/>
  <path class="cls-3" d="m46.72,22.33c1.3.44,1.35,2.33,1.2,3.49-.45-.92-.53-2.94-1.2-3.49Z"/>
</svg>