<?xml version="1.0" encoding="UTF-8"?>
<svg id="Layer_6" data-name="Layer 6" xmlns="http://www.w3.org/2000/svg" viewBox="0 0 72.25 81.34">
  <defs>
    <style>
      .cls-1 {
        fill: #a8228e;
      }

      .cls-1, .cls-2, .cls-3, .cls-4, .cls-5, .cls-6, .cls-7, .cls-8, .cls-9, .cls-10, .cls-11, .cls-12, .cls-13, .cls-14, .cls-15 {
        stroke-width: 0px;
      }

      .cls-2 {
        fill: #f7dcea;
      }

      .cls-3 {
        fill: #7c246e;
      }

      .cls-4 {
        fill: #010101;
      }

      .cls-5 {
        fill: #732368;
      }

      .cls-6 {
        fill: #c155a0;
      }

      .cls-7 {
        fill: #2f102a;
      }

      .cls-8 {
        fill: #e8b5d4;
      }

      .cls-9 {
        fill: #f7deeb;
      }

      .cls-10 {
        fill: #c1549f;
      }

      .cls-11 {
        fill: #fff;
      }

      .cls-12 {
        fill: #ac3593;
      }

      .cls-13 {
        fill: #ab3694;
      }

      .cls-14 {
        fill: #fdeff5;
      }

      .cls-15 {
        fill: #671e5d;
      }
    </style>
  </defs>
  <path class="cls-2" d="m18.27,55.46c-.05-.17-.1-.34-.14-.5h0s0,.04,0,.06c.05.15.1.3.15.45Zm18.46-29.1s-.04-.1-.05-.16c-.03,0-.07,0-.1,0-.04.08-.07.15-.09.2.03,0,.06,0,.09.01.05-.03.1-.05.15-.07Zm27.42,20.07c.56,1.02.76,2.17.26,3.26-.81,2.16-2.43,2.33-4.03,3.64-.08.28-.32.52-.41.77-.33.68-.38,1.85-1.22,2.07-.23.54-.42,1.13-.58,1.73.12-.12.24-.24.36-.35-.22.45-.43.9-.63,1.35-.38,1.41-.82,2.81-1.81,3.8-.72,1.47-1.26,3.06-2.27,4.37-.81,1.08-1.73,2.16-2.77,3.03-.63.58-1.29,1.13-2.07,1.49-.87.44-1.67.71-2.53,1.03-1.02.44-2.11.67-3.2.85-1.31.2-2.63.37-3.95.42-.75.05-1.5.1-2.24,0-.13.07-.28.08-.42.02-.47-.15-.97-.14-1.45-.21-1.2-.16-2.41-.31-3.6-.57-.7-.19-2.48-.49-2.77-1.18-.66-.29-2.02-.74-2.97-1.28-.2.04-.41-.05-.52-.24-.03-.05-.07-.09-.11-.14-.19.08-.45-.05-.56-.19-.18-.19-.39-.35-.59-.52-.28-.04-.43-.31-.64-.47-.34.17-.55-.24-.77-.42-.55-.51-1.04-1.07-1.52-1.64-.06.01-.13,0-.2-.01-.18-.04-.27-.21-.36-.36-.48-.67-.99-1.33-1.46-2.01-.14.24-.51.29-.71.08-.11-.1-.14-.25-.18-.38-.07-.18-.15-.34-.24-.51-.33-.66-.71-1.33-1.04-1.98-.29.03-.48-.23-.54-.49-.47-1.07-.98-2.12-1.48-3.18-.59-1.27-1.29-2.5-1.66-3.85-.08-.21-.05-.45.06-.62-.2-.29-.38-.59-.56-.9-.47.29-1.09.05-1.46-.29-.65.02-1.09-.59-1.32-1.14-.11-.4-.25-.78-.4-1.16-.37-1.1-.43-2.48.42-3.38.01-.25.17-.46.3-.66.24-.58.88-1.28,1.56-.93.05,0,.09,0,.14,0,.02-.66-.02-1.31-.04-1.97-.5-.18-.32-.8-.29-1.18.04-.68.1-1.37.15-2.05.18-1.16-.22-3.18.37-4.11.12-.58.13-1.37.72-1.67.08-.04.17-.05.26-.04.94-1.12,1.95-2.32,3.41-2.66.86-.25,1.72-.53,2.57-.82.52-.7,1.52-.83,2.26-1.14,2.1-.83,4.37-1.11,6.52-1.78,2.43-.6,4.97-1.88,7.49-1.55.17.04.34.11.5.18.14-.06.29-.09.43-.08,0-.06,0-.14,0-.24.05-.24.56-.36.59-.04.56.29,1.28.3,1.84.65,1.34.31,2.73.37,4.08.66,1.7.38,3.25,1.2,4.97,1.45-.09-.06-.17-.12-.25-.2.46.17.95.13,1.44.13,1.34.03,2.74-.02,4.03.38.77.28,1.57.75,2.33,1.03.79.31,1.61.6,2.3,1.09.02-.02.04-.03.06-.05.09-.04.23-.04.4-.02-.23-.82-.4-1.66-.54-2.5.43.85.76,1.77,1.15,2.65.71-.18.93.69,1.11,1.2.21.7.37,1.42.53,2.13.1.17.19.35.28.52-.07-.06-.13-.11-.2-.17.08.37.17.74.27,1.11.49,1.7.91,3.44,1.1,5.21.08.93.09,1.87.02,2.8-.02.18-.03.38-.06.56.03,0,.07,0,.11.02,1.02.19,1.76.68,2.2,1.65Z"/>
  <path class="cls-5" d="m27.2,45.18c-.56-.49-1.06-1.03-1.67-1.46-.63-.38-1.37-.63-2.01-.97-.33-.16-.62-.36-.98-.42-.5-.16-.82-.6-1.35-.67-.15.04-.33.02-.46-.06-.09-.05-.17-.11-.24-.18-.7.03-1.87-1.23-2.07-1.89-.15-.62-.63-1.65-.03-2.13.13-.42.76-.54,1.02-.17.15.22.2.48.29.73,1.25-.23,2.19,1.15,2.5,2.21.36.17.66.41.95.68.46.26,1.21.48,1.21,1.12,1.49.73,2.26,1.69,2.84,3.22Z"/>
  <path class="cls-5" d="m27.49,46.86c-.89-1.56-2.27-2.7-3.29-4.15,1.66.76,3.4,2.14,3.29,4.15Z"/>
  <path class="cls-5" d="m27.36,45.68c-.75-1.16-.08-2.55.6-3.58.5-.79,1.18-1.3,1.47-2.18.28-1.29.61-3.47-.92-4.07-.71-.16-1.63-.62-2.26-.07-.39.37-.68.85-.96,1.29.14-1.35.76-2.68,2.34-2.47,3.27-.14,3.62,3.42,2.83,5.83-.62,1.97-3.43,2.97-3.09,5.25Z"/>
  <path class="cls-5" d="m25.46,36.72c-.07-.25-.23-.49-.2-.75.29-.46.62-.97,1.09-1.26.75-.32,1.66-.09,2.32.35-.03,0-.06,0-.09,0-.9-.01-1.88.04-2.55.72-.41.21-.54.51-.56.95Z"/>
  <path class="cls-5" d="m30.67,39.48c-.04-1.15-.77-4.17-2.01-4.5-.57.41-.76.67-.3-.14.15-.39.66-.29.98-.19,1.78.74,2.18,3.26,1.33,4.83Z"/>
  <path class="cls-5" d="m30.14,40.22c.48-1.38.61-3.07-.12-4.38-.09.79-.11.24-.24-.14-.07-.18-.1-.54.19-.49,1.82.98,1.68,3.8.17,5Z"/>
  <path class="cls-5" d="m25.31,36.44c-.03-.26.12-.51.21-.74.12-.25.24-.5.39-.73.47-.74,1.19-1.28,1.98-.61.2.26.39.53.58.79-.41-.28-.76-.89-1.35-.72,0,0,0,0,.01,0,0,0,.01,0,.02,0-.58.24-.91.83-1.31,1.28-.18.24-.43.47-.54.74Z"/>
  <path class="cls-5" d="m30.71,37.29c-.51-.77-1.11-1.67-2.03-1.96-.86-.11-1.91-.51-2.69.02-.2.13-.14.39-.19.58-.06-.2-.19-.41-.13-.62.43-1,1.82-1.15,2.78-1.07,1.51.02,2.19,1.76,2.25,3.04Z"/>
  <path class="cls-5" d="m24.47,38.33c-.39-1.13.1-2.57,1.19-3.1.37-.05.7.26,1.02.4-.25.03-.53.02-.78.03-.63.77-1.14,1.74-1.43,2.67Z"/>
  <path class="cls-5" d="m23.16,38.42c-.67-.59-1.46-1.09-2.31-1.37-1.1-.46-1.27-.21-1.68.84.15.13.33.26.48.39-.27-.1-.73-.04-.83-.36-.06-.8.24-2.07,1.23-2.07,1.43.08,2.64,1.28,3.11,2.57Z"/>
  <path class="cls-5" d="m19.52,39.15c-.26-.2-.55-.37-.78-.6-.3-.74-.13-1.69.43-2.28,1.45-1.86,3.64-.4,4.73,1.07.27.34.55.71.7,1.1-.66-.58-1.4-1.01-2.16-1.44-.57-.25-1.18-.56-1.81-.51-.92.21-1.64.92-1.63,1.89.16.26.36.51.52.76Z"/>
  <path class="cls-5" d="m25.34,39.37c-.63-.71-3.01-3.7-3.92-3.33.08.88.19,1.08-.27.14-.35-.47.49-.83.88-.74,1.83.38,2.94,2.23,3.32,3.93Z"/>
  <path class="cls-5" d="m26.79,44.72c-.05-.05-.1-.1-.13-.16-.8.19-.92-.98-1.13-1.52-.09-.03-.17-.09-.23-.16-.04-.04-.07-.08-.09-.13-.27.03-.52-.13-.66-.36-.37.2-.8-.02-.99-.37-.23.07-.5,0-.66-.17-.12-.12-.2-.29-.27-.44-.54.04-.79-.54-.93-.96-.55.26-.99-.18-1.14-.69-.39.19-.87.01-1.12-.33-.17-.09-.3-.27-.34-.45-.1-.63-.29-1.27-.16-1.91.09-.68.81-1.18,1.37-.62.31-.42.86-.68,1.38-.5.37.15.64.48.95.72-.1-.04-.21-.1-.31-.15.05.06.08.13.11.21.02.06.03.12.04.18.19-.14.37-.34.61-.37.19-.31.67-.38.93-.12.3-.47,1.01-.33,1.13.21.33-.35.62-.79,1.08-.99.25-.2.57-.24.86-.34.66-.2,1.29.23,1.75.67.21.07.45.06.63.2.38.32.51.84.6,1.31.24,1.25.03,4.7-1.26,5.29-.16.39-.37.85-.81.96-.06.37-.12.82-.47,1.04-.22.14-.51.14-.71-.04Zm-5.68-8.14c.07,0,.14.03.2.07.09-.18.24-.31.49-.34.03,0,.07,0,.1,0-.37-.24-.85-.05-1.07.3.09-.03.19-.04.28-.03Z"/>
  <path class="cls-5" d="m27.07,45c-.1-.04-.08-.24-.11-.33-.2-1.02-.29-2.26.57-3.01-.26,1.09-.12,2.24-.47,3.32,0,0,.01,0,0,.01Z"/>
  <path class="cls-5" d="m27.08,44.94c-.14-.3.16-.68.35-.9,0,.34-.25.61-.35.9Z"/>
  <path class="cls-5" d="m47.56,46.21c-.18-1.11-.96-1.87-1.72-2.63-.79-.85-1.62-1.7-2.11-2.76-1.24-2.61-.11-6.81,3.46-5.65.97.32,1.5,1.32,1.59,2.29.09,1.21-.07.47-.39-.11-.61-1.22-1.92-1.53-3.1-.93-.99.79-.94,2.38-.62,3.49.81,2.14,3.51,3.74,2.88,6.29Z"/>
  <path class="cls-5" d="m45.68,42.98c-1.46-1.52-2.93-3.63-2.13-5.82.23-.48.56-1.14,1.17-.72-1.87.1.65,5.51.97,6.53Z"/>
  <path class="cls-5" d="m47.53,46.25c-.62-1.47,1.94-2.39,3.01-2.77,0,0-.01,0-.02,0-.01,0-.02,0-.03.01,1.43-.53,3.15-1.12,3.92-2.52.43-.78.28-1.78-.19-2.48-.74-1.16-2.42-.74-3.5-.37-.6.2-1.15.54-1.71.8.99-1.34,2.5-2.49,4.26-2.35,3.09.38,3.5,4.9,1,6.44-1.06.73-2.22,1.38-3.49,1.63-1.06.27-2.24.33-3.12,1.03-.05.19-.07.4-.12.58Z"/>
  <path class="cls-5" d="m49.5,40.45c-.28-.76-.78-1.42-1.03-2.2-.13-.38-.16-.82-.29-1.19-.82-.29-.58-.27.12-.37.88.26,1.48,2.93,1.2,3.76Z"/>
  <path class="cls-5" d="m49.93,39.64c-.41-.72-.88-1.41-1.26-2.15.02.53-.14-.06-.25-.24-.09-.21-.34-.67.04-.71,1.06.47,1.45,2.04,1.46,3.1,0,0,0,0,0,0Z"/>
  <path class="cls-5" d="m49.67,40.31c-.8-1.12-1.25-2.51-1.44-3.82,1.08.88,1.37,2.49,1.44,3.82Z"/>
  <path class="cls-5" d="m47.24,45.81c.13-.4.46-.74.83-.91-.14.36-.4.68-.75.86,0,0,0,0,0,0-.03.01-.06.05-.09.06Z"/>
  <path class="cls-5" d="m47.16,46.25c-.09-.35.33-.69.61-.84-.09.34-.36.62-.61.84Z"/>
  <path class="cls-5" d="m47.09,46.23c0-.35.3-.81.69-.75-.27.2-.44.53-.69.75Z"/>
  <path class="cls-5" d="m46.79,46.06c-.14-.88-.19-1.82.21-2.65.12.77.32,1.52.28,2.31.69-.27.42-.09.08.3-.12.2-.5.36-.57.04Z"/>
  <path class="cls-5" d="m47.01,46.9c-.54-.06-.52-.61-.45-1.02.02-.39.04-.71.08-1.09,0-.46.17-.91.32-1.32.02.61.1,1.22.22,1.82.27-.52.95-1.22,1.36-.41.67-.5.13.17,0,.44-.32.56-.8,1.56-1.52,1.59Z"/>
  <path class="cls-5" d="m47.21,45.15c-.3-.11-.4-.42-.42-.72-.27-.11-.38-.41-.4-.68-.87-.16-.49-1.45-.62-2.09-.14.03-.29.01-.43-.07-.22-.13-.3-.37-.33-.61-.88-.27-.46-2.55-.43-3.26.07-.56-.04-1.59.76-1.54.39-.81,1.39-.34,1.14.5.1-.02.21,0,.31.03.11.05.21.13.27.24.26-.22.76-.16.91.18.86-.14.65.8.65,1.34.35-.26.89-.01.92.42.15-.25.43-.44.73-.4.19-.38.49-.71.94-.59.02-.02.04-.04.05-.05.19-.17.45-.25.7-.16.07-.05.15-.1.24-.13.34-.11.73.07.84.42,1.51-.75,1.42,1.59,1.18,2.48-.21.63-.03,1.62-.82,1.89-.38.49-.74,1.45-1.54,1.14-.05.03-.1.06-.16.08-.23.38-.68.78-1.15.54-.19.21-.5.32-.77.21-.17.33-.6.52-.94.33-.11.07-.23.12-.36.12-.02,0-.04,0-.07,0-.13.19-.32.33-.56.33-.03,0-.06,0-.08,0-.17.11-.39.14-.57.07Z"/>
  <path class="cls-5" d="m44.59,40s0,0-.01-.01c-1.58.7-1.53-3.11-.23-3.1.26-.31.63-.54,1.04-.56.23-.39.72-.54,1.14-.37.3-.22.69-.1,1,.06.42.23.67.68.82,1.12.25.33.26.75.39,1.13-.07-.05-.13-.14-.18-.21,0,.04-.02.08-.03.12-.08.18-.24.27-.43.27-.29.44-.93.36-1.24-.02-.19-.2-.31-.45-.42-.7-.01,0-.03-.01-.04-.02.01.76-.76,3.08-1.81,2.29Z"/>
  <path class="cls-5" d="m53.37,41.45c-.37-.91-.55-2-.31-2.96-.06-.04-.13-.06-.2-.06,0,0,0,0,0,0,.02,0,.04,0,.05,0,0,0-.02,0-.03,0,0,0-.02,0-.02,0,.15.5-.37.98-.86.84-.1,1.1-2.11,1.64-2.16.27-.1-.05-.19-.11-.26-.21-.02-.03-.04-.06-.06-.09-.02-.01-.04-.03-.06-.04-.78.31-.6.24-.1-.26.22-.82,1.28-1.33,2.05-.9.08-.03.17-.06.26-.08,1.31-1.97,3.79.66,3.52,2.34-.06.76-1.13,2.05-1.81,1.14Z"/>
  <path class="cls-12" d="m27.36,45.34c-1.03-1.9-2.88-3.11-4.63-4.27-.95-.56-1.9-1.19-2.44-2.19-.4-.72-.87-1.83-.15-2.5.81-.66,1.98-.39,2.92-.19.36.12.54.5.79.76-.33-.13-.64-.44-1.03-.37-2.03.16-2.46.49-1.13,2.25.85.84,2.04,1.38,2.96,2.07,1.49.98,2.56,2.67,2.71,4.45Z"/>
  <path class="cls-12" d="m27.29,45.25c-2.57-3.41,3.86-8.43.56-9.58-1.56-.28-2.48.22-2.9,1.77-.11.4-.24.8-.3,1.2-.29-1.38-.27-3.4,1.3-3.97,2.55-.88,4.77.87,3.74,3.56-.52,1.3-1.24,2.5-1.84,3.76-.64.97-.81,2.15-.57,3.26Z"/>
  <path class="cls-12" d="m24.25,41.47c-2.05-.1-4.76-1.23-4.74-3.62-.17-1.34.81-2.38,2.16-2.23.39.02,1.04.13,1.23.49.12.96.23,1.16-.28.16-.61-.13-1.4.04-1.8.55-.24.66-.13,1.49.25,2.08.79,1.15,1.96,1.98,3.19,2.58Z"/>
  <path class="cls-12" d="m26.38,42.5c-1.66-1.09-3.95-.99-5.31-2.57-.65-.66-.97-1.56-.93-2.48.07-.19.29-.27.44-.39.62-.47,0,.17-.13.42.73,2.67,4.52,2.5,5.93,5.01Z"/>
  <path class="cls-12" d="m26.84,44.12c-.78-.75-1.63-1.39-2.61-1.86-1.18-.59-3.23-1.71-3.2-3.18,1.26,2.22,4.41,1,5.81,5.04Z"/>
  <path class="cls-12" d="m26.02,42.87c-.28.09-.59-.06-.71-.33-.44-.29-.58-.88-.89-1.29-.37.09-.68-.19-.84-.5-.29-.06-.46-.31-.6-.55-.41.09-.74-.19-.97-.5-1.15-.11-2.31-3.78-.47-3.49.32-.34.89-.21,1.11.17.11-.04.23-.04.35,0,.11.03.2.08.27.15.13.02.26.09.35.18,0,0,0,0,.01.01.08.02.15.06.22.1.06.04.11.1.15.16.13-.05.27-.07.42-.03.02,0,.03,0,.05.01.07-.16.18-.3.35-.37.12-.05.23-.08.36-.06.06-.71.79-1.2,1.47-1.19.43-.19.96-.22,1.32.14.85.07,1.58.84,1.41,1.71-.09.5-.29,1.51-1,1.16-.36.91-.34,2.19-1.31,2.74.02.69-.04,2.07-1.07,1.79Z"/>
  <path class="cls-12" d="m47.36,46c-.06-1.44-.73-2.77-1.2-4.11-.52-1.13-1-2.31-.92-3.58.21-2.43,3.69-2.4,4.04-.05-.16-.19-.32-.42-.48-.62-.73-.58-2.03-.59-2.39.41-.23,1.15.26,2.23.7,3.27.46,1.48.73,3.18.24,4.68Z"/>
  <path class="cls-12" d="m47.25,46.2c.71-1.59,2.24-2.61,3.6-3.61.98-.62,1.88-1.43,2.03-2.65.31-1.18-1.03-2.51-2.11-1.66-.36.17-.75.32-1.11.44.22-.18.45-.36.67-.55.58-.56,1.15-1.04,2.01-.77,2.37.68,1.82,3.8.35,5.13-1.65,1.46-3.83,2.19-5.43,3.67Z"/>
  <path class="cls-12" d="m47.51,45.69c-.26-1.07-.88-1.98-1.52-2.85-.6-.87-1.1-1.78-1.45-2.77-1.15-2.92.99-4.63,3.66-3.07.29.06.37.52.54.74-.18-.15-.35-.33-.52-.48-3.85-.76-2.99,1.87-1.75,4.23.66,1.3,1.24,2.73,1.05,4.21Z"/>
  <path class="cls-12" d="m47.1,45.37c-.22-.27-.07-.59.02-.88-.41-.19-.34-.67-.27-1.04-.84-.19-.38-1.68-.44-2.32-.7-.51-.44-3.28.37-3.65.27-.7,1.26-.44,1.13.31.21.07.31.29.47.43.1.02.2.05.29.09.09.04.18.09.27.15.14-.01.29,0,.42.06.18.08.33.19.47.33.63-.34,1.14-1.19,1.96-.87.82.36,1.25,1.39,1.14,2.25-.15.72-.82,1.13-1.16,1.76-.21.28-.56.39-.75.68-.25.27-.52.62-.91.65-.39.38-.67,1.03-1.24,1.14-.19.23-.35.51-.62.66-.2.44-.81.72-1.16.27Z"/>
  <path class="cls-12" d="m49.31,39.39c-.43-.47-.92-.92-1.39-1.34,0,0,0,0-.01,0-.02.03-.04.07-.06.09,0-.06-.03-.15.04-.2.71-.02,1.38.76,1.42,1.44Z"/>
  <path class="cls-12" d="m49.63,39.87c-.63-.61-1.14-1.33-1.67-2-.02,0-.05.02-.07.02.02-.05.06-.09.12-.08.84.3,1.45,1.21,1.61,2.06Z"/>
  <path class="cls-12" d="m49.81,40.43c-.27-.55-.66-.99-.98-1.5-.33-.43-.49-1.02-.99-1.28,1.18-.04,2.03,1.74,1.97,2.78Z"/>
  <path class="cls-12" d="m49.56,40.06c-.64-.53-.93-1.35-1.17-2.11-.02,0-.02.03-.04.04,0-.03,0-.1.05-.1.71.46.92,1.4,1.15,2.16,0-.01.01.02,0,.02Z"/>
  <path class="cls-12" d="m50.09,40.35c-.45-.88-1.06-1.67-1.67-2.44-.27-.3-.61-.73-1.01-.41.24-.68.99-.34,1.41-.03.86.65,1.32,1.82,1.28,2.88Z"/>
  <path class="cls-12" d="m48.9,40.04c-.13-.09-.22-.24-.31-.37-.05-.07-.1-.14-.15-.22.03.23.1.53.35.61-.26.05-.46-.18-.6-.38-.33-.57-1.39-2.43-.09-2.41.52.28,1.01,1.45,1.3,2,.33.44.08,1.09-.5.77Z"/>
  <path class="cls-12" d="m48.25,42.81c.04-1.54,1.1-4.44,3-4.18.21-.09.4-.27.56.01.58.72.44.55-.19.12-.01.01-.03.03-.04.04.88.64.67,2-.16,2.58-1.07.75-1.62-.4-1.27-1.35-.86.72-1.53,1.71-1.89,2.77Zm2.54-2.14c.21-.17.4-.42.4-.7,0,0,0,.02,0,.03,0,0,0,.01,0,.04,0-.18-.06-.42-.26-.47-.14.35-.2.73-.15,1.11Z"/>
  <path class="cls-12" d="m46.83,43.25c.45-1.16.99-2.34,1.96-3.16.48-.41,1.02-.81,1.67-.89.13-.02.27-.06.39-.07-.25.14-.51.26-.74.42-1.26,1.06-2.32,2.37-3.27,3.7Z"/>
  <path class="cls-10" d="m26.78,43.83c-.66-.95-1.34-1.9-2.18-2.7-.71-.66-1.43-1.17-2.02-1.92-.59-.67-.96-2.01.01-2.5.34-.15.79-.04,1.01.25.12.15.25.32.35.47-.34-.23-1.03-.7-1.22-.07.03,1.75,3.26,1.85,4.05,6.47Z"/>
  <path class="cls-10" d="m26.61,43.12c-1.01-2-.1-3.5.25-5.43.1-2.5-1.96-1.42-2.27.28-.29-.47.18-2.49,1.3-2.59,1.62-.42,2.23,1.51,1.94,2.78-.47,1.77-1.55,2.96-1.23,4.96Z"/>
  <path class="cls-10" d="m25.34,41.07c-1.23-1.12-3.42-1.06-4.19-2.66-.64-1.62.79-3.01,2.32-1.97,0,0-.01,0-.02,0,.31.11.3.58.43.84-.16-.16-.31-.36-.47-.53-.46-.1-.92-.17-1.3.19-.77,1.77,2.55,2.37,3.23,4.14Z"/>
  <path class="cls-10" d="m25.84,42c-.25-.03-.42-.21-.49-.45-.02-.06-.04-.12-.05-.19-.22-.16-.31-.44-.4-.68-.02-.02-.04-.04-.06-.06-.12-.12-.21-.3-.29-.46-.57-.05-.65-.73-1-1.07-.91-.08-1.55-1.24-1.36-2.09.1-.46.68-.74,1.07-.45.07-.03.14-.04.22-.04.2,0,.38.08.52.21.09.01.18.04.25.09.06-.01.13-.02.2,0,.12.02.23.07.32.15,0,0,.02,0,.03,0,.03,0,.06-.01.1-.02.03-.06.07-.11.12-.16.05-.05.11-.09.17-.12.14-.9,1.26-.94,1.62-.16.31.61.28,1.38.17,2.04-.2.6-.32,1.24-.35,1.88-.03.56,0,1.59-.78,1.56Z"/>
  <path class="cls-10" d="m22.26,37.87c-.16-.12-.2-.32-.1-.48.04-.07.11-.12.18-.15-.12-.23-.36-.11-.44.07-.01-.48.54-.52.75-.15.35-.04.71.07,1.03.15-.31.02-.63,0-.94.06.11.31-.14.69-.47.49Z"/>
  <path class="cls-10" d="m47.68,45.46c.07-.84.04-1.74-.35-2.5-.59-1.03-1.07-2.11-1.31-3.27-.26-1.27.66-2.39,1.99-2.13.31.1.82.15.87.53.23.93.13.59-.27.02-1.76-.29-1.85.91-1.29,2.23.27.74.52,1.48.75,2.24.27.97.05,2.01-.4,2.89Z"/>
  <path class="cls-10" d="m48.01,44.9c-.23-1.79,1.58-2.74,2.63-3.86,1.67-1.82.64-2.83-1.46-1.88-.19.1-.36.24-.53.34.5-.82,1.48-1.61,2.5-1.41,2.39.45,1.13,3.02-.14,4.02-1.09.83-2.72,1.28-3.01,2.79Z"/>
  <path class="cls-10" d="m49.17,39.59c-.3-.56-.73-1.03-1.23-1.42.77-.02,1.33.67,1.23,1.42Z"/>
  <path class="cls-10" d="m49.59,40.09c-.31-.53-.62-1.06-.86-1.63-.08-.18-.27-.26-.4-.39.97-.01,1.26,1.24,1.26,2.02Z"/>
  <path class="cls-10" d="m49.73,40.31c-.24-.58-.52-2.22-1.28-2.14.21-.21.5-.19.72,0,.67.47.75,1.4.56,2.14,0,0,0,0,0,0Z"/>
  <path class="cls-10" d="m47.95,43.55c-.5-.24-.42-.93-.39-1.4-.28-.22-.3-.62-.37-.94-.56-.49-.94-2.61-.1-2.97.19-.88,1.19-.72,1.33.11.35.07.49.07.04.12.02.06.03.12.05.17.32-.15.72.04.81.38.09.05.16.12.21.21.01,0,.03,0,.04,0,.21-.63,1.18-1.03,1.48-.26.14.07.31.1.36.27.11.1.17.23.12.38.16.37-.08.7-.18,1.04-.22.42-.75.92-1.23,1,0,0,0,0-.01.01-.06.06-.13.12-.22.16-.09.16-.2.34-.33.47-.12.11-.24.22-.4.26,0,0,0,0,0,0-.21.47-.58,1.21-1.21.99Z"/>
  <path class="cls-10" d="m49.07,39.1c-.35-.07-.63-.32-.98-.37.38-.2.75.09.98.37Z"/>
  <path class="cls-1" d="m8.95,44.36c.39-.35.52-.88.75-1.34.06-.53.28-2.06.85-2.21.69,0,.25.81.23,1.2.37.17.3.61.08.87-.14.25-.34.54-.66.54-.37.35-.71.85-1.24.94Z"/>
  <path class="cls-1" d="m8.41,44.39c1.15-.44,2.1-1.35,3.01-2.18-.16.67-.45,1.42-1.06,1.82-.58.29-1.3.65-1.95.36Z"/>
  <path class="cls-1" d="m8.76,44.89c-.4-.33.42-.54.64-.67.48-.36.92-.63,1.37-1,.74-.71.94-1.12.44.17-.45.84-1.45,1.67-2.45,1.5Z"/>
  <path class="cls-1" d="m10.41,44.12c-.14-.08-.31-.21-.04-.13.26-.06.47-.28.74-.36-.12.24-.4.55-.7.5Z"/>
  <path class="cls-1" d="m11.06,44.69c-.02-.35-.05-.73.12-1.04.1.34.14.77-.12,1.04Z"/>
  <path class="cls-1" d="m9.77,46.45c-.34-.04-.41-.52-.1-.68.27-.13.44-.41.6-.67.21-.46.38-.95.43-1.45,0-.2,0-.42.16-.56-.3-1.39-.65-2.8-.53-4.23.03-.38.07-.78.17-1.14.16,1.14.47,2.24.83,3.33.37,1.26,1.02,2.52,1.09,3.84-.05.5-.58.94-1.04.58-.07.09-.15.16-.26.2-.06.02-.12.04-.19.04-.3.33-.68.74-1.16.74Z"/>
  <path class="cls-1" d="m8.29,42.51c-.69,0-1.65-.33-1.72-1.13-.02-.82.93-.78,1.5-.65.32-.45.91-.81,1.46-.65.01-.01.03-.03.05-.04.04-.02.08-.03.13-.03.13-.24.19-.55.12-.81.21.27.27.68.2,1.02.05-.05.11-.09.18-.12.05-.02.1-.03.15-.04.09-.81.11-1.61.12-2.43-.02-.41-.03-.82-.03-1.23.01-.34-.03-.83.37-.96.07-.4.52-.68.87-.4.3.21.14.58.13.88-.03.46-.03.91-.02,1.37.02,1.02-.01,2.03-.05,3.05-.06.59,0,1.24-.25,1.79-.14.25-.51.31-.71.1-.13.07-.29.07-.42.02-.08-.04-.15-.09-.2-.16-.04.04-.09.08-.14.11-.03.01-.06.03-.09.04-.12.31-.47.43-.78.38-.28.11-.62.08-.88-.09Z"/>
  <path class="cls-1" d="m10.34,39.86c-.92-.71-1.88-1.38-2.68-2.22-.31-.31-.55-.68-.71-1.09.14.09.29.2.43.31,1.25.7,2.39,1.67,2.97,3Z"/>
  <path class="cls-1" d="m10.57,40.41c-.37-.62-.85-1.18-1.27-1.76-.34-.36-.78-1.38-1.33-1.24.3-.44.9-.01,1.22.21.85.65,1.34,1.73,1.39,2.78,0,0,0,0,0,0Z"/>
  <path class="cls-1" d="m9.96,41.45c-.4-.15-.37-.6-.45-.95-.29-.96-.31-1.99-.55-2.94-.27,0-.57.09-.81-.08-.35.12-.94.35-1.09-.16-.06-.21.05-.43.25-.52.78-.24,2.59-1.9,2.86-.34.3.29.61.73.37,1.15.12.48.15.97.3,1.44.09.47.42,1.11,0,1.51.04.49-.32,1.11-.88.88Z"/>
  <path class="cls-1" d="m7.69,37.45c-.29-.24.31-.41.46-.53-.01.04-.06.09-.08.13,1.01-.41,2.05-1.06,2.67-1.96-.07,1.41-1.66,2.58-3.05,2.36Z"/>
  <path class="cls-1" d="m9.45,37.46c-.25-.99-.3-2.04-.62-3.02-.26-.9.58-1.54,1.14-.64,0,.89,1.58,3.18.45,3.6-.17.39-.76.44-.97.06Z"/>
  <path class="cls-1" d="m10.83,36.76c-.12-.03-.21-.12-.26-.23,0,0,0,0,0,0-.1-.25-.2-.51-.29-.77-.68-.1-.66-.98-.73-1.51-.02.05-.03.11-.05.15,0-.05-.06-.26.04-.28-.06-.44.24-1.02.75-.9.27-.15.63-.02.76.25.28,0,.52.24.52.52.02,0,.04,0,.05-.01,0,0,.01,0,.02,0-.08-.03.14-.03-.07.09,0,.1-.02.19-.04.28-.06.25-.21.53-.42.7.08.51.65,1.79-.28,1.73Z"/>
  <path class="cls-1" d="m9.98,34.79c-.61-.26-1-.82-1.43-1.27.64.13,1.07.77,1.43,1.27Z"/>
  <path class="cls-1" d="m10.32,34.6c-.89-.16-1.62-.78-2.05-1.56.78.36,1.42.99,2.05,1.56Z"/>
  <path class="cls-1" d="m9.84,34.03c-.57-.16-1.06-.54-1.59-.79.97-.11,1.84.47,2.61,1-.34-.03-.69-.11-1.02-.21Z"/>
  <path class="cls-1" d="m10.24,34.05c-.63-.08-1.2-.41-1.79-.6,1.04-.31,2,.39,3.01.45.02,0,.05,0,.06,0-.37.25-.85.21-1.27.15Z"/>
  <path class="cls-1" d="m10.73,35.75c-.16-.19-.13-.45-.09-.68-.46-.22-.28-.79-.19-1.18-.03.02-.06.06-.09.07.34-.55.41-1.76,1.19-1.84.09-.05.19-.07.28-.07.12-.52.8-.85,1.13-.33.18-.04.38.01.51.15.03.03.05.06.08.1.46-.48.19-.15.07.16,0,.71-.54,1.36-.85,1.99-.09.2-.15.45-.35.57-.11.2-.22.39-.43.5-.17.5-.81,1.09-1.27.56Z"/>
  <path class="cls-1" d="m11.58,31.95c-.77-.07-1.53-.44-2.01-1.04.92.23,1.76.64,2.62,1.02-.19.05-.41.04-.61.02Z"/>
  <path class="cls-1" d="m10.63,31.48c-.15-.02-.33-.1-.4.07-.04-.45.77-.36,1.07-.35,2.14.42.15.47-.68.28,0,0,0,0,0,0Z"/>
  <path class="cls-1" d="m12.15,32.32c-.6-.24-1.13-.74-1.26-1.39.49.38.96.84,1.26,1.39Z"/>
  <path class="cls-1" d="m10.01,31.57c-.17-.13-.25-.39-.16-.59.24-.5.91-.35,1.35-.27.47-.02,1,.22.59.73-.31.3-1.43.39-1.79.14Z"/>
  <path class="cls-1" d="m11.35,32.1c-.35-.47-.82-1.59-.52-2.13.08-.04.16.07.2.12-.06-.01-.07-.02-.12-.03.26.63.44,1.25.47,1.93.03.01.04.14-.03.12Z"/>
  <path class="cls-1" d="m12.05,32.2c-.57-.68-.89-1.52-1.11-2.37-.02-.04.01-.09.06-.08.72.55,1,1.59,1.05,2.45Z"/>
  <path class="cls-1" d="m12.3,32.44c-.65-.85-1.09-1.77-1.46-2.74-.07-.17.15-.34.29-.19.18.19.33.41.47.64.42.66.57,1.44.78,2.18.08.09.04.27-.08.12Z"/>
  <path class="cls-1" d="m12.58,33.02c-.05-.02-.1-.05-.13-.09,0,0,0,0,0,0-.17-.18-.2-.45-.27-.68-.25-.69-.56-1.37-.72-2.1-.03-.15.21-.2.25-.07.15.27.32.53.48.81.03,0,.06-.01.09-.01.08,0,.18.04.24.1.32-.11.28.36.26.55.13.39.44.78.38,1.21-.07.24-.34.37-.57.28Z"/>
  <path class="cls-1" d="m13.56,32.8c-1.21-.18.38-1.18.78-1.44.62-.34,1.3-.56,2-.65-1,.61-2.01,1.26-3.04,1.83.07.1.19.16.25.25Z"/>
  <path class="cls-1" d="m13.14,32.96c1.08-1.46,2.85-2.58,4.67-2.8-1.57.85-2.97,2.06-4.6,2.8.02.02.06.02.08.03-.06,0-.16.04-.16-.03Z"/>
  <path class="cls-1" d="m11.83,33.74c-.49-.57.37-1,.78-1.27,1.05-.65,2.17-1.19,3.27-1.74.07-.48,1.43-.97,1.88-1.02.4-.22.98-.69,1.34-.18.14-.1.38-.4.52-.17.05.25-.23.45-.38.61-.53.49-1.12.91-1.76,1.23-.24.11-.48.24-.75.24-1.38.88-2.99,1.37-4.29,2.38,0,0,0,0,0,0-.19.11-.44.09-.6-.08Zm7.31-4.13s.04-.02.05-.03c.01,0,.02-.02.04-.03,0,0-.01,0-.02,0,0,0,0,0,0,0-.03,0-.06.02-.08.03,0,0,0,.01.01.02Z"/>
  <path class="cls-1" d="m12.07,32.2c-.5-.13-.54-.87-.04-1.03-.13-.59.49-.69.93-.63.44,0,.88-.05,1.32-.13.58-.1,2.14-.99,2.6-.64.52-.2,1.03-.42,1.54-.64.38-.11.75-.49,1.15-.31,1.13-.43,2.25-.92,3.42-1.26.26-.02.29.34.07.43-1.08.48-2.15,1-3.23,1.51-.62.79-2.37,1.12-3.31,1.56-.5.11-1.08.71-1.58.35-.94.27-1.87.84-2.87.78Z"/>
  <path class="cls-1" d="m18.05,30.21c1.91-1.3,4.15-2.32,6.45-2.57-1.95.64-3.75,1.61-5.63,2.41-.25.1-.5.2-.73.31-.08.02-.15-.08-.09-.15Z"/>
  <path class="cls-1" d="m19.57,29.1c-.02-.06-.02-.12,0-.18-.26.06-.53.11-.78.19-.09.03-.2.05-.29,0-.17-.06-.22-.28-.14-.43.26-.34.75-.42,1.13-.58,1.55-.55,3.28-.76,4.83-1.27.42-.27.94-.33,1.43-.44,1.09-.21,2.18-.38,3.29-.45.83-.07,1.66.08,2.48.15.12,0,.16.19.03.22-.34.09-.71.11-1.06.13-.53.03-1.05.11-1.58.2.11.43-.28.62-.65.63-.41.09-.82.19-1.22.31-.2.17-.48.17-.72.27-1.15.36-2.2,1.01-3.37,1.27-.48.15-1.36.56-1.55-.16-.25.09-.48.17-.73.25-.35.12-.94.36-1.1-.14Z"/>
  <path class="cls-1" d="m27.94,26.88c-.15,0-.18-.23-.03-.26.67-.19,1.32-.44,2-.61,1.4-.31,2.86-.78,4.3-.5.08.03.05.14-.03.15-.17,0-.34,0-.51.02-1.93.28-3.78,1.06-5.74,1.2Z"/>
  <path class="cls-1" d="m28.16,26.56c2.8-.89,6.3-1.2,8.95-.57,0,0,0,0,0,0-2.37.43-4.75.58-7.15.65-.17-.03-2.18.21-1.79-.08Z"/>
  <path class="cls-1" d="m27.45,27.47c-.24-.11-.14-.43.1-.45,1.35-.48,2.77-.73,4.19-.87.68-.06,1.38-.13,2.05-.04-.39.07-.78.18-1.17.27-1.02.24-2.03.51-3.04.77-.51.12-1.02.22-1.53.31-.2.02-.4.08-.6.01Z"/>
  <path class="cls-1" d="m15.05,18.39c-.72-.4-1.06-1.2-1.38-1.9.5.27.88.73,1.36,1.04.61.48,1.32.71,2.08.8-.63.32-1.42.47-2.06.06Z"/>
  <path class="cls-1" d="m16.41,17.53c-.91-.02-2.2-.6-2.31-1.3,1.6,1.23,3.92.12,5.13-1.21,1.28-1.27,3.15-1.28,4.82-1.48,1.06-.02,1.33-.42,2.04-1.08,1.42-.82,3.22-.5,4.78-.35.9.09.04.13-.33.23-1.2.3-2.45.5-3.6.97-.42.23-.66.69-1.06.94-1.19.67-2.66.45-3.96.75-2.31.35-2.71,2.75-5.5,2.53Z"/>
  <path class="cls-1" d="m24.35,13.97c1.51-2.79,7.02-2.67,9.75-2.19-1.98.38-3.97.75-5.97.99-1.36.15-2.74.21-3.78,1.2Z"/>
  <path class="cls-1" d="m54.58,15.92c-1.68-1.14-3.74-1.49-5.66-2.04-1.05-.32-2.04-.83-3.1-1.09-1.67-.24-3.38-.3-5.04-.58-.85-.19-1.68-.07-2.52.06-.69.1-1.39.21-2.09.13-1.53-.06-3.07-.15-4.6-.16-.29,0-.58-.01-.88-.02-.67-.03-1.35-.06-1.99.11-.16.05-.32.13-.47.18.66-.69,1.63-.84,2.53-.98,1.68-.38,3.4-.4,5.11-.35,1.03.12,2.02-.08,3.02-.26,1.08-.09,2,.04,3.03.21,1.48.21,2.82.28,4.27.48.79.16,1.49.6,2.27.78,1.58.61,3.28.93,4.86,1.54.11.11.22.22.33.33.25.24.5.48.76.71-.04-.03-.07-.07-.11-.1.17.15.34.3.51.45-.02-.02-.04-.03-.06-.05.1.09.21.19.31.28.12.11.24.22.36.33.29.27.57.55.84.84.08.08.16.17.23.26.03.04.07.07.1.1.1.14.19.28.29.42.16.26.33.51.52.74-.03-.04-.07-.08-.1-.12l.06.07c.12.16.23.32.36.47-.01-.01-.02-.03-.03-.04.13.16.25.33.38.49.08.1.16.18.26.25.02.13.03.27.03.4-.81-1.62-2.39-2.75-3.79-3.85Z"/>
  <path class="cls-1" d="m14.51,17.4c-.37-.23-1.27-.36-1.25-.89.09-.3.41-.2.61-.1.19-.2.45-.05.6.12.17.16.48.23.52.49.13.12.27.19,0,.12-.03.22-.29.35-.49.26Z"/>
  <path class="cls-1" d="m14.77,17.94c-.7-.37-1.19-1.06-1.43-1.81.64.44,1.07,1.14,1.43,1.81Z"/>
  <path class="cls-1" d="m14.23,17.37c-.51-.23-1.09-.98-.67-1.51,0,.13,0,.3.09.41.23.35.39.75.59,1.11Z"/>
  <path class="cls-1" d="m14.33,17.57c-.73-.35-1.48-1.29-.97-2.08.07.78.64,1.41.97,2.08Z"/>
  <path class="cls-1" d="m14.98,17.23c-.72-.2-1.38-.84-1.52-1.58.54.49,1.05,1.03,1.52,1.58Z"/>
  <path class="cls-1" d="m15.64,17.68c-.85-.25-1.65-.67-2.07-1.49.72.42,1.49.87,2.07,1.49Z"/>
  <path class="cls-1" d="m16.04,18.11c-.59-.04-1.15-.35-1.37-.9.77.49,1.71.52,2.56.79-.36.14-.8.15-1.19.11Z"/>
  <path class="cls-1" d="m15.53,18.89c-.28-.08-.48-.38-.39-.67-.72-.06-.74-1.01,0-1.06.41-.08.82-.15,1.24-.18.36-.12.78-.3,1.15-.14.56-.3,1.5-.34,1.27.56.21-.02.44-.04.64-.05-.91.39-1.81.82-2.7,1.25-.38.15-.78.39-1.2.29Z"/>
  <path class="cls-1" d="m58.48,21.63c-.76-.45-1.44-1.04-2.27-1.38-1.15-.58-2.41-.88-3.62-1.31-2.87-.98-5.95-1.05-8.94-1.43-2.7-.16-5.35-.43-8.06-.39-3.67.05-7.32.39-10.99.56-1.98.11-3.94.4-5.91.64-.61.05-1.26.27-1.87.14-.1-.04-.2-.09-.3-.14.07,0,.15.01.23.01.85-.11,1.61-.66,2.43-.92,1.17-.44,2.42-.61,3.66-.74,4.35-.36,8.7-.6,13.06-.75,2.94.01,5.88.26,8.81.49,2.89.37,5.87.47,8.61,1.49,2.18.47,4.11,1.74,5.16,3.71Z"/>
  <path class="cls-1" d="m18.26,17.92c-.57-.13-.5-.83.04-.96-.03-.34.24-.5.53-.56.39-.2.74-.46,1.1-.7.73-.5,5.26-3.45,5.66-2.01.17-.08.33-.17.5-.25.03-.2.18-.39.39-.44.37-.12.74-.23,1.12-.33.58-.19,1.17-.38,1.78-.41.21,0,.42-.06.64-.09.48-.12.97-.41,1.47-.32.44.1.52.76.12.96h0s-.01,0-.02.01c0,.02.01.05.01.07.37-.05.87-.1,1.09.28.36-.08.82-.29,1.13-.02.21.21.1.57-.18.65-.43.16-.88.25-1.32.38-1.37.37-2.76.71-4.13,1.1-.93.26-1.85.57-2.79.81-.46.1-.92.28-1.39.24-.61.26-1.22.52-1.83.75-.34.1-.82.4-1.1.06-.03,0-.06,0-.09.01-.06.01-.13,0-.19-.01-.51.2-1.04.37-1.56.47-.32.13-.65.35-1,.31Z"/>
  <path class="cls-1" d="m48.32,17.76c-.12-.03-.22-.11-.31-.2-.18.05-.36.1-.55.13-.4.08-.93.16-1.16-.26-.29.05-.62.13-.88-.05-.28.03-.56,0-.75-.2-.45.1-1.07.29-1.41-.12-.5.08-1.12.22-1.53-.15-.24-.03-.48-.14-.6-.35,0-.01-.01-.02-.02-.03-.29.04-.59.1-.88.04-.58.1-1.73.56-1.98-.23-1.59.07-3.1.25-4.68.37-.62,0-2.3.34-2.57-.35-.54.02-1.08.04-1.62.05-.42-.03-.82.02-1.22.11-.36.07-.72.13-1.09.2-.27.04-.62.15-.84-.07-.74.19-1.49.37-2.24.51-.43.11-1.17.13-1.18-.47-.28-.08-.46-.4-.34-.67.14-.32.51-.32.8-.37.24-.04.49-.09.73-.14,1.48-.35,2.96-.65,4.45-.95-.27.02-.54.08-.8.04-.49-.08-.45-.8.06-.81,0,0,0,0,0,0,.67-.13,1.34-.25,2.02-.35-.18-.02-.36-.06-.51-.16-.33.06-.66.11-.98.17-.36.07-.73.15-1.09.19,0,0,0,0,0,0-.27.05-.53-.23-.45-.51.17-.66,3.6-.95,4.31-1.02,2.01-.37,4.02-.78,6.07-.8.51,0,1.36-.1,1.45.58,1.3.01,2.6-.38,3.9-.15.56,0,1.89-.39,1.84.52.26-.08.53-.14.8-.18.3-.04.57.2.58.5.36-.12.87-.11,1,.32,1.86.05,3.87.37,5.31,1.64.08.07.18.14.25.21-.1-.04-.2-.09-.3-.14.07.1.1.23.08.36-.02.17-.12.3-.26.38.01.03.02.05.03.08.02.09.03.18,0,.27.52.33.32,1.05-.26,1.16-1.01.35-2.06,1.06-3.17.89Zm2.56-3.47c.07.05.12.1.17.16.05-.02.1-.03.15-.05.03-.01.07-.02.1-.03-.18-.06-.35-.1-.53-.15.04.02.07.04.1.07Z"/>
  <path class="cls-1" d="m52.13,18.18c-.14-.12-.23-.26-.33-.42-.01-.02-.02-.04-.03-.06-.1.06-.22.1-.35.1,0,0-.01,0-.02,0-.52.61-1.11.19-1.27-.47-.24-.81-.38-2.34.63-2.65.01-.02.03-.05.05-.07.06-.08.14-.14.23-.17,0-.43.49-.78.88-.54.29.16.31.53.44.8.07-.03.15-.08.21-.1-.06.05-.13.1-.19.15.22.53.44,1.07.57,1.63.15.46.45,1.06.09,1.49-.12.36-.61.56-.92.3Z"/>
  <path class="cls-1" d="m57.63,21.31s0-.02,0-.02c-.5-.06-.57-.63-.7-1.01-.02,0-.04.01-.07.01-.13.02-.25-.02-.36-.08-.29.04-.51-.18-.6-.43-.24.21-.66.12-.81-.16-.14-.25-.3-.49-.45-.73-.16,0-.3-.09-.4-.22-.43.16-.64-.18-.8-.51,0,.29-.33.53-.58.34-.11-.08-.16-.22-.22-.34-.24-.49-.46-.99-.65-1.5-.07-.26-.23-.53-.15-.8-.26-.49-.65-.94-.77-1.49-.05-.45.55-.65.77-.26,0,0,0,0,0,0,.03.06.07.13.1.19.18-.35.73-.34.9.02.11.18.22.37.32.56.15-.03.29.01.41.09.54-.18.75.43.98.8.16,0,.32.06.42.19.08.08.15.17.21.27.1-.04.22-.05.33-.02.16.04.29.16.35.31h0c.03.07.07.14.1.21h.02c.13,0,.26.05.36.13,0,0,.02,0,.02,0,.05.05.1.11.14.16.03.04.07.07.1.1.1.14.19.28.29.42.16.26.33.51.52.74-.03-.04-.07-.08-.1-.12.02.02.04.05.06.07.12.16.23.32.36.47l-.03-.04c.13.16.25.33.38.49.03.03.05.06.08.09.22.49.4,1,.55,1.52.2.53-.16.94-.55.94-.2,0-.4-.11-.54-.36Z"/>
  <path class="cls-1" d="m57.68,19.52c-.58-.58-.96-1.33-1.42-1.98.75.42,1.12,1.22,1.42,1.98Z"/>
  <path class="cls-1" d="m57.67,19.06c-.44-.36-.78-.86-1.07-1.34.57.25.89.78,1.07,1.34Z"/>
  <path class="cls-1" d="m57.83,18.96c-.28-.24-.51-.55-.68-.87.34.18.58.51.68.87Z"/>
  <path class="cls-1" d="m58.16,19.34c-.49-.38-.87-.91-1.09-1.48.54.34.88.89,1.09,1.48Z"/>
  <path class="cls-1" d="m57.98,18.94c-.3-.21-.54-.52-.7-.85.41.19.68.55.88.94.04.07-.14-.06-.18-.09Z"/>
  <path class="cls-1" d="m58.37,19.2c-.45-.24-.8-.66-.93-1.16.41.29.73.7.93,1.16Z"/>
  <path class="cls-1" d="m58.3,19.12c-.45-.26-.92-.66-.98-1.19.38.35.78.68,1.04,1.13.03.04.06.09.09.12-.05,0-.1-.03-.15-.06Z"/>
  <path class="cls-1" d="m58.35,19.43c-.5-.36-.91-.9-1.06-1.5.04.03.07.07.11.11.16.04,1.29,1.45.95,1.39Z"/>
  <path class="cls-1" d="m58.47,19.63c-.71-.46-1.49-1.23-1.66-2.05,0,0,0,.01,0,.02.71.53,1.31,1.21,1.66,2.03Z"/>
  <path class="cls-1" d="m57.34,18.82c-.36-.48-.7-1-.86-1.57.38.46.71,1,.86,1.57Z"/>
  <path class="cls-1" d="m36.7,25.85c-.31-.04-.63-.14-.9-.29.38-.02.79-.02,1.13.17.11.06.23.12.32.19-.18-.02-.36-.04-.54-.08Z"/>
  <path class="cls-1" d="m35.39,25.73c.55-.07,1.18-.12,1.71.07-.57.09-1.16.17-1.71-.07Z"/>
  <path class="cls-1" d="m40.01,26.87c-.77-.04-1.52-.32-2.21-.61-.48-.45-.46-.41.14-.22,1.33-.11,2.65.2,3.88.67-.6.14-1.23.22-1.85.16,0,0,.05,0,.05,0Z"/>
  <path class="cls-1" d="m39.48,26.68c-.75-.06-1.56-.32-1.98-.98.81.3,1.62.57,2.4.95.05.05-.33.04-.42.03Z"/>
  <path class="cls-1" d="m39.67,27c-3.58-.58-2.94-1.86.13-.14-.13-.12.14-.01.13.06-.01.11-.18.09-.26.08Z"/>
  <path class="cls-1" d="m40.87,26.94c-1.21-.07-2.52-.33-3.51-1.03h0c.83.06,1.67.08,2.49.27.77.16,1.5.46,2.23.75-.39.07-.81.03-1.22.01Z"/>
  <path class="cls-1" d="m61.77,32.77c-.97-1.42-2.72-1.52-4.25-1.87-1.44-.38-2.91-.66-4.33-1.11-2.16-.66-4.09-1.81-6.31-2.25-2.28-.42-4.64-.56-6.86-1.25-.78-.23-1.53-.53-2.3-.79.35-.05.78-.03,1.14,0,1.98.03,3.96.1,5.91.49,1.27.17,2.55.3,3.76.72,1.71.51,3.27,1.3,4.94,1.88,2.69,1.18,7.47.74,8.31,4.18Z"/>
  <path class="cls-1" d="m38.55,26.68c-.36-.07-.82.04-1.11-.22-.32-.08-.78-.03-.96-.34-.13-.31.2-.52.48-.46.7.02,1.4.03,2.1.02.44-.08.8.45.47.8.13.05.27.11.38.18-.46-.08-.9.07-1.36.03Z"/>
  <path class="cls-1" d="m61.18,32.32c-1.16-.92-2.55-1.3-4-1.35-1.51-.27-3.04-.47-4.52-.85-.8-.25-1.61-.43-2.42-.67-.98-.33-1.86-.89-2.85-1.18-.91-.34-2.01-.41-2.92-.63-1.78-.34-3.54-.74-5.31-1.13-.55-.09-1.09-.28-1.58-.52.27.02.55.05.82.07,1.89.03,3.78-.06,5.65.27,1.36.27,2.72.38,4.02.87.81.25,1.55.68,2.34.99.65.23,1.34.32,1.99.54,1.39.43,2.92.68,4.33.91,1.83.22,3.6.95,4.46,2.67Z"/>
  <path class="cls-1" d="m62.17,44.94c-.3-2.31-.6-4.63-.61-6.97-.13-2.04-.75-3.99-1.36-5.92-.11-.29-.27-1.32.01-.49,1.45,2.16,2.41,4.64,2.45,7.26.19,2.06.13,4.14-.49,6.12Z"/>
  <path class="cls-1" d="m61.34,35.24c-.66-1.17-1.18-2.45-1.39-3.78-.02-.15.08-.26.23-.23-.03.03-.09.04-.11.08.09.38.41.7.55,1.08.43.89.59,1.91.72,2.86Z"/>
  <path class="cls-1" d="m61.92,36.33s-.02,0-.04-.03c-.21-.29-.38-.64-.54-.96-.31-.62-.6-1.26-.82-1.9-.18-.47-.33-.95-.55-1.41-.05-.13-.14-.24-.27-.29.42,0,.65.44.88.71.84,1.12.95,2.57,1.33,3.86Z"/>
  <path class="cls-1" d="m61.14,35.15c-.3-1.22-.66-2.45-.87-3.69-.03-.07-.07-.32.07-.22.01-.27.27-.48.53-.48.51,0,.55.54.61.92.1.01.19.05.27.11,0,0,.01.01.02.02.07-.02.14-.02.21-.01.11.01.2.06.28.13.04,0,.09,0,.14,0,.21.03.38.19.43.4.27.09.31.44.32.69,0,0,0,0,0,.01,0,0,0,0,0,0,.15-.07.53-.23.48-.41.19.17-.34.74-.54.78-.01.04-.03.07-.05.11-.04.07-.1.13-.18.18-.05.26-.16.52-.42.62-.11.04-.22.05-.32.03-.02.05-.04.1-.06.15.03.3.05.65-.21.85-.24.18-.59.1-.71-.19Z"/>
  <path class="cls-1" d="m62.61,33.26s-.02-.02-.03-.04c-.05.01-.09.03-.14.04-.1.03-.17-.1-.12-.17-.6-.17-.82-.78-1.03-1.3-.14-.17-.27-.36-.32-.57-.36.43-.92.03-1.33-.13-.41-.12-.61-.61-.25-.9.14-.11.31-.12.49-.11.2-.08.42,0,.63,0,.04-.31.21-.64.55-.68.27-.04.55.12.63.38.13.21.12.48.24.7.26.54.61,1.02.99,1.47.04,0,.08,0,.12,0,.22-.2.44-.4.65-.62.12-.13.25-.24.44-.26.77-.03.85.76.41,1.25-.26.33-.59.59-.91.84-.27.25-.74.4-1.02.09Z"/>
  <path class="cls-1" d="m60.85,33.77c-.41-.97-.52-2.18-.19-3.2-.33,0-.16-.32-.03-.46.23-.3.38-.64.21-.02.68-.25.25.84.26,1.16-.08.79-.2,1.59-.23,2.38.01-.06.06.18-.03.13Z"/>
  <path class="cls-1" d="m61.13,34.94c-.3-.64-.62-1.3-.75-2-.03-.18-.24-1.22.13-.65-.04-.01-.08-.05-.12-.07.38.86.65,1.79.73,2.72Z"/>
  <path class="cls-1" d="m62.42,39.7c-.34-.14-.22-.52-.25-.8-.04-.41-.08-.81-.13-1.22-.1-.7-.2-1.39-.27-2.09-.05-.36-.25-.77-.09-1.12,0-.26.06-.35.32-.24-.06,0-.14-.01-.2.02-.01.03-.01.06-.01.09.09-.08.21-.11.33-.1.33-.22.77.05.77.43.1-.03.2-.04.31,0,.14.04.26.14.33.27.07,0,.13,0,.2.02.06.02.11.04.16.08.15-.1.34-.12.51-.05.03.01.06.03.09.05.03,0,.06-.02.1-.02.17-.2.26-.51.55-.56.13-.23.39-.39.64-.24.13-.14.23-.32.34-.47-.05.22-.08.43-.18.63.15.23,0,.48-.13.68-.13.26-.21.59-.48.75-.09.14-.17.27-.28.39-.1.34-.27.73-.64.84-.04.14-.1.27-.19.38-.02.26-.09.54-.33.68-.05.32-.27.53-.59.55-.02.07-.04.14-.07.21-.04.08-.09.15-.17.2.03.37-.22.86-.64.69Z"/>
  <path class="cls-1" d="m63.14,35.24c-.21-.04-.53-.1-.52-.37.35.32,1.42-.13,1.93-.11.15-.01.32-.03.46-.02-.55.34-1.21.63-1.87.5Z"/>
  <path class="cls-1" d="m63.69,35.19c-.61-.03-1.59-.29-1.55-1.04.03.04.06.1.09.14.54.49,2.27.54,2.97.34-.34.44-.97.57-1.5.57Z"/>
  <path class="cls-1" d="m64.31,35c-.54-.01-1.17-.15-1.6-.43.36-.06.73-.06,1.09.03.32.1,1.45.46.51.4Z"/>
  <path class="cls-1" d="m64.13,34.84c-.51-.08-.94-.32-1.39-.54.03.04,0,.02-.04,0-.02-.01,0-.05.01-.06.8-.19,1.52.35,2.28.42.04,0,.08-.01.11,0-.25.27-.64.25-.98.19Z"/>
  <path class="cls-1" d="m63.94,34.87c-.15-.02-.27-.1-.4-.18.11-.02.25-.01.37-.06.9-.34,1.78-.73,2.42-1.45-.07,1.22-1.27,1.82-2.39,1.69Z"/>
  <path class="cls-1" d="m62.36,35.05c-.19-.27-.4-.53-.58-.8-.15-.35.3-.68.58-.43.2.17.33.42.49.63.38-.23.42.43.56.65-.04-.01-.08-.05-.12-.07-.03.09-.11.16-.2.19-.11.03-.21,0-.31-.03-.15.11-.33,0-.43-.13Z"/>
  <path class="cls-1" d="m62.39,44.01c-.39-.36-.12-1.22-.22-1.72-.01-.7-.2-1.45.05-2.12-.01-.12-.02-.24-.03-.36,0-.04,0-.08-.01-.13,0,0,0,0,0,0-.03-.23.09-.46.32-.56.26-.11.57,0,.68.26.09-.02.19-.03.28,0,.12.03.22.1.28.2.04-.02.08-.03.12-.03.18-.02.37.05.49.19.08,0,.17.01.24.04.12-.12.28-.18.45-.16.03-.05.06-.09.1-.13.1-.11.26-.17.41-.16.17-.2.45-.24.66-.14.12-.38.49-.75.89-.47.08-.1.15-.23.29-.24.14-.16.28-.31.4-.47-.08-.02-.17.03-.23.05.07-.08.2-.21.33-.15.2.16-.13.58-.16.79.04.14-.06.27-.12.39-.22.42-.32,1.01-.77,1.24-.22.45-.52,1.13-1.12,1.06-.08.05-.16.08-.25.09-.06.07-.12.14-.2.19-.09.05-.18.09-.28.1-.03.05-.07.1-.11.14-.1.1-.22.18-.36.21-.1.15-.23.27-.41.32-.08.02-.16.02-.24.01-.03.02-.07.04-.11.06,0,0-.01,0-.02,0-.02.08-.05.17-.08.24-.07.17-.18.34-.34.43,0,.03-.01.06-.02.08-.06.25-.24.5-.51.52-.06.16-.23.3-.41.22Z"/>
  <path class="cls-1" d="m63.92,40.23c0-.23.14-.4.33-.52,1.12-1.01,2.55-1.5,3.87-2.17-.58,1.13-1.68,1.81-2.88,2.15-.43.23-1,.18-1.32.55Z"/>
  <path class="cls-1" d="m63.3,39.95c-.54-.11.18-.37.36-.45.64-.3,1.26-.65,1.93-.89,1.03-.45,2.26-.73,2.96-1.66-.32,2.25-3.1,2.79-4.99,2.95.21.1-.16.03-.25.03Z"/>
  <path class="cls-1" d="m62.63,39.9c.12-1.11,1.11-1.76,1.78-2.55-.13.1-.26.23-.38.33.17-.53.43-1.04.86-1.41.59-.7,1.47-.19,1.11.66-.42.92-1.17,1.49-2,1.96-.56.18-1.02.57-1.37,1.03Z"/>
  <path class="cls-1" d="m63.11,40.28c-.08-.96.16-2.16,1.14-2.57-.54.77-.74,1.73-1.14,2.57Z"/>
  <path class="cls-1" d="m63.44,40.09c-.51-.57-.39-1.39-.11-2.02.15.67-.01,1.36.11,2.02Z"/>
  <path class="cls-1" d="m65.76,47.69c-.2-.03-.37-.18-.42-.38,0-.03-.01-.06-.02-.09-.08-.05-.15-.12-.2-.19-.16-.09-.26-.26-.29-.43-.12-.04-.23-.12-.3-.22-.03-.04-.06-.09-.08-.14-.31-.07-.48-.37-.49-.67-.09-.04-.18-.11-.24-.19-.03-.03-.05-.07-.07-.11-.07-.01-.15-.04-.21-.08-.08-.04-.13-.1-.18-.16-.06,0-.12-.02-.17-.04,0,0-.01,0-.02,0-.1.03-.21.03-.32,0-.54.2-.66-.44-.44-.81.14-.37.3-.86.76-.89.06-.04.12-.07.19-.1.31-.1.62.12.7.41.08.04.15.1.2.17.1,0,.2.03.29.08.17.1.27.27.29.45.17.05.32.18.39.35.04.08.05.17.05.26.04.02.08.04.12.07.02.02.05.04.07.06.36-.06.71.23.71.59.04.03.08.07.1.11.05.07.09.15.11.23.05.04.1.1.13.15.39-.1.53.38.3.64.17.06-.08.25-.03.37.03.03-.04-.02-.04-.04-.02.04-.05.07-.07.11-.06.1-.16.23-.28.25-.14.17-.33.3-.55.27Z"/>
  <path class="cls-1" d="m66.4,46.56c-.55-.04-.97-.46-1.13-.96.59.46,1.33.77,2.09.7-.26.2-.62.3-.95.26Z"/>
  <path class="cls-1" d="m65.87,46c.59,0,1.2-.04,1.8-.07-.51.42-1.26.49-1.8.07Z"/>
  <path class="cls-1" d="m66.82,46.15c-.12,0-.26-.08-.31-.19.33.09.69-.07,1.04.02-.21.13-.48.2-.73.17Z"/>
  <path class="cls-1" d="m66.39,46.37s.02.02.04.02c3.01-1.63.34.57-.04-.02Z"/>
  <path class="cls-1" d="m66.44,47.23c.68-.28.95-1.1,1.54-1.53-.14.71-.67,1.71-1.54,1.53Z"/>
  <path class="cls-1" d="m66.03,47.8c-.71-.37-.8-1.33-.74-2.05.02-.12-.04-.22-.08-.33-.07-.2.14-.38.33-.33.31.13.43.46.53.75.08-.06.14.09.21.12-.01,0-.05,0-.07,0,.01.02.03.03.04.05.09-.07.19-.09.32-.06.06.01.11.05.16.09.04-.02.08-.03.13-.03.55-.6,1.52.11.98.77.01.75-1.17,1.26-1.81,1.02Z"/>
  <path class="cls-1" d="m63.48,43.91c-.22-.09-.3-.32-.27-.54,0-.05.01-.09.03-.13-.02-.03-.02-.06-.01-.09.01-.04.03-.06.06-.08.12-.3.21-.78.58-.84.16-.51.94-.5.96.08,0,.23-.13.44-.21.65.12.08.15.23.27.32-.1-.01-.2-.07-.29-.11-.04.07-.09.13-.15.18-.01,0-.02.02-.04.02-.19.3-.52.7-.91.54Z"/>
  <path class="cls-1" d="m65.49,43.93c-.42-.14-.71-.52-1.08-.72.1-.04.2-.03.32,0,.55.07.88.58,1.42.66-.19.11-.44.16-.65.07Z"/>
  <path class="cls-1" d="m65.27,43.16c-.31-.14-.67-.35-.69-.72.42.31.95.47,1.37.79.09.11-.57.02-.68-.06Z"/>
  <path class="cls-1" d="m66.3,43.75c-.51-.01-1.62-.19-1.56-.86.09-.5.1-.26.22.06.66.23,1.33.48,2.01.63-.19.13-.43.16-.67.16Z"/>
  <path class="cls-1" d="m66.79,43.57c-.16.05-1.94-.56-1.33-.54.92-.08,1.85.08,2.77.04-.42.28-.91.54-1.44.5Z"/>
  <path class="cls-1" d="m66.19,43.75c-.24-.05-.48-.15-.69-.26-.07-.04-.14-.07-.22-.11-.64,1.18-1.57-.66-1.65-1.31,0-.47.56-.73.92-.43.69.61,1.1,1.53,1.93,1.97.12.06.26.1.37.14-.22.05-.44.05-.66,0Z"/>
  <path class="cls-1" d="m66.31,43.8c-.27-.07-.59-.18-.75-.42-.07-.12-.07-.28-.06-.41.08.15.16.32.34.37.47.18.99.26,1.46.41-.32.06-.66.12-.98.06Z"/>
  <path class="cls-3" d="m8.48,41.75c-.36-.18-.71-.46-.65-.89.44.69,1.55.53,2.07.03.22-.26.66-.45.71.03,0,.29-.2.56-.21.84-.1-.09-.11-.25-.14-.38-.39.53-1.21.7-1.78.37Z"/>
  <path class="cls-3" d="m8.18,42.44c-.46-.29-1.25-.44-1.37-1.06-.08-.43.41-.81.81-.62.17.08.34.16.5.24.32-.04.66-.04.97.01-.19.05-.37.12-.54.21.34.25,1.08.35.97.9-.09.33-.46.37-.73.25-.18.1-.4.17-.6.07Z"/>
  <path class="cls-3" d="m8.08,45.63c-.58-.25-.43-1.02.12-1.22-.01-.46.47-.6.74-.87.69-.89,1.41-1.88,1.62-2.99.11-.58.84-.71,1.2-.27.39.42.08,1.04-.02,1.53-.38,1.11-1.12,2.04-1.97,2.83-.48.39-1,1.2-1.7.99Z"/>
  <path class="cls-3" d="m9.48,43.29c-.09-.11-.11-.24-.1-.38-.06-.05-.08-.13-.05-.2.2-.54.16-1.15.4-1.68.16-.5.84-.54.88.03,0,0,0,0,0,0,0,.1-.02.2-.04.3.16.07.15.26.08.4-.14.53-.08,1.48-.69,1.7-.18.05-.38-.01-.49-.16Z"/>
  <path class="cls-3" d="m10.11,45.92c-.29-.29.07-.63.15-.93.15-.53.3-1.07.36-1.61.06-.44-.03-.92.15-1.34,0,0,0,0,0,0,.19-.36.73-.38.97-.06.26.36.07.86.06,1.26.24.24.03.64.09.94.02.62-.1,1.96-1.03,1.53-.15.25-.5.45-.74.21Z"/>
  <path class="cls-3" d="m11.42,44.25c-.11-.6.03-1.21.32-1.73-.03.59-.18,1.17-.32,1.73Z"/>
  <path class="cls-3" d="m8.33,41.27c-.3-.07-.49-.34-.7-.54.26.07.49.25.76.32.24.02.47-.02.7-.05-.22.15-.48.29-.76.27Z"/>
  <path class="cls-3" d="m8.56,41.8c-.46-.02-.75-.42-.96-.78.28.18.54.44.88.49.36.09.75-.02,1.04-.23-.2.33-.57.56-.96.52Z"/>
  <path class="cls-3" d="m10.19,40.32c-.11-.12-.22-.25-.33-.38-.74.26-1.07-.74-1.45-1.19-.38-.41-.8-.79-1.11-1.26-.17.11-.14.09-.04-.06-.42-.53.29-1.28.84-.95.53.39.79,1.02,1.19,1.52.3.44.76.8.92,1.31,0,0,0,0,0,0,.02.1,0,.21-.04.31-.03.08-.09.15-.15.21.06.16.12.33.17.48Z"/>
  <path class="cls-3" d="m11.88,34.22c.54-1.01,1.24-1.96,2.24-2.55,1.2-.7,3.26-1.19,4.34-.98-1.45.62-2.84,1.38-4.29,2.01-.82.42-1.51,1.04-2.28,1.53,0,0,0,0,0,0Z"/>
  <path class="cls-3" d="m13.39,31.33c2.01-1.56,4.6-2.05,6.88-3.06,4.34-2.06,9.16-2.88,13.94-2.94.44,0,.9.06,1.32.16-.59.09-1.22.27-1.77.46-2.73,1.03-5.73.87-8.51,1.74-1.96.47-3.78,1.39-5.65,2.07-1.99.8-4.16.98-6.2,1.58Z"/>
  <path class="cls-3" d="m10.11,41.92c.04-.95.42-1.81.76-2.66.23.93-.28,1.9-.76,2.66Z"/>
  <path class="cls-3" d="m9.51,41.91c.43-1.1.79-2.21,1.5-3.15-.1,1.18-.62,2.36-1.5,3.15Z"/>
  <path class="cls-3" d="m8.41,41.44c.29.05.54-.27.75-.42.29-.25.61-.48.94-.68-.28.56-.99,1.44-1.69,1.1Z"/>
  <path class="cls-3" d="m8.46,41.26c.4-.29.9-.47,1.39-.31-.44.14-.92.32-1.39.31Z"/>
  <path class="cls-3" d="m62.98,38.45c-1.43-.19-1.67-1.96-2.05-3.09-.31-.94-.62-1.85-.92-2.77-.33-.92,1.23,1.48,1.29,1.63.47.73.82,1.53,1.08,2.35.23.86.52,1.36,1.46,1.46.23.06.47.04.69,0-.41.38-1.01.45-1.55.44Z"/>
  <path class="cls-3" d="m66.48,47.34c-.99-.04-1.48-1.3-2.28-1.76-2.55-1.43-1.78-4.6-2.24-7.01-.09-.47-.15-.97-.07-1.44.14.54.36,1.01.6,1.51.4.84.69,1.86.83,2.75.21.94.19,1.94.9,2.65.4.44.85.83,1.17,1.33.52.64.6,1.81,1.58,1.9.02,0,.04-.02.06-.01-.14.14-.36.1-.54.09Z"/>
  <path class="cls-3" d="m62.1,44.85c-.18-.52-.14-1.5.27-1.91.67-.38.82.44.72.94-.04.34-.03,1.1-.55.99-.11.13-.34.13-.44-.01Z"/>
  <path class="cls-3" d="m64.54,42.41c-.78-.02-1.5-.42-1.97-1.04-.17-.23-.4-.44-.33-.75,0-.84.09-.32.31.1,1.57,1.34,3.34.42,4.71-.7-.44,1.1-1.38,2.51-2.72,2.39Z"/>
  <path class="cls-3" d="m63.5,44.29c-.4-.3-.2-2.95.53-1.92.37.09.31.55.35.84.11.53-.21,1.58-.89,1.08Z"/>
  <path class="cls-3" d="m63.7,38.39c.24-.28.49-.56.74-.83.26-.2.43-.42.39-.75.59.72-.51,1.43-1.14,1.58Z"/>
  <path class="cls-3" d="m63.65,38.56s.05-.12.03-.04c.51-.63,1.07-1.22,1.59-1.84.03.88-.78,1.75-1.62,1.88Z"/>
  <path class="cls-3" d="m64.24,41.82c-.16,0-.31-.09-.44-.18,0,0,0,0,0,0-.21.27-.68.21-.79-.13-.08-.04-.14-.11-.19-.18-.88.14-.68-.94-.79-1.49-.15-.18-.17-.41-.22-.63-.8-.7.48-1.74,1.09-.98.71-.02,1.11-.81,1.61-1.23,0,0,0,0,0,0,.14-.14.34-.2.54-.15.04.01.08.03.12.05.08-.09.17-.18.27-.24.13-.08.25.09.17.19,0,0,0,0,0,0-.08.1-.13.22-.19.34.17.53-.4.87-.72,1.2-.34.27-.54.93-1.05.86.02.73.27,1.47.25,2.19.08.16.21.29.36.37Z"/>
  <path class="cls-3" d="m64.19,41.46c-.21-.01-.43-.11-.6-.2.39-.05,1.7.16.6.2Z"/>
  <path class="cls-3" d="m60.89,34.44c-.37-.09-.56-.56-.36-.89.31-.45.98-.27,1.41-.57.72-.31,1.08-1.12,1.8-1.4,0,0,0,0,0,0,1.41.18-.38,1.77-.84,2.16-.54.49-1.28.79-2.01.69Z"/>
  <path class="cls-3" d="m61.93,34.26c-.52-.3-1.25-.7-1.27-1.37.42.46,1.03.77,1.27,1.37Z"/>
  <path class="cls-3" d="m61.78,34.07c-.14-.14-.04-.31.12-.37-.02.06-.09.13-.12.2-.02.06,0,.12,0,.17Z"/>
  <path class="cls-3" d="m61.87,37.09c-.37-1.01-.85-2.73-.08-3.62-.17.5-.09,1.01-.02,1.53.07.69.07,1.4.1,2.09Z"/>
  <path class="cls-3" d="m62.42,38.46c-.59-1.29-.84-2.7-.88-4.11.66,1.25.78,2.73.88,4.11Z"/>
  <path class="cls-3" d="m53.2,30c-1.18-.18-2.37-.29-3.53-.59-.94-.26-1.95-.72-2.88-.89-2.43-.39-4.76-1.09-7.06-1.94-.55-.21-1.48-.31-1.56-1.01.11.24.35.32.59.34,1.02.05,2.05.02,3.06.2.99.17,1.93.53,2.91.75.76.14,1.5.32,2.26.44,1.26.26,2.27.76,3.47,1.06.61.2,1.22.38,1.82.62.75.31,1.46.8,2.27.88-.21.19-.96.14-1.36.13Z"/>
  <path class="cls-3" d="m39.27,26.86c-.47-.09-2.24-.45-1.83-1.16-.02-.03-.05-.08-.06-.11.03.03.07.05.11.06.27-.15.62,0,.92-.01.48.11,1.13.06,1.42.46.23.38-.15.83-.56.76Z"/>
  <path class="cls-3" d="m16.08,19.03c-1.74.08-2.23-1.6-2.5-2.99,1.42,1.79,1.34,2.09,3.73,1.68,1.07-.14,2.14-.38,3.17-.67-1.23,1.05-2.74,1.99-4.4,1.98Z"/>
  <path class="cls-3" d="m16.38,18.63c-.92-.42-2.08-1.13-2.4-2.12.6.68,1.55.88,2.39,1.12,1.3.21,2.6-.24,3.87-.46,1.59-.36,3.16.07,4.66.57-1.36.13-2.74.15-4.06.54-1.46.26-2.99.83-4.46.35Z"/>
  <path class="cls-3" d="m19.2,15.47c1.21-1.56,3.51-1.73,5.29-1.19-1.75.41-3.61.57-5.29,1.19Z"/>
  <path class="cls-3" d="m57.52,21.43c-3.22-2.48-5.38-2.64-9.16-3.49-.56-.12-1.08-.27-1.64-.36.29-.07.6-.13.9-.14,3.24-.32,6.58.24,9.31,2.08-.58-1.2-1.48-2.21-2.38-3.17-.56-.48-1.23-.81-1.81-1.26-.2-.16-.38-.36-.51-.57.19.14.4.25.62.33,1.63.38,2.6.61,3.73,1.94.56.67,1.07,1.42,1.46,2.21.2.52.38,1.04.66,1.51.41.78-.52,1.42-1.18.92Z"/>
  <path class="cls-3" d="m57.99,19.25c-.28-.37-.55-.79-.49-1.28.27.37.54.81.49,1.28Z"/>
  <path class="cls-3" d="m55.25,18.78c.45-.11.95-.06,1.34.22-.45.04-.92-.04-1.34-.22Z"/>
  <path class="cls-3" d="m56.07,19.1c-.43-.04-.87-.17-1.26-.33.77.01,1.53.13,2.29.24-.33.07-.69.12-1.03.09Z"/>
  <path class="cls-3" d="m56.61,19.54c-.09-.09-.05-.22-.02-.33.13-.2.1-.42.07-.64.15.15.26.33.26.55.02.18-.07.59-.32.42Z"/>
  <path class="cls-3" d="m27.15,17.31c2.56-.91,5.31-.82,7.98-.8,2.13,0,4.26-.09,6.38-.02.1,0,.21,0,.3,0-4.85.77-9.82.22-14.67.81Z"/>
  <path class="cls-3" d="m36.12,17.18c-1.39.02-2.76-.2-4.15-.32,1.37-.3,2.81-.27,4.21-.29,2.4.05,4.81.04,7.2.26.36.04.73.08,1.07.14-1.4.07-2.79.14-4.19.16-1.38,0-2.77.05-4.15.05Z"/>
  <path class="cls-3" d="m30.23,16.63s-.04-.08,0-.09c.16-.02.32-.09.48-.13,2.18-.6,4.46-.55,6.7-.54,2.18.06,4.4,0,6.55.39-.19.01-.39,0-.59,0-2.25.03-4.51.01-6.76.08-2.13.08-4.27.23-6.4.28Z"/>
  <path class="cls-3" d="m41.33,15.89c-1.89-.09-3.78-.07-5.67-.14-.88-.02-1.76-.12-2.63-.07-.1,0-.21.02-.31.03.16-.06.35-.11.52-.16,2.97-.64,6-.05,8.97.34-.28.01-.58,0-.87,0Z"/>
  <path class="cls-3" d="m44.68,18.04c-1.41-.12-2.81-.42-4.24-.39.33-.1.7-.16,1.05-.21-.05-.01-.12-.02-.15-.04.2,0,.41,0,.61-.02,0-.54.7-.24,1.03-.27.76.06,1.53.13,2.29.23.4.06.4.67,0,.72-.19.02-.39,0-.58-.02Z"/>
  <path class="cls-9" d="m10.17,51.71c-1.14-.76-1.42-3.16-.45-4.15-.29.76-.08,3.55.45,4.15Z"/>
  <path class="cls-9" d="m10.66,51.53c-1.03-.36-1.42-1.94-.63-2.71-.24.8.03,2.14.63,2.71Z"/>
  <path class="cls-8" d="m11.7,52.28c-1.76-.37-2.6-2.23-2.02-3.86.1-.15.27-.23.41-.35-.04.13-.11.26-.16.39.16,1.29.75,2.53,1.62,3.48.12.12.22.28.38.34-.07.03-.16,0-.23,0Z"/>
  <path class="cls-8" d="m11.79,52.72c-1.3-.4-2.44-1.56-2.44-2.97-.03-.63.03-1.3.54-1.72-.45,1.65.96,3.39,2.14,4.42.17.11.36.03.52-.05-.13.29-.46.43-.76.32Z"/>
  <path class="cls-8" d="m11.05,52.45c-1.16-.52-1.92-1.75-1.79-3.02.13-.24.36-.42.53-.63-.04.22-.12.45-.18.67.38,1.02,1.28,2.54,2.29,3.01.06.02.14.02.2.03-.32.19-.74.07-1.06-.07Z"/>
  <path class="cls-8" d="m11.7,52.34c-.95-.08-1.95-.99-1.36-1.95,0,.58.32.96.8,1.26.4.26.86.54,1.36.45-.21.2-.51.27-.79.24Z"/>
  <path class="cls-8" d="m11.62,51.89c-.09-.06-.13-.21-.14-.3.2.27.45.12.72.04-.11.16-.36.38-.57.27Z"/>
  <path class="cls-8" d="m11.66,51.78c.1-.13.22-.23.34-.34.02-.02.05-.05.07-.07h0c.16-.23.05.13-.03.2-.1.1-.25.17-.38.2Z"/>
  <path class="cls-8" d="m11.27,52.36c-.37-.39-.59-.88-.76-1.38.44.35.86.71,1.28,1.08.13-.25.11-.57.22-.83.1.35.28.76.15,1.1.13.64-.68.37-.88.04Z"/>
  <path class="cls-8" d="m11.47,51.99c-1.41-.53-2.13-1.77-2.42-3.19-.17-.66.19.14.34.35.51.77,1.11,1.46,1.89,1.97.39.34.91.82,1.35.28.03.45-.61.88-1.17.58Z"/>
  <path class="cls-8" d="m12.58,52.64c-.15-.4-.18-.85-.14-1.26.07.27.12.55.13.83,0,0,0,0,0,0,0,.14.02.3.02.44Z"/>
  <path class="cls-8" d="m61.54,51.79c-.31-.06-.55-.29-.78-.49.07-.01.16.02.23.03.6.2,1.04-.26,1.42-.64.78-.73,1.03-1.87,1.22-2.87.09-.36.06-.75.07-1.11.09.2.18.39.26.59.61,1.96-.03,4.45-2.44,4.49Z"/>
  <path class="cls-8" d="m60.44,52.68c-.12-.15,0-.3.11-.41-.02-.1,0-.19.05-.27,0-.27.33-.43.39-.69.03.07.02.16.02.23.06-.06.12-.11.2-.16.07-.04.14-.05.21-.05.28-.21.53-.52.87-.6.42-.07.74.43.51.79-.17.3-2.12,1.56-2.34,1.15Z"/>
  <path class="cls-8" d="m60.56,51.76c-.05-.34-.48-2.29.18-2.09.43.32-.1,1.09.14,1.49-.04-.02-.08-.06-.12-.09-.05.23-.13.46-.2.68Z"/>
  <path class="cls-8" d="m60.82,51.67c-.17-.49-.23-1.12.04-1.56,0,0,0,0,0,0,.09.52.12,1.05-.03,1.56,0,0,0,0,0,0Z"/>
  <path class="cls-8" d="m61.29,51.7c-.43-.08-.71-.8-.54-1.06.2.53.71.98,1.3.82-.18.21-.49.31-.76.23Z"/>
  <path class="cls-8" d="m61.4,51.48c-.25-.05-.41-.27-.12-.41,0,.05-.04.1-.04.16.23.09.5.1.74.11-.17.13-.38.2-.58.15Z"/>
  <path class="cls-8" d="m61.76,51.08c-.2,0-.38-.14-.46-.31.48.24.93-.28,1.32-.48.53-.36,1.11-.66,1.53-1.15-.23,1.03-1.3,1.96-2.39,1.94Z"/>
  <path class="cls-8" d="m62.23,50.7c1.57-1.04,1.18-3.2.97-4.8-.19-.62.38-1.32.96-.81.43.69.26,1.65.2,2.42-.1,1.28-.73,2.92-2.13,3.19Z"/>
  <path class="cls-8" d="m61.44,51.29c-.5-.07-.93-.65-.88-1.14.28.41.76.75,1.27.73.55-.32.73-.5.27.18-.12.24-.42.22-.65.24Z"/>
  <path class="cls-8" d="m61.39,51.67c-.74-.42-.9-1.33-.74-2.11.26.7.35,1.47.74,2.11Z"/>
  <path class="cls-8" d="m26.56,45.92c-2.3-1.69-5.64-2.03-7.29-4.51-.21-.28-.26-.64-.35-.97.11.15.22.33.32.48,1.88,2.13,4.6,1.03,7.33,5Z"/>
  <path class="cls-8" d="m27.14,47.62c-1.36-2.34-4.04-2.21-5.91-3.85-1.08-.95-2.12-2.06-2.6-3.43.16.19.32.42.49.62,1.05,1.11,2.31,1.99,3.65,2.72,2.09.74,3.91,1.54,4.37,3.94Z"/>
  <path class="cls-8" d="m27.36,46.7c-.62-1.13.43-2.77,1.2-3.6.56-.63,1.29-1.08,1.92-1.64.41-.37.75-.81,1.06-1.27.08-.11.37-.61.34-.44-.18,1.7-1.28,3.01-2.6,4-.86.76-2,1.71-1.92,2.94Z"/>
  <path class="cls-8" d="m46.79,46.86c-.89-1.78-2.68-2.94-3.43-4.82-.26-.64-.56-1.29-.43-1.99.09.2.13.45.25.65,1.22,2.02,3.76,3.55,3.62,6.16Z"/>
  <path class="cls-8" d="m47.31,47.3c.23-1.01,1.23-1.59,2.03-2.14,1.58-1.06,3.51-1.09,5.29-1.52-1.43,1.14-3.2,1.64-4.89,2.27-.87.35-1.86.64-2.44,1.4Z"/>
  <path class="cls-8" d="m46.97,45.87c-.34-.41-.55-.91-.91-1.31-.54-.57-1.18-1.07-1.51-1.81,1.36.84,2.3,1.37,2.41,3.12Z"/>
  <path class="cls-8" d="m35.14,51.08c-2.68-.67-2.82-4.23-.88-5.82-.3.66-.51,1.39-.47,2.12.16,2.17,1.58,2.94,3.6,2.48,2.02-.5,2.78-1.12,2.5-3.3-.05-.22-.13-.45-.23-.65.35.26.61.64.77,1.05,1.44,3.39-2.68,4.64-5.29,4.11Z"/>
  <path class="cls-8" d="m36.19,50.42c-2.54-.12-3.68-2.53-2.77-4.76.06-.3.35-.43.58-.59-.08.15-.21.3-.29.46-.26,2.67,1.54,4.22,4.12,3.47-.02,0-.05,0-.07.01,0,0,0,0,0,0,1.53-.31,2.18-.63,2.65-2.18.03.54.05,1.13-.13,1.66-.71,1.43-2.6,1.95-4.09,1.92Z"/>
  <path class="cls-8" d="m23.35,68.39c-3.73-2.01-6.28-5.64-8.08-9.38-.92-1.67-1.66-3.4-2.1-5.25-.08-.33-.13-.67-.19-1,.26.44.49.93.77,1.37,1.53,2.36,2.69,4.94,4.19,7.32.9,1.38,1.96,2.64,3.03,3.87.83,1,1.53,2.11,2.38,3.08Z"/>
  <path class="cls-8" d="m38.47,73.79c-1.65-.06-3.28-.23-4.88-.67-1.45-.34-2.92-.62-4.28-1.24-2.85-1.14-5.74-2.5-7.85-4.79-.59-.55-1.01-1.26-1.63-1.76.12.03.25.09.37.15,1.97,1.43,4.05,2.72,6.19,3.87,3.38,1.69,7.05,2.9,10.82,3.25,3.08.27,6.21-.15,9.19-.95.92-.32,1.78-.8,2.68-1.18.96-.42,2.06-.72,2.82-1.47.51-.69.28-.27.11.24-.82,1.39-2.38,2.18-3.78,2.89-1.55.79-3.23,1.08-4.93,1.32-1.6.21-3.21.42-4.82.34Z"/>
  <path class="cls-8" d="m31.92,73.12c-1.44-.24-2.84-.74-4.01-1.61-.16-.13-.34-.26-.49-.4.75.3,1.54.55,2.29.82,1.34.48,2.61.97,3.97,1.35-.58-.01-1.18-.07-1.76-.17Z"/>
  <path class="cls-8" d="m49.71,71.15c1.58-2,3.58-3.66,5.45-5.36-1.19,2.95-2.74,3.97-5.45,5.36Z"/>
  <path class="cls-8" d="m48.09,72.01c2.22-2.12,4.53-4.2,6.25-6.76,1.32-2.14,2.05-4.61,3.56-6.64.33-.49.68-.99,1.03-1.46-.12.35-.23.7-.36,1.05-1.71,5.64-4.72,11.52-10.49,13.81Z"/>
  <path class="cls-7" d="m29.44,67.82c-.26.23-.64.14-.88-.08-.04.01-.08.02-.13.03-.06,0-.12,0-.17,0-.54.59-1.29-.17-1.79-.47-.59.3-1.55-.61-2.04-.92-.98-.76-1.9-1.7-2.39-2.85-.27.04-.52-.12-.61-.38-.15-.34-.32-.66-.47-.99-.11-.03-.2-.1-.28-.19-.06-.07-.09-.16-.12-.24-.32-.12-.37-.48-.44-.77-.25-.94-.54-1.96-.32-2.93-.1-.56-.26-1.13-.18-1.7-.2-.31.01-.66.14-.96-.12-.65.44-1.35,1.07-.88.25.06.43.3.45.55.07.23,0,.46.02.7.06.41.01.87.16,1.25.17.43.43.82.69,1.2.16.08.19.27.3.4.2,0,.34.13.44.29.29.28.62.51.93.77,1.65.98,3.07,2.29,4.49,3.56.07-.4.61-.43.78-.08.33.36.71.69.98,1.11.55.78,1.38,2.14,1.14,3.11-.1.31-.47.52-.78.37-.2.38-.71.41-.99.1Z"/>
  <path class="cls-7" d="m29.88,63.98c-.73-.48-1.58-.71-2.38-1.02-.38-.16-.78-.28-1.11-.53-.53-.09-1.05-.19-1.57-.33,0,0,0,0,0,0-.2-.06-.36-.22-.39-.44-.04-.26.13-.5.36-.58-.13-.3.08-.68.41-.71.25-.03.45.13.67.2.88.26,1.75.57,2.61.88.44.14.89.25,1.34.35.55.11,1.14.09,1.67.29.36.15.47.66.19.93-.16.17-.4.19-.61.13-.36-.07-.71-.12-1.07-.17.2.14.41.28.51.51.17.38-.32.76-.64.5Z"/>
  <path class="cls-7" d="m29.34,65.45c-.18-.1-.27-.3-.26-.49-.31-.29-.13-.88.3-.94.5-.11,1.03-.23,1.46-.32.75-.18,1.48-.47,2.22-.69-1.02.04-1.94.13-2.94.23-.65,0-2.41.51-2.36-.56-.42-.06-.85-.1-1.25-.23-.13-.06-.06-.23.06-.22h0c1.73,0,3.45-.08,5.16-.29.59-.01,2.38-.34,2.69.17.59,0,1.18,0,1.77-.02.78-.19,1.58-.41,2.39-.39.54-.21,1.07-.44,1.63-.61.31-.1.65.18.62.5.32-.08.63-.16.95-.22.35-.16.7-.31,1.05-.46.54-.23,1.13-.38,1.68-.57.42-.24.85-.48,1.27-.73.3-.18.7-.43,1.02-.14.28-.12.5-.37.79-.47,1.19-.62,2.36-1.37,3.58-1.95.39-.17.78-.4,1.22-.43.13,0,.25.05.36.12.09.03.18.08.25.15.24-.38.34-.85.51-1.27.11-.37.31-.84.77-.79.15-.2.45-.05.41.19.25.23.2.58.06.86.08.74-.18,1.47-.56,2.1-.25.52-.66,1.27-1.35,1.07-.02.01-.05.03-.07.04-.22.14-.5.25-.76.16-.56.29-1.14.55-1.72.79-.4.23-.8.48-1.18.74-.78.56-1.51,1.1-2.32,1.59-.39.21-.8.57-1.27.49-.41.34-1.1.42-1.27-.2-.38.17-.77.36-1.17.49-.34.11-.78-.09-.81-.48-.07-.03-.13-.07-.18-.12-.46.22-.91.45-1.39.64-.36.13-.8.37-1.16.12-.55.2-1.1.39-1.67.55-.29.08-.62.2-.91.07-1.03.42-2.02.91-3.07,1.27-.21.06-.43.13-.65.08-.28-.07-.49-.35-.41-.64-.72.24-2.88,1.2-3.49.82Z"/>
  <path class="cls-7" d="m52.57,57.06c.47-.7.71-1.51,1.15-2.23.05-.09.1-.18.16-.26.08-.09.25-.04.23.1-.06.28-.15.55-.24.82-.27.61-.69,1.28-1.3,1.58Z"/>
  <path class="cls-7" d="m52.15,57.47c.58-.99,1.22-2.09,1.52-3.24.36-.7,1.13-.08.86.54-.32,1.04-1.13,1.86-1.97,2.53-.11.06-.29.29-.41.17Z"/>
  <path class="cls-7" d="m52.42,57.39c.31-.52.62-1.06.88-1.6.21-.48.48-1.06.72-1.57.09-.25.44-.23.49.04-.04,1.01-1.3,2.55-2.09,3.13Z"/>
  <path class="cls-7" d="m36.01,63.77c2.24-1.1,4.73-1.52,7.17-1.46.03-.05.07-.09.12-.12,0,0,0,0,0,0,.19-.15.44-.13.66-.16-.17-.08-.26-.3-.18-.48.11-.24.41-.3.63-.39.18-.06.36-.1.55-.14.42-.05.81-.27,1.21-.42,2.25-.95,4.37-2.2,6.33-3.64.37-.28.72-.61,1.07-.89-1.64,2.75-4.79,3.9-7.57,5.15.36.56-.31,1.07-.75,1.31.18.63-.55.93-1.06.97-.74.04-1.49-.08-2.23-.06-1.33.06-2.66.09-4,.12-.65.02-1.3.16-1.94.22Z"/>
  <path class="cls-7" d="m35.07,64.98c1.34-1.52,3.32-2.11,5.28-2.29,1.02-.14,2.09-.25,3.09.09-1.45.14-2.83.7-4.26.99-1.41.24-2.84.59-4.11,1.21Z"/>
  <path class="cls-7" d="m33.91,65.59c.9-.95,3.83-2.51,5.15-2.26-.8.33-1.49.91-2.29,1.28-.91.45-1.95.61-2.86.99Z"/>
  <path class="cls-7" d="m33.35,66.18c.81-.82,1.77-1.54,2.84-1.99.24-.06,1.29-.55,1.38-.27.04.07-.35.28-.29.21-1.21.86-2.55,1.52-3.93,2.05Z"/>
  <path class="cls-7" d="m31.37,66.62c-.73-.46-1.39-1.31-1.64-2.13-.35-.86.03-2.32,1.18-2.1.48-.12,1.15.09,1.5.44.3-.14.67-.15.94.06.11.08.2.19.26.31.54.09,1.14.39,1.31.96,1.25.17-.44,2.56-1.41,2.33-.26-.01-.47-.13-.73-.13-.38.35-.94.51-1.42.26Zm.22-1.84c-.02-.35-.06-.69-.29-.97-.02.32.06.73.29.97Z"/>
  <path class="cls-7" d="m32.48,68.12c.7-1.34,1.81-2.48,3.18-3.12-.74,1.31-1.78,2.55-3.18,3.12Z"/>
  <path class="cls-7" d="m29.5,68.58c-.58-.08-1.29-.08-1.71-.53-.27-.33-.08-.87.34-.96.71-.08,1.43.07,2.14.13-.2-.95.36-1.76,1.35-1.23.12-.15.27-.28.46-.35.26-.09.56-.05.76.14,1.09-.35,1.14.75.79,1.48-.16.73-.93,1.64-1.7,1.04-.03.01-.07.03-.1.04-.15.05-.31.06-.46.04-.47.33-1.29.18-1.86.2Z"/>
  <path class="cls-14" d="m29.43,61.32c-.35-.04-.52-.4-.77-.61-.09.11-.23.18-.38.2-.08,0-.16,0-.24-.03-.3.09-.54-.13-.7-.36-.3.2-.62-.02-.8-.27-.45.37-.81-.16-1.09-.47-.58.04-.93-.67-1.34-1-.74.68-3.03-2.84-2.72-3.51-.15-.33-.33-.74-.17-1.1.17-.42.78-.45,1.01-.07.05-.02.11-.04.17-.04.13-.5.86-.58,1.07-.09.7-.26.8.67,1.21,1.01.44-.17.68.28.92.56.35-.26.82,0,.91.39.15.26.37.48.55.73.84.6,1.59,1.35,2.16,2.21.37.59,1.49,2.31.19,2.44Z"/>
  <path class="cls-11" d="m27.9,60.76c-.86-.32-1.67-.75-2.34-1.35-.09.06-.21.1-.32.1-.12,0-.23-.05-.33-.12-.4.19-.7-.17-.95-.43-.48-.49-.9-1.02-1.34-1.54-.31-.37-.59-.77-.84-1.18-.16-.27-.31-.56-.4-.87-.21-.3-.42-.6-.63-.9-.08-.12-.15-.24-.22-.36-.3-.53.38-1.07.83-.66.29.26.6.51.89.77,0-.07.08-.11.14-.1.19.08.35.22.52.32.19-.29.63-.3.85-.05.38-.13.64.28.97.39.33-.12.54.19.84.26,1.01.34,2.01.72,2.94,1.23.18-.32.59-.34.85-.11.34.15.7.23,1.05.36.18-.06.33.07.5.1.84.15,1.62.47,2.38.85.52.32,1.84.94,1.58,1.68-.08.19-.26.32-.46.33-.12.53-.55.57-.99.38.06.33-.2.71-.55.71-.2,0-.38-.1-.57-.16-.3.8-1.22.2-1.74,0-.39.59-1.23.35-1.81.25-.21.26-.58.23-.87.1Zm-5.14-6.23s.06.04.1.07c0-.03.02-.07.04-.1-.14-.06-.28-.11-.42-.17,0,.03.02.06.03.1.09.02.18.05.26.1Z"/>
  <path class="cls-11" d="m36.01,61.4c-1.44-.05-2.87-.31-4.31-.35-.66-.04-1.33-.1-1.98-.2-.39-.08-.84-.04-1.15-.32-.2-.2-.24-.5-.1-.74.3-.5.9-.2,1.35-.17,1.07,0,2.14-.19,3.19-.35-.12-.52.41-.84.84-.98.11-.33.48-.43.79-.37,1.78-.14,3.55-.38,5.32-.65,1.23-.75,2.59-1.24,3.94-1.71.69-.72,1.63-1.16,2.49-1.64.92-.53,1.9-.96,2.92-1.26.51-.13,1.03-.28,1.57-.29.36,0,.66.25.84.54.24,0,.49.05.71.15.91-.1,1.47,0,1.4,1.07-.09.61-.61,1.05-1.05,1.43-.03.21-.16.4-.37.49-.4.17-.8.34-1.21.51-.33.11-.65.36-1.01.34-.73.33-1.44.7-2.14,1.09-.34.19-.7.36-1.05.54-.27.15-.62.27-.89.06-1.33.85-2.84,1.31-4.32,1.79-.34.1-.72.3-1.08.16-.01,0-.03.01-.04.02-.2.6-.96.44-1.46.55-1.06.17-2.13.33-3.2.31Zm8.24-5.97c.2-.07.4-.14.6-.21,0,0-.02,0-.02,0,.27-.1.53-.2.8-.3-.17.05-.34.1-.51.16-.29.11-.59.21-.87.34Z"/>
  <path class="cls-6" d="m42.91,70.7h-.01c-.15-.07-.26-.19-.31-.33-.38-.11-.49-.49-.39-.84-.14-.06-.26-.16-.33-.29-.04-.06-.06-.13-.08-.19-.15,0-.3-.06-.42-.16-.11.04-.22.06-.34.05-.22.21-.48.37-.78.33-.12-.02-.22-.06-.31-.14-.11,0-.22,0-.33-.06-.04-.02-.08-.04-.12-.07h0c-.13.1-.32.11-.46,0-.03-.03-.06-.06-.08-.09-.2.13-.44-.06-.39-.28.06-.31.39-.56.71-.55,0-.01,0-.04.02-.05,0,.02,0,.03,0,.05,0,0,.01,0,.02,0,.36-.41.75-.84,1.27-1.05.26-.24.58-.46.95-.43.02-.01.05-.03.07-.04.19-.09.41-.12.61-.08.15-.13.34-.19.54-.18-.2-.66,1.05-1.21,1.49-1.55.17-.19.42-.3.62-.45.34-.28.68-.56,1.03-.83.88-.72,1.86-1.29,2.81-1.91.56-.23.99-1.04,1.67-.74.36-.38.74-.75,1.11-1.12.29-.29.63-.72,1.09-.58.35.09.56.51.41.83.34.53-.09.87-.5,1.15-.44.4-.73.76-1.07,1.21-.25.53-.53,1.06-.81,1.58-.11.35-.22.69-.31,1.04-.11.41-.23.83-.31,1.25-.07.28-.07.6-.26.84-.11.59-.14,1.22-.4,1.77-.31.55-1.24.6-1.37-.11-.19,0-.39-.1-.49-.26-.54-.02-.98-.59-.95-1.11-.16.02-.32-.03-.44-.15-.04-.04-.07-.08-.09-.12-.09-.02-.17-.05-.26-.07,0,0,0,0-.01,0-.04.03-.09.06-.13.09-.02.02-.05.03-.08.04-.1.3-.35.53-.55.77-.24.26-.46.54-.71.79-.08.51-.14,1.05-.43,1.48-.09.39-.49.73-.89.55Z"/>
  <path class="cls-6" d="m33.98,67.98c.95-1.27,2.47-2.02,4.02-2.22-1.29.81-2.58,1.7-4.02,2.22Z"/>
  <path class="cls-6" d="m33.61,67.96c1.05-1.16,2.55-1.98,4.07-2.31-1.19,1.05-2.51,1.95-4.07,2.31,0,0,0,0,0,0Z"/>
  <path class="cls-6" d="m39.12,68.2c-.14-.03-.24-.1-.34-.19-.08-.08-.13-.18-.15-.29-.29.09-.66.08-.91-.11-.11-.08-.19-.2-.23-.33-.02,0-.04,0-.06,0-.05,0-.1-.02-.15-.04-.39.12-.79.34-1.2.25-.45.31-1.48.95-1.64.04-.15.05-.21.22-.29.33,0-.09.02-.18.05-.27.62-1.1,2-2.14,3.24-2.71,1.2-.49,2.49-.69,3.76-.89,0,0,0,0,0,0,.44-.14.9-.24,1.35-.37.42-.09.9-.41,1.31-.13.51-.09,1,.39.78.9-.32.64-1.21.46-1.74.78,0,.04-.02.08-.03.12.58.47.05,1.03-.43,1.31-.58.5-1.23,1.11-2.01,1.2-.39.23-.84.51-1.32.41Z"/>
  <path class="cls-6" d="m33.98,68.13c.56-.34,1.28-.49,1.93-.35-.62.24-1.26.41-1.93.35Z"/>
  <path class="cls-6" d="m38.3,69.24c-.1-.04-.2-.12-.27-.21-.06-.05-.12-.12-.16-.19-.19,0-.38-.06-.53-.18-.03-.02-.05-.05-.08-.07-.03,0-.06.02-.09.02-.28.06-.61.06-.84-.13-.38.06-.75.2-1.14.19h0c-.11-.02-.22-.06-.3-.14-.52.04-1.09.25-1.59.02-.43-.23-.34-.94.14-1.05.88-.07,1.69-.12,2.52-.2.04-.06.09-.12.14-.16.16-.13.36-.14.55-.14.32-.25.8-.41,1.16-.17.11-.06.22-.1.34-.11.27-.03.59.13.68.4.62-.54,1.34-.95,1.97-1.48.12-.18.34-.28.56-.25.2-.08.38-.2.57-.31.24-.26.58-.52.93-.29.41-.45,1.06-.14.7.4-.42.42-.77,1.06-1.39,1.18-.1.09-.2.21-.3.3.03-.08.07-.16.1-.24-.17.09-.36.17-.55.17-.41.3-.8.63-1.19.96-.12.11-.25.21-.37.32.07.6-.95,1.62-1.55,1.36Z"/>
  <path class="cls-13" d="m47.73,69.07c-.3-.13-.51-.39-.68-.66.13.08.27.18.42.23,1.45.53,1.09-2.44,1.46-3.25.55-1.96,1.28-3.73,2.8-5.13.25-.28.56-.48.89-.66-.3.38-.56.81-.79,1.25-.77,1.19-1.08,2.55-1.52,3.87-.5,1.27-.54,4.84-2.58,4.35Z"/>
  <path class="cls-13" d="m42.55,70.56c-.15-.17-.14-.39-.09-.59.06.14.12.31.28.35,0,0,0,0,0,0,0,0,0,0-.01,0,.23,0,.2-.61.31-.8.3-.88.69-1.73,1.5-2.22.24-.24.65,0,.94.02-.19.08-.41.14-.62.2-.54.52-1.35,3.91-2.31,3.04Z"/>
  <path class="cls-13" d="m41.95,66.04c-.84-.42.32-1.01.65-1.34.26-.19.49-.48.83-.52.24-.12.65-.5.31,0,.05,0,.1,0,.14,0-.35.15-.46.56-.71.84-.33.38-.64,1.09-1.22,1.02Z"/>
  <path class="cls-13" d="m40.84,66.69c.49-1.2,1.96-2.06,3.11-2.54-.62.56-1.22,1.21-1.92,1.69-.38.3-.85.5-1.18.85Z"/>
  <path class="cls-13" d="m40.2,67.2c1.07-1.39,2.55-2.37,4.14-3.07-1.22,1.2-2.57,2.35-4.14,3.07Z"/>
  <path class="cls-13" d="m40.36,67.25c.67-.77,1.44-1.46,2.29-2.03.76-.5,1.59-.88,2.39-1.28-1.45,1.22-2.99,2.43-4.68,3.31Z"/>
  <path class="cls-13" d="m43.16,64.73c.08-.13.15-.26.24-.38-.35-.2.33-.6.52-.67.7.15-.52.93-.76,1.05Z"/>
  <path class="cls-13" d="m44.66,64.82c2.25-2.15,5.05-3.71,7.93-4.83-1.19.69-2.35,1.47-3.54,2.17-1.45.9-2.94,1.74-4.39,2.66,0,0,0,0,0,0Z"/>
  <path class="cls-13" d="m46.26,63.71c.99-1.16,2.24-2.01,3.57-2.71.92-.48,1.82-.99,2.78-1.39-1.16.88-2.37,1.75-3.63,2.5-.91.52-1.83,1.07-2.72,1.61Z"/>
  <path class="cls-13" d="m49,61.93c.94-.97,2.1-1.77,3.37-2.21-.48.38-.95.79-1.44,1.17-.59.43-1.27.78-1.94,1.04Z"/>
  <path class="cls-13" d="m47.56,62.83c1.41-1.63,3.42-2.48,5.37-3.29-.97.74-2.01,1.43-3.06,2.07-.76.42-1.55.83-2.32,1.22Z"/>
  <path class="cls-13" d="m47.99,62.7c1.3-1.34,3.03-2.08,4.73-2.77-1.38,1.2-3.02,2.14-4.73,2.77Z"/>
  <path class="cls-13" d="m49.97,61.7c.9-.96,2.01-1.73,3.2-2.28-.88,1.01-1.94,1.85-3.2,2.28Z"/>
  <path class="cls-13" d="m51.62,60.78c-.81-.59,1.8-1.82,2.14-2.29-.26.71-1.06,1.65-1.72,2.24,0,0,0,0,0,0,0,0,0,0,0,0-.11.11-.28.14-.42.06Z"/>
  <path class="cls-13" d="m39.17,69c-.92-.2-1.84-.49-2.75-.73-.61-.24-1.19-.41-1.84-.35-.28.05-.65.27-.22-.09.71-.54,1.67-.49,2.51-.41,2.1-.02,2.42,1.35,4.7.62-.66.58-1.48,1.15-2.42.96Z"/>
  <path class="cls-13" d="m39.48,69.03c-.11-.04-.19-.11-.26-.2.3.1.59-.03.89-.04-.16.14-.4.29-.64.24Z"/>
  <path class="cls-13" d="m33.27,68.23c.53-.57,1.35-.62,2.09-.56-.61.43-1.39.44-2.09.56Z"/>
  <path class="cls-13" d="m33.09,68.37c.39-.54,1.07-.8,1.72-.71-.54.31-1.15.51-1.72.71Z"/>
  <path class="cls-13" d="m43.27,70.44c-.57-.38-.66-1.15-1.16-1.59-.17.01-.35.04-.51.04.21-.12.45-.44.71-.29.76.31.77,1.18.96,1.85Z"/>
  <path class="cls-13" d="m43.39,69.91c-.72-.28-1.3-.81-2.03-1.09-.55-.36-1.23-.15-1.82-.03,1.57-1.7,2.87-.35,3.85,1.12Z"/>
  <path class="cls-13" d="m12.15,30.69c0-.18-.04-.35-.11-.51,0,0,0,0,0,0,0,0,0,0,0,0,0,0,0,0,0,0,0,0,0,0,0,0,0,0,0,0,0,0,0-.01-.01-.03-.02-.04,1.8-3.99,3.71-7.91,5.84-11.71.4-.1.79-.22,1.19-.31.18-.03.37-.05.55-.07.2-.02.39-.05.59-.09.38-.07.75-.13,1.13-.16.09,0,.18-.01.26-.02-.05,0-.1,0-.15.01.1,0,.2-.02.3-.02.05,0,.09,0,.14-.01-.03,0-.06,0-.09,0,.12,0,.24-.02.36-.04-1.85,3.17-3.5,6.48-5.16,9.72-.48,1-.95,1.99-1.41,3-.04.02-.07.04-.11.05-.08-.02-.15-.03-.23-.03-.18-.07-.39-.1-.58-.08-.13.01-.26.04-.39.07h0s0,0,0,0c-.15.03-.3.07-.46.11-.27.06-.54.11-.81.18h.06s-.07,0-.1.01c0,0,0,0-.01,0-.02,0-.04.01-.06.02-.21.05-.43.1-.64.14-.03-.06-.06-.13-.09-.19Z"/>
  <path class="cls-13" d="m12.95,30.73h0s0,0,0,0c0,0,0,0,0,0Z"/>
  <path class="cls-13" d="m14.57,30.71s0,0,0,0c0,0,0,0,0,0Z"/>
  <path class="cls-13" d="m14.66,30.63s.02-.01.04-.02c-.03.02-.07.05-.1.08.02-.02.04-.04.06-.05Z"/>
  <path class="cls-13" d="m14.86,30.51s.02,0,.02,0c-.02,0-.04.01-.05.02,0,0,.02-.01.03-.02Z"/>
  <path class="cls-13" d="m14.27,30.43s0,0,0,0c0,0,0,0,0,0h0s0,0,0,0Z"/>
  <path class="cls-13" d="m24.99,17.38s.07,0,.1,0c.1,0,.2-.02.3-.02-.05,0-.1,0-.15.01.18-.01.35-.03.53-.05.26-.02.52-.04.77-.06,0,0,0,0,0,0,.03,0,.06,0,.1,0,.15-.01.31-.02.46-.01.03,0,.06,0,.09,0-.02,0-.03,0-.05,0,.37.02.75.02,1.12.04-.05,0-.11,0-.16,0,.07,0,.14,0,.21.01.23.01.46.03.7.04-.15.24-.29.47-.44.71-1.84,2.89-3.54,5.85-5.13,8.88-.06.02-.12.04-.18.06-.37.14-.73.29-1.09.44-.34.13-.68.26-1.02.39,0,0,0,0,0,0-.02,0-.04.02-.06.02-.14.05-.28.11-.41.16-.05.02-.1.04-.15.06,0,0,0,0,0,0h0s-.03.01-.04.02c-.63.25-1.26.49-1.84.84-.01,0-.02.01-.03.02,1.94-3.96,4.08-7.82,6.4-11.57Z"/>
  <path class="cls-13" d="m25.72,17.32s-.03,0-.05,0c.02,0,.03,0,.05,0Z"/>
  <path class="cls-13" d="m21.08,27.84s.03-.01.04-.02c-.03.01-.05.02-.08.03.01,0,.03-.01.04-.02Z"/>
  <path class="cls-13" d="m21.14,27.82s0,0,0,0c0,0-.02,0-.03.01,0,0,.01,0,.02,0Z"/>
  <path class="cls-13" d="m31.31,19.09c.27-.5.54-1.01.82-1.51.35.03.7.06,1.06.08-.05,0-.11,0-.16,0,.19.01.38.02.56.03-.04,0-.08,0-.12,0,.44.02.89.02,1.34,0,.32-.01.64,0,.96-.01.05,0,.1,0,.15,0-.3.56-.6,1.13-.9,1.7-1.06,1.92-2.11,3.84-3.14,5.78-.23.03-.46.06-.69.09-.91.12-1.82.27-2.71.49-.17.04-.35.08-.52.12-.09.02-.19.04-.28.06,1.16-2.3,2.38-4.56,3.62-6.81Z"/>
  <path class="cls-13" d="m38.19,25.31c-.27,0-.53,0-.8,0-.1-.05-.21-.09-.32-.12-.48-.1-.97-.12-1.46-.13-.28,0-.57,0-.85-.01,1.26-2.46,2.57-4.9,3.92-7.32.06,0,.13,0,.19,0,.01,0,.03,0,.04,0,.79.05,1.58.04,2.36.05.24,0,.48,0,.72,0,.18,0,.36,0,.54,0-.24.42-.47.85-.7,1.27-1.17,2.07-2.31,4.16-3.41,6.27-.07,0-.15,0-.22,0Z"/>
  <path class="cls-13" d="m44.54,25.89c-.36-.07-.72-.12-1.08-.18-.39-.07-.78-.13-1.18-.16-.08,0-.16-.01-.24-.02,1.09-2.04,2.22-4.06,3.33-6.08.26-.48.53-.96.79-1.43.15.02.29.04.44.06.58.08,1.17.16,1.75.25.47.07.95.11,1.42.17-.19.34-.39.69-.58,1.04-1.21,2.18-2.43,4.36-3.61,6.56-.35-.07-.7-.13-1.05-.2Z"/>
  <path class="cls-13" d="m50.97,27.48c-.35-.08-.71-.16-1.06-.25-.07-.02-.13-.04-.2-.05,0,0,0,0,0,0-.32-.09-.65-.19-.97-.27-.25-.06-.5-.12-.75-.18-.07-.02-.13-.04-.2-.06.02-.05.04-.1.07-.15,1.09-2.58,2.33-5.09,3.58-7.6.43.12.86.23,1.28.35.08.03.17.05.25.08-.04-.01-.07-.02-.11-.03.06.02.11.04.17.05-.01,0-.02,0-.03,0,.02,0,.03.01.05.02.19.06.38.15.57.23,0,0,0,0,0,0,0,0,0,0,0,0,0,0,0,0,0,0,.01,0,.02.01.04.02-.01,0-.02-.01-.04-.02.02,0,.03.02.05.02,0,0,.02,0,.03.01-.01,0-.02,0-.03-.01.28.13.56.27.84.38.05.02.1.04.14.06-1.24,2.43-2.42,4.89-3.51,7.4,0,.02-.02.03-.02.05-.04-.01-.09-.02-.13-.03Z"/>
  <path class="cls-13" d="m53.6,19.61s0,0,0,0c0,0,0,0,0,0,0,0,0,0,0,0Z"/>
  <path class="cls-13" d="m53.59,19.61s-.02-.01-.04-.02c-.01,0-.02-.01-.03-.02.02.01.05.02.07.03,0,0,0,0,0,0Z"/>
  <path class="cls-13" d="m53.56,19.59s.02,0,.03.01c-.01,0-.02,0-.03-.01Z"/>
  <path class="cls-13" d="m53.45,19.54s.03.02.05.02c0,0,0,0,.01,0-.02,0-.04-.02-.06-.03Z"/>
  <path class="cls-13" d="m49.72,27.18s0,0,0,0c0,0,0,0,0,0Z"/>
  <path class="cls-13" d="m55.38,28.5c-.31-.1-.63-.19-.94-.27-.38-.1-.76-.2-1.14-.27,0,0,0,0,0,0-.07-.02-.14-.03-.22-.04-.03,0-.07-.01-.1-.02.02,0,.04,0,.05.01,0,0,0,0,0,0,.04,0,.07.02.11.03-.11-.03-.22-.05-.34-.07.87-1.88,1.81-3.73,2.72-5.59.33-.64.66-1.29.98-1.93.1.07.19.14.29.21,0,0,0,0,0,0l.12.09c.09.07.18.14.27.21.05.04.1.08.15.12,0,0,0,0,0,0,.11.09.21.18.32.26,0,0,0,0,0,0,0,0,0,0,0,0,0,0,0,0,0,0,.07.05.14.11.21.16.07.05.14.09.22.1.02.02.04.03.06.04,0,0,0,0,0,0,0,0,0,0,0,0,0,0,0,0,0,0,0,0,0,0,0,0,0,0,0,0,0,.01,0,0,0,0,0,0,0,0,0,0,0,0,0,0,0,0,0,0,0,0,0,0,0,0,0,0,0,0,0,0,0,0,0,0,0,0,0,0,0,0,0,0,0,0,0,0,0,0,0,0,0,0,0,0s0,0,0,0c0,0,0,0,0,0,0,0,0,0,0,0,0,0,0,0,0,0,0,0,0,0,0,0,0,0,0,0,0,0,.02.04.03.08.06.11.06.1.15.15.26.17.02,0,.03,0,.05,0,.18,0,.33-.16.33-.34,0-.14-.04-.28-.07-.42h0c-.05-.24-.12-.49-.18-.73,0,0,0-.01,0-.02-.02-.11-.04-.22-.05-.33,0-.04,0-.08,0-.12,0-.05,0-.09,0-.14,0-.07,0-.14.01-.21.01-.08.02-.16.03-.23,0-.02,0-.04,0-.06.04-.24.1-.49.16-.73.03-.14.07-.27.11-.41.02-.07.04-.14.06-.21.02-.08.05-.16.04-.24,0-.04-.02-.07-.04-.11.09-.09.17-.2.24-.32.02-.03.04-.07.06-.1.09-.14.19-.27.29-.4.12-.14.25-.27.39-.39.1-.09.2-.18.3-.27.04-.03.08-.07.13-.1h0c.1-.07.2-.14.29-.21-.05.03-.1.07-.14.1.33-.22.64-.47.96-.7l.11-.07s0,.02.01.03h0s0,.01,0,.02c0,0,0,0,0,0,0,0,0,.01,0,.02,0,.03.02.05.02.08,0,0,0,0,0,0,0,.01,0,.02,0,.03,0,.01,0,.02.01.03,0,0,0,.02,0,.03,0,.02.01.04.02.05,0-.02-.01-.03-.01-.05.02.07.04.14.07.22-.01-.03-.02-.07-.03-.1.02.07.05.13.07.2,0,0,0,0,0,0,0,0,0,0,0,0,0,0,0,0,0,0-.02.09-.04.19-.06.28,0,.02-.01.05-.01.07,0,0,0,.01,0,.02,0,0,0,0,0,0,0,.04-.01.08-.02.12-.1.09-.17.21-.2.34-.04.17-.1.34-.1.52,0,.14.01.28.04.42.03.15.08.3.13.45,0,0,0,0,0,.01-.91,1.77-1.77,3.57-2.69,5.34-.91,1.85-1.83,3.69-2.7,5.55-.25-.08-.5-.17-.76-.25Z"/>
  <path class="cls-13" d="m58.17,21.58s0,.01,0,.02c0,0,0-.01,0-.02Z"/>
  <path class="cls-13" d="m58.16,21.57s0,0,0,0c0,0,0,0,0,0,0,0,0,0,0,0,0,0,0,0,0,0Z"/>
  <path class="cls-13" d="m58.16,21.57s0,0,0,0c0,0,0,0,0,0,0,0,0,0,0,0,0,0,0,0,0,0Z"/>
  <path class="cls-13" d="m58.16,21.57s0,0,0,0c0,0,0,0,0,0,0,0,0,0,0,0Z"/>
  <path class="cls-13" d="m58.16,21.57s0,0,0,0c0,0,0,0,0,0,0,0,0,0,0,0,0,0,0,0,0,0Z"/>
  <path class="cls-13" d="m58.16,21.56s0,0,0,0c0,0,0,0,0,0,0,0,0,0,0,0Z"/>
  <path class="cls-13" d="m58.16,21.56s0,0,0,0c0,0,0,0,0,0,0,0,0,0,0,0Z"/>
  <path class="cls-13" d="m58.16,21.56s0,0,0,0c0,0,0,0,0,0,0,0,0,0,0,0Z"/>
  <path class="cls-13" d="m57.66,21.24s0,0,0,0c0,0,0,0,0,0Z"/>
  <path class="cls-13" d="m58.62,19.29s0,.01,0,.02c0,0,0-.01,0-.02Z"/>
  <path class="cls-13" d="m61.68,16s0,0,0,0c0,0,0,0,0,0Z"/>
  <path class="cls-13" d="m61.63,15.25s0-.02,0-.03c0,0,0,.01,0,.02,0,0,0-.02,0-.02,0-.01,0-.02,0-.03,0,0,0,0,0,0,0,0,0,0,0,0,0,0,0,0,0,0,0,0,0,0,0,0,0,.03.01.06.02.08v-.02Z"/>
  <path class="cls-13" d="m61.62,15.22s0,0,0,0c0,0,0,0,0,0Z"/>
  <path class="cls-13" d="m61.62,15.19s0,0,0,0c0-.03-.01-.06-.01-.09,0,.03.01.06.02.09,0,0,0,0,0,0Z"/>
  <path class="cls-13" d="m61.6,15.15s0,0,0,0c0,0,0,.01,0,.02v-.02Z"/>
  <path class="cls-13" d="m53.3,27.96s0,0,0,0c0,0,0,0,0,0Z"/>
  <path class="cls-13" d="m60.12,29.47c-.21,0-.41-.01-.62-.02-.04,0-.08,0-.12-.01h0c-.63-.08-1.25-.16-1.87-.3-.06-.01-.11-.03-.17-.04.65-1.25,1.31-2.5,2-3.73.94-1.7,1.89-3.39,2.82-5.09,0,.1,0,.19,0,.29,0,.08-.01.16-.02.24,0,.08-.02.16-.03.24,0-.04,0-.08.01-.12,0,.08-.02.15-.03.23-.02.16-.03.3-.02.46,0-.04,0-.08,0-.12,0,.11,0,.22,0,.33,0,.02,0,.04,0,.06,0,.02,0,.05,0,.07,0-.01,0-.03,0-.04,0,.02,0,.05,0,.07-.04.3.03.63.22.87.08.09.16.19.26.26-.01.05-.02.11-.04.16,0-.01,0-.02.01-.03-.01.04-.03.08-.04.11-.04.12,0,.26.13.31.03.01.06.02.09.02.09,0,.18-.05.22-.13.03-.01.05-.03.08-.05h0s.07-.02.1-.05c.05-.04.09-.08.14-.11h.02s.08,0,.12,0c.26-.03.49-.13.7-.27.08.05.16.1.24.15-.04-.02-.08-.05-.12-.07.07.04.14.09.21.13-.75,1.35-1.51,2.69-2.25,4.04-.04-.02-.08-.03-.12-.05-.04-.02-.08-.04-.12-.06-.06-.03-.13-.03-.2-.01-.12-.09-.24-.19-.37-.29h0s0,0,0,0c0,0,0,0,0,0,0,0-.02-.01-.03-.02h0s0,0,0,0c-.03-.02-.06-.05-.08-.07.01,0,.02.02.03.03-.02-.01-.03-.03-.05-.04-.02-.02-.05-.03-.08-.04-.05-.04-.11-.07-.18-.08-.08,0-.16.02-.22.07-.11.09-.15.27-.07.39-.04.06-.05.13-.04.2,0,0,0,.01,0,.01,0,.04.02.07.03.1.02.04.06.08.09.12.04.05.07.1.11.14.09.15.17.3.24.45.02.04.04.08.06.12,0,0,0,0,0,0-.06.21-.06.43,0,.64,0,.03.02.06.03.09-.05.1-.11.2-.16.31-.03.06-.07.13-.1.19-.28,0-.55,0-.83-.01Z"/>
  <path class="cls-13" d="m61.31,26.86s.01,0,.02.01c0,0-.01,0-.02-.01Z"/>
  <path class="cls-13" d="m64.82,23.84c.04-.1.09-.2.13-.29.13.07.26.12.39.16,0,0-.01,0-.02,0,0,0,.02,0,.02,0,0,0,.01,0,.02,0,0,0-.01,0-.02,0,0,0,0,0,0,0,.2.06.39.08.59.1.02,0,.05,0,.07,0,.36,0,.71-.06,1.03-.26.24-.16.45-.34.64-.55-.02.02-.04.05-.06.07.03-.04.06-.07.09-.11-.04.11-.08.21-.12.32-.04.12-.08.23-.13.35-.06.13-.13.26-.2.39-.08.15-.15.31-.23.45-.12.19-.25.38-.38.56-.04.05-.08.1-.12.15l.05-.06c-.14.18-.29.35-.44.51-.14.13-.28.25-.43.36-.26.19-.54.36-.81.52-.17.09-.34.16-.52.24-.19.08-.39.15-.57.25-.15.08-.3.16-.46.22,0,0-.01,0-.02,0,.5-1.13.99-2.27,1.5-3.39Z"/>
  <path class="cls-13" d="m67.7,22.95s0,0,0,0c-.01.01-.02.03-.03.04.01-.01.02-.03.03-.04Z"/>
  <path class="cls-13" d="m67.05,22.49h-.05s.05,0,.07,0c0,0-.02,0-.02,0Z"/>
  <path class="cls-15" d="m12.15,30.69c0-.18-.04-.35-.11-.51,0,0,0,0,0,0,0,0,0-.01,0-.02,0-.02-.02-.04-.03-.06-.09-.2-.17-.41-.24-.62-.04-.14-.08-.28-.11-.43-.03-.2-.05-.39-.06-.59,0,.04,0,.08,0,.11,0-.1,0-.2-.01-.3,0-.26,0-.52,0-.79v.06s0-.08,0-.12c0-.02,0-.03,0-.05,0-.01,0-.02,0-.04h0s0,0,0,0h0s0-.02,0-.03c0-.1,0-.2.01-.3,0-.14.03-.27.05-.41v-.02s.02-.09.03-.13c.04-.21.09-.42.16-.63.11-.3.23-.6.36-.88,0-.02.02-.04.03-.05,0-.01.02-.02.02-.03h0s-.01.02-.02.03c.02-.02.03-.04.05-.06.01-.02.03-.03.04-.05.08-.09.17-.18.27-.26.04-.03.08-.07.13-.1h0s0,0,0,0c0,0,0,0,0,0,0,0,0,0,0,0,.13-.12.24-.24.34-.4.13-.23.19-.49.17-.74.12-.12.24-.25.35-.38.01-.01.02-.03.04-.04,0,0,0,0,.01-.01,0,0,0,0,0,0,0,0,0,0,0,0,0,0,0,0,0,0,0,0,0,0,0,0,.13-.17.25-.35.33-.55-.01.02-.02.04-.03.06.02-.05.05-.11.07-.16,0,.02-.02.04-.03.06.03-.07.07-.15.1-.22.03-.06.06-.13.09-.19,0,0,0-.01,0-.02.02-.04.04-.08.06-.13.05-.09.1-.19.14-.28-.01.02-.02.04-.03.06.03-.06.06-.11.09-.17.08-.13.15-.27.21-.41.06-.11.12-.23.19-.34.03-.04.05-.07.07-.11,0,0,0,0,0,0,.03-.04.06-.08.1-.13-.02.02-.04.05-.06.07.1-.12.2-.25.29-.37.03-.04.06-.07.09-.11-.03.04-.06.08-.1.11.21-.23.44-.43.61-.69.06-.1.11-.2.14-.31.11-.03.21-.07.32-.11.18-.08.37-.16.56-.23.18-.06.37-.11.56-.15.23-.05.45-.11.67-.17-.66,1.36-1.19,2.78-1.86,4.13-1.25,2.81-2.64,5.57-3.88,8.38-.04,0-.08.02-.13.03-.03-.06-.06-.13-.09-.19Z"/>
  <path class="cls-15" d="m13.65,22.82h0s0,0,0,0c0,0,0,0,0,0Z"/>
  <path class="cls-15" d="m14.25,21.68s0,0,0,0c0,0,0,0,0,0Z"/>
  <path class="cls-15" d="m11.6,27.47h0s0,.02,0,.03c0,0,0-.02,0-.03Z"/>
  <path class="cls-15" d="m11.6,27.32s0,0,0-.01c0,0,0,.01,0,.02h0Z"/>
  <path class="cls-15" d="m12.2,24.94s0,0,0,0l-.04.04s.03-.03.04-.05Z"/>
  <path class="cls-15" d="m12.3,24.8s-.03.04-.04.06c0,0,0,0,0,0,.01-.02.03-.04.04-.06Z"/>
  <path class="cls-15" d="m14.84,30.53s.01,0,.02-.01h.02s-.03,0-.05.01c0,0,0,0,0,0Z"/>
  <path class="cls-15" d="m15.25,30.44c-.11-.04-.23-.07-.35-.08.42-1.07.93-2.11,1.56-3.08,1.02-1.65,1.71-3.66,2.6-5.35.7-1.36,1.33-2.75,2-4.12.09-.01.18-.02.26-.03.09,0,.17-.01.26-.02-.05,0-.1,0-.15.01.1,0,.2-.02.3-.02.05,0,.09,0,.14-.01-.03,0-.06,0-.09,0,.51-.04,1.01-.13,1.51-.2.46-.06.93-.1,1.4-.14.13-.01.26-.02.39-.03,0,0,0,0,0,0-.32.58-.64,1.16-.93,1.75-.84,1.86-1.77,3.68-2.66,5.5-.52,1.3-1.14,2.54-1.8,3.76-.37.16-.74.33-1.08.54-.22.13-.43.27-.63.42-.43.21-.87.39-1.31.58-.25.11-.51.22-.76.33-.15.07-.3.14-.45.22-.08-.02-.15-.03-.23-.03Z"/>
  <path class="cls-15" d="m26.56,21.33c.81-1.29,1.45-2.67,2.16-4.02.18.01.36.02.54.03,0,0-.01,0-.02,0,0,0-.02,0-.02,0,0,0,.02,0,.02,0,.02,0,.03,0,.05,0,0,0,.01,0,.02,0,.03,0,.05,0,.08,0,.65.04,1.31.08,1.96.16.35.04.71.08,1.06.11-.25.39-.45.74-.58,1.05-1.25,2.44-2.55,4.83-3.92,7.2-.42.09-.84.17-1.26.25-.8.16-1.61.26-2.38.52-.3.1-.6.2-.89.31,1.09-1.86,2.13-3.74,3.19-5.61Z"/>
  <path class="cls-15" d="m25.37,22.52c.83-1.79,1.75-3.54,2.75-5.25.05,0,.09,0,.14,0-.05,0-.09,0-.14,0h0c.06,0,.13,0,.19,0,.31.02.61.04.92.06,0,0,0,0,0,0,0,0,0,0-.01,0,0,0,0,0,.01,0,0,0,.02,0,.03,0,.01,0,.02,0,.03,0,0,0,.01,0,.02,0,.08,0,.15,0,.23.01-.05,0-.11,0-.16,0,.65.04,1.31.08,1.96.16.18.02.36.04.55.06-.49.83-.98,1.66-1.46,2.49-1.06,1.96-2.03,3.96-3.07,5.93-.24.05-.47.09-.71.14-.8.16-1.61.26-2.38.52-.34.11-.67.23-1,.35-.14.05-.28.11-.42.16.85-1.54,1.72-3.07,2.53-4.63Z"/>
  <path class="cls-15" d="m29.26,17.34s0,0,0,0h0s0,0,0,0Z"/>
  <path class="cls-15" d="m29.23,17.34h.02s-.01,0-.02,0Z"/>
  <path class="cls-15" d="m27,22.01c.48-1.08,1.17-2.04,1.73-3.08.28-.52.56-1.05.84-1.57.59.03,1.18.08,1.77.15.61.07,1.23.13,1.84.16-.05,0-.11,0-.16,0,.07,0,.14.01.21.01-.92,1.88-2,3.67-3.04,5.49-.34.8-.66,1.6-.99,2.4-.24.05-.47.1-.71.16-.17.04-.35.08-.52.12-.44.09-.88.18-1.32.26-.49.1-.98.17-1.47.28.64-1.45,1.2-2.93,1.82-4.38Z"/>
  <path class="cls-15" d="m33.49,20.39c.45-.9.9-1.81,1.36-2.71.3,0,.61,0,.91-.01.36,0,.72-.01,1.08,0,.59.02,1.17.02,1.76.04.02,0,.04,0,.05,0-.68,1.29-1.23,2.42-1.94,3.73-.5,1.23-1.03,2.42-1.58,3.6-.32,0-.64,0-.96-.01-.51,0-1.01,0-1.52.04-.45.03-.9.09-1.34.14.77-1.59,1.52-3.18,2.17-4.83Z"/>
  <path class="cls-15" d="m40.2,25.39c-.67-.03-1.34-.07-2.01-.09-.15,0-.3,0-.45,0,.8-1.55,1.48-3.16,2.45-4.61.31-.48.61-.97.87-1.48.23-.49.47-.97.72-1.44.07,0,.13,0,.2,0,.55,0,1.11,0,1.66.02.1,0,.19.01.29.02.23.02.47.04.7.05-.03,0-.07,0-.1,0,.33.03.67.06,1,.09-.59,1.05-1.09,2.14-1.66,3.2-.64,1.12-1.41,2.16-1.96,3.33-.15.33-.3.66-.47,1-.42-.03-.83-.07-1.25-.08Z"/>
  <path class="cls-15" d="m42.28,25.55c-.69-.06-1.39-.13-2.08-.16-.49-.02-.98-.05-1.46-.07.46-.91.93-1.82,1.43-2.71,1-1.67,2.2-3.22,3.31-4.83.06,0,.12,0,.18,0,.1,0,.19.01.29.02.23.02.47.04.7.05-.03,0-.07,0-.1,0,.69.05,1.38.12,2.07.22.23.03.46.06.69.09-1.19,1.81-2.46,3.56-3.71,5.33-.4.68-.79,1.37-1.16,2.06-.05,0-.09,0-.14-.01Z"/>
  <path class="cls-15" d="m46.42,26.27c-.62-.15-1.25-.26-1.88-.39-.03,0-.07-.01-.1-.02.78-1.51,1.58-3,2.36-4.51.58-1,1.13-2.01,1.67-3.02.51.07,1.03.11,1.54.19.24.05.48.11.71.18.04.01.08.02.12.04.35.11.71.21,1.06.3-.34.61-.67,1.22-.96,1.85-1.09,1.9-2.1,3.84-3.09,5.79-.47-.14-.94-.3-1.41-.41Z"/>
  <path class="cls-15" d="m53.29,27.96s0,0,0,0c-.07-.02-.14-.03-.21-.04-.03,0-.07-.01-.1-.02.02,0,.04,0,.05.01,0,0,0,0,0,0,.04,0,.07.02.11.03-.17-.04-.34-.08-.51-.11.05.01.11.02.16.03-.22-.04-.45-.09-.67-.13-.39-.08-.77-.16-1.16-.25-.34-.08-.67-.15-1.01-.24.39-.7.78-1.4,1.17-2.11.95-1.78,1.91-3.56,2.77-5.39.2.09.4.18.6.26.13.05.26.11.39.16.18.07.37.11.56.11s.37-.04.55-.11c.05-.02.11-.05.16-.08.02.01.04.03.05.04.2.14.39.28.59.43,0,0,0,0-.01,0,.04.03.08.06.12.1.08.06.15.12.23.18-.74,1.59-1.54,3.16-2.38,4.7-.43.83-.88,1.65-1.33,2.47-.04,0-.09-.02-.13-.03Z"/>
  <path class="cls-15" d="m53.04,27.91h0s0,0,0,0Z"/>
  <path class="cls-15" d="m57.51,29.13c-.39-.1-.79-.2-1.17-.32-.32-.1-.64-.21-.96-.31-.2-.06-.4-.12-.61-.18,1.1-2.22,2.36-4.36,3.5-6.57.06.06.13.09.21.1.02,0,.03,0,.05,0,.18,0,.33-.16.33-.34,0-.14-.04-.28-.07-.42h0c-.02-.08-.04-.16-.06-.25.6-1.13,1.21-2.25,1.77-3.4.41-.67.63-1.58,1.11-2.22,0,0,0,.01,0,.02,0,0,0,0,0-.01,0,.03.02.06.03.08,0,0,0,0,0,0,.02.07.04.14.07.21-.01-.03-.02-.07-.03-.1.02.07.05.13.07.2,0,0,0,0,0,0,0,0,0,0,0,0,0,0,0,0,0,0-.02.09-.04.19-.06.28,0,.02,0,.05-.01.07,0,0,0,0,0,0h0s0,0,0,0c0,0,0,0,0,0,0,.04-.01.08-.02.12-.1.09-.17.21-.2.34-.04.17-.1.34-.1.52,0,.14.01.28.04.42.03.15.08.3.13.45.12.34.25.67.45.97.02.03.05.06.08.09.02.15.03.3.04.45.01.19.04.38.05.57,0,0,0,0,0,0h0c0,.07,0,.14,0,.2,0,0,0,0,0,0,0,0,0-.01,0-.02,0,0,0-.02,0-.03,0,0,0,.02,0,.03,0,0,0,0,0,0,0,0,0,.02,0,.03h0s0,0,0,0h0s0,.07,0,.11v-.06s0,0,0-.01h0s0-.02,0-.02c0,0,0,.01,0,.02h0c0,.13,0,.26,0,.39,0,.08-.01.16-.02.24,0,.08-.02.16-.03.24,0-.04,0-.08.01-.12,0,.08-.02.15-.03.23-.02.16-.03.3-.02.46,0-.04,0-.08,0-.12,0,.11,0,.22,0,.33,0,.01,0,.03,0,.04-.09.16-.18.32-.27.49-1.19,2.33-2.49,4.59-3.69,6.91-.19-.03-.39-.07-.58-.12Z"/>
  <path class="cls-15" d="m62.15,20.14s0,0,0,0c0,0,0,0,0,0Z"/>
  <path class="cls-15" d="m61.68,15.99h0s0,0,0,0c0,0,0,0,0,0Z"/>
  <path class="cls-15" d="m61.68,15.99s0,0,0,0c0,0,0,0,0,0Z"/>
  <path class="cls-15" d="m62.15,20.14s0,0,0,0c0,0,0,0,0,0Z"/>
  <path class="cls-15" d="m62.15,20.11s0,.01,0,.02c0,0,0-.01,0-.02Z"/>
  <path class="cls-15" d="m62.15,20.16s0,0,0,0h0s0,0,0,0Z"/>
  <path class="cls-15" d="m62.15,19.92s0,0,0,0h0s0,0,0,0Z"/>
  <path class="cls-15" d="m61.65,15.32s0,.03.01.04c0-.01,0-.03-.01-.04Z"/>
  <path class="cls-15" d="m61.65,15.32s0,0,0,0c0,0,0,0,0,0Z"/>
  <path class="cls-15" d="m61.65,15.31s-.01-.04-.02-.06v-.03s0,0,0,0c0,0,0,0,0,0,0,0,0,0,0,0,0,0,0,0,0,0,0,0,0,0,0,0,0,.01,0,.02,0,.03s0,.02,0,.03c0,0,0,.02,0,.03Z"/>
  <path class="cls-15" d="m61.63,15.25s0-.02-.01-.03c0,0,0,0,0,0,0,0,0,.01,0,.02,0,0,0-.01,0-.02,0,0,0,0,0,0,0,.02,0,.04.01.06,0,0,0-.01,0-.02Z"/>
  <path class="cls-15" d="m60.12,29.47c-.21,0-.41-.01-.62-.02-.02,0-.04,0-.07,0,0,0-.02,0-.02,0,.03-.15.09-.3.18-.45.37-.63.72-1.28,1.06-1.93,0,.01.01.03.02.04-.04.06-.05.13-.04.2,0,0,0,0,0,.01,0,.04.02.07.03.1.02.04.06.08.09.12.04.05.07.1.1.14.09.15.17.3.24.45.02.04.04.08.06.12,0,0,0,0,0,0-.06.21-.06.43,0,.64.07.23.22.43.41.57-.07,0-.14.01-.21.02-.07,0-.14,0-.21,0-.35,0-.7,0-1.05-.01Z"/>
  <path class="cls-15" d="m62.26,27.33c-.08-.03-.16-.06-.24-.09-.04-.02-.08-.04-.12-.06-.06-.03-.13-.03-.2-.01-.12-.09-.24-.19-.36-.29,0,0,0,0,0,0,0,0,0,0-.01-.01,0,0,0,0-.01-.01,0,0,0,0,0,0-.02-.02-.04-.03-.06-.05,0,0,0,0,0,0-.01-.01-.03-.02-.04-.04-.02-.02-.05-.03-.08-.04-.05-.04-.11-.07-.18-.08-.04,0-.07,0-.11,0,.3-.6.6-1.21.89-1.82.26-.56.51-1.12.77-1.68,0,.03-.02.07-.03.1,0-.01,0-.02.01-.03-.01.04-.03.08-.04.11-.04.12,0,.26.13.31.03.01.06.02.09.02.09,0,.18-.05.22-.13.03-.01.05-.03.08-.05h0s.07-.02.1-.05c.05-.04.09-.08.14-.11h.02s.08,0,.12,0c.26-.03.49-.13.7-.27.08.05.16.1.24.15-.04-.02-.08-.05-.12-.07.16.1.31.19.48.26.08.04.16.08.23.13.15.09.3.15.46.2,0,0-.01,0-.02,0,.01,0,.03,0,.04.01,0,0-.02,0-.02,0,.19.06.38.08.58.09t0,0s-.02,0-.04,0c-.01,0-.02,0-.04,0,.01,0,.02,0,.04,0s.02,0,.04,0c-.43.96-.86,1.91-1.31,2.85-.08.04-.16.07-.24.1-.19.08-.39.15-.57.25-.15.08-.3.16-.46.22-.04.01-.07.03-.11.04-.08,0-.17-.02-.25-.03-.18-.02-.36.03-.51.13-.02,0-.04,0-.05,0-.05-.02-.1-.03-.15-.04Z"/>
  <path class="cls-15" d="m61.25,26.81s0,0,0,0c0,0,0,0,0,0Z"/>
  <path class="cls-15" d="m61.34,26.88s0,0,0,0c0,0,0,0,0,0Z"/>
  <path class="cls-15" d="m61.34,26.88s0,0,0,0h0s0,0,0,0Z"/>
  <path class="cls-15" d="m61.34,26.88h0s0,0,0,0c0,0,0,0,0,0Z"/>
  <path class="cls-15" d="m61.31,26.86s0,0,.01.01c0,0,0,0,0,0,0,0-.01,0-.02-.01Z"/>
  <path class="cls-15" d="m61.31,26.86s0,0,0,0c0,0,0,0,0,0Z"/>
  <path class="cls-15" d="m61.23,26.79s.01,0,.01.01c0,0,0,0-.01-.01Z"/>
  <path class="cls-15" d="m65.44,22.43s-.01.01-.02.02c-.02.02-.04.04-.06.05.03-.02.05-.05.08-.08Z"/>
  <path class="cls-15" d="m65.43,22.45s0,0,0,.01c0,0,0,0,0-.01Z"/>
  <path class="cls-15" d="m59.41,29.44h0s.02,0,.03,0c0,0,0,0,0,0-.01,0-.02,0-.03,0Z"/>
  <path class="cls-4" d="m35.79,51.73c-2.19-.17-4.24-2.04-3.81-4.35.17-1.34,1.42-2.89,2.74-2.92-1.5.71-1.99,2.78-1.51,4.28.81,2.02,3.53,2.16,5.33,1.59,2.21-.71,2.26-3.76,1.02-5.35,1.49.81,2.17,2.89,1.54,4.46-.72,1.7-2.58,2.36-4.34,2.36-.33,0-.66-.02-.98-.07Z"/>
  <path class="cls-4" d="m34.72,44.46h0s0,0,0,0c0,0,0,0,0,0Z"/>
  <path class="cls-4" d="m12.39,31.06c-1.23-.46-1.28-1.96-1.34-3.08-.57-4.97,5.38-6.19,9.06-7.26,1.44-.36,2.87-.76,4.35-.9.88-.08,1.79-.18,2.66-.09-.44.08-.87.21-1.29.34-2.7.91-5.56,1.53-8.23,2.45-2.18.87-5.44,1.71-5.61,4.51.04.91-.23,3.17,1.04,3.23,1.48-.07,2.83-.85,4.17-1.41,1.81-.85,3.67-1.61,5.59-2.18,6.75-1.99,13.98-2.27,20.91-1.16,4.5.73,8.84,2.15,13.26,3.25,2.82.71,5.2,1.03,2.82-2.57.35.32.7.69,1.04,1.03.9.66,1.11,2.12.01,2.7-.8.45-1.78.3-2.64.13-4.23-1.03-8.39-2.43-12.64-3.32-7.93-1.62-16.35-1.31-24.02,1.31-2.21.59-6.04,3.12-8.4,3.13-.26,0-.5-.03-.72-.1Z"/>
  <path class="cls-4" d="m53.16,20.04c-1.43-.41-2.87-.79-4.33-1.09-2.59-.56-5.15-.57-7.75-.74-5.99-.42-12.03-.8-18-.11-2.47.36-5.19.66-7.21,2.25-.92.85-1.37,2.1-2.36,2.88.7-1.12.74-2.57,1.69-3.54,1.52-1.46,3.76-1.86,5.77-2.24,6.69-1.08,13.5-.64,20.22-.17,1.73.12,3.47.15,5.2.33,2.8.31,5.54,1.04,8.24,1.83,3.32.78,5.8,2.52,5.31,6.28-.92-3.86-3.28-4.75-6.78-5.69Z"/>
  <path class="cls-4" d="m58.61,25.52c-1.87-.95-3.82-1.65-5.83-2.23-1.08-.33-2.16-.64-3.26-.86-1.57-.3-3.21-.5-4.76-.83-.77-.16-1.54-.33-2.31-.51,1.46-.03,2.88.06,4.32.2,2.22.22,4.44.5,6.57,1.15,2.65.71,5.67,1.69,7.06,4.24-.52-.5-1.16-.84-1.8-1.16Z"/>
  <path class="cls-4" d="m59.71,25.17c-.04-.13-.06-.26-.08-.39h0c0-.05-.04-.12-.04-.16.29.23.34.64.34.97-.09-.12-.16-.26-.21-.41Z"/>
  <path class="cls-4" d="m61.13,26.16c1.74-2.27-.56-4.3-1.24-2.02-.13.76-.14,1.85.72,2.14.03.02.18.03.11.04-1.64.09-2.17-2.63-1.29-3.7,1.82-1.85,4.33.57,2.97,2.66-.38.77-1.25,1.11-1.75,1.74.04-.33.31-.61.48-.87Z"/>
  <path class="cls-4" d="m61.54,19.83c-.21-.57-.56-1.08-.64-1.7-.21-.99.42-2.58,1.02-2.97-.94,2.81.82,3.25.57,5.43-.08.77-.48,1.49-.38,2.24-.52-.91-.19-2.05-.57-3.01Z"/>
  <path class="cls-4" d="m61.4,15.17c.13-.07.26-.13.39-.2-.13.18-.3.35-.45.52-1.57,1.85-2.72,4.46-2.1,6.9-1.95-2.51-.62-6.01,2.16-7.21Z"/>
  <path class="cls-4" d="m65.06,24.21c-.73-.34-1.8-1.19-2.39-.22.07-.9,1.16-1.15,1.89-.88.95.42,2.22.77,2.89-.29.09-.13.16-.29.23-.44.16,1.12-.83,1.99-1.86,1.99-.25,0-.51-.05-.75-.16Z"/>
  <path class="cls-4" d="m61.91,27.27c-.45-.13-.85-.39-1.17-.72,0,0,0,0,0,0,.1.05.19.09.29.12.09.03.19.06.29.08.13.03.26.04.39.05.15,0,.3,0,.46,0,.21-.02.41-.05.61-.09.34-.07.68-.16,1.02-.27.22-.08.44-.17.65-.27,0,0,.02,0,.03-.01.25-.13.5-.27.74-.42.23-.16.45-.33.66-.52.13-.12.26-.25.38-.38.13-.15.25-.31.37-.48.14-.21.27-.44.39-.67.12-.24.22-.48.31-.73.08-.23.15-.47.2-.71.02-.11.04-.23.05-.34,0-.05,0-.09,0-.14,0,0,0,0,0,0,.1.38.12.78.1,1.17-.02.57-.13,1.14-.34,1.66-.26.64-.68,1.23-1.21,1.67-.33.27-.68.5-1.06.69-.4.2-.83.33-1.27.4-.25.04-.5.06-.76.06-.38,0-.76-.05-1.12-.15Z"/>
  <path class="cls-4" d="m50.62,43.81c1.24-.52,2.5-.76,3.62-1.51,2.01-1.13,1.85-4.26-.23-5.17-1.7-.7-3.29.42-4.38,1.65.92-2.93,4.1-4.11,6.25-1.65,1.18,1.52,1.3,3.84-.06,5.29-1.05,1.18-2.6,1.69-4.06,2.17-1.58.58-3.28,1.14-4.59,2.2.73-1.36,2.08-2.34,3.45-2.98Z"/>
  <path class="cls-4" d="m42.67,40.34c-1.85-3.27,1.36-7.18,4.87-5.93,1.46.63,2.33,2.43,1.89,3.95-.05-.53-.25-1.06-.55-1.5-1.89-3.02-6.49-.96-5.36,2.43,1.01,2.69,4.28,4.04,3.67,7.36-.53-2.69-3.43-3.92-4.51-6.31Z"/>
  <path class="cls-4" d="m30.94,39.03c.7-1.84-.14-4.05-2.22-4.39-1.07-.16-2.37-.03-3.15.8-.38.45-.57,1.03-.75,1.57-.31-1.7.67-3.2,2.38-3.51,4.62-.71,6.42,3.94,4.07,7.48-1.02,2.01-3.49,3.17-3.85,5.5-.73-3.07,2.75-4.77,3.53-7.44Z"/>
  <path class="cls-4" d="m26.59,45.73c-1.98-2.13-5.27-2.26-7.51-4-1.68-1.25-2.31-3.84-1.18-5.64,1.62-2.33,5.01-2.23,6.43.26.69,1.36.35.67-.65-.02-.78-.54-1.96-1.08-3.35-.64-2.55.78-2.2,4.19-.16,5.36,2.39,1.43,5.99,1.94,6.74,5.08-.1-.14-.21-.28-.32-.41Z"/>
  <path class="cls-4" d="m42.31,70.99c-1.43-2.57-.92-1.24-2.77-.93-.82.08-1.47-.52-2.2-.78-1.77-.47-3.57.04-5.36.05-3.28.33-6.46-.98-8.82-3.21-1.82-1.64-3.62-3.74-3.51-6.35-1.22-2.06-1.46-5.82,1.39-6.57,2.09-.35,4,.92,5.86,1.68,3.98,1.48,8.54,2.98,12.73,1.52,4.32-1.29,9.92-6.89,14.46-4.27,1.68,1.2,2.04,3.6,1.24,5.43-1.1,2.48-3.23,4.41-4.05,7.04-.51,1.34-.61,2.81-1.2,4.12-.47,1.1-1.92,1.55-2.67.46-.38-.59-.77-1.37-1.6-1.29-.97.16-.79,1.51-1.1,2.23-.17.75-.81,1.4-1.46,1.4-.33,0-.66-.16-.94-.55Zm.99-.46c.84-.68.52-2.1,1.22-2.93,1.18-1.41,3.04-.27,3.75,1.03.73.67,1.04-.85,1.14-1.36.87-4.58,2.38-5.96,4.66-9.64.84-1.44.81-3.52-.63-4.57-1.28-.82-2.95-.45-4.29-.01-3.45,1.25-6.36,3.68-9.91,4.69-5.23,1.46-11.05-1.09-15.8-3.1-4.43-1.78-3.55,3.6-3,6.19,1.88,3.25,4.86,6.32,8.62,7.21,1.4.3,2.8.19,4.21.07,1.35-.11,2.7-.22,4.03.04.76.11,1.34.68,2.06.85.56.03.9-.53,1.43-.61.1-.01.19-.02.28-.02,1.29,0,1.58,1.35,2.24,2.15Z"/>
  <path class="cls-4" d="m33.33,62.31c-3.82-.38-8.16-.8-10.98-3.7-1.02-1.06-2.01-3.45-1.1-4.76-.34,1.38,1.38,3.4,2.35,4.3,2.58,2.25,6.21,2.61,9.48,2.95,3.41.37,6.82-.06,10.06-1.18,2.29-.79,4.42-1.97,6.61-3,1.35-.75,3.1-.98,4.11-2.23.14-.21.24-.43.33-.65.01.26,0,.52-.05.77-.85,2.51-3.95,3.01-6,4.22-3.89,2.03-8.22,3.39-12.62,3.39-.73,0-1.46-.04-2.19-.12Z"/>
  <path class="cls-4" d="m46.77,61.73c1.33-.88,2.72-1.7,4.21-2.27.93-.37,1.96-.53,2.86-.95-1.67,1.51-3.8,2.45-5.67,3.71-2,1.35-3.77,3.06-6,4.04,1.44-1.62,2.72-3.39,4.59-4.53Z"/>
  <path class="cls-4" d="m34.76,65.72c2.03-1.75,4.8-2.48,7.43-2.64.48-.01.96.01,1.44.04.54.03,1.08.06,1.62.03,1.12-.19-.93.54-1.26.57-2.2.47-4.55.65-6.59,1.66-1.27.64-2.38,1.5-3.48,2.37-.5.38-1.04.8-1.66.94.99-.85,1.49-2.13,2.5-2.97Z"/>
  <path class="cls-4" d="m60.75,37.54c-.64-2.45-1.19-4.97-2.01-7.36,3.08,2.84,4.33,10.84,3.32,14.98-.48-2.53-.85-5.08-1.3-7.62Z"/>
  <path class="cls-4" d="m59.83,31.51s0,0,0,0c.04.05.11.1.15.15-1.07-.24-1.48-1.92-.15-.15Z"/>
  <path class="cls-4" d="m58.22,29.77h0c-.28-.41.29.1.3.31-.12-.09-.22-.19-.3-.31Z"/>
  <path class="cls-4" d="m58.11,29.7c.47.21.8.69.97,1.16-.42-.29-.73-.72-.97-1.16Z"/>
  <path class="cls-4" d="m63.98,46.13c-.3-.64-1.12-1.33-1.82-.86-.17.11-.26.29-.34.45-.04-.97,1.08-1.37,1.87-1.05,3.44,1.5,1.53,7.07-1.68,7.6,1.64-1.28,2.86-4.15,1.97-6.14Z"/>
  <path class="cls-4" d="m9.03,47.21c.48-.98,1.39-2.03,2.56-2.02.26.02.52.11.69.3-.26-.11-.56-.08-.82.05-1.97,1.41-2.29,5.12-.84,7-1.9-.93-2.51-3.49-1.59-5.32Z"/>
  <path class="cls-4" d="m11.33,36.49c.11-1.92,1.91-2.75,3.23-3.82-.22.38-.47.76-.73,1.12-1.32,1.41-1.32,2.62-1.48,4.44-.02,2.24-.3,4.5-.23,6.73-1.16-2.64-1.16-5.67-.8-8.48Z"/>
  <path class="cls-4" d="m11.3,43.21c0-.07.05-.12.12-.12s.12.06.12.12-.05.12-.12.12-.12-.06-.12-.12Z"/>
  <path class="cls-4" d="m7.8,45.42c-.69-.11-2.61-.23-1.66-1.32.72-.38,1.66-.3,2.29-.89-.63.05-1.33.19-1.93-.03-.45-.27-.32-.96.18-1.08-.52-.43-2.32-.82-1.64-1.73.26-.22.59-.19.93-.16.19.02.38.03.56,0,.79-.06,1.59-.21,2.33-.49-1.07-1.25-2.54-2.08-3.95-2.9-.71-.25-1.71-.52-2-1.28-.06-.39.37-.74.74-.56.63.35,1.2.84,1.91.99,1.19.19,2.55.1,3.62-.5.25-.47-.91-2.02-.51-2.19,0,.04-.07.07-.05.12,2.35,2.45,1.31,3.1-1.6,3.57,2.72,1.75,5,3.45.17,4.18.4.23.85.47.94.95.56,0,.92-.5,1.43-.57,1.58.28-.28,2.74-1.16,2.96,1.24.33,2.24-.6,3.07-1.38-.51,1.28-1.62,2.38-3.01,2.38-.22,0-.44-.03-.67-.08Z"/>
  <path class="cls-4" d="m9.51,33.4c-.82-.37-.84-.34.07-.26.38,0,1.31-.21,1.25-.68-1.15-.17-2.13-.84-3.2-1.24-.55-.07-1.04-.68-.52-1.12.46-.21,1.06-.04,1.7.13.65.17,1.34.35,1.95.11.5-.1-.17-.88.04-.97.04.25.34.39.43.63.33.75-.76,1.01-1.29,1.12.41.17.83.3,1.24.42.48.13.57.69.48,1.12-.19.59-.87.83-1.49.83-.23,0-.45-.03-.64-.09Z"/>
  <path class="cls-4" d="m66.21,33.62c-.85.88-2.29,1.42-3.39.68-.54.2-.78-.14-.74-.48.03-.3.28-.6.73-.53.61-.37,1.19-.85,1.46-1.52-2.43,1.35-2.72-2.22-3.21-3.77.78.9,1,2.19,1.85,3.03.77.49,1.39-.65,2.07-.78,1.08.15.14,1.83-.15,2.38-.29.45-.7.8-1.13,1.1,1.05.21,2.13-.62,2.52-1.57.13-.27,0-.63.26-.83,1.29-.49.74,1.82.43,2.42-.5,1.13-1.38,2.07-2.29,2.87.6-.96,1.23-1.92,1.57-3.01Z"/>
  <path class="cls-4" d="m68.16,37.59c-.63.46-4.47,2.98-4.76,1.59-.05-.42.43-.54.71-.75.32-.22.62-.47.92-.73.32-.3.63-.6.84-.99.06-.14.31-.72-.03-.6-.38.15-.73.39-1.09.56.19-.16.38-.31.57-.47.21-.15.43-.36.7-.37.28.03.34.38.31.61-.07.84-.71,1.49-1.3,2.04,1-.47,2.94-1.33,3.4-2.36-.03-.54.72-.7.88-.17.06.92-.28,1.85-.67,2.67-.85,1.79-2.55,3.19-4.46,3.66,1.81-1.06,3.28-2.71,3.98-4.7Z"/>
  <path class="cls-4" d="m65.11,45.06c-.48-.46-1.03-.97-1.24-1.62-.06-.72.75-.73,1.13-.3.67.51,1.55.54,2.32.27-.97-.11-2.19-.2-2.64-1.2.98.91,2.64.49,3.82.21.75-.4,1.66.11.99.9-1.14.85-2.76,1.43-4.16.96.52.81,1.32,1.52,2.29,1.63-.15.03-.29.04-.44.04-.76,0-1.51-.39-2.07-.89Z"/>
  <path class="cls-4" d="m66.23,47.79c-.53-.09-1.08-.39-1.34-.86.44.32.99.44,1.52.51.51.11.87-.31,1.28-.52-.3.44-.67.9-1.22.9-.08,0-.16,0-.24-.03Z"/>
  <path class="cls-4" d="m15.81,19.01c-1.07-.26-2.76-1.67-2.18-2.89-.03.34.14.67.37.92.63.6,1.24,1.21,1.96,1.68.59.26.68.32.45.32-.12,0-.33-.02-.6-.03Z"/>
  <path class="cls-4" d="m15.55,17.28c-.84-.06-1.37-.78-1.77-1.44.68.5,1.4,1.05,2.3.9.75-.05,1.49-.25,2.19-.48-.69.57-1.55,1.03-2.46,1.03-.09,0-.17,0-.26-.01Z"/>
  <path class="cls-4" d="m22.07,13.61c.58,0,1.29.02,2.22-.13-1.04.97-2.51.65-3.71,1.17-.78.45-1.39,1.15-2.11,1.66,1.45-2.74,2.1-2.72,3.6-2.7Z"/>
  <path class="cls-4" d="m26.54,11.63c2.35-1.08,5.07-1.03,7.57-.57,1.03.27,1.01.23-.05.28-2.37.41-8.25.46-9.72,2.15.28-.97,1.41-1.37,2.2-1.86Z"/>
  <path class="cls-4" d="m51.05,13.75c-2.12-1.18-4.43-1.54-6.79-1.89-2.37-.52-4.65-.34-7.03-.31-1.02-.04-2.05-.23-3.05-.4.56-.09,1.14-.16,1.7-.18,1.95-.18,3.89-.55,5.85-.41,2.25.19,4.49.57,6.7,1.04,2.32.64,4.48,1.87,6.43,3.26,1.19,1.05,2.22,2.26,3.19,3.49-2.46-1.37-4.43-3.41-7-4.59Z"/>
  <path class="cls-4" d="m57.77,17.76c.26.21.45.53.52.85-.27-.22-.44-.52-.52-.85Z"/>
  <path class="cls-4" d="m14.47,32.24c1.01-.61,2.21-.75,3.27-1.27.84-.43,1.41-1.25,2.29-1.63,1.24-.71,2.71-.43,4.02-.87,1.77-.78,3.51-1.55,5.46-1.73,1.91-.65,3.87-.74,5.87-.76.78-.03,1.52-.18,2.25-.38-.62.45-1.31.79-2.05.98-1.58.51-3.29.26-4.85.8-.89.29-1.89.4-2.77.57-1.14.22-2.17.79-3.23,1.24-2.08.86-3.9.07-5.64,1.96-2,1.71-5.47,1.17-6.75,3.83.23-1.18,1.11-2.16,2.13-2.75Z"/>
  <path class="cls-4" d="m44.05,28.08c-2.21-.34-4.49-.44-6.51-1.49-.33-.2-.46-.62-.68-.92.23.19.45.41.68.6,4.64,1.09,9.82.57,13.87,3.49-2.42-.68-4.84-1.35-7.35-1.67Z"/>
  <path class="cls-4" d="m56.09,30.73c-1.45-.3-3.05-.22-4.21-1.29.91.42,1.86.53,2.85.43,2.29-.19,4.43.93,5.88,2.64-1.45-.73-2.9-1.49-4.52-1.77Z"/>
  <path class="cls-4" d="m51.86,29.74c-.67-.14-1.33-.4-1.95-.66,1.11-.11,2.13.35,3.22.46-.34.08-.71.22-1.07.22-.06,0-.13,0-.19-.01Z"/>
  <path class="cls-4" d="m12.55,31.43c-.02.85-.14,1.71-.34,2.55-.27.99-.64,1.97-.85,2.98-.21-1.91.39-3.81,1.19-5.53Z"/>
  <path class="cls-4" d="m13.37,30.4c-.17,2-.71,3.99-1.34,5.89.18-2.02.57-4.01,1.34-5.89Z"/>
  <path class="cls-4" d="m11.38,52.71c-.52-.13-.89-.53-1.04-1.03.27.32,1.9,1.15,1.55,1.15-.07,0-.23-.04-.51-.12Z"/>
  <path class="cls-4" d="m35.77,74.56c-7.71-.41-14.82-5.1-19.21-11.27-2.35-3.67-4.71-7.93-4.29-12.42.46,1.7,1.29,3.29,1.84,4.96,1.2,3.23,2.8,6.36,5.12,8.95,2.96,3.19,6.56,5.95,10.68,7.41,4.85,1.6,10.11,1.56,15.1.7,3.73-.64,6.8-3.25,8.86-6.32,3.3-4.87,4.58-10.59,7.04-15.84.03,3.09-1.13,5.99-2.27,8.82-1.54,3.81-3.31,7.61-6.24,10.54-1.55,1.51-3.3,2.89-5.4,3.5-2.7.82-5.53,1.04-8.36,1.04-.96,0-1.92-.03-2.87-.06Z"/>
  <path class="cls-4" d="m61.62,52.4c.2-.18.71-.5.87-.4h0c-.22.22-.51.4-.82.4-.02,0-.04,0-.06,0Z"/>
  <path class="cls-4" d="m64.13,49.82c-.08,1.25-1.28,2.23-2.48,2.3.8-.79,1.76-1.43,2.48-2.3Z"/>
</svg>