<svg width="128" height="128" viewBox="0 0 128 128" fill="none" xmlns="http://www.w3.org/2000/svg">
<g id="Group">
<path id="Vector" d="M45.0682 87.7857C52.721 89.702 61.402 89.702 70.1437 87.3599C78.8855 85.0178 86.4045 80.6743 92.0741 75.1872" stroke="white" stroke-width="6" stroke-linecap="round"/>
<path id="Vector_2" d="M81.4725 59.1281C84.7177 58.2585 86.2912 53.6074 84.9868 48.7395C83.6825 43.8716 79.9943 40.6304 76.749 41.4999C73.5038 42.3695 71.9304 47.0206 73.2347 51.8885C74.5391 56.7564 78.2272 59.9976 81.4725 59.1281Z" fill="white"/>
<path id="Vector_3" d="M46.2193 68.58C49.4646 67.7104 51.038 63.0593 49.7337 58.1914C48.4293 53.3236 44.7411 50.0823 41.4959 50.9518C38.2506 51.8214 36.6772 56.4725 37.9816 61.3404C39.2859 66.2083 42.9741 69.4495 46.2193 68.58Z" fill="white"/>
<path id="Vector_4" d="M69.9308 88.1872L72.8386 94.1124C73.3647 95.1914 74.0984 96.156 74.9979 96.951C75.8973 97.7459 76.9448 98.3556 78.0803 98.7451C79.2158 99.1345 80.4169 99.2961 81.6149 99.2206C82.813 99.1451 83.9843 98.8339 85.0619 98.3049C86.1395 97.7759 87.1021 97.0395 87.8946 96.1379C88.6871 95.2363 89.2939 94.1872 89.6802 93.0506C90.0666 91.9141 90.2249 90.7125 90.1461 89.5147C90.0673 88.3169 89.753 87.1464 89.221 86.0702L86.4227 80.3823" stroke="white" stroke-width="6"/>
<path id="Vector_5" d="M20.8261 20.8265C28.3716 13.2667 37.7824 7.83721 48.1038 5.08892C80.5523 -3.61025 113.913 15.6557 122.606 48.1042C131.306 80.5587 112.046 113.914 79.5972 122.613C47.1426 131.312 13.7816 112.046 5.08854 79.5976C2.30795 69.2865 2.30375 58.4235 5.07637 48.1102" stroke="white" stroke-width="6" stroke-linecap="round"/>
</g>
</svg>
