<svg width="130" height="130" viewBox="0 0 130 130" fill="none" xmlns="http://www.w3.org/2000/svg">
<g id="Group">
<path id="Vector" d="M49.25 126.334C74.7932 126.334 95.5 105.627 95.5 80.0837C95.5 54.5405 74.7932 33.8337 49.25 33.8337C23.7068 33.8337 3 54.5405 3 80.0837C3 105.627 23.7068 126.334 49.25 126.334Z" stroke="white" stroke-width="6"/>
<path id="Vector_2" d="M52.3333 89.3337H64.6667" stroke="white" stroke-width="7" stroke-linecap="round"/>
<path id="Vector_3" d="M77 67.7503C77 72.8563 74.2373 77.0003 70.8333 77.0003C67.4293 77.0003 64.6667 72.8563 64.6667 67.7503C64.6667 62.6443 67.4293 58.5003 70.8333 58.5003C74.2373 58.5003 77 62.6443 77 67.7503Z" fill="white"/>
<path id="Vector_4" d="M46.1667 77.0003C49.5724 77.0003 52.3333 72.859 52.3333 67.7503C52.3333 62.6417 49.5724 58.5003 46.1667 58.5003C42.7609 58.5003 40 62.6417 40 67.7503C40 72.859 42.7609 77.0003 46.1667 77.0003Z" fill="white"/>
<path id="Vector_5" d="M95.5 33.8337L83.1667 46.167" stroke="white" stroke-width="6" stroke-linecap="round"/>
<path id="Vector_6" d="M101.549 5.17716C101.803 4.53511 102.244 3.98415 102.815 3.59589C103.385 3.20762 104.06 3 104.75 3C105.44 3 106.115 3.20762 106.685 3.59589C107.256 3.98415 107.697 4.53511 107.95 5.17716L111.983 15.4138C112.335 16.2957 113.032 16.9987 113.926 17.3502L124.156 21.3832C127.055 22.5302 127.055 26.6372 124.156 27.7842L113.92 31.8172C113.481 31.9909 113.083 32.253 112.75 32.5872C112.417 32.9213 112.156 33.3204 111.983 33.7597L107.95 43.9902C107.697 44.6322 107.256 45.1832 106.685 45.5714C106.115 45.9597 105.44 46.1673 104.75 46.1673C104.06 46.1673 103.385 45.9597 102.815 45.5714C102.244 45.1832 101.803 44.6322 101.549 43.9902L97.5165 33.7535C97.3428 33.3148 97.0807 32.9165 96.7465 32.5834C96.4123 32.2503 96.0132 31.9895 95.574 31.8172L85.3435 27.7842C84.7014 27.5306 84.1505 27.0898 83.7622 26.5191C83.3739 25.9483 83.1663 25.274 83.1663 24.5837C83.1663 23.8934 83.3739 23.219 83.7622 22.6483C84.1505 22.0775 84.7014 21.6367 85.3435 21.3832L95.5802 17.3502C96.0188 17.1764 96.4171 16.9143 96.7502 16.5802C97.0833 16.246 97.3442 15.8469 97.5165 15.4077L101.549 5.17716Z" stroke="white" stroke-width="6"/>
</g>
</svg>
