<?xml version="1.0" encoding="UTF-8"?>
<svg id="Layer_3" data-name="Layer 3" xmlns="http://www.w3.org/2000/svg" viewBox="0 0 67.99 81.34">
  <defs>
    <style>
      .cls-1 {
        fill: #463915;
      }

      .cls-1, .cls-2, .cls-3, .cls-4, .cls-5, .cls-6, .cls-7, .cls-8, .cls-9, .cls-10, .cls-11, .cls-12, .cls-13, .cls-14 {
        stroke-width: 0px;
      }

      .cls-2 {
        fill: #fff1c0;
      }

      .cls-3 {
        fill: #010101;
      }

      .cls-4 {
        fill: #f5ecc9;
      }

      .cls-5 {
        fill: #feeaa3;
      }

      .cls-6 {
        fill: #ffc40c;
      }

      .cls-7 {
        fill: #e4a524;
      }

      .cls-8 {
        fill: #4a3d16;
      }

      .cls-9 {
        fill: #775f26;
      }

      .cls-10 {
        fill: #fff;
      }

      .cls-11 {
        fill: #e3a425;
      }

      .cls-12 {
        fill: #241f10;
      }

      .cls-13 {
        fill: #fff6d3;
      }

      .cls-14 {
        fill: #ffdd67;
      }
    </style>
  </defs>
  <path class="cls-5" d="m11.73,49.91s-.04-.03-.06-.05c-.09-.07-.18-.15-.26-.23-.02-.01-.03-.03-.05-.04-.06-.05-.12-.1-.18-.14-.05-.03-.1-.06-.15-.09-.39.33-.76.67-1,1.11-.53.97-.6,2.14-.35,3.2.18.73.24,1.65.96,2.05.55.32,1.16-.02,1.55-.44-.68-1.64-.84-3.13-.54-4.87,0-.06.02-.12.03-.18.02-.11.04-.21.07-.32Zm33.7-2.24c.01-.45.01-.9,0-1.35v-.02c-.03.23-.06.45-.15.67-.03.25.05.47.15.7Zm15.54,3.37c.76,1.2.52,3.5-.47,4.81-.21.8-.81,1.53-1.7,1.47-.48,0-.81-.29-1.08-.64,0,.07,0,.13,0,.2-.1,1.25-.46,2.46-1.07,3.56-.31.52-.48,1.13-.9,1.58-1.52,1.93-3.85,2.84-5.87,4.12-1.71,1.06-3.26,2.07-4.86,3.24-.83.7-1.67,1.3-2.39,2.07-.31.39-.64.76-1.01,1.1-.26.21-.51.42-.77.61-1.37,1.99-3.84,3.48-6.18,3.35-1.59-.1-4.4-2.29-5.65-3.3-1.06-.9-2.26-1.68-3.29-2.59-.81-.83-1.56-1.71-2.35-2.57-.84-.65-1.68-1.3-2.66-1.76-2.66-1.3-3.87-1.83-4.88-3.33-.6-.32-1.05-.7-1.38-1.12-.1-.15-.2-.31-.31-.46-.64-1.13-.7-2.53-.91-4.01-.27-.44-.5-.86-.7-1.27-.13-.27-.25-.53-.36-.78-.24.64-.81,1.16-1.52,1.13-.17,0-.33-.03-.47-.08-1.22-.36-1.77-1.88-2.04-3.04-.24-1.29.03-2.91.95-3.88.5-.47,1.21-1.12,1.94-1.05.05.04.1.07.15.1.03.01.06.01.08,0,.01,0,.02,0,.04-.02.24.13.41.35.56.59-.03-.1-.06-.19-.09-.29,0,0,0,.02,0,.03-.12-.22-.21-.45-.28-.68-.1-.36-.15-.72-.15-1.09-.11-.65-.14-1.3-.06-1.96,0-.01,0-.03,0-.04.05-.04.06-.12.05-.19,0-.03,0-.05,0-.08.21-.97.46-1.96.9-2.85.09-1.22.35-2.43.76-3.57.45-1.73,1.35-3.24,2.47-4.6.73-.98,1.5-1.94,2.35-2.81,1.58-1.4,3.33-2.62,5.16-3.68.87-.48,1.84-.76,2.74-1.18,1.59-.72,3.3-1.54,5.09-1.28,1,.15,2.04.28,2.93.76.69.34,1.32.76,1.93,1.22.66-1.15,1.82-1.91,3.1-2.24.66-.2,1.34-.4,2.04-.38,3.47-.04,5.99,1.11,8.3,3.67,1.97,1.87,3.62,4.07,4.78,6.53.49,1.03.91,2.09,1.15,3.21.22.9.51,1.78.72,2.67.51,1.32.9,2.86,1.13,3.68.24.92.47,1.75.64,2.55.48,1.03.82,1.8.91,2.85.46-.1.96-.01,1.39.3.49.36.81.9,1.12,1.4Z"/>
  <path class="cls-5" d="m12.62,53.78c.63.59.51,1.73-.07,2.32,0,0,0,0,0,0-.08-.18-.24-.3-.45-.14-.17.15-.29.36-.49.49-.19.11-.39.19-.6.26-.23,0-.46-.05-.66-.19-.06-.05-.11-.09-.16-.14-.63-.61-.84-1.58-.91-2.43-.3-1.08-.31-2.4.33-3.35.07-.52.34-1.15.92-1.24.61-.08,1.1.07,1.39.65.55.32.7,2.65.35,3.16.14.14.25.31.32.51.01.03.02.06.03.1Z"/>
  <path class="cls-5" d="m11.7,48.11c.25.02.37.3.3.52-.05.3-.06.71-.32.92,0,.04,0,.07,0,.11,0,.07,0,.14,0,.2,0,.12,0,.25,0,.37,0,.09,0,.18,0,.26-.01-.03-.02-.06-.03-.08-.1-.25-.19-.51-.23-.78,0-.01,0-.02,0-.03-.02,0-.03,0-.05-.01-.08-.03-.14-.08-.18-.14-.01-.02-.03-.05-.03-.07-.07-.21.02-.52.13-.7,0-.05,0-.11.01-.16.01,0,.02,0,.04-.02.07-.04.08-.15.05-.23,0,0,.01-.02.02-.02.03-.04.07-.07.11-.09.04-.02.09-.04.13-.04.01-.04.03-.09.05-.11,0,.04.01.08.02.11Z"/>
  <path class="cls-6" d="m3.55,48.25s0-.04,0-.07c-.06-.11-.09-.27-.06-.4-.04.03-.08.06-.12.09-.04.04-.09.08-.1.14.03.1.12.16.21.21.02.01.05.02.07.03Zm.41.08s0,0-.01-.01c-.02,0-.05,0-.08-.01-.01,0-.02-.01-.03-.02-.01,0-.03,0-.04.01,0,0,0,.01-.01.01.06,0,.12.01.18.02Zm.54-1c-.1.04-.2.08-.31.12,0,0,.01.02.02.03.02,0,.04,0,.07,0,.08-.04.15-.1.22-.15Zm5.36-17.44s0,0-.01,0c-.02.02-.04.05-.05.07.02-.02.04-.04.06-.06Zm5.61-2.59s.07-.1.1-.14c0,0-.01,0-.02-.01-.03.05-.05.1-.08.15,0,0,0,0,0,.01Zm20.53-2.18s-.04.01-.07.02c0,0,0,0,0,.01.02,0,.05-.02.06-.03Zm2.43-.97c.19.04.11.25-.03.3-.43.22-.89.38-1.34.54-.24.27-.53.5-.79.76-.16.18-.29.39-.46.56-.03.1-.16.15-.24.07-.03-.03-.04-.08-.08-.1,0,0,0,0,0,0s0,0,0,0c-.25-.19-.43-.44-.69-.62-.07.02-.13-.02-.19-.05-.15-.08-.31-.16-.45-.26-.25.03-.86-.09-.58-.45-.03-.01-.06-.03-.09-.04-.04,0-.07,0-.1-.03,0,0-.02-.01-.02-.02-.08-.03-.16-.05-.24-.06-.27.09-.56.12-.84.1-.13,0-.33-.08-.27-.25.06-.12.23-.11.35-.13-.02-.01-.05-.02-.08-.04-.13.03-.26.05-.38.08-.07.02-.14-.02-.16-.09-.22,0-.95.21-1.05-.01-.36.04-.71.12-1.07.14-.07,0-.12-.05-.13-.12-1.16.29-2.31.62-3.43,1.03-.88.32-1.71.75-2.56,1.13-.95.61-1.96,1.15-2.86,1.85-.8.62-1.53,1.33-2.28,2-.31.29-.6.61-.93.87-.09.05-.2-.05-.17-.15-.51.56-1,1.12-1.5,1.69-.17.21-.36.41-.54.61,0,0,0,.02,0,.03-.22.34-.42.7-.61,1.06h0c-.02.06-.03.11-.04.17,0,.09-.04.19-.14.19-.25.51-.49,1.03-.73,1.54-.53,1.12-1,2.29-1.31,3.49-.04.13-.05.43-.26.31-.03.15-.06.3-.11.44-.02.08-.07.16-.15.16-.24.99-.4,2-.46,3.02,0,.31-.01.62-.03.92,0,.03,0,.05,0,.08,0,.07,0,.14-.05.19-.03.03-.07.04-.12.03,0,.04,0,.07,0,.11,0,.64.05,1.27.08,1.9.01.39.01.78.1,1.16,0,0,0,0,0,0,.03.08.02.19-.05.23-.01,0-.02.01-.04.02-.02,0-.05,0-.08,0-.05-.03-.1-.06-.15-.1-.08-.06-.16-.12-.26-.13-.28-.03-.59.02-.81.19-.05.04-.13.03-.18-.02-.06-.1,0-.18.08-.23,0,0-.01-.01-.02-.02-.46.27-.78.7-1.06,1.14-.29.65-.69,1.24-1.05,1.85-.15.25-.26.54-.42.76.13,0,.18.2.04.25-.09.03-.19.05-.28.07-.1.06-.22.12-.32.14-.04.03-.09.03-.15,0-.05.13-.09.46-.29.35-.05-.04-.06-.09-.05-.15,0-.01,0-.02,0-.04-.04.03-.09.05-.14.03-.22-.08-.05-.34,0-.48.07-.17.15-.33.23-.5.02-.05.03-.09.04-.12.17-.51.31-1.11.56-1.58.04-.23.12-.46.1-.68-.24-.03-.37.23-.53.35-.18.12-.89.65-.89.15.11-.48.38-.62-.16-.97-.68-.44-1.56.09-2.23-.37-.68-.52.32-.96.76-1.13.15-.03.46-.28.56-.09.02.04.01.09-.01.12.16-.14.32-.29.52-.36.37-.32,1.04-1.29.71-1.77-.81-.14-1.22.43-1.85.76-.46.11-.99-.04-1.33-.36-.31-.28-.39-.72-.46-1.12-.02-.17-.04-.35.04-.51.07-.1.21-.07.28.03.1.1.13.24.14.39.03-.01.06-.02.08-.02.29,0,.57.05.85.01.41-.04.78-.24,1.12-.47.41-.24.79-.53,1.08-.9-.05-.04-.06-.1-.04-.16.06-.2.14-.39.19-.59.13-.48.01-.99-.03-1.48-.3.24-.7.32-1.05.47-.39.13-.76.37-1.17.4-.13-.02-.14-.16-.07-.22-.08,0-.15-.01-.22-.03-.01.02-.03.04-.06.05-.03.02-.07.02-.1.01,0,0,0,0,0,0-.03.04-.08.06-.14.06-.29-.03-.56-.16-.81-.31-.47-.26-.9-.61-1.2-1.06-.22-.25-.41-.53-.54-.85-.21-.44-.24-.93-.21-1.42-.02-.15.04-.28.11-.41.03-.06.11-.08.17-.05.07.04.07.1.05.16,0,0,0,0,0,0,.06,0,.11.05.14.1.07.11.14.23.19.36.27.39.68.66,1.13.8.71.24,1.26.16,1.78-.07-.01-.1.07-.2.2-.12.01,0,.03,0,.04,0,.48-.27.93-.65,1.43-1,.3-.22.62-.43.87-.71.03-.03.07-.04.1-.04.12-.12.23-.25.33-.39.57-.61,1.07-1.29,1.38-2.07.12-.29.19-.6.25-.91-.01-.02-.02-.04-.02-.06.01-.09.04-.17.08-.25,0,0,0,0,0,0,.03-.13.05-.26.08-.39-.07-.17.02-.37.07-.54-.06-.07,0-.16.04-.23.1-.2.24-.36.38-.52-.02,0-.04-.01-.06-.03-.26.01-1.25.29-1.28-.09.02-.15.21-.13.31-.17.22-.29.43-.59.66-.88.12-.1.25-.44.44-.3.03-.03.06-.06.1-.1-.03-.1-.08-.19-.14-.26-.07-.09-.17-.2-.22-.31-.58-.33-1.04-.82-1.37-1.4-.14-.27-.53-.93-.07-1.06.17-.02.25.08.29.21.11-.04.23-.02.31.11.05,0,.09.03.13.06,0,0,.02-.02.03-.03.06-.05.13-.06.2-.05.13-.11.31-.05.4.08.09-.14.3-.14.41,0,0,0,.01-.01.02-.02.07-.06.17-.07.25-.03.04-.1.16-.16.26-.15.24-.12.58-.19.73-.28.03-.02.06-.04.1-.06.49-.51,1.04-.96,1.54-1.46.08-.16.15-.32.22-.49,0-.05,0-.1.02-.14.04-.22.06-.44.05-.66-.03,0-.05-.01-.07-.02-.35-.11-.69-.3-.93-.59-.19-.19-.44-.68-.05-.78.07-.01.14,0,.19.05.11-.09.26-.06.36.04.11.04.22.06.33.07.83.01,1.59-.34,2.31-.71.63-.26,1.12-.6,1.48-1.09-.12-.15.03-.43.08-.62.1-.3.16-.62.13-.94,0-.08-.04-.15-.1-.19-.03-.03-.05-.07-.06-.1h0c-.21-.12-.4-.25-.56-.43-.16-.21-.59-.64-.27-.86.25-.14.37.13.49.32.09-.05.19-.05.29-.01.69.34,1.45.02,2.03-.4.07-.14.13-.29.17-.44-.13-.25-.39-.42-.57-.63-.04-.06-.08-.12-.12-.18-.02-.03-.03-.06-.03-.09-.02-.02-.04-.05-.06-.07-.29-.26-.6-.53-.73-.91-.44-1.1-.52-2.63.58-3.29.15-.13.39-.22.53-.27.21-.08.42-.19.64-.23.12-.08.26-.12.37.02.16.2-.05.38-.21.5-.2.19-.38.37-.53.59-.44.64-.49,1.55-.09,2.22.28.36.79.37,1.21.43.34.05.68.08,1.03.05.63-.1,1.27-.25,1.86-.5.7-.41,1.34-.97,1.83-1.63.32-.64.71-1.25,1.22-1.77.39-.47.71-.98,1.16-1.38,1-.91,2.48-1.31,3.79-.96,1.04.32,1.96,1.01,2.74,1.75.32-.08.54.33.74.53.13.16.3.29.4.47.2.52.37,1.08.4,1.64.03.25-.29.42-.47.24-.12.05-.22.03-.3-.04-.12-.04-.26.02-.37.03-.29.07-.58.16-.83.25-.73.25-1.34.72-1.82,1.31,0,.43-.63,1.29-.78,1.49-.12.15-.25.3-.38.45-.14.24-.29.47-.47.69-.15.19-.29.38-.45.56-.1.15-.28.29-.44.16-.01,0-.02-.02-.03-.03-.08.07-.17.14-.25.2-.11.08-.27.07-.36-.04-.02-.02-.03-.04-.04-.06-.55.27-1.14.47-1.72.69-1.21.38-2.39.79-3.55,1.24-1.1.39-2.1,1.05-2.94,1.86-.87.85-1.53,1.84-2.22,2.83.59-.64,1.3-1.17,1.86-1.84.35-.39.7-.79,1.06-1.17.13-.17.42-.1.45.11.83-.63,1.72-1.17,2.61-1.71.48-.33.98-.64,1.51-.89.24-.11.47.2.3.4.15-.04.33.03.38.18.22.04.27.34.09.46.22-.12.56.04.46.32-.13.26-.42.41-.63.61-.37.3-.75.61-1.12.91.24.31-.24.48-.43.64,0,0,0,.01.01.02.02.03.03.06.03.09.19-.1.48-.34.65-.08.07.12.03.28-.09.35-.65.37-1.28.79-1.88,1.23.04.16-.09.28-.21.36-.24.19-.48.37-.72.55.03.06.05.12.03.19.46-.25.93-.49,1.4-.72.37-.17.76-.36,1.18-.38.25-.01.36.34.14.47-.36.23-.74.44-1.1.68,0,.03,0,.07,0,.1.9-.51,1.81-.99,2.78-1.36-.05-.18.18-.2.29-.23.29-.08.59-.14.89-.21.02-.1.14-.11.22-.13.43-.11.87-.2,1.3-.3.92-.21,1.85-.42,2.79-.53.17,0,.67-.13.64.15-.01.07-.07.09-.13.11-.15.04-.31.08-.46.11.6-.04,1.19-.14,1.79-.18.17,0,.38-.07.53.02.24-.01.47-.04.71-.04.04,0,.07.02.09.05.53-.07,1.05-.16,1.58-.22.04,0,.09.01.12.04.27-.03.54-.05.81-.06.04,0,.09,0,.12.04.12.15-.05.23-.18.25.15,0,.44-.12.5.07.11-.02.32-.07.32.11.02.02.04.04.05.07,0,0,0,0,0,.01.21-.04.42-.09.64-.12.09,0,.15.09.12.17Z"/>
  <path class="cls-6" d="m24.71,20.92c-.3-.27.17-.63.41-.74.73-.35,1.54-.53,2.31-.74,1-.21,2.01-.35,3.02-.51,1.27-.2,2.56-.17,3.84-.08.79.05,1.59-.02,2.37.11.32.05.28.53-.05.5-.21-.03-.41-.06-.62-.07-1.25.01-2.49-.12-3.74-.11-.81.02-1.61.13-2.41.25-1.06.17-2.14.31-3.15.63-.51.16-1.07.27-1.52.58-.1.15-.27.31-.45.17Z"/>
  <path class="cls-6" d="m24.65,24.2c-.89-.02-1.59-.99-1.11-1.8.17-.3.45-.48.75-.6.29-.24.61-.43.96-.57,1-.42,2.71-.95,3.18.44.31,1.08-.84,1.67-1.65,2.04-.67.3-1.4.55-2.14.5Z"/>
  <path class="cls-6" d="m50.88,27.63c-.76-1.22-1.97-2.01-2.97-2.96-.66-.61-1.26-1.29-2-1.8-1.05-.68-2.2-1.17-3.36-1.62-.79-.25-1.52-.62-2.29-.9-.71-.21-1.47-.21-2.2-.28-2.16.03-4.36-.06-6.48.4,1.05-.02,2.1-.04,3.14-.02,1.13-.04,3.04.25,2.73,1.78-.31,1.1-1.66,1-2.55,1.32-1.23.43-2.51.59-3.81.62-2.17.2-4.22.99-6.2,1.85-.31.18-.64.33-.96.49-.59.32-1.32.74-1.94.27-.06.03-.12.06-.18.09-.23.11-.49.13-.73.07-2.64,1.47-3.49-2-1.22-2,1.33-.73,2.68-1.41,4.01-2.13-.5-.39-.61-1.18-.21-1.68.56-.65,1.4-.96,2.17-1.3,1.83-.86,3.81-1.33,5.78-1.76,2.21-.38,4.46-.36,6.69-.34.96.07,1.94.12,2.85.45,1.22.51,2.47.93,3.67,1.48.95.4,1.87.88,2.71,1.48,1.02.82,1.9,1.82,2.9,2.64.99.88,2.27,1.92,2.66,3.21.21,1.34-1.69,1.89-2.23.64Z"/>
  <path class="cls-6" d="m58.13,48.23c-.06-.19-.06-.41-.08-.62-.08-.82-.21-1.64-.36-2.44-.08-.4-.16-.81-.23-1.14l-.03-.11c-.29-1.26-.62-2.51-.99-3.75-.31-1.05-.66-2.1-1.02-3.13-.06-.18-.13-.36-.19-.55-.44-1.2-.91-2.4-1.43-3.57-.36-.81-.73-1.62-1.14-2.41-.4-.77-.83-1.52-1.31-2.24-.19-.27-.38-.53-.6-.77-.16-.16-.33-.31-.5-.46-.22-.19-.35-.52-.35-.81,0-.31.11-.62.33-.85.21-.22.51-.35.81-.35.33,0,.6.12.85.33.15.13.3.25.44.39.13.14.26.28.38.43.16.19.31.39.45.6.24.34.46.68.68,1.04.45.74.86,1.52,1.24,2.29.7,1.41,1.31,2.86,1.88,4.33.42,1.08.81,2.17,1.17,3.27.38,1.16.73,2.32,1.05,3.5.2.74.38,1.48.55,2.23.2.9.38,1.8.51,2.7.06.43.11.87.15,1.3,0,.08.01.15.02.23.12.58-.25,1.18-.82,1.35-.11.03-.22.05-.32.05-.51,0-.97-.34-1.13-.84Z"/>
  <path class="cls-6" d="m54.75,35.2c-.68-.07-1.13-.71-1.03-1.37-.15-.46-.38-.91-.65-1.29-.33-.46-.52-.92-.81-1.38-.5-.61-1.12-1.12-1.61-1.74-.64-.76-1.19-1.59-1.87-2.33-.79-.85-1.8-1.45-2.79-2.04-.52-.33-1.08-.62-1.65-.86-.49.04-.96-.19-1.41-.35-1-.1-2.02-.07-2.99.04-1.35.1-2.61.79-3.99.66-3.79-.28-1.59-.8-4.23-1.98-.51-.28-1.11-.49-1.44-1-.46-.71.06-1.73.89-1.82.65-.08,1.29.08,1.93.13.66.04,1.31,0,1.97,0,.34-.66,1.18-.73,1.81-.42.89.28,1.83.38,2.75.49.88.1,1.64.29,2.48.38.88-.21,1.78.31,1.66,1.29,1.19.24,2.43.83,3.43,1.46,1.12.66,2.23,1.36,3.15,2.3,1.17,1.27,2.09,2.75,3.36,3.93.73.77,1.12,1.78,1.72,2.64.22.39.36.81.53,1.22.35.9-.08,2.17-1.21,2.06Z"/>
  <path class="cls-6" d="m34.19,13.87c-1.08-1.04.61-2.93,1.78-2.04,1.36,1.03-.58,3.2-1.78,2.04Z"/>
  <path class="cls-6" d="m44.82,17.87c-.53-.48-.91-1.09-1.3-1.69-.52-.67-1.03-1.34-1.48-2.05-.88-1.36-1.66-1.88-3.28-1.91-2.28.27-1.96,1.43-3.16,1.76-.99.19-1.77-1.07-1.12-1.86,1.6-2.18,4.49-2.76,6.92-1.72,1.38.58,2.24,1.88,3.02,3.09.38.51.79,1,1.14,1.53.27.41.52.84.89,1.17,1.07,1.1-.49,2.71-1.63,1.67Z"/>
  <path class="cls-6" d="m41.08,19.54c-1.12-.26-1.44-2.56-1.92-3.48-.29-.49-.68-.92-1.02-1.38-.29-.26-.69-.37-1.05-.53-1.88.34-2.08-2.29-.14-2.35.28-.04.45,0,.66.06.86.31,1.79.63,2.37,1.37.99,1.22,1.48,1.95,1.89,3.5.21.69.77,1.21.61,1.94-.14.61-.81,1.02-1.42.85Z"/>
  <path class="cls-6" d="m42.28,19.75c-.77-1.49-1.07-3.19-2.06-4.57-.58-.79-1.22-1.54-1.96-2.19-.75-.67-.21-2.02.79-2.01.89.01,1.58,1.09,2.16,1.68.43.52.85,1.04,1.21,1.61.87,1.31,1.22,2.86,1.87,4.27.74,1.35-1.17,2.5-2,1.2Z"/>
  <path class="cls-6" d="m44.91,21.59c-1.11-1.55-1.61-3.43-2.5-5.1-.32-.61-.68-1.19-1.06-1.76-.56-.75-1.45-1.45-.62-2.39.43-.44,1.22-.49,1.65-.02.26.29.52.57.75.89,1.37,1.87,2.19,4.05,3.14,6.14.13.28.28.55.47.79.91,1.24-.84,2.63-1.83,1.45Z"/>
  <path class="cls-6" d="m47.27,23.33c-.79-1.09-1.44-2.25-2.07-3.44-.64-1.25-1.44-2.45-1.77-3.83-.38-1.49,1.77-2.12,2.25-.66.06.22.12.44.19.65.89,1.92,1.91,3.79,3.06,5.57.25.32.48.68.42,1.1-.07,1-1.49,1.42-2.08.6Z"/>
  <path class="cls-6" d="m48.67,23.41c-1.25-.07-3.01-4.16-3.65-5.27-.29-.74-1-1.71-.56-2.49.3-.55,1.05-.76,1.59-.44.3.17.47.45.58.77.21.56.45,1.1.73,1.62.57,1.11,1.13,2.23,1.83,3.27.17.23.34.45.52.66.65.76-.06,2.03-1.04,1.89Z"/>
  <path class="cls-6" d="m45.42,16.92c-.43-.46-.89-.9-1.29-1.38-.42-.48-.29-1.26.19-1.64.59-.49,1.42-.21,1.81.39.32.31.61.64.92.96,1.07,1.11-.5,2.71-1.63,1.67Z"/>
  <path class="cls-6" d="m46.52,18.33c-.54-.35-.89-.9-1.25-1.42-.35-.46-.7-.94-.85-1.51-.33-.96.84-1.88,1.7-1.35.34.18.5.53.62.88.35.49.65,1.04,1.09,1.46.09.07.2.12.3.16.62-.12,1.23.37,1.32.98.13,1.71-1.94,1.58-2.93.81Z"/>
  <path class="cls-6" d="m48.84,18.15c-.69-.06-1.36-.25-1.99-.52-1.61-.86-.33-2.96,1.28-2.01.28-.43.81-.44,1.22-.66,2.99-1.42,2.67,3.42-.51,3.19Z"/>
  <path class="cls-6" d="m49.75,23.3c-.53-.04-.83-.49-1.15-.85-.49-.53-1.04-1.01-1.5-1.58-.92-1.23.83-2.63,1.83-1.45.6.69,1.29,1.28,1.86,1.99.66.76-.06,2.03-1.04,1.89Z"/>
  <path class="cls-6" d="m58.23,60.8c-1.23-.57-.69-1.92.11-2.62.24-.21.56-.31.82-.49.38-.31.74-.66,1.08-1.02.2-.23.28-.54.38-.82.29-1.01.67-2,.89-3.03.17-.91.06-1.42-.48-2.17-.18-.3-.2-.69-.41-.96-1.02-.68-2.77-2.02-1.27-3.16.62-.39,1.41-.06,1.72.58.26.22.55.42.83.63.66.42.98,1.14,1.21,1.86.35.5.68,1.05.75,1.67.21,1.37-.17,2.71-.61,3.99-.53,1.84-.73,2.7-2.26,3.97-.34.32-.72.58-1.14.77-.23.65-.93,1.1-1.61.82Z"/>
  <path class="cls-6" d="m57.61,61.08c-.6-.15-1.03-.8-.85-1.42.38-1.04.63-3.09,2.19-2.57,1.34.67.47,1.81.17,2.83-.11.73-.74,1.37-1.51,1.16Z"/>
  <path class="cls-6" d="m57.03,64.24c-.92-.26-1.05-1.16-.69-1.92.37-1.21.67-2.45.83-3.71.22-1.52,2.44-1.28,2.33.25-.1.79-.27,1.57-.44,2.35-.15.66-.31,1.32-.54,1.96-.12.69-.76,1.26-1.48,1.06Z"/>
  <path class="cls-6" d="m56.13,64.49c-.55-.31-.76-1.04-.44-1.59.24-.55.51-1.11.67-1.69,0,0,0,.01,0,.02,0,0,0,.03,0,.03.09-1.65,2.46-1.55,2.35.09-.07.5-.22.99-.43,1.45-.39.98-.81,2.3-2.14,1.69Z"/>
  <path class="cls-6" d="m56.2,72.59c-1.28-.2-2.37-.94-3.43-1.65-1.31-.78-2.73-1.97-3.15-3.5-.11-.59.31-1.22.91-1.34.61-.36,1.21-.78,1.85-1.08,1.17-.58,2-1.62,3.02-2.42.57-.47.88-1.33,1.66-1.48.62-.11,1.25.35,1.34.97.16.57-.45,1.17-.73,1.49-.39.49-.86.9-1.35,1.29-.46.45-.93.89-1.44,1.29-.74.62-1.63.99-2.45,1.5.52.61,1.16,1.05,1.85,1.45.7.46,1.36.91,2.18,1.13,1.52.19,1.29,2.45-.25,2.33Z"/>
  <path class="cls-6" d="m56.82,72.85c-2.24-.46-1.45-3.18.38-2.39.5-.02,1.04-.21,1.5.06.88.46.73,1.9-.25,2.14-.54.08-1.09.17-1.63.19Z"/>
  <path class="cls-6" d="m56.49,71.98c-.8-.3-1.51-.79-2.25-1.23-.78-.52-1.97-1.13-1.9-2.22-.18-.22-.4-.42-.55-.67-.64-1.08.66-2.28,1.68-1.56.24-.36.68-.56,1.11-.5.87.13,1.21,1.04,1.75,1.62.21.24.46.42.72.59.57.38.61,1.26.15,1.74,1.57.49.82,2.76-.73,2.23Z"/>
  <path class="cls-6" d="m57.18,70.14c-.91-.39-1.82-.91-2.47-1.68-.66-.76.06-2.03,1.04-1.89.43.03.71.34.98.63.41.3.85.56,1.32.76,1.41.6.58,2.71-.87,2.17Z"/>
  <path class="cls-6" d="m58.5,70.34c-2.15-.12-1.75-2.98.17-2.38.92-.93,2.49-.05,2.02,1.21-.14.39-.5.55-.77.83-.4.34-.93.37-1.42.34Z"/>
  <path class="cls-6" d="m57.12,69.15c-.85-.52-2.3-2.4-2.38-3.4.02-.9.89-1.8,1.81-1.39.52-.47,1.46-.31,1.78.33.27.02.53.13.73.33.01.01.03.03.04.04.77-.37,1.4.19,1.81.81.21.27.46.56.5.92.03.29-.02.6-.19.84-.06.35-.27.67-.57.85-.46.31-.91.66-1.5.4-.05.01-.09.02-.14.03-.04,0-.08.01-.12.02-.51.35-1.17.6-1.74.22Z"/>
  <path class="cls-6" d="m59.68,68.13c-.82-.75-1.6-1.61-2.11-2.61-.44-1.1-.57-2.55-.08-3.65-.03-.39-.11-.81,0-1.2.17-.68.92-1.06,1.57-.8.79.3.83,1.25,1.12,1.92.28.76.7,1.46,1.15,2.13.11.17.21.34.32.51.49.62.21,1.6-.55,1.83,1.19.96-.19,2.76-1.42,1.86Z"/>
  <path class="cls-6" d="m61.43,66c-.29-.03-.51-.17-.72-.35-.57-.31-1.03-.78-1.39-1.32-.93-1.24.85-2.63,1.83-1.45.29.58.89.79,1.32,1.24.66.76-.06,2.03-1.04,1.89Z"/>
  <path class="cls-6" d="m61.09,61.17c-.43-.62-.74-1.3-1.13-1.94-.75-1.35,1.17-2.5,2-1.2.33.54.61,1.12.94,1.67.19.26.3.55.27.88-.07,1-1.49,1.43-2.08.6Z"/>
  <path class="cls-6" d="m56.96,37.97c-.12-2.19-.38-4.37-1.16-6.44-.38-.98-1.03-2.18.33-2.72,1.38-.31,1.49,1.08,1.89,2.01.8,2.18,1.13,4.47,1.24,6.78.18,1.53-2.03,1.88-2.31.36Z"/>
  <path class="cls-6" d="m60.01,38.99c-1.29-.1-3.26-1.48-1.91-2.77.51-.4,1.24-.3,1.64.19.68.7,1.49-.22,1.79-.85.22-.49.35-1.02.39-1.55.02-.53-.21-1.11.17-1.57.56-.81,1.98-.48,2.09.52.44,2.58-1.17,6.22-4.17,6.03Z"/>
  <path class="cls-6" d="m58.82,37.49c-.19-.25-.27-.54-.24-.84-.7-.42-.65-1.33-.36-1.99-.6-.39-.85-1.1-1.08-1.75-.42-.77.11-1.85,1.03-1.81.72-.17,1.26.45,1.81.81.48.36,1.13.4,1.56.82.03,0,.05,0,.08,0,.92-1.78,3.12-.56,2.18.98-.64.93-1.1,1.98-1.86,2.84-.41.47-.75,1.11-1.42,1.22-.66.11-1.19.32-1.7-.31Z"/>
  <path class="cls-6" d="m53.77,27.16c-.06-.17-.06-.35-.08-.53-.02-.02-.03-.03-.05-.05-.08.03-.17.01-.22-.06-.02-.03-.04-.06-.05-.1-.09.07-.22.08-.3,0-.1-.11-.08-.27-.1-.41-.14-.02-.19-.16-.2-.29-.25,0-.26-.31-.29-.49-.4.28-.49-.35-.52-.62-.25,0-.3-.3-.35-.5-.65.23-.77-.89-.82-1.32-.04-.29-.13-.61,0-.88-.08-.04-.12-.12-.13-.21,0-.07,0-.14.03-.2-.22-.01-.75-.07-.53-.41.07-.07.19-.07.26,0,.09.02.18.02.27.04.07-.03.16-.02.24,0,.08-.02.18-.02.25.02.02,0,.04,0,.07,0,.05-.03.1-.06.15-.07.07-.02.15-.03.22,0,.11-.12.34-.17.5-.16.04-.01.08-.02.12-.03.1,0,.2.02.27.09.08-.05.19-.07.28-.04.21-.14.31-.39.52-.52.22-.16.53-.07.62.19.05-.08.14-.13.24-.14,0-.01.01-.03.02-.04.02-.03.05-.06.08-.09.03-.18.16-.43.38-.34,0-.02,0-.04,0-.05.02-.1.05-.2.14-.25,0-.23.16-.46.38-.28.07-.02.15,0,.19.07.04.06.07.13.08.2.14.06.15.25.19.38.08.29.15.58.22.88.12.53.22,1.06.26,1.59-.02.52.31,1.98-.08,2.29-.06.2-.08.48-.28.58-.03.19-.13.51-.38.4-.04.06-.1.1-.18.11,0,0,0,0-.01,0-.04.09-.11.17-.21.18,0,0-.01,0-.02,0-.05.08-.13.14-.24.12-.01,0-.03,0-.04,0-.04.19-.05.45-.25.54-.03.06-.08.1-.13.13,0,0-.01,0-.02,0-.04.26-.31.56-.51.24Zm-2.62-4.77s.02-.09.03-.13c-.01-.01-.02-.02-.03-.03,0,.01,0,.02,0,.04,0,.04,0,.08,0,.12Zm2.27-1.47s.06-.08.09-.11c.02-.02.04-.04.06-.06,0,0,0,0,0,0,0,0,0,0,0,0-.08.03-.14.11-.19.17.01,0,.02,0,.04.01Z"/>
  <path class="cls-6" d="m49.92,21.25c-.11-.14.02-.26.12-.36-.02-.02-.04-.05-.05-.08-.11-.02-.18-.13-.15-.24-.08.04-.19.02-.25-.05-.04,0-.07-.03-.1-.05-.23-.05-.38-.28-.44-.49-.07-.2.03-.4.14-.56.13-.21.45-.03.33.19-.07.11-.17.23-.07.36,0,0,0,0,0,0,.01-.08.03-.15.06-.22.07-.19.34-.2.4,0,.05-.29.44-.22.39.07.08-.16.3-.24.39-.05.18-.14.32-.36.53-.44.13-.02.25.11.21.24-.05.17-.2.31-.29.46-.02.16-.16.27-.24.4-.12.15-.2.35-.34.47-.15.15-.39.61-.63.37Z"/>
  <path class="cls-6" d="m50.5,21.49c-.25,0-.61.05-.7-.26-.13-.2,0-.45,0-.67-.08-.1-.02-.23.06-.31.03-.08.06-.17.09-.26-.29.03-.55.28-.86.28-.29-.07-.17-.37.06-.44-.13-.5.81-.6,1.11-.42.24.04.19.32.12.49.15-.04.38-.09.42.12.02.1-.06.2-.16.22-.54.02-.46.38-.53.79.01.02.02.04.03.07.33,0,.66.05.99.03.1-.02.2.06.22.16.01.38-.62.19-.86.21Z"/>
  <path class="cls-6" d="m50.46,21.15c-.25-.03-.21-.4.04-.38.31.02.61-.03.92-.04.31-.02.61-.03.92-.06.1,0,.19.09.19.19,0,.11-.08.19-.19.19-.63.02-1.25.12-1.88.1Z"/>
  <path class="cls-6" d="m55.73,29.55c-.08-.03-.12-.1-.15-.17-.07-.14-.15-.29-.22-.43-.16-.4-.34-.78-.6-1.13-.12-.2-.27-.38-.35-.59-.05-.16.13-.3.28-.22.07.04.12.11.17.18.07-.16.36-.31.47-.1.04,0,.08.01.11.04.05.03.07.08.1.13.09-.06.21-.05.32-.04.36.03.71.1,1.07.14.23-.06.54-.17.75,0,.05-.04.11-.07.16-.09.08-.03.18,0,.24.06.08-.11.26-.17.35-.04.17.24-.31.8-.46,1.01-.14.26-.35.49-.53.72-.19.26-.54.46-.62,0-.02,0-.04,0-.06,0,0,0-.01,0-.02.01-.01.1-.05.21-.15.25-.02,0-.04.01-.06.02-.05.15-.27.16-.36.03-.04.02-.08.02-.13,0-.02,0-.03,0-.05-.02.04.15-.12.28-.26.22Zm-.43-1.83s-.04-.1-.07-.15c0,.03.02.07.03.1.01.02.02.03.04.05Z"/>
  <path class="cls-6" d="m59.41,32.63c-1.49-1.03-1.67-2.78-2.09-4.39-.06-.24.29-.35.36-.11.36,1.28.47,2.72,1.42,3.73.16.17.34.33.53.47.08.06.1.18.04.27-.06.08-.18.1-.27.04Z"/>
  <path class="cls-6" d="m58.48,31.87c-.09-.2-.17-.4-.26-.59-.05-.11-.1-.23-.15-.34-.01.17-.12.4-.33.35-.31-.09-.47-1.39-.55-1.72-.06-.31-.07-.63-.15-.95-.02-.14-.07-.3,0-.44.1-.16.31-.09.39.06.05.15.13.29.21.43.16,0,.22.2.13.31.09.26.17.53.22.8.21.49.41.98.63,1.47.05.21.38.56.11.72-.09.04-.21,0-.25-.1Z"/>
  <path class="cls-6" d="m64.35,45.53c-.52-.04-.88-.43-1.23-.77-.04.02-.09.02-.13,0-.01,0-.02,0-.03-.01-.08.05-.18.03-.24-.04-.09.05-.21.03-.26-.06,0,0,0-.01-.01-.02-.03.02-.07.03-.11.02-.01,0-.02,0-.03,0-.21.15-.35-.13-.4-.3-.02.01-.05.02-.08.02-.06,0-.11-.02-.14-.06-.32.27-.42-.31-.51-.51-.3.04-.35-.44-.47-.63-.05.14-.24.16-.33.04-.03.25,0,.57-.2.74-.11.06-.25.05-.32-.05-.33.13-.35-.47-.44-.68-.17-.6-.34-1.21-.48-1.81-.18-.69-.27-1.4-.38-2.1,0-.24-.26-1.06.13-1.03.06,0,.12.03.15.08.02-.14.16-.24.3-.19.12.06.16.2.23.31.06.08.14.16.2.24.28.34.62.61.92.93.37.4.74.81,1.1,1.21.7.88,1.73,1.29,2.76,1.66.04-.01.08,0,.12,0,.03.01.06.03.08.06,1.02.28,2.15.12,3.03-.47.13-.11.36-.16.44.03.1.84-.53,2-1.22,2.48-.65.6-1.5,1.05-2.41.91Zm.66-.4s0,0,0,.01c.02,0,.04,0,.06,0-.01-.02-.03-.03-.04-.05-.01.01-.01.03-.02.05Zm-5.04-1.8s0-.09,0-.13c0,0,0,0,0-.01-.01,0-.03,0-.04-.02,0,.06.01.11.03.16Zm7.6-.65c.01-.05.02-.11.03-.16-.02.02-.05.03-.07.05.02.03.04.07.04.11Z"/>
  <path class="cls-6" d="m61.77,48.63c-.14-.16-.15-.4-.21-.59-.02.15-.2.3-.34.19-.13-.11-.13-.3-.18-.46-.13.2-.38.09-.41-.12-.27.2-.4-.15-.44-.36-.34.08-.32-.41-.39-.62-.11-.62-.18-1.24-.25-1.86-.04-.45-.27-2.2.14-2.41.16-.07.29.07.34.2.2-.04.25.19.28.34.06.22.13.43.17.65-.02-.11-.03-.25.07-.32-.06-.2.2-.35.33-.18.07.11.07.24.1.37,0-.05.03-.09.07-.12.1-.08.27-.04.3.1.05.23.11.47.16.7.05-.14.24-.16.33-.04.09-.09.25-.05.3.06.04.11.06.22.09.33.02-.02.05-.03.08-.04.02,0,.03,0,.05,0-.05-.22.27-.33.36-.12.15.41.35.8.47,1.21.01.12.11.19.19.27.21.25.45.39.74.53.02-.18.3-.21.36-.04.07.17.15.47-.08.55-.13.04-.24-.05-.34-.11-.17-.09-.35-.17-.51-.28.07.2.17.39.19.61.02.26-.31.33-.41.09,0,0,0,0,0,0,0,.18.06.48-.19.51,0,.28.02.59-.08.85-.07.13-.25.16-.34.05-.08-.09-.1-.21-.14-.32-.01.02-.03.04-.05.06.02.22-.25.45-.4.21-.03.16-.23.27-.35.14Zm.9-1.79c.03.15.05.3.08.44-.04-.53-.12-1.03-.26-1.54.06.37.1.73.17,1.1Zm-2.82-3.49c.1.22.14.47.2.7-.03-.32-.1-.63-.21-.93,0,0,0,.02,0,.02,0,.06,0,.12,0,.18,0,0,0,.01.01.02Z"/>
  <path class="cls-6" d="m63.59,51.86c-.22-.04-.23-.32-.3-.5-.18.17-.36-.01-.4-.21-.15-.44-.21-.89-.3-1.34-.13-.83-.34-1.66-.41-2.5-.01-.19-.04-.49.21-.51-.03-.29-.19-.62-.1-.9-.02-.1-.04-.21-.03-.32.01-.09.07-.18.16-.21.16-.05.26.11.35.22.37-.32.41.45.51.66.01,0,.02,0,.03,0,.05,0,.09.03.12.06.06-.08.18-.08.27-.05-.11-.38-.45-.62-.66-.96-.07-.11-.17-.25-.1-.38.05-.09.17-.12.26-.08.17.09.31.22.47.32.11.08.09.26-.03.32.03.04.07.08.1.12.12,0,.16.12.2.21.33.39.75.72,1.2.96.27.13.56.17.84.25.81.37-1.18,1.15-1.51,1.07,0,.01-.01.03-.02.04,0,0,0,0,0,.01.26.14.53.27.79.41.06-.1.17-.11.28-.1.09,0,.18,0,.25.07.12.12.03.32-.13.33.01.03.02.06.03.09.22.13.09.43-.16.37-.03.22-.03.63-.34.61-.01.2.03.54-.23.58-.03.08-.07.15-.15.19-.07.03-.15.03-.21-.01-.02.07-.07.12-.14.15-.03.01-.07.02-.1.01-.01.07-.03.13-.06.19-.02.05-.05.09-.09.12,0,.2-.07.56-.34.47-.04.13-.15.25-.3.23Zm0-.84c0-.05,0-.11,0-.16v.03s0-.07,0-.1c0-.05-.02-.09-.02-.14,0,0,0,.02-.01.03-.01.02-.02.04-.04.06.02.1.04.19.07.29Zm-.4-3.79c-.04-.17-.1-.34-.18-.5.03.08.06.16.09.24.03.08.06.17.08.25,0,0,0,0,.01,0Zm.84-.03s.02-.02.03-.02c0-.01,0-.03,0-.04-.03-.03-.07-.06-.1-.09.03.05.06.1.08.15Z"/>
  <path class="cls-6" d="m65.76,54.41c-.44-.07-.9-.17-1.25-.47-.38.04-.56-.25-.77-.52-.29-.4-.25-.91-.19-1.37,0-.18-.04-.41.1-.54.16-.13.36.06.32.24.02-.06.05-.12.08-.18-.22-.18.03-.46.13-.64-.09-.23.21-.3.31-.46.18-.19.51-.8.79-.74.11.03.17.14.13.25.1-.04.21-.11.32-.1.09-.05.2-.08.3-.09.05,0,.09.01.13.04.07-.12.22-.23.36-.17.12.05.15.2.09.3,0,.02,0,.05,0,.07,0,0,0,0,0,.01.12.02.18.18.12.28-.07.1-.18.17-.28.24-.42.35-.97.65-1.53.6-1.04.65-.95,2.23.23,2.68.19.08.38.17.59.18.11.01.22,0,.31.06.08.06.09.16.05.24-.06.12-.23.11-.35.1Z"/>
  <path class="cls-6" d="m62.5,61.79c-.25,0-1.39-.14-1.02-.56.08-.07.18-.05.27-.04.21.03.4,0,.6-.02.08-.28.45-.19.66-.27-.07-.1-.18-.17-.26-.28-.09-.14.05-.33.21-.28.11.03.21.11.32.16-.27-.27-1.84-3.06-1.21-3.15-.06-.16-.21-.29-.2-.47.08-.36.59-.14.84-.13.5.06,1.03.06,1.51-.12.91-.34,1.64-1.1,1.97-2.01-.47.08-.95.07-1.41-.04-.38-.08-.81-.16-1.09-.45-.16-.16-.73-.99-.35-1.1.1-.03.2.03.24.13.1.34.28.7.6.86.41.17.84.23,1.28.27.32.04.65-.12.96-.03.51.26-.3,1.33-.52,1.62-.87,1.07-2.2,1.48-3.54,1.2.3.59.37,1.26.64,1.85.17.37.32.76.55,1.1.09.16.24.28.26.45.13.14.29.25.47.33.23-.08.43-.22.61-.37.15-.07.32.09.25.24-.03.07-.1.12-.15.18.11.09.1.26,0,.35-.14.12-.35.11-.52.12-.31.08-.6.25-.93.27-.05.1-.18.12-.28.13-.24.04-.49.06-.74.06Z"/>
  <path class="cls-6" d="m63.11,61.88c-.46-.02-.91-.18-1.25-.48-.16-.15-.37-.3-.39-.54-.02-.16-.1-.43.13-.47.1-.02.2.06.22.16.02.11.01.22.05.32.08.1.18.18.26.25.69.6,1.81.45,2.49-.11.24-.21.35-.51.45-.8.07-.24.43-.15.37.09-.14.45-.37.88-.77,1.15-.46.28-1.01.47-1.55.43Z"/>
  <path class="cls-6" d="m63.88,60.77c-.62-.3-1.01-.93-1.38-1.49-.08-.2-.47-.56-.21-.74.29-.14.38.35.52.51.47.74,1.28,2.02,2.21,1.13.08-.12.2-.26.35-.15.08.06.1.18.04.27-.34.46-.99.71-1.53.47Z"/>
  <path class="cls-6" d="m62.34,58.14c-.1-.03-.16-.13-.14-.23.12-.51.19-1.16.66-1.48.11-.36.31-1.68.65-1.79.28-.05.27.26.21.44-.06.32-.14.63-.19.95.38-.1,1.08-.46,1.42-.22.31.37-.27.66-.58.74-.43.15-.85.18-1.26.32-.1.04-.19.08-.27.14-.01.08-.01.16-.02.23,0,.07-.06.13-.12.16-.05.2-.1.4-.14.6-.02.1-.13.16-.23.14Z"/>
  <path class="cls-6" d="m62.98,59.75c-.63-.72-.48-2.17.27-2.75.33-.25.74-.43.95-.8.06-.09.19-.1.27-.04.2.18-.07.4-.18.55-.28.3-.69.45-.97.74-.27.37-.37.85-.35,1.3.03.3.11.55.31.77.15.2-.14.43-.3.24Z"/>
  <path class="cls-6" d="m62.46,58.32c-.27-.14-.08-.61-.06-.84.05-.19.1-.62.39-.51.09-.35.16-.7.27-1.04,0-.46.04-.99.35-1.35.02-.17.05-.38.21-.48.08-.09.23-.1.31,0,.07.08.06.2.1.29.04-.11.12-.19.25-.17.11.01.17.1.23.19.04-.03.08-.04.12-.04.04,0,.07.01.11.03.09-.03.19-.04.28-.05.16-.02.33,0,.48.07.57-.21,1.12.24.63.77-.04.24-.25.45-.49.5-.07.11-.14.23-.26.29-.06.1-.14.18-.22.26-.12.16-.23.36-.42.46-.09.04-.21.03-.31.03-.14,0-.31-.02-.32-.19,0-.21.27-.22.41-.31-.07,0-.14-.02-.19-.06-.11.24-.44.36-.6.09-.03,0-.07-.02-.1-.03-.03.1-.05.21-.11.3-.05.09-.16.12-.25.08,0,.01,0,.02,0,.03-.03.13-.06.26-.1.39.03.1.05.18.09.27.07.14-.08.31-.23.26-.04.13-.08.25-.12.38-.04.11-.05.26-.18.32-.07.07-.17.12-.27.08Zm2.29-2.27s0,0,0,0c0,0,0,0,0,0,.02-.02.05-.04.07-.05,0,0-.01-.02-.02-.03-.01.03-.03.05-.04.08Zm-.75-.24s.03-.01.04-.02c0,0,.01,0,.02,0,0,0,0-.02,0-.03,0,0,0-.02,0-.03,0,0,0,0,0,0,0,0,0,0,0,0-.01.03-.03.06-.04.08Z"/>
  <path class="cls-6" d="m59.27,71.55c-.14-.03-.27-.09-.4-.13-.23-.09-.09-.44.14-.35.17.05.34.16.52.1.13-.05.29-.11.37.06.1.32-.42.36-.62.32Z"/>
  <path class="cls-6" d="m58.75,71.56c0-.23.26-.2.42-.21.18-.02.35-.08.51-.18.14-.09.3-.33.47-.17.07.07.08.2,0,.27-.22.22-.49.37-.79.43-.2.01-.57.15-.61-.14Z"/>
  <path class="cls-6" d="m58.8,71.39c-.1-.29.42-.37.61-.45.16-.04.32-.07.48-.12.1-.03.21.03.24.13.03.1-.03.2-.13.24-.23.07-.47.11-.7.19-.16.06-.39.24-.5.02Z"/>
  <path class="cls-6" d="m59.13,71.39c-.25,0-.26-.37,0-.38.22.02.45.01.65-.07.1-.03.18-.11.29-.09.05.01.09.04.12.09.19.4-.81.49-1.05.45Z"/>
  <path class="cls-6" d="m59.74,71.35c-.05-.09-.03-.21.06-.26.2-.07.47-.39.65-.15.05.09.03.21-.06.26-.2.07-.47.38-.65.15Z"/>
  <path class="cls-6" d="m17.4,71.42l.04-.03c-.02-.11-.05-.21-.07-.32,0,.13,0,.26.03.35Zm5.69-2.46c.45.31.65.92.45,1.42-.42.73-1.29-.56-1.52-.92-.16.08-.29.19-.42.31-.12.11-.25.25-.43.21-.16-.04-.19-.22-.2-.36-.05-.29-.07-.63-.29-.84-.56.9-1.34,1.67-2.19,2.29-.21.16-.42.32-.63.49,0,.01,0,.03,0,.04.05.19-.21.35-.34.18-.13.06-.27.07-.39-.04-.18-.22-.14-.55-.17-.82,0-.1.09-.19.19-.19.08,0,.12.04.15.08-.05-.25-.11-.5-.16-.75-.06-.27-.21-.51-.36-.73-.14-.18-.27-.41-.48-.51-.33.73-.71,1.43-1.21,2.06-.18.2-.66,1.04-.96.76-.13-.13-.03-.3.07-.42.35-1.38.24-2.84.12-4.24-.1.58-.31,1.13-.57,1.66-.06.1-.09.21-.17.29-.11.09-.29.02-.31-.12-.11.08-.15.24-.28.31-.09.05-.2.03-.26-.06-.17.19-.49.16-.47-.14.11-.55.36-1.07.55-1.59-.84.51-2.17,1.2-3.16.97-.14-.08-.14-.28-.01-.37.99-.65,1.57-1.73,1.97-2.81.22-.61.5-1.25.35-1.91-.44.4-.93.76-1.46,1-.26.13-.54.3-.78.43-.25.12-1.46.68-1.45.14.03-.14.16-.21.24-.32.23-.29.43-.62.63-.91.5-.74.96-1.54,1.09-2.44.15-.82.1-1.67-.06-2.48-.09-.48-.34-.91-.54-1.35-.06-.19-.23-.57.06-.64.1-.02.2.06.22.16,0,.02,0,.04,0,.07.15-.02.36.01.48,0,.22-.03.43-.08.63-.14.21-.07.41-.15.6-.26.19-.13.31-.34.49-.49.21-.16.37-.04.45.14.02.05.04.11.04.17.12.09.12.26.17.4.12.38.19.8.21,1.19.06.32.55,1.66.16,1.79.29.61.66,1.17,1.03,1.73.1.15.2.31.31.46.12.19.25.38.36.57.44.71.88,1.4,1.58,1.86.43.27.9.47,1.34.72.6.36,1.16.79,1.71,1.22,1.22.89,2.46,1.77,3.62,2.74Z"/>
  <path class="cls-11" d="m8.2,54.09c0-.1.08-.18.18-.18s.18.08.18.18-.08.18-.18.18-.18-.08-.18-.18Z"/>
  <path class="cls-11" d="m8.54,64.46c1.13-1.32,1.84-2.93,2.53-4.52.11-.24.29-.45.53-.56.23-.11.49-.05.74-.03.19.02.41.08.57.18.49.32.73.88,1.04,1.35.35.51.63,1.06.9,1.62-.13-.14-.28-.29-.42-.43-.36-.37-.77-.69-1.13-1.04-.36-.34-.67-.8-1.21-.75-.3,0-.34.37-.46.58-.71,1.41-1.72,2.78-3.08,3.6Z"/>
  <path class="cls-11" d="m10.08,61.97c.17-.09.12-.36.17-.53.03-.28.05-.53.05-.8,0-.42-.06-.83-.14-1.25-.08-.61-.19-1.22-.35-1.82-.05-.31-.07-.63-.17-.92,1.03,1.15,1.41,2.84.94,4.32-.08.22-.24,1.01-.5,1Z"/>
  <path class="cls-11" d="m10.1,58.66c-.21-.71-.35-1.45-.67-2.12.57.52.66,1.4.67,2.12Z"/>
  <path class="cls-11" d="m10.61,60c-.12-.63-.32-1.25-.5-1.87-.15-.44-.25-.89-.49-1.29.78.58.97,2.24.99,3.16Z"/>
  <path class="cls-11" d="m10.67,60.95c0-.58-.09-1.16-.17-1.74-.13-.68-.13-1.43-.44-2.05-.02,0-.06,0-.08,0,.14-.12.26.09.33.19.56.96.69,2.55.36,3.6Z"/>
  <path class="cls-11" d="m10.85,61.08c-.03-.7.02-1.4-.12-2.08-.12-.65-.36-1.28-.55-1.91-.02-.04-.03-.1-.08-.12.06,0,.12.07.16.12.89,1.16,1.08,2.63.59,3.99Z"/>
  <path class="cls-11" d="m10.49,61.76c-.07-.69.06-1.38.06-2.08.05-.74-.02-1.48-.15-2.21,0-.05-.05-.1-.05-.14.04.04.09.07.12.12.4.69.51,1.53.5,2.32-.04.68-.32,1.34-.47,1.99Z"/>
  <path class="cls-11" d="m10.52,61.45s-.06-.04-.06-.08c.03-.16.04-.33.06-.49.02-.18.04-.38.08-.54,0,.03,0,.06,0,.09.08-.7.04-1.41-.05-2.1-.14-.37-.35-.7-.47-1.08-.11-.6.72-1.06,1.04-.4.01,0,.02,0,.03,0,.19-.12.45-.1.61.08.49.1.58.25.71.73.46.27.52.89.64,1.37.09.32.36.57.41.91.07.41-.54.59-.7.21-.1.01-.2,0-.29-.05-.09-.05-.16-.14-.2-.24-.11-.01-.21-.07-.28-.16-.03,0-.06.01-.09.02-.03.03-.08.06-.12.08,0,.04-.02.08-.04.12-.04.09-.11.17-.19.21-.03.12-.1.24-.21.3,0,0,0,0,0,0-.09.05-.21.06-.31.02-.06-.02-.11-.06-.15-.1-.04.21-.12,1.14-.4,1.1Z"/>
  <path class="cls-11" d="m10.47,57.51c-.09-.03-.38-.12-.32-.26-.08-.09-.21-.13-.27-.23,0,0,0,0,0,0-.04-.08.06-.19.15-.15.05.02.09.05.13.08.07.05.2.11.15.21.02.04.04.08.01.13-.01.02-.03.03-.05.03.05.07.15.12.2.17Z"/>
  <path class="cls-11" d="m12.99,58.77c-.4-.68-.6-1.47-.68-2.25.48.65.48,1.51.68,2.25Z"/>
  <path class="cls-11" d="m12.94,58.55c-.22-.72-.39-1.47-.42-2.21.43.65.39,1.47.42,2.21Z"/>
  <path class="cls-11" d="m12.83,58.33c-.23-.53-.35-1.12-.4-1.69,0-.18-.04-.45.05-.58.1.34.25.68.28,1.04.04.41.03.84.08,1.24Z"/>
  <path class="cls-11" d="m12.46,58.29c-.06-.09-.06-.22-.09-.33-.07-.33-.14-.67-.16-1.01,0-.12,0-.97.16-.91.04.03.04.1.06.14-.01,0-.03-.02-.04-.03.18.7.09,1.43.07,2.13Z"/>
  <path class="cls-11" d="m12.03,58.24c0-.51-.03-1.03.09-1.53.03-.09.12-.56.24-.49.03.08,0,.18,0,.26,0,0,0-.01,0-.02-.01.52-.07,1.03-.17,1.54,0,.09.04.26-.08.28-.02,0-.04,0-.05-.03Z"/>
  <path class="cls-11" d="m11.48,57.61c.16-.43.24-.91.55-1.26.04-.06.24-.24.23-.06,0,.05,0,.12-.02.17-.01-.06-.02-.11-.03-.17-.18.25-.26.55-.38.82-.08.18-.17.36-.23.55-.03.08-.16.01-.11-.06Z"/>
  <path class="cls-11" d="m11.26,57.45c-.07-.07-.01-.15.04-.21.09-.2.18-.4.32-.58.05-.08.51-.55.55-.36-.02.07-.06.12-.09.19,0-.03,0-.08.01-.12-.19.22-.35.46-.47.72-.08.12-.16.5-.36.36Z"/>
  <path class="cls-11" d="m11.53,57.76c-.05-.09-.06-.18-.05-.28-.31.12-.56-.24-.25-.42.04-.02.07-.05.1-.08.13-.15.25-.32.37-.48.07-.2.16-.43.34-.56.22-.17.56-.06.63.21.07.13-.03.3-.08.43-.05.18-.08.36-.12.53-.06.28-.11.63-.38.79-.19.11-.45.05-.56-.15Z"/>
  <path class="cls-11" d="m12.63,57.4c-.23-.48-.24-1.11-.03-1.6.03.31.08.61.06.9-.01.23-.06.47-.03.69Z"/>
  <path class="cls-11" d="m12.51,58.3c-.12-.37-.12-.78-.15-1.17.01-.44.02-.91.19-1.33.03.43.1.88.05,1.33,0,.39-.09.8-.09,1.17Z"/>
  <path class="cls-11" d="m12.72,58.6c-.3-.69-.43-1.47-.38-2.22.35.68.27,1.5.38,2.22Z"/>
  <path class="cls-11" d="m12.58,58.95c-.12-.64-.19-1.29-.07-1.93.21.61.14,1.31.07,1.93Z"/>
  <path class="cls-11" d="m9.82,63.64c.41-.4.69-.97,1.03-1.42.57-.89.88-1.89,1.08-2.91.02-.08.03-.18.05-.25.04.23.08.46.08.7,0,1.18-.26,2.34-1.24,3.09-.32.27-.63.61-1,.79Z"/>
  <path class="cls-11" d="m15.76,67.1c-.59-2.19-1.59-4.26-2.57-6.29-.09-.19-.22-.37-.27-.58.04.04.08.1.12.15.7.67,1.36,1.4,1.88,2.22.72,1.39.98,2.96.85,4.51Z"/>
  <path class="cls-11" d="m18.88,69.32c-.09-1.66-1.21-2.98-2.41-4.03-.47-.46-1.14-.77-1.35-1.39-.21-.53-.26-1.12-.53-1.62.15.14.27.33.37.51.24.4.46.84.82,1.14.56.29,1.05.67,1.52,1.1,1.2,1.04,1.88,2.72,1.58,4.29Z"/>
  <path class="cls-11" d="m20.78,68.93c-.25-1.05-1.11-1.7-1.95-2.29-1.1-.84-2.35-1.55-3.23-2.64-.16-.22-.29-.48-.38-.73.15.2.31.39.5.55.94.71,2.09,1.08,3.05,1.77,1.06.8,2.13,1.92,2.01,3.34Z"/>
  <path class="cls-11" d="m22.8,69.33c-.46-.47-.95-.96-1.5-1.33-.92-.5-1.72-1.23-2.23-2.14.64.44,1.28.9,1.97,1.25.92.4,1.49,1.3,1.75,2.22Z"/>
  <path class="cls-11" d="m21.67,69.96c.13-.55-.11-1.02-.41-1.47-.32-.54-.64-1.07-.91-1.63.16.15.32.34.5.49.76.59,1.62,1.73.82,2.61Z"/>
  <path class="cls-11" d="m21.79,70.01c-.08,0-.15-.06-.18-.12,0,0,0,0,0,0-.08-.14,0-.3.05-.44-.02-.37.02-.74-.11-1.1-.06-.09-.12-.18-.13-.28-.02-.16.09-.31.25-.33.26-.03.32.21.4.4.55-.04.56.66.47,1.05.04.21.02.42-.16.55,0,0,0,0,0,0-.07.06-.16.09-.25.09-.07.11-.18.2-.32.19Z"/>
  <path class="cls-11" d="m22.69,69.95c-.13-.34-.26-.66-.35-1-.04-.11-.06-.24-.15-.31.46.15.54.91.5,1.32Z"/>
  <path class="cls-11" d="m22.88,70.25c-.16-.53-.28-1.11-.54-1.59.53.24.66,1.09.54,1.59Z"/>
  <path class="cls-11" d="m22.9,70.47s0-.01,0,0c-.14-.59-.23-1.19-.36-1.79.48.42.52,1.23.36,1.8Z"/>
  <path class="cls-11" d="m23.13,70.42c-.1-.34-.21-.68-.28-1.02-.06-.15-.02-.41-.17-.49.15-.05.23.13.29.23.22.38.22.86.16,1.29,0,0,0,0,0,0Z"/>
  <path class="cls-11" d="m23.23,70.34c-.1-.45-.17-.93-.37-1.34-.03,0-.06,0-.08,0,.03-.02.07-.05.1-.05.47.24.5.96.36,1.4Z"/>
  <path class="cls-11" d="m23.44,70.1c-.07-.25-.16-.5-.25-.75-.07-.13-.1-.46-.29-.39.09-.13.19-.08.28,0,.29.28.34.77.26,1.13Z"/>
  <path class="cls-11" d="m23.36,70.55c.09-.31-.07-.6-.21-.86-.19-.46-.44-.91-.8-1.25.71.08,1.69,1.56,1.01,2.12Z"/>
  <path class="cls-11" d="m23.21,70.5c.18-.23.08-.55.08-.81-.01-.11,0-.23-.07-.32.36.18.41.99-.02,1.13Z"/>
  <path class="cls-11" d="m18.13,68.67c-.34-1.51-1.48-2.65-2.29-3.91-.12-.19-.31-.33-.41-.53.13.09.28.15.42.24,1.71,1.09,2.5,2.1,2.28,4.19Z"/>
  <path class="cls-11" d="m18.62,69.03c-.16-.96-.39-1.92-.78-2.82.54.81.76,1.86.78,2.82Z"/>
  <path class="cls-11" d="m18.51,69.77s0-.08,0-.12c0,0,0,0,0,0-.08-1.25-.4-2.5-.93-3.63-.04-.09-.09-.17-.14-.25.06.06.12.15.17.22.72,1.11,1.01,2.48.91,3.78Z"/>
  <path class="cls-11" d="m19.67,68.52c-.23-.7-.67-1.29-1.13-1.84-.29-.38-.56-.77-.9-1.1-.09-.09-.2-.19-.28-.28.08.05.17.1.25.15.54.36.94.88,1.33,1.39.38.49.65,1.07.73,1.68Z"/>
  <path class="cls-11" d="m19.63,70.07c.36-1.46.36-2.43-.66-3.61-.06-.08-.13-.16-.19-.23.11.09.23.21.33.31,1.07,1.09,1.02,2.18.52,3.53Z"/>
  <path class="cls-11" d="m19.8,69.52c.3-.72.46-1.57.05-2.29,0-.02-.03-.05-.03-.07.6.67.43,1.66-.02,2.35Z"/>
  <path class="cls-11" d="m15.45,70.05c.79-1.83,1.5-3.84-.07-5.49-.15-.18-.34-.32-.51-.47.17.08.35.17.5.29,2.14,1.71,1.28,3.69.09,5.66Z"/>
  <path class="cls-11" d="m16.76,68.12c.05-.96-.09-1.93-.53-2.78.59.78.7,1.84.53,2.78Z"/>
  <path class="cls-11" d="m17.01,67.89c-.1-.86-.44-1.68-.75-2.49.52.69.83,1.63.75,2.49Z"/>
  <path class="cls-11" d="m17.27,68.75s0-.05,0-.07c0,0,0,0,0,0,.03-.84.02-1.73-.41-2.48.61.68.57,1.71.41,2.55Z"/>
  <path class="cls-11" d="m13.15,67.18c1.02-2,1.22-3.03.74-5.24-.04-.31-.07-.64-.14-.94.09.18.15.38.2.58.12.54.33,1.06.45,1.6.37,1.53-.37,2.82-1.25,4Z"/>
  <path class="cls-11" d="m14.44,66.04c.32-1.1.28-2.33-.24-3.36-.05-.09-.11-.19-.15-.27.06.07.12.13.17.21.7.99.78,2.36.22,3.43Z"/>
  <path class="cls-11" d="m14.49,66.28c.21-.64.31-1.32.31-2,.17.66.01,1.41-.31,2Z"/>
  <path class="cls-11" d="m13.06,64.06c.1-1.01.25-2.1-.21-3.04-.26-.48-.63-.91-1.05-1.25.05.02.11.06.16.09,1.63,1.09,1.54,2.5,1.1,4.21Z"/>
  <path class="cls-11" d="m13.58,63.41c.07-.76.16-1.81-.32-2.45.66.57.53,1.69.32,2.45Z"/>
  <path class="cls-11" d="m13.85,63.55c.02-.41.07-.85.04-1.25.16.4.07.86-.04,1.25Z"/>
  <path class="cls-11" d="m58.06,63.27c.42-.36-.31-2.18-.3-2.84-.12-.98.34-1.97.98-2.69.36-.39.87-.61,1.34-.82-.96.98-1.3,1.88-1.44,3.24-.06.72.15,2.82-.59,3.11Z"/>
  <path class="cls-11" d="m57.78,66.12c-1.06-.46-1.63-1.68-1.69-2.78-.02-1.24.82-2.33,1.77-3.05.22-.32.29-.59.18,0-.22.52-.6,1.01-.78,1.56-.52,1.37-.47,3.15.52,4.28Z"/>
  <path class="cls-11" d="m56.17,71.01c-1.56-.46-2.79-1.86-3.08-3.45-.19-1.08-.45-2.71.82-3.22.9-.25.64-.01,1.18-.79.62-.54,1.15-.02,1.3.63.06.15.12.31.18.46-.2-.22-.38-.48-.57-.72-.12-.16-.36-.23-.48-.03-.3,1.22-.67.83-1.48,1.39-.41.65-.18,1.61-.09,2.34.25,1.38,1,2.67,2.21,3.39Z"/>
  <path class="cls-11" d="m52.39,70.56c-.63-.41-1.41-.57-1.88-1.19-.46-.57-1.09-2.43.24-2.2,0-1.02,1.37-1.26,1.98-.59.17.2.25.45.36.68.28.71.17.45-.2.04-.17-.18-.32-.42-.58-.48-.23-.04-.69-.04-.69.27-.04.32.07.64.06.95-.05.35-.46.55-.77.39.05.95.98,1.42,1.47,2.12Z"/>
  <path class="cls-11" d="m49.77,67.75c-.1-.31-.42-1.1-.05-1.3.52-.23.55.5.63.84.01,0,.02,0,.03,0h0s-.01.03-.03.03c.03.17.06.37-.08.49-.15.14-.39.12-.5-.07Z"/>
  <path class="cls-11" d="m50.61,67.49c-.09.03-.19.03-.28,0-.08-.03-.15-.09-.19-.17-.34-.06-.51-.49-.32-.77,0,0,0,0,0,0,0-.07.02-.14.04-.2,0,0,0,0,0,0,.06-.18.24-.25.38-.36.24-.23.5-.55.87-.44.19-.13.41-.28.64-.3.24-.16.45-.33.64-.54,0,0,0,0,0,0,.36-.31.94.09.79.54,0,.01,0,.02,0,.04.03.14.02.27-.04.4.08.4.44.84.25,1.23.11.25-.21.47-.37.23-.17,0-.35.04-.51-.06-.14-.11-.27-.23-.39-.36-.19.26-.51.51-.84.35-.05.3-.38.52-.68.42Z"/>
  <path class="cls-11" d="m53.5,68.27c-.22-.32-.42-.67-.74-.89,0,0,0,0,.01,0-.23-.13-.44-.37-.71-.36-.37.18-.47.67-.67,1.01-.15-2.53,2.13-1.71,2.11.24Z"/>
  <path class="cls-11" d="m53.07,65.73c-.11-.85,1.39-1.93,2-2.15-.37.42-.71.85-1.12,1.24-.31.29-.72.5-.89.91Z"/>
  <path class="cls-11" d="m52.7,65.31c.74-1.37,2.18-2.09,3.33-3.03-.29.98-2.35,2.45-3.33,3.03Z"/>
  <path class="cls-11" d="m54.38,64.19c.08-.13.16-.28.24-.4-.02.08-.05.16-.07.24.03-.04.06-.08.1-.13.16-.23.33-.46.49-.69.02-.35.29-.62.43-.93.13-.2.23-.45.44-.58.19-.46.32-.93.47-1.41.08-.21.16-.45.37-.55.08-.4.06-.87.31-1.2.28-.29.79-.16.9.22.3.16.27.53.12.8-.23.53-.26,1.57-.82,1.83-.13.37-.2.84-.56,1.07-.11.34-.17.69-.23,1.04-.14.6-1.07.67-1.3.1-.11.08-.9.96-.91.6Z"/>
  <path class="cls-11" d="m57.5,58.87c-.31-.42.12-1.06.39-1.4-.02.24-.08.47-.16.68-.06.24-.28.46-.24.72Z"/>
  <path class="cls-11" d="m57.22,58.63s-.04-.09-.04-.13c0,0,0,0,0,0,.05-.44.15-.88.26-1.31,0-.18.1-.37.3-.36.59.08.1,1.05.02,1.4-.06.22-.25.68-.52.4Z"/>
  <path class="cls-11" d="m58,59.15h0c-.2,0-.38-.16-.38-.37-.22-.11,0-.9-.02-1.16-.07-.44.51-.68.72-.26.15,0,.26.14.26.28.06,0,.14.03.19-.02,0-.04.02-.04.06-.05,0,0-.02.02-.02.03.04.12-.14.17-.22.2,0,.07,0,.14,0,.21,0,.08-.03.16-.08.21-.04.33-.02.91-.48.92Z"/>
  <path class="cls-11" d="m54.54,68.23c-.52-1.12-.71-2.53-.14-3.66.09-.18.2-.35.4-.4-.37.59-.2,1.42-.24,2.1,0,.65-.1,1.32-.02,1.96Z"/>
  <path class="cls-11" d="m54,65.86c-.06-.34,0-.7.24-.96-.06.32-.12.66-.24.96Z"/>
  <path class="cls-11" d="m53.5,67.46c-.04-.83.1-1.71.68-2.33-.32.74-.49,1.56-.68,2.33Z"/>
  <path class="cls-11" d="m55.43,68.35c-.67-1.08-1.17-2.57-.57-3.77-.06.63.13,1.24.2,1.87.08.64.18,1.29.36,1.9Z"/>
  <path class="cls-11" d="m54.79,65.8c-.22-.47-.2-1.03.04-1.47-.03.49-.03.99-.04,1.47Z"/>
  <path class="cls-11" d="m54.55,65.89c-.22-.6-.06-1.3.33-1.79-.18.58-.28,1.2-.33,1.79Z"/>
  <path class="cls-11" d="m54.72,66.08c-.38-.68-.09-1.57.3-2.17-.11.43-.13.88-.22,1.31-.06.29-.12.57-.09.86Z"/>
  <path class="cls-11" d="m54.61,66.06c-.13-.84.1-1.74.59-2.43-.26.79-.41,1.63-.59,2.43Z"/>
  <path class="cls-11" d="m53.5,71.23c-.9-.54-1.78-1.26-2.24-2.22-.26-.57-.53-1.24-.27-1.86.02.12.02.26.06.38.61,1.36,1.42,2.64,2.46,3.7Z"/>
  <path class="cls-11" d="m53.69,70.37c-1.04-.57-2.26-1.9-2.2-3.14.11.42.39.77.62,1.12.5.69.94,1.46,1.57,2.02Z"/>
  <path class="cls-11" d="m51.61,68.22c-.17-.17-.23-.42-.24-.65.12.19.17.44.24.65Z"/>
  <path class="cls-11" d="m51.63,68.21c-.06-.09.02-.2.11-.23-.05.08-.11.15-.11.23Z"/>
  <path class="cls-11" d="m51.42,67.98c0-.06.05-.11.11-.11s.11.05.11.11-.05.11-.11.11-.11-.05-.11-.11Z"/>
  <path class="cls-11" d="m51.7,69.73c-.44-.26-.71-.76-.8-1.25-.04-.18.09-.33.19-.46,0,.09-.05.2-.05.29.02.16.12.3.18.45.16.32.26.69.48.97Z"/>
  <path class="cls-11" d="m53.42,71.16c-.92-.49-2.41-1.69-2.37-2.82.2.6.73,1,1.12,1.47.4.46.79.96,1.25,1.35Z"/>
  <path class="cls-11" d="m51.65,68.86c-.09-.1-.19-.2-.25-.32-.08-.19-.04-.43.05-.6-.02.18,0,.36.04.54.05.13.13.26.17.39Z"/>
  <path class="cls-11" d="m51.32,67.65c0-.06.05-.11.11-.11s.11.05.11.11-.05.11-.11.11-.11-.05-.11-.11Z"/>
  <path class="cls-11" d="m51.67,68c0-.06.05-.11.11-.11s.11.05.11.11-.05.11-.11.11-.11-.05-.11-.11Z"/>
  <path class="cls-11" d="m57.57,64.6c-.81-.83-1.21-2.44-.64-3.49,0,.11-.02.23-.03.34,0,.48.12.95.18,1.42.07.59.21,1.2.49,1.72Z"/>
  <path class="cls-11" d="m57.88,64.73c-.72-.87-1.14-2.62-.56-3.63-.08.56.09,1.12.15,1.67.07.66.15,1.35.42,1.96Z"/>
  <path class="cls-11" d="m58.95,61.57c-.65-1.15-.72-2.65-.13-3.83.02,1.27-.14,2.59.13,3.83Z"/>
  <path class="cls-11" d="m53.67,69.6c-.5-.44-.91-.98-1.17-1.58-.1-.21-.16-.43-.28-.63-.14-.22-.34-.35-.54-.51.56.08.92.42,1.16.92.31.58.54,1.22.83,1.8Z"/>
  <path class="cls-11" d="m52.8,67.38c-.25-.08-.51-.19-.7-.37.26.04.53.17.7.37Z"/>
  <path class="cls-11" d="m53.13,67.5c-.35-.15-.66-.33-1.03-.41.43-.1.75.1,1.03.41Z"/>
  <path class="cls-11" d="m53.25,67.72c-.26-.17-.53-.32-.78-.49,0,0,0,0,0,0-.12-.08-.26-.15-.37-.23.17.02.34.05.49.13.27.12.5.35.66.59Z"/>
  <path class="cls-11" d="m58.54,58.21c0-.07,0-.14.02-.21-.02.01-.04.03-.07.04-.09.04-.16-.08-.09-.14.06-.06.12-.12.19-.18.06-.05.14-.13.22-.11-.07.04-.1.13-.14.2.09.02.08.13.01.17-.06.06-.09.16-.14.22Z"/>
  <path class="cls-11" d="m58.85,66.98c-1.19-.36-2.12-1.46-2.36-2.66.71.95,1.4,1.95,2.36,2.66Z"/>
  <path class="cls-11" d="m57.95,66.83c-1.08-.63-2.03-1.76-1.99-3.06,0-.06,0-.14.02-.2.04.14.07.27.11.4.47,1.04,1.05,2.06,1.85,2.86Z"/>
  <path class="cls-11" d="m56.49,65.55c-.52-.67-.89-1.5-.86-2.35.29.78.57,1.58.86,2.35Z"/>
  <path class="cls-11" d="m56.08,65.27c-.34-.44-.6-.96-.62-1.51.18.51.43,1.02.62,1.51Z"/>
  <path class="cls-11" d="m63.93,56.99c.18-.34.54-.5.82-.74.74-.51,1.33-1.14,1.71-1.97.1,1.84-1.03,2.23-2.53,2.7Z"/>
  <path class="cls-11" d="m63.77,57.28c-.53-.05-.9-.52-1.21-.89.77.32,1.05.55,1.78,0,.8-.3,1.3-.99,1.67-1.72.04,1.33-.87,2.51-2.23,2.61Z"/>
  <path class="cls-11" d="m62.27,62.11c-.77-.22-1.42-.9-1.52-1.7.47.67,1.2,1.09,1.99,1.27.46.07.91-.17,1.31-.35-.4.56-1.07,1.04-1.78.77Z"/>
  <path class="cls-11" d="m10.01,48.15c-.21-.68-.19-1.42.04-2.08.11.69.17,1.41-.04,2.08Z"/>
  <path class="cls-11" d="m10.06,48.2s0,0,0,0c0,0,0,0,0,0-.18-.9-.16-1.85.18-2.71.07.89.21,1.91-.18,2.72Z"/>
  <path class="cls-11" d="m10.25,48.39c-.27-1.06-.23-2.19.1-3.22.1.79.24,1.6.17,2.4-.02.11-.09,1.12-.27.82Z"/>
  <path class="cls-11" d="m10.31,48.56c-.04-.83-.19-1.65-.17-2.49.04-1.19.3-2.36.65-3.49-.01.24-.05.5-.08.74-.09.77-.09,1.55-.07,2.33,0,.25.15,3.41-.33,2.91Z"/>
  <path class="cls-11" d="m10.81,48.25c-.53-1.53-.42-3.04-.06-4.59.07,1.12.24,2.23.26,3.34,0,.41-.02.81-.08,1.22,0,.06-.1.08-.13.03Z"/>
  <path class="cls-11" d="m11.12,48.52c-.42-1.36-.41-2.78-.21-4.17.11,1.37.41,2.76.36,4.15,0,0,0,0,0,0-.01.07-.12.1-.15.02Z"/>
  <path class="cls-11" d="m10.62,48.38c-.43-.23-.47-.86-.42-1.29.1.23.2.46.29.68.09.26.14.52.42.63-.09,0-.2,0-.3-.02Z"/>
  <path class="cls-11" d="m10.72,48.48c-.08-.57-.19-1.14-.2-1.72,0-.55.08-1.11.17-1.64-.05,1.12.07,2.25.03,3.35Z"/>
  <path class="cls-11" d="m6.02,52.4c.43-.21.88-.35,1.17-.76-.04.69-.55.9-1.17.76Z"/>
  <path class="cls-11" d="m6.08,52.24c.77-.27,1.06-1.09,1.6-1.62.19-.28-.06.52-.09.62-.17.68-.79,1.21-1.51,1Z"/>
  <path class="cls-11" d="m6.15,52.35c.36-.79.96-1.46,1.52-2.1-.16.9-.71,1.68-1.52,2.1,0,0,0,0,0,0Z"/>
  <path class="cls-11" d="m6.72,52.13c.35-.14.38-.65.57-.92.18-.36.42-.68.63-1.02-.07.61-.4,2.01-1.2,1.94Z"/>
  <path class="cls-11" d="m6.75,52.28c.28-.8.55-1.62,1.01-2.33-.15.83-.36,1.75-1.01,2.33Z"/>
  <path class="cls-11" d="m5.96,49.92c.12-.69.72-1.14,1.06-1.71.65-.98,1.32-1.97,1.97-2.93-.42,1.32-.81,2.76-1.87,3.72-.36.34-.84.54-1.15.92Z"/>
  <path class="cls-11" d="m6.86,49.64c.09-.8.5-1.51,1.01-2.12-.21.74-.51,1.54-1.01,2.12Z"/>
  <path class="cls-11" d="m6.7,50.37c.19-.5.35-1.02.59-1.5.26-.5.59-.97.89-1.43-.39,1.02-.79,2.08-1.48,2.92Z"/>
  <path class="cls-11" d="m6.96,50.49c.39-1.25,1.02-2.42,1.78-3.48-.5,1.2-.98,2.45-1.78,3.48Z"/>
  <path class="cls-11" d="m34.54,13.63c-.31-.84.11-1.79.64-2.45.86-1.09,2.25-1.58,3.57-1.84.14-.03.29-.06.43-.08-.21.14-.45.27-.68.4-1.36.89-3.72,2.26-3.96,3.97Z"/>
  <path class="cls-11" d="m34.71,13.65c-.25-.64.2-1.27.55-1.78,1.07-1.43,2.94-1.86,4.62-2.06.22-.02.45-.04.66-.04-.19.07-.38.13-.56.19-1.47.55-2.95,1.18-4.19,2.15-.43.44-1.03.88-1.07,1.53Z"/>
  <path class="cls-11" d="m53.92,26.26c1.23-.64,1.66-3.29,1.82-4.58.01-.37.05-.73-.06-1.07.07.07.14.15.2.24.48,1.02.68,2.28.3,3.37-.28,1.01-1.14,2.06-2.26,2.06Z"/>
  <path class="cls-11" d="m54,25.72c-.42-.04-.87-.18-1.21-.44.39.05.79-.02,1.16-.13,1.12-.46,1.48-1.74,1.68-2.83.08-.44.16-.89.16-1.34.11.21.19.46.23.7.35,1.59.02,3.97-2.02,4.03Z"/>
  <path class="cls-11" d="m53.57,26.76c-.45-.04-.69-.61-.39-.96-.09-.61,1.19-1.1,1.67-.9.45-.24.9-.56,1.14-1.03-.03.55-.42,1-.76,1.4.14.37-.26,1.02-.61,1.19-.33.11-.68.32-1.05.29Z"/>
  <path class="cls-11" d="m55.51,24.78c-.29-.08.07-.49.13-.65,0,0,0,.03,0,.05.21-.82.39-1.66.42-2.5.32.75.23,1.67-.05,2.44-.07.19-.17.38-.29.54-.04.06-.12.13-.2.13Z"/>
  <path class="cls-11" d="m53.36,25.65c-.36-.03-.73-.18-.99-.42.98.43,2.08-.11,2.76-.84.41-.49.61-1.12.75-1.74.08-.36.12-.72.16-1.08.05.2.09.39.12.59.21,1.88-.79,3.46-2.79,3.48Z"/>
  <path class="cls-11" d="m52.97,25.35c-.44-.16-.84-.5-1.06-.9.2.14.41.26.64.36.64.39,1.37.33,2.08.27-.49.25-1.1.45-1.65.28Z"/>
  <path class="cls-11" d="m53.39,25.54c-.63-.16-1.2-.63-1.47-1.22.13.12.27.26.42.36.96.71,2.06.73,3.12.23-.54.51-1.34.77-2.07.63Z"/>
  <path class="cls-11" d="m54.16,25.28c.1-.04.22-.06.32-.11.12-.09.22-.22.32-.33.32-.39.63-.79.95-1.18,0,0,0,0,0,0-.26.66-.73,1.78-1.6,1.61Z"/>
  <path class="cls-11" d="m56.92,28.84c-.17-.04-.31-.19-.38-.33.12.06.27.1.4.09.27-.03.44-.32.6-.5.18-.32.21-.7.27-1.04.23.4.3.94.05,1.35-.21.28-.57.55-.94.44Z"/>
  <path class="cls-11" d="m56.39,28.84c-.13-.11-.19-.3-.24-.45.14.11.26.3.46.28.57-.11,1.03-.52,1.51-.8.12-.08.25-.18.38-.25-.22.32-.46.63-.75.89-.35.31-.92.61-1.36.33Z"/>
  <path class="cls-11" d="m57.4,28.54c-.06-.1-.07-.22-.04-.32,0,0,0,0,0,0,.11-.39.42-.7.53-1.09.03-.34.44-.63.67-.28.48.19.02.69-.09.97-.16.25-.22.57-.41.79-.19.18-.51.15-.65-.08Z"/>
  <path class="cls-11" d="m56.6,28.78c-.2-.04-.38-.17-.52-.3.48.12.97.16,1.45.1-.26.17-.62.27-.93.19Z"/>
  <path class="cls-11" d="m57.33,28.64c.5-.33.86-.8,1.19-1.29-.15.59-.57,1.16-1.19,1.29Z"/>
  <path class="cls-11" d="m59.8,38.59c-.67-.33-1.03-1.16-1.08-1.86,1.56,3.2,4.12-.76,4.47-2.66.13-.7.19-1.42.24-2.12.13.48.25.95.36,1.43.37,1.38-.05,2.85-.93,3.95-.61,1.01-1.91,1.72-3.07,1.27Z"/>
  <path class="cls-11" d="m59.81,38.12c-.42-.4-.74-.88-1.07-1.35-.16-.22-.28-.47-.3-.74.44.66,1.17,1.1,1.85,1.47.55.31.93-.37,1.22-.74.8-1.23,1.53-2.54,1.99-3.93.07,1.42-.14,2.87-.82,4.13-.5,1.04-1.81,2.21-2.87,1.15Z"/>
  <path class="cls-11" d="m60.07,37.58c-.18,0-.26-.19-.37-.3.17.05.32.13.49.06.96-.21,1.68-1.02,2.31-1.72.21-.23.41-.48.63-.69-.36,1.54-1.21,3.13-3.06,2.65Z"/>
  <path class="cls-11" d="m59.91,37.51c-.19-.05-.37-.18-.51-.3.55.08,1.12.16,1.68.08-.31.27-.78.32-1.17.22Z"/>
  <path class="cls-11" d="m59.76,37.39c-.17-.05-.35-.15-.5-.24.56.04,1.12.13,1.67.03-.32.25-.78.33-1.18.21Z"/>
  <path class="cls-11" d="m60.62,37.86c-.63-.09-1.27-.48-1.53-1.07.3.28.66.46,1,.68.24.16.48.3.75.39-.07.01-.15,0-.22,0Z"/>
  <path class="cls-11" d="m60.15,37.57c-.4-.06-.76-.28-.99-.6.54.31,1.16.46,1.77.61-.25.04-.52.04-.77,0Z"/>
  <path class="cls-11" d="m59.7,38.59c-.97-.66-1.81-1.88-2.02-3.03.18.35.41.69.62,1.01.47.68.83,1.43,1.4,2.02Z"/>
  <path class="cls-11" d="m64.33,45.56c-1.13-.46-1.94-1.44-2.56-2.46.49.25.91.65,1.41.9,1.56.69,2.53,1.42,3.85-.16.02-.01.02-.04.04-.04-.08.41-.21.82-.49,1.14-.45.78-1.45.95-2.24.62Z"/>
  <path class="cls-11" d="m64.68,45.05c-.37-.13-.73-.33-1.05-.53.78.14,1.58.35,2.34.03.48-.15.89-.44,1.24-.76-.31,1.04-1.52,1.67-2.54,1.26Z"/>
  <path class="cls-11" d="m65.29,44.91c-.45-.07-.37-.06.02-.15.83-.34,1.39-1.09,1.94-1.76-.21.93-.91,1.92-1.96,1.91Z"/>
  <path class="cls-11" d="m67.22,44.21c.06-.29.18-.59.36-.83-.08.29-.2.58-.36.83Z"/>
  <path class="cls-11" d="m58.79,49.2c-.36-.75-.73-1.51-.92-2.33-.27-1.09-.37-2.25-.35-3.36.26,1.63.81,3.19,1.22,4.78.07.29.15.59.18.89,0,.07-.11.1-.13.02Z"/>
  <path class="cls-11" d="m58.97,49.09c-.16-.92-.57-1.78-.67-2.72-.09-.87-.14-1.75-.15-2.62.32,1.61,1.2,3.74.82,5.34Z"/>
  <path class="cls-11" d="m59.37,49.06s0,0,0,0c0-.1-.04-.21-.07-.31-.16-.46-.29-.93-.38-1.39-.24-1.08-.25-2.21-.35-3.29.32,1.19.69,2.39.81,3.62.03.43.06.86.02,1.29,0,.02-.01.08-.04.08Z"/>
  <path class="cls-11" d="m58.89,49.18c-.34-.78-.62-1.65-.78-2.48-.16-.91-.21-1.83-.32-2.75.5,1.69,1.07,3.44,1.1,5.23Z"/>
  <path class="cls-11" d="m59.11,49.16c-.03-.08-.08-.16-.1-.24.04.04.07.07.11.11-.3-1.26-.37-2.55-.34-3.82.24,1.06.57,2.14.53,3.24-.01.11.01.9-.19.71Z"/>
  <path class="cls-11" d="m59.44,49.22c-.07-.49-.22-.94-.32-1.43-.14-.75-.11-1.53,0-2.28.12,1.23.6,2.47.32,3.7Z"/>
  <path class="cls-11" d="m65.44,51.18c-.56-.11-1.04-.46-1.47-.82.7.02,1.51.48,2.17.08.29-.2.55-.47.81-.69-.19.7-.64,1.63-1.52,1.43Z"/>
  <path class="cls-11" d="m64.23,51.04c-.51-.17-.94-.73-.88-1.28.15.36.47.6.77.83.41.27.92.26,1.39.27-.39.19-.85.3-1.28.18Z"/>
  <path class="cls-11" d="m64.95,50.22c-.41-.04-.76-.33-.92-.69.3.19.63.36.99.4.29.03.59-.08.84-.2-.2.29-.54.53-.91.49Z"/>
  <path class="cls-11" d="m64.44,51.01c-.39-.05-.69-.36-.84-.7.49.29,1.02.55,1.6.57-.22.12-.5.17-.76.13Z"/>
  <path class="cls-11" d="m64.38,50.87c-.46-.14-.82-.54-.98-.98.45.31.84.78,1.36.96.03,0,.08,0,.1.02-.16.05-.32.05-.48,0Z"/>
  <path class="cls-11" d="m64.53,50.82c-.99-.12-1.89-1.08-1.74-2.1.18.57.55,1.01.93,1.46.22.27.51.48.81.64Z"/>
  <path class="cls-11" d="m64.57,50.77c-.13-.03-.28-.09-.4-.15.33.03.66.06.99.09-.18.05-.4.08-.59.06Z"/>
  <path class="cls-11" d="m65.57,50.96c-.11-.03-.19-.14-.25-.22.28.21.55-.02.82-.12-.13.16-.34.36-.57.34Z"/>
  <path class="cls-11" d="m65.55,50.89c.35-.31.62-.68,1.01-.94-.18.41-.52.9-1.01.94Z"/>
  <path class="cls-11" d="m65.82,50.75c.16-.18.36-.35.55-.49-.1.24-.31.42-.55.49Z"/>
  <path class="cls-11" d="m64.48,48.42c-.7-.16-1.19-.88-1.37-1.54,0-.12-.01-.25,0-.37.14.37.43.64.67.92.3.32.59.77,1.07.78.14,0,.3,0,.44.01-.25.12-.52.24-.8.19Z"/>
  <path class="cls-11" d="m64.61,47.99c-.75-.06-1.32-.71-1.43-1.43.24.31.54.6.84.86.33.28.74.45,1.17.49-.17.06-.38.1-.58.08Z"/>
  <path class="cls-11" d="m57.64,43.37c-.13-.36-.25-.75-.33-1.12.17.35.3.74.33,1.12Z"/>
  <path class="cls-11" d="m58.22,47.64c-.23-.57-.37-1.18-.55-1.76-.37-1.41-.91-2.92-.7-4.39.2.96.59,1.85.75,2.82.21,1.1.33,2.24.5,3.34Z"/>
  <path class="cls-11" d="m58.2,46.78c-.59-1.75-1.42-3.51-1.27-5.4.3.92.68,1.87.85,2.81.17.85.32,1.73.42,2.59Z"/>
  <path class="cls-11" d="m58.58,46.77c-.5-1.65-1.15-3.33-1.17-5.07.77,1.56,1.13,3.37,1.17,5.07Z"/>
  <path class="cls-11" d="m58.61,47.36c-.3-.5-.4-1.09-.6-1.64-.39-1.3-.75-2.71-.46-4.06.17.98.46,1.94.61,2.92.14.92.22,1.88.45,2.78Z"/>
  <path class="cls-11" d="m58.76,47.51c-.72-1.62-1.16-4.4-.73-6.12.14,1.14.33,2.28.39,3.43.05.91.1,1.83.34,2.69Z"/>
  <path class="cls-11" d="m58.75,46.13c-.27-1.17-.6-2.33-.66-3.53,0,0,0,0,0,0,0,0,0,0,0,0-.03-.49-.06-1-.04-1.48.32,1.65.49,3.34.7,5Z"/>
  <path class="cls-11" d="m58.1,41.38c-.18-.63-.34-1.27-.53-1.9-.98,1.37-2.02-1.85-2.37-2.51-.34-.85-.76-1.68-1.22-2.47.41.37.76.8,1.11,1.24.64.82,1.23,1.71,1.79,2.57.13-.67.96-1.11,1.25-.3.15,1.11,0,2.26-.02,3.37Z"/>
  <path class="cls-11" d="m58.04,44.99c-.32-.68-.51-1.41-.72-2.13-.37-1.27-.68-2.59-.74-3.91.96,1.87,1.3,3.98,1.46,6.04Z"/>
  <path class="cls-11" d="m57.96,44.01c-.62-1.35-1.25-2.91-.95-4.41.55,1.41.91,2.9.95,4.41Z"/>
  <path class="cls-11" d="m57.67,43.34c-.32-.2-.26-.62-.34-.94-.16-.53-.3-1.06-.4-1.6-.23-.46-.98-1.76,0-1.78.14-.17.39-.22.59-.11.25.13.22.43.22.67.12.55.26,1.1.36,1.66.06.54.26,1.06.29,1.61.02.38-.4.69-.74.48Z"/>
  <path class="cls-11" d="m57.29,39.94c-.09-.83-.27-1.63-.37-2.45-.08-.99.04-1.93.11-2.9.51,1.72.77,3.61.27,5.35Z"/>
  <path class="cls-11" d="m11.04,43.18c-.93-.83.02-3.85-.25-4.96.52.7.54,2.9.65,3.86.23-.37.44-.77.67-1.14,0,.08-.02.18-.03.27-.12.56-.12,2.39-1.05,1.98Z"/>
  <path class="cls-11" d="m10.93,47.64c-.81-1.66-.8-4.13-.34-5.89.14,1.12.32,2.28.42,3.41.06.83-.05,1.67-.08,2.49Z"/>
  <path class="cls-11" d="m10.6,45.73c-.04-.72.01-1.44-.08-2.16-.13-.4-.19-1.12.41-1.1,0-.05,0-.09,0-.13,0,0,0,0,0,0,0,0,0,0,0,0,0,.01,0,0,0,0,.05.01.05.11.07.15.31.02.61.24.61.57,0,0,0,0,0,0,.03.43-.05.87.04,1.3.04.4.18.99-.28,1.19-.04.41-.59.66-.76.2Z"/>
  <path class="cls-11" d="m11.38,41.72c-.68-.12-.55-1.03-.52-1.5.06-.6.1-1.21.23-1.81.03-.11.09-.22.14-.31.01.68.21,1.36.34,2.03.37-.76.83-1.48,1.29-2.18-.22.84-.32,3.93-1.49,3.76Z"/>
  <path class="cls-11" d="m11.29,46.29c-.08-.79-.25-1.57-.31-2.36-.3-.21-.05-.7-.03-1.01.08-.36.01-.86.38-1.08.03-.05.19-.56.25-.45,0,.06,0,.04-.01.09,0,0,0-.01,0-.02,0,.01,0,.03,0,.04,0,.09,0,.19-.01.28.75.06.34.96.28,1.42-.25,1.04-.37,2.04-.53,3.07Z"/>
  <path class="cls-11" d="m17.82,16.91c-1.44-.6-2.05-2.51-1.28-3.85.09-.22.27-.35.45-.48-.03.08-.1.18-.14.26-.43,1.49.74,3.14,2.19,3.53.63.17,1.28.04,1.84-.27-.68.96-2,1.29-3.07.81Z"/>
  <path class="cls-11" d="m18.38,16.86c-.46-.02-.82-.43-.84-.87.25.33.57.62.95.76.07.03.16.04.23.06-.11.04-.22.06-.34.05Z"/>
  <path class="cls-11" d="m27.87,17.72c-.08-.04-.08-.1-.1-.19.03.02.05.07.09.09.58-.31.98-.85,1.43-1.31.54-.58,1.28-.92,1.86-1.46.07-.06.15-.13.22-.18-.21.68-.56,1.29-1.11,1.75-.67.59-1.46,1.28-2.4,1.29Z"/>
  <path class="cls-11" d="m26.12,18.95c.5-.65,1.12-1.24,1.8-1.71.67-.39,1.41-.69,1.99-1.22-.62,1.46-2.2,2.32-3.6,2.92.02.02,0,.01-.01,0-.05.01-.17.12-.17,0Z"/>
  <path class="cls-11" d="m27.56,18.85c-.28-.16-.33-.56-.1-.79.09-.08.2-.13.29-.22.4-.31,1.02-1.05,1.55-.96.24-.33.85-.22.79.24-.01.13-.08.23-.18.31-.32.34-.69.63-1.06.91-.36.27-.81.78-1.3.5Z"/>
  <path class="cls-11" d="m25.12,19.14c.59-.52,1.37-1.19,2.21-.96-.73.33-1.38.88-2.21.96Z"/>
  <path class="cls-11" d="m23.49,19.98c.29-.63,1-.91,1.51-1.33,1.01-.77,2.03-1.41,3.08-2.1,2.63-1.98,1.9-2.42,5.54-3.11-.76.49-1.51.99-2.22,1.54-.74.74-1.3,1.5-2.16,2.06-1.04.82-2.22,1.47-3.45,1.95-.77.33-1.67.43-2.31.98Z"/>
  <path class="cls-11" d="m42.22,17.88c-1.16,0-2.41-.32-3.02-1.4-.2-.37-.46-.71-.8-.96-.11-.08-.24-.15-.34-.24.19.03.38.04.56.11,1.09.45,1.74,1.52,2.83,1.97.19.11,1.51.65.75.51Z"/>
  <path class="cls-11" d="m40.67,17.91c-.52-.2-.99-.66-1.04-1.23.18.32.49.57.77.82.24.2.51.45.84.45-.17.09-.4.04-.57-.03Z"/>
  <path class="cls-11" d="m12.94,24.09c-.71-.26-1.53-.84-1.71-1.6.65.72,1.77.9,2.69.7.96-.11,1.89-.42,2.68-.97-.72,1.22-2.19,2.22-3.65,1.87Z"/>
  <path class="cls-11" d="m11.75,22.63c-.08-.02-.16-.07-.2-.13.12.02.55.19.2.13Z"/>
  <path class="cls-11" d="m11.9,22.8c0-.06.05-.12.12-.12s.12.05.12.12-.05.12-.12.12-.12-.05-.12-.12Z"/>
  <path class="cls-11" d="m8.82,29.34c-.88-.39-1.49-1.4-1.5-2.36.13.2.26.4.41.58,1.24,1.58,2.8.94,4.26.07-.66,1.02-1.85,2.1-3.17,1.71Z"/>
  <path class="cls-11" d="m9.02,31.71c-.4-.18-1.07-.41-1.04-.94.28.38.91.36,1.36.39.7-.04,1.33-.36,1.88-.75-.35.84-1.25,1.6-2.2,1.3Z"/>
  <path class="cls-11" d="m8.27,31.37c-.19,0-.39-.07-.49-.23.25.08.5-.05.74-.08.3-.06.6-.08.9-.12-.31.27-.73.45-1.15.43Z"/>
  <path class="cls-11" d="m8.69,31.71c-.24-.06-.5-.15-.57-.41.06.03.12.09.19.11,1.34.04,2.44-.89,3.43-1.69.57-.51.62-.64.23.14-.65,1.27-1.78,2.21-3.28,1.85Z"/>
  <path class="cls-11" d="m8.6,30.94c.83-.37,1.6-.92,2.37-1.41-.5.8-1.36,1.54-2.37,1.41Z"/>
  <path class="cls-11" d="m8.66,31.07c-.12-.02-.38-.07-.11-.1.39-.13.71-.38,1.12-.47-.26.27-.6.57-1.01.57Z"/>
  <path class="cls-11" d="m8.68,31.25c-.07-.03-.15-.1-.19-.15.17.07.35.04.49-.06,1-.49,1.62-1.46,2.47-2.14-.11.19-.25.4-.36.6-.23.39-.43.81-.76,1.13-.42.4-1.06.75-1.65.62Z"/>
  <path class="cls-11" d="m8.96,29.45c-.64-.18-1.47-.84-1.36-1.58.21.56.85.83,1.37,1.06.53.24,1.11.2,1.6-.11-.32.54-1,.82-1.61.62Z"/>
  <path class="cls-11" d="m9.15,29.79c.42-.25.74-.6,1.14-.87-.21.44-.62.89-1.14.87Z"/>
  <path class="cls-11" d="m8.31,30.78c.51-.29.89-.73,1.32-1.11.43-.37.82-.74,1.28-1.06-.7.86-1.43,1.96-2.6,2.17Z"/>
  <path class="cls-7" d="m61.68,53.47c-.18-1.21-.53-2.4-.53-3.64-1.72-1.61-2.01-4.1-2.12-6.33,0-.18-.08-.37-.12-.54.22.27.34.58.43.91,2.63,8.58,3.57,2.02,2.33,9.6Z"/>
  <path class="cls-7" d="m60.23,50.1c-.08-.07-.11-.17-.13-.27-.03-.1-.06-.2-.09-.3-.09.04-.2.06-.31.03-.04-.01-.07-.03-.11-.04,0,.02.03.05.03.07-.41-.41-.55-1.01-.71-1.54-.08-.46-.41-1.38.26-1.52.22-.25.66-.15.77.16.05.14.06.3.12.44.18.56,1.29,2.76.54,3.07-.13.06-.28.02-.38-.07Z"/>
  <path class="cls-7" d="m61.69,51.95c-.11-.5-.11-1.02.01-1.52.09.49.07,1.03-.01,1.52Z"/>
  <path class="cls-7" d="m6.87,52.24c-.03-1.47.62-2.77,1.23-4.06.41-.78.59-1.64.82-2.48.28-1.36.08-2.76.34-4.12.22-1.77.93-3.42,1.53-5.08.13-.38.29-.73.31-1.12.19.89-.07,1.84-.21,2.72-.17.85-.34,1.7-.55,2.54-.36,1.43-.21,2.91-.32,4.37-.09,1.14-.4,2.28-.86,3.33-.63,1.38-1.75,2.48-2.29,3.9Z"/>
  <path class="cls-7" d="m6.52,51.85c.15-1.58,1.14-2.95,2.21-4.06-.33.67-.63,1.36-.96,2.03-.36.71-.82,1.38-1.24,2.03Z"/>
  <path class="cls-7" d="m9.21,48.28c-.08-.14-.07-.31-.05-.46,0,0-.01-.02,0-.01.03-.23.08-.47.18-.68.1-.13.29-.04.3.11,0,0,.02,0,.02-.01.02-.14,0-.19.08-.03.38-.06.45.34.35.62-.04.2-.02.58-.33.53-.15.14-.44.13-.55-.07Z"/>
  <path class="cls-7" d="m3.88,46.15c-.96-.12-1.31-.96-1.52-1.79.43.42.8,1.05,1.5.94,1.28-.6,2.26-1.65,3.23-2.65-.25.71-.51,1.44-.9,2.09-.52.72-1.39,1.4-2.31,1.4Z"/>
  <path class="cls-7" d="m3.05,45.65c-.39-.08-.65-.54-.59-.91.2.3.36.64.59.91Z"/>
  <path class="cls-7" d="m2.89,45.72c-.54-.2-.93-.87-.58-1.39,0,.51.29.99.58,1.39Z"/>
  <path class="cls-7" d="m4.22,48.4c-2.02-.73.87-.01,1.46-.69.28-.15.7-.67.33-.01-.3.7-1.09.95-1.78.71Z"/>
  <path class="cls-7" d="m3.61,41.49c-1.83.02-2.76-1.89-3.13-3.43.21.24.37.56.56.83,2.68,3.48,5.11.33,7.21-1.87.47-.64-.52,1.27-.61,1.44-.69,1.53-2.22,3.17-4.02,3.04Z"/>
  <path class="cls-7" d="m1.94,40.94c-.7-.38-1.15-1.14-1.32-1.9.56.54.9,1.27,1.32,1.9Z"/>
  <path class="cls-7" d="m2.26,41.13c-.97-.19-1.85-1.14-1.78-2.16.03-.09.09-.2.14-.28,0,.08-.02.16-.02.24.03.33.28.61.42.9.31.52.72.99,1.23,1.3Z"/>
  <path class="cls-7" d="m21.28,69.21c-1.03-1.04-2.14-2-3.35-2.83-1.17-.35-2.19-.99-3.16-1.68,0,0,.01,0,.02.01-1.76-1-1.68-3.18-2.22-4.87-.23-.62-.55-1.21-.97-1.72.12.06.25.16.36.24,2.38,1.99,1.71,4.25,3.23,5.28.58.39,1.13.77,1.72,1.12.52.35,1.18.39,1.71.72,1.24.96,2.08,2.31,2.66,3.72Z"/>
  <path class="cls-7" d="m21.65,68.9c-.51-.26-.91-.69-1.18-1.19.52.2.93.71,1.18,1.19Z"/>
  <path class="cls-7" d="m21.36,68.74c-.71-.48-1.15-1.24-1.79-1.79-.2-.24-.06-.62.23-.7.28-.09.53.11.73.29.7.64,1.17,1.46,1.73,2.21-.08,0-.31-.19-.43-.26.01.25-.29.39-.48.24Z"/>
  <path class="cls-7" d="m22.52,69.07c-.29-.18-.44-.48-.62-.76.32.09.52.47.62.76Z"/>
  <path class="cls-7" d="m22.99,70.24c-.16-.24-.18-.55-.17-.83.1.16.22.33.25.52.04.09,0,.31.13.31.02,0,.04-.02.05-.02-.03.13-.2.11-.26.01Z"/>
  <path class="cls-14" d="m10.07,55.98c-.98-.49-1.87-1.74-1.8-2.85.33.7.95,1.16,1.54,1.64.71.7,1.25.74,2.2.69.11.01.23.02.3.12-.02,0-.05-.02-.08-.02-.74.31-1.3.78-2.15.41Z"/>
  <path class="cls-14" d="m10.47,56.42c-.48-.23-.98-.63-1.07-1.18.52.43,1.19.76,1.86.87.27.02.5-.07.72-.19-.25.58-.96.76-1.52.49Z"/>
  <path class="cls-14" d="m11.4,56c-.09,0-.19-.05-.26-.09.47-.11.9-.33,1.37-.42-.26.32-.68.55-1.11.51Z"/>
  <path class="cls-14" d="m12.04,55.78c.07-.13.15-.24.26-.34,0,0,0,0,0,0,.03-.02.05-.05.08-.06-.06.17-.19.31-.34.4Z"/>
  <path class="cls-14" d="m12.57,57.06c-.08-.68-.15-1.38.05-2.04.05.68.1,1.38-.05,2.04Z"/>
  <path class="cls-14" d="m30.96,74.75c-.98-.54-1.99-1.02-2.88-1.72-1.82-1.58-3.39-3.44-5.18-5.05-1.31-1.2-2.87-2.06-4.29-3.11-1.25-.89-2.37-1.97-3.34-3.16-.13-.16-.23-.35-.33-.53.26.23.53.44.82.63,1.87,1.16,3.76,2.33,5.55,3.58,1.76,1.05,3.18,2.52,4.57,4,1.72,1.75,3.51,3.47,5.09,5.34Z"/>
  <path class="cls-14" d="m35.33,76.11c-2.58-.13-4.62-1.9-6.63-3.33-.94-.72-1.86-1.48-2.79-2.21-.77-.6-1.57-1.16-2.23-1.88-.71-.8-1.54-1.47-2.4-2.11-1-.79-2.06-1.56-3.25-2.03.91.08,1.77.5,2.58.92.72.36,1.39.79,2.04,1.26.78.57,1.45,1.27,2.16,1.93.57.49,1.17.87,1.76,1.32,2.05,1.55,4.07,3.14,6.34,4.35.71.33,1.44.61,2.16.9.72.26,1.5.3,2.26.26.16,0,.33-.03.49-.02-.79.34-1.6.67-2.48.64Z"/>
  <path class="cls-14" d="m34.34,75.66c-.59-.06-1.12-.28-1.43-.81.46.47,1.1.52,1.73.48.84-.07,1.67-.18,2.49-.33.53-.11,1.05-.32,1.56-.49-1.24.91-2.83,1.32-4.36,1.16Z"/>
  <path class="cls-14" d="m35.15,75.77c-.37-.03-.72-.1-1.07-.18-.05-.02-.07-.04-.11-.08-.08-.09-.16-.2-.22-.29.14.08.26.24.43.23,1.57-.07,3.13-.75,4.45-1.56.59-.36,1.08-.85,1.66-1.22.5-.32,1-.65,1.48-1.01.23-.16.47-.34.7-.48-.78,1.05-1.58,2.07-2.5,2.99-1.32,1.17-3.08,1.78-4.83,1.61Z"/>
  <path class="cls-14" d="m34.82,75.64c-.31-.06-.59-.1-.88-.21-.19-.11-.37-.06-.56,0,.13-.13.25-.33.46-.3.54-.05,1.07-.16,1.6-.23,1.27-.34,2.5-.66,3.7-1.15-1.05,1.27-2.66,2.29-4.37,1.87,0,0,.04,0,.04,0Z"/>
  <path class="cls-14" d="m34.61,75.02c-.56-.04-1.12-.16-1.68-.17.13-.05.29-.08.43-.12,2.19-.32,4.41-.97,6.18-2.33,1.59-1.09,2.92-2.5,4.47-3.63,2.83-1.84,5.76-3.45,8.77-4.96,1.28-.66,1.76-1.26.36.3-1.16,1.19-2.53,2.1-4.02,2.81-.86.44-1.68.92-2.49,1.44-.87.56-1.88,1.07-2.64,1.74-1.34,1.18-2.71,2.38-4.2,3.37-1.47,1.12-3.33,1.75-5.17,1.55Z"/>
  <path class="cls-14" d="m58.79,57.31c-.38-.09-.65-.4-.92-.65-.11-.07-.23-.15-.32-.22.28,0,.55.03.8.16,1.28.45,1.84-1.1,2.29-2,.19-.38.37-.77.61-1.11-.11.86-.06,1.75-.35,2.58-.29.86-1.19,1.51-2.1,1.24Z"/>
  <path class="cls-14" d="m58.44,56.69c-.16-.01-.26-.15-.37-.25.1,0,.22.06.33.05,1.2-.61,1.69-1.95,2.3-3.06.08-.16.16-.34.23-.5.18,1.73-.51,3.66-2.49,3.77Z"/>
  <path class="cls-14" d="m39.97,47.13c.8-.94,2.08-1.43,3.31-1.3.49.03.96.27,1.44.3-.5.25-1.09.2-1.64.31-1.05.18-2.13.28-3.11.7Z"/>
  <path class="cls-14" d="m40.29,46.93c2.12-.78,2.74-1.18,5.01-.56-.61.28-1.3.32-1.95.47-1.01.23-2.04.31-3.06.09Z"/>
  <path class="cls-14" d="m43.72,47.13c-.86-.03-1.72,0-2.59-.01-.11-.02-.36.05-.36-.11.02.04.06.04.1.02.31-.12.6-.27.89-.37.97-.45,2.04-.52,3.07-.24.45.06.91.29,1.36.21-.66.52-1.65.45-2.46.49Z"/>
  <path class="cls-14" d="m39.95,47.42c1.59-1.08,3.1-1.57,5.02-1.11.82.11,1.58.36,2.4.22.07-.01.15-.04.21-.05-.83.76-2.05.8-3.11.79-.96,0-1.82-.14-2.77-.08-.58.05-1.17.22-1.75.23Z"/>
  <path class="cls-14" d="m45.22,47.72c-1.09-.09-2.25-.28-3.01-1.12.66.35,1.43.34,2.16.22.75-.1,1.5-.14,2.25-.26.79-.16,1.5-.55,2.24-.85.36-.16.77-.26,1.06-.54.12-.13-.1.29-.14.33-1.16,1.3-2.72,2.56-4.57,2.21,0,0,.03,0,.02,0Z"/>
  <path class="cls-14" d="m47.3,47.42c-.25-.05-.46-.2-.59-.41.53.18,1.14.14,1.7.12.13-.02.26-.08.38-.11-.34.47-.96.57-1.49.4Z"/>
  <path class="cls-14" d="m49.12,46.43c-.25-.01-.5-.15-.54-.41.25.21.57.07.84-.02.41-.08.76-.18,1.12-.37-.25.55-.83.84-1.43.8Z"/>
  <path class="cls-14" d="m48.54,46.31c.6-.32,1.29-.6,1.94-.8-.45.61-1.19.95-1.94.8Z"/>
  <path class="cls-14" d="m47.73,47.77c-.7-.03-1.29-.35-1.93-.56.38-.16.81-.1,1.22-.08.53.01.99.42,1.52.18-.19.26-.48.47-.81.45Z"/>
  <path class="cls-14" d="m29.12,47.03c-.84-.58-1.38-.4-2.32-.5-1.38-.07-2.76-.03-4.14-.09-.27-.04-.56-.08-.83-.13.17-.05.34-.11.51-.14,1.47-.49,2.67-1.03,4.27-.63.5.09.97.3,1.46.45.48.17.79.64,1.05,1.05Z"/>
  <path class="cls-14" d="m21.82,45.84c-.16-.05-1.25-.91-.77-.73.41.09.83.22,1.19.42.26.17.55.18.84.13-.29.39-.85.42-1.26.18Z"/>
  <path class="cls-14" d="m21,45.01c-.36-.01-.71-.1-1.08-.08.07-.07.17-.15.27-.19.51-.23,1.06-.06,1.46.3-.21.02-.43-.02-.65-.04Z"/>
  <path class="cls-14" d="m21.87,45.52c-.61-.19-1.41-.11-1.85-.67.34.07.71,0,1.06.05.41.04.81.24,1.03.59.04.05.09.09.13.13-.14,0-.25-.05-.38-.1Z"/>
  <path class="cls-14" d="m20.7,45.35c-.36-.08-.68-.29-1.03-.4.21-.06.43-.14.65-.09.58.03,1.18-.03,1.72.22.14.07.29.14.41.24,0,0-.02,0-.03,0-.58-.03-1.16.16-1.73.04Z"/>
  <path class="cls-14" d="m22.57,45.84c-.76-.39-1.74.03-2.39-.64-.15-.11-.28-.29-.47-.31.32-.17.7.06,1.03.11.69.05,1.47.16,1.82.84Z"/>
  <path class="cls-14" d="m20.12,45.2c-.3,0-.63-.09-.83-.32.46.02.92.05,1.38.05-.17.1-.34.28-.55.27Z"/>
  <path class="cls-14" d="m20.03,45.43c-.35-.05-.65-.32-.78-.64.3.18.65.31,1,.36.15-.06.32-.12.47-.16-.19.22-.37.5-.69.43Z"/>
  <path class="cls-14" d="m29.61,38.86c-1.78-1.78-5.15-2.02-7.51-2.67-.26-.05-.5-.18-.77-.13.07-.06.16-.11.26-.13,2.92-.56,6.77-.23,8.03,2.92Z"/>
  <path class="cls-14" d="m40.69,39.76c2.26-2.05,5.44-3.16,8.27-1.59.13.07.28.13.41.19-.32.02-.68-.03-.99-.04-1.47-.09-2.99.22-4.41.53-1.13.18-2.19.64-3.28.92Z"/>
  <path class="cls-14" d="m40.91,39.58c1.17-.81,2.42-1.56,3.86-1.7,1.43-.19,2.82-.25,4.13.44-.61.06-1.23.03-1.83.17-.71.16-1.42.36-2.16.44-.85.11-1.7.19-2.54.33-.49.1-.97.33-1.47.31Z"/>
  <path class="cls-14" d="m41.16,39.31c2.1-.86,4.07-1.69,6.41-1.37.82,0,1.53.51,2.31.61-.49.19-1.01.1-1.52.13-1.11.12-2.24.29-3.36.37-.77.04-1.44.08-2.2.16-.55.02-1.1.23-1.65.11Z"/>
  <path class="cls-14" d="m22.15,57.85c-.1-.47,1.09-1.08,1.45-1.32,1.66-1.17,3.5-2.04,5.32-2.93-.97,1.27-2.23,2.39-3.67,3.06-.66.35-1.36.57-2.08.73-.29.12-.9.14-1.01.46,0,0,0,0,0,0Z"/>
  <path class="cls-14" d="m21.85,58.17c-.07-.24.11-.51.26-.69.13-.1.34-.1.5-.1-.21.14-.4.28-.54.49-.08.09-.19.18-.22.3Z"/>
  <path class="cls-14" d="m21.68,58.21c0-.4.35-.64.71-.69-.24.23-.54.41-.71.69Z"/>
  <path class="cls-14" d="m34.98,55.76c-.97-.07-1.99-.47-2.61-1.23-.31-.33-.49-.76-.78-1.1.27.09.54.26.76.43.71.49,1.56.71,2.41.8,1.17.1,2.52.33,3.52-.42-.57,1.19-2.07,1.55-3.3,1.52Z"/>
  <path class="cls-14" d="m33.45,55.85c-1.32-.28-1.71-.92-1.78-2.22-.12-.44-.15-.45.14-.07.22.4.37.91.77,1.16.59.23,1.3.2,1.92.17.61-.03,1.21-.11,1.81-.19,1.03-.09,2.22-.25,2.78-1.24-.12,1.14-1.12,1.83-2.14,2.12-1.12.35-2.33.56-3.48.28Z"/>
  <path class="cls-14" d="m32.31,54.43c-.87-.22-.99-1.23-.61-1.92.12.67.21,1.36.61,1.92Z"/>
  <path class="cls-14" d="m49.94,56.45c-1.38-.47-2.82-.94-4.2-1.36-1.32-.43-2.64-.8-3.69-1.73-.13-.09-.29-.17-.41-.26.19.03.41.02.58.1,0,0,0,0,0,0,0,0,0,0,0,0,1.1.34,2.24.48,3.37.68,1.66.42,3.13,1.44,4.36,2.58Z"/>
  <path class="cls-14" d="m50.1,56.86c-1.1-.54-2.27-.83-3.48-.95-1.22-.27-2.35-1.05-3.14-2-.12-.14-.12-.37-.16-.53.24.44.71.62,1.16.78,1.05.32,2.19.64,3.24.9.96.31,1.8,1,2.39,1.8Z"/>
  <path class="cls-14" d="m33.42,70.35c-1.37-.1-2.37-1.16-3.27-2.09-1.1-1.12-2.02-2.45-2.81-3.79-.52-.75-1.02-1.52-1.47-2.31.62.59,1.21,1.25,1.8,1.87,1.25,1.45,2.39,2.99,3.83,4.26.46.36.77.72,1.21,1.06.49.28,1.03.49,1.54.71.35.11.72.18,1.08.09-.56.38-1.29.34-1.92.19Z"/>
  <path class="cls-13" d="m30.66,63.05c-.08-.01-.16-.04-.23-.09-.22.13-.51.08-.68-.1-.05,0-.1,0-.16,0-.07,0-.14-.04-.2-.07-.21.06-.46,0-.6-.19-.22.13-.5.27-.74.1-.1.02-.2,0-.29-.03-.38.26-.81.28-1-.21-.43-.11-.58-.62-.83-.94-.78-.75-1.37-1.63-2.1-2.43,0,0,0,0,0,0-.4-.51.33-1.18.8-.72.13-.04.26-.04.38.02.02.01.05.02.07.04.29-.27.75-.13.92.2.05-.01.1-.01.14-.01.23-.25.67-.26.88.03,0,0,0,0,0,0,.01,0,.02,0,.04,0,.02-.52.75-.69,1.02-.26.17-.28.57-.37.82-.16.14-.13.34-.19.53-.13.13.04.24.12.31.23.09-.06.2-.09.31-.09.02,0,.04,0,.06,0,.17-.18.46-.23.69-.1.03.02.05.03.08.05.12-.05.26-.06.38-.03.13.03.23.11.3.21.22-.05.46.03.59.23,0,0,0,0,.01,0,.19-.4.8-.4.99,0,0,0,0,0,0,0,.14,0,.28.05.38.14.09-.02.18-.02.26,0,.17-.25.5-.32.76-.16.18-.09.41-.07.57.05.1,0,.2.02.29.08.18-.18.49-.2.7-.04.08.06.13.13.17.2.13-.03.28-.02.39.06.08-.41.65-.53.92-.23.15-.24.15-.58.42-.73.29-.19.69,0,.79.31.11-.06.25-.07.37-.04.05.01.09.03.13.06.15-.4.73-.44.95-.08.08-.08.17-.13.29-.14.18-.02.35.04.47.16.11-.07.23-.1.37-.09.11.01.21.07.29.14.19-.32.68-.34.9-.04.14-.38.73-.43.92-.07.06-.09.15-.16.25-.21.21-.09.44-.03.58.13.03-.05.07-.09.11-.12.2-.15.48-.13.66.03.71-.45,1.66-1.19,2.53-1,.91.48-.02,1.18-.36,1.69-.49.5-1.11,2.04-1.88,1.92-.38.48-.63,1.3-1.32,1.38-.15.43-.58.97-1.05.61,0,0,0,0-.01,0-.17.04-.34,0-.46-.1-.18.3-.64.4-.88.11-.08.05-.17.07-.26.09-.18.03-.34-.05-.46-.18-.19.27-.63.36-.86.1-.25.1-.56,0-.69-.24-.02,0-.04,0-.06.01-.13.02-.27-.02-.37-.09-.19.26-.58.34-.82.11-.02,0-.03.02-.05.02-.19.09-.41.04-.57-.09-.09.15-.23.27-.44.29-.21.03-.4-.06-.51-.22-.14.06-.29.06-.42,0-.21.16-.54.15-.72-.05-.26.14-.61.03-.73-.25-.09-.01-.19-.04-.27-.1-.23.28-.62.54-.94.25-.14.21-.43.33-.68.24-.03.01-.05.02-.08.03-.12.24-.42.33-.66.25-.02,0-.04.01-.06.02-.15.04-.3.02-.42-.06-.13.14-.34.2-.53.15-.11.09-.27.14-.42.12Z"/>
  <path class="cls-13" d="m34.02,70.11c-.09-.07-.16-.17-.19-.28-.22.04-.47-.08-.56-.29-.04-.01-.09-.03-.13-.05-.03-.02-.07-.04-.09-.07-.23.05-.47-.07-.56-.29-.21-.1-.24-.35-.4-.49-.18-.04-.26-.23-.34-.37-.12-.15-.26-.29-.39-.44-.34-.43-1.14-1.14-1.07-1.71.04-.27.29-.47.56-.44.15-.24.55-.23.68.02,0,.02.02.03.02.05,0,0,0,0,0,0,.07.13.15.25.22.37.04,0,.08-.01.12-.01.14,0,.26.06.35.15,0,0,0,0,0,0,.05.05.09.11.13.17.02.03.05.07.07.1.08-.05.18-.08.28-.08.14,0,.27.06.36.15.19-.5.95-.43,1.02.11,0,0,0,0,0,0,0,.02,0,.04,0,.06.02.11.04.21.05.32.15-.06.32-.05.46.03.12.07.2.18.24.31.12-.03.26-.01.38.05.08-.03.16-.05.22-.1,0,0,0,0,0,0,.53-.23,1.08-.45,1.63-.62.08-.39.61-.55.89-.27.26-.05.55.06.64.32.06-.02.11-.05.16-.07.04-.02.08-.05.12-.06,0,0,0,0,0,0,.45-.21.92.33.66.75-.23.39-.73.48-1.13.58-.12.14-.31.2-.49.19-.22.03-.44.09-.65.15-.49.43-.78,2-1.69,1.62-.05.02-.1.03-.16.03-.07,0-.14,0-.21-.01-.03.01-.06.02-.09.03-.06.02-.13.02-.19.02-.1.08-.26.15-.4.13-.18.08-.39.07-.55-.05Z"/>
  <path class="cls-13" d="m33.16,69.52c-.5-.53-1-1.07-1.58-1.53-.42-.44-1.78-1.1-.89-1.73.55-.58,1.13.37,1.44.78.25.14.52.24.79.35.59.16,1.21.34,1.8.48.2-.04.41.04.62.04-.1.03-.23.05-.34.07.22.07.44.15.64.28.38.21.31.83-.12.94-.25.07-.48-.07-.71-.15-.32-.13-.66-.23-.98-.36.63.55-.05,1.44-.66.83Z"/>
  <path class="cls-8" d="m32.87,66.71c-.1-.09-.14-.2-.17-.32-.02-.06-.05-.12-.07-.18,0,0,0,0,0,0-.19.36-.74.38-.94.03-.33.09-.63-.14-.71-.45-.24.11-.56,0-.69-.24-.18,0-.36-.07-.46-.21-.01-.02-.03-.04-.04-.06-.12,0-.25-.04-.35-.11-.06-.05-.11-.1-.14-.16-.15,0-.3-.04-.41-.14-.23.18-.61.1-.75-.16-.07-.17-.15-.32-.25-.47-.16-.42-.93-1.43-.14-1.59.1-.11.24-.19.39-.2.28-.21.7-.09.85.23.06,0,.11,0,.17.01.26-.32.8-.22.95.15.33-.43.96-.15,1.05.33.03,0,.06-.01.09-.02.03,0,.06,0,.09,0,.11-.37.65-.48.9-.18.05,0,.1,0,.15.02.01,0,.03,0,.04.01.25-.28.73-.21.89.12.44-.09.65.39.8.72.03-.01.07-.02.11-.03,0,0,.01,0,.02,0,.34-.72,1.1-.3,1.4.22.52-.17.93.73,1.01,1.15.13.08.28.1.43.09-.12.06-.27.1-.41.09.03.4-.19.84-.61.9-.12.21-.38.34-.61.3-.15.38-.73.42-.93.07-.17.17-.45.21-.66.09-.05-.03-.1-.07-.13-.11-.16.3-.61.38-.85.13Z"/>
  <path class="cls-8" d="m35.24,66.84c-.37-.14-1-.23-1.13-.65.03.01.06.05.08.07.92.34,1.93-.23,2.83-.39,1.1-.18,2.19-.5,3.27-.74-.68.56-1.41,1.1-2.24,1.43-.89.27-1.89.43-2.82.28Z"/>
  <path class="cls-8" d="m34.97,66.36c-.13,0-.49-.04-.22-.18,0,.02-.03.05-.04.07,1.6-.59,3.22-1.19,4.86-1.63-.38.4-1.1.8-1.65,1.12-.91.46-1.95.61-2.95.62Z"/>
  <path class="cls-8" d="m33.83,66.8c-.6-.77.93-.76,1.28-.4.18,0,.36.02.54,0,0-.03-.03-.05,0-.07,0,0,0,0,0,.01.2.13-.15.22-.25.28-.47.2-1.08.47-1.56.18Z"/>
  <path class="cls-8" d="m36.75,65.81s-.07-.01-.1-.02c-.22.06-.47.04-.64-.13-.32.09-.71-.1-.73-.45-.19-.06-.32-.22-.35-.42-.2.04-.4.1-.6.09-.33,0-.57-.36-.43-.66-.02-.04-.04-.09-.05-.14-.03-.02-.05-.03-.08-.05-.08-.06-.15-.15-.18-.25-.06-.02-.11-.04-.17-.07-.11-.07-.2-.17-.25-.29-.1,0-.2.02-.3.02-.19,0-.26-.26-.1-.36.15-.05.3-.09.44-.15.13-.25.41-.28.66-.29.57-.18,1.2-.31,1.8-.16.49-.1,1.07-.18,1.48.16.23,0,.49.06.65.24.13.01.27.04.39.1.25-.06.51-.11.76-.04.18-.03.37-.02.53.06.33.14.47.59.25.88.01.04.02.08.02.13.21.19.18.56-.07.7-.29.14-.59.27-.89.4-.68.2-1.29.74-2.04.69Z"/>
  <path class="cls-8" d="m38.25,66.09s-.1-.04-.14-.07c-.27.12-.65.09-.77-.22-.09-.18.03-.37.12-.53.35-.61.78-1.18,1.3-1.65-.5-.17-.47-.88.06-.97.28-.02.53.15.8.2.58-.05,1.16-.16,1.74-.27.25-.04.51-.11.76-.08.33.04.59.37.52.7.37.59-.39.92-.74,1.27-.44.39-.89.76-1.39,1.08-.29.19-.68.37-1,.14-.14.07-.28.13-.42.19-.06.02-.12.03-.18.04-.2.14-.43.24-.67.17Z"/>
  <path class="cls-8" d="m42.07,63.04s.04-.06.06-.09c-.34.17.17-.27.26-.33.12-.12.27-.34.46-.25.33.27-.61.56-.78.68Z"/>
  <path class="cls-8" d="m41.99,63.07c-.05-.06.04-.13.09-.17.28-.26.67-.35,1.03-.23-.36.13-.72.27-1.07.42-.02,0-.03,0-.05-.02Z"/>
  <path class="cls-8" d="m41.84,63.25c.26-.42.68-.91,1.19-.99.09.02.11.14.04.19-.38.31-.8.57-1.22.8Z"/>
  <path class="cls-8" d="m41.03,64.04c.59-.55,1.22-1.21,2.05-1.28-.63.51-1.26,1.06-2.05,1.28Z"/>
  <path class="cls-8" d="m39.29,65.42c.93-1.01,1.93-2.38,3.45-2.37-.5.24-.85.65-1.28.99-.67.53-1.43.98-2.17,1.38Z"/>
  <path class="cls-12" d="m33.15,66.91c-.09.03-.19.03-.28,0-.23.06-.49-.1-.54-.34-.05,0-.1-.01-.15-.03-.07-.03-.13-.07-.17-.13-.07,0-.13,0-.2-.03-.06-.02-.11-.06-.15-.11-.09.02-.18.02-.27-.02-.11-.05-.2-.14-.24-.25-.07,0-.14,0-.2-.03-.03-.01-.06-.03-.08-.05-.17.06-.36,0-.48-.13-.05,0-.09-.01-.14-.03-.14-.06-.23-.19-.26-.34,0,0,0,0,0,0,0,0,0,0,0,0,0,0,0,0,0,0,0-.02-.01-.04-.02-.06-.18.07-.41,0-.52-.16-.22.02-.43-.12-.48-.33,0,0,0,0,0,0,0-.06-.02-.11-.07-.15-.13,0-.25-.07-.33-.17,0,0,0,0,0,0-.02-.03-.04-.06-.06-.09-.12-.03-.22-.13-.27-.24-.2-.23-.41-.47-.53-.75-.08-.11-.15-.22-.2-.34-.13-.32.16-.68.5-.6.22-.11.51-.02.63.2.06-.01.13,0,.2,0,.12-.11.29-.15.45-.08.05.02.1.05.13.09,0,0,0,0,0,0,.04.04.08.08.11.13.02.03.03.06.05.08.19-.18.51-.16.67.04.07-.01.14-.01.21,0,.08.02.15.06.21.12.07,0,.14,0,.21.03.03.01.05.03.08.04.16-.27.59-.26.75.01.1-.08.24-.12.36-.08.08-.02.16-.02.24.01,0,0,.01,0,.02,0,.08-.03.17-.04.25-.01.11-.11.28-.15.43-.09,0,0,.02,0,.03.01.07-.04.15-.05.24-.04.02,0,.03,0,.05,0,.12-.18.4-.23.53-.04,0,0,0,0,0,0,.03.04.05.07.07.11.12-.09.28-.11.42-.03.06.03.1.08.13.13,0,0,0,0,0,0,0,0,0,0,0,.01,0,0,0,.01.01.02.1-.08.23-.11.35-.07.01,0,.03,0,.04.01.09-.07.22-.09.33-.04.07.03.13.08.16.15,0,0,0,0,0,0,0,0,0,0,0,.01,0,0,.01.01.02.02.19-.18.54-.1.63.15,0,0,0,0,0,0,0,0,0,0,0,0,0,0,0,0,0,0,.08-.08.19-.12.3-.11.16-.19.48-.19.62.03.05-.04.11-.07.17-.08.06-.13.2-.21.35-.23.06-.24.35-.37.58-.27.12.05.21.16.24.28,0,0,0,0,0,0,0,0,0,.02,0,.02.02.06.05.11.07.17.01,0,.02,0,.04-.01.08-.2.32-.32.53-.26.06.02.12.05.16.09.02,0,.04-.01.06-.01.09-.26.45-.38.68-.22.17-.14.43-.13.59,0,.15-.11.35-.11.5-.02,0,0,0,0,0,0,0,0,0,0,.01,0,.07-.03.15-.04.23-.03.03-.04.07-.07.12-.1.14-.08.3-.09.44-.03.44-.18,1.15-.51,1.53-.08.3.43-.07.82-.51.9-.01.05-.02.1-.05.15-.05.12-.14.23-.24.3-.04.15-.13.29-.26.37-.03.23-.18.44-.4.51-.03.05-.06.09-.1.13-.04.04-.09.07-.14.1-.05.25-.29.44-.54.41-.05.08-.12.13-.2.18-.07.05-.15.06-.23.06,0,0,0,0,0,0-.06.1-.14.15-.24.2-.11.05-.24.04-.35-.01-.04.05-.08.1-.14.14-.13.09-.3.12-.44.04-.04.02-.09.04-.14.06-.07.02-.14.02-.2,0-.04.04-.09.08-.14.11-.07.04-.14.06-.21.05-.01.01-.02.02-.04.03-.09.07-.2.1-.31.09-.07.08-.16.13-.27.14-.12.13-.35.14-.5.06-.16.05-.33-.03-.4-.18,0,0,0,.01-.01.02-.06.09-.16.13-.27.14-.08.28-.49.37-.63.09-.08.14-.25.22-.41.17-.07-.02-.13-.06-.17-.11-.17.14-.46.06-.5-.16-.1.12-.27.17-.42.14-.09.07-.21.09-.31.06-.07-.02-.13-.06-.18-.11-.04.02-.1.04-.15.05-.08.08-.19.12-.3.1-.09-.01-.17-.06-.23-.13-.09.19-.33.29-.52.19Z"/>
  <path class="cls-12" d="m36.93,63.86c-.99-.33-2.02-.02-3.03-.02-.22-.01-.47-.02-.64-.19-.22-.21-.18-.6.08-.76.02-.08.07-.15.13-.21.1-.1.23-.15.36-.15,0,0,0,0,0,0,.83.08,1.66.23,2.5.25.5.05,1.42-.19,1.57.46.28.05.5.23.78.27-.01.01-.05,0-.08.02.04.03.09.04.13.06,0,0,0,0,0,0-.3-.05-.6.01-.91.05-.19.31-.58.29-.89.22Z"/>
  <path class="cls-12" d="m38.01,64.16c.09-.2.18-.4.28-.59-.37-.11-.54-.6-.14-.77.15-.07.31-.04.47-.02.34.02.72.21.63.6,0,.23-.3.27-.48.26-.27.15-.54.32-.77.51Z"/>
  <path class="cls-12" d="m34.71,66.83c-.17-.04-.4-.1-.37-.33.02-.12.12-.22.25-.22.23.04.46.06.7.06.67-.15,1.11-.72,1.76-.92.06-.04.11-.09.17-.13-.04.08-.07.17-.13.24-.75.66-1.16,1.86-2.37,1.29Z"/>
  <path class="cls-1" d="m30.79,18.44c-.17-.07-.27-.23-.3-.4-.02,0-.05-.02-.07-.03-.34.45-1.17.65-1.32-.07-.07-.32.2-.51.41-.7.5-.51.84-1.37,1.59-1.53.04-.07.09-.15.14-.22.13-.19.26-.4.45-.54,0,0,0,0,0,0,.08-.06.18-.1.28-.11,0,0,0,0,.01,0,.15-.16.4-.21.61-.13.02,0,.04-.02.06-.03,0,0,0-.01,0-.02.04-.16.08-.33.19-.46,0,0,0,0,0,0,.05-.07.12-.13.21-.16.22-.09.46-.02.6.15.01,0,.03-.01.04-.02.13-.05.26-.05.39,0,.14-.07.29-.07.44-.01.04.01.07.03.11.05.25-.02.58.02.76.22,0,0,.02,0,.03,0,.24-.11.55-.15.8-.04.2-.08.44-.05.6.11.04.05.08.09.11.14.25-.3.73-.21.93.1.71,0,.94,1.23,1.26,1.74.24.33.44.53.59.88.15.46-.44.86-.81.57-.34.03-.49-.29-.63-.54-.09.05-.21.06-.31.06-.22.33-.76.29-.94-.06-.05,0-.1-.02-.14-.04-.1.09-.23.13-.37.14-.08,0-.17-.02-.25-.06-.13.07-.29.09-.43.05-.2.13-.49.13-.67-.04-.04.04-.08.07-.13.1-.03.02-.07.03-.1.04-.16.38-.73.42-.94.06-.09.11-.22.18-.38.19-.04,0-.08,0-.11,0-.04.02-.09.04-.13.05-.04.01-.07.02-.11.02-.13.48-.8.72-1.08.24-.17.13-.42.18-.62.09-.18.21-.48.33-.75.21Z"/>
  <path class="cls-9" d="m39.1,17.61c-.99-1.04-2.22-1.88-3.55-2.41-.71-.2-1.45-.26-2.18-.33-.26-.03-.52-.09-.76-.17.25-.03.51-.06.76-.11,1.06-.17,2.22-.43,3.23.07,1.17.61,2.09,1.7,2.51,2.94Z"/>
  <path class="cls-9" d="m39.13,17.31c-.55-.42-.88-1.06-1.31-1.59-.09-.09-.23-.11-.33-.17.16-.02.33-.06.47.02.65.35.88,1.11,1.17,1.73Z"/>
  <path class="cls-9" d="m39.54,17.58c-.7-.65-1.12-1.5-1.55-2.33.86.46,1.24,1.47,1.55,2.33Z"/>
  <path class="cls-9" d="m39.56,17.25c-.93-.65-1.44-1.69-2.17-2.51,1.14.27,1.65,1.58,2.17,2.51Z"/>
  <path class="cls-9" d="m38.8,18.29c-.37-.29-.47-.8-.72-1.19-.36-.68-.89-1.27-1.27-1.93-.33-.56.43-1.15.89-.69.68.87,1.45,1.69,2.05,2.63,0,0,0,0,0,0,.05.08.07.17.06.27-.02.11-.07.2-.15.27.14.47-.43.92-.85.65Z"/>
  <path class="cls-9" d="m36.72,17.85c.49-.35,1.09-.51,1.59-.82-.26.64-.97.8-1.59.82Z"/>
  <path class="cls-10" d="m27.36,61.65c-1.05-.52-2.18-1.25-2.71-2.32.48.41,1.07.73,1.53,1.17.45.4.87.8,1.32,1.19,0-.02,0,0,0,0-.04.03-.1-.02-.14-.04Z"/>
  <path class="cls-10" d="m27.86,62.94c-.15-.09-.28-.19-.4-.31-.03-.03-.07-.07-.1-.1-.55.21-.69-.38-.92-.73-.62-.93-1.55-1.65-2.12-2.6-.11-.42.3-.69.65-.78.5-.06.65.52.88.85.45.51.87,1.05,1.29,1.59.25.29.8.62.54,1.06,0,.02,0,.04,0,.06.02.17-.04.35-.17.46.1.18.22.36.35.51Z"/>
  <path class="cls-10" d="m30.55,62.68c-1.17-.08-2.33-.32-3.4-.79-.15-.07-.29-.18-.4-.28.29.1.59.12.89.14.49.05.97.12,1.45.2,1.21.19,2.4.57,3.6.74-.71.06-1.43.04-2.14,0Z"/>
  <path class="cls-10" d="m32.54,62.52c-.84-.01-1.69-.05-2.52-.15-1.34-.22-2.66-.51-4.01-.64,1.44-.15,2.91.02,4.36.14.84.04,1.68.04,2.52.03.86-.04,1.71-.11,2.57-.08.79.01,1.59.06,2.37.11-1.75.23-3.5.59-5.27.59Z"/>
  <path class="cls-10" d="m39.11,62.57c-.57-.06-1.11-.26-1.66-.38-.38-.07-.76-.1-1.14-.16.13-.02.29-.02.43-.03.68-.07,1.35,0,2.03.06,1.21.09,2.39.14,3.59.14-1.06.28-2.16.51-3.25.37Z"/>
  <path class="cls-10" d="m32.99,68.03c-1-.24-1.73-1.03-2.61-1.49.67.06,1.3.34,1.95.5,1.38.23,2.8.08,4.2.08.95-.05,1.87-.31,2.77-.61.02,0,.04-.02.06-.02-.13.11-.27.22-.4.32-1.59,1.44-3.94,1.7-5.96,1.21Z"/>
  <path class="cls-2" d="m8.64,50.84c-.58-.91,1.56-2.44,2.15-2.27-.44.24-.76.66-1.12,1-.34.43-.99.69-1.03,1.28Z"/>
  <path class="cls-2" d="m8.71,50.08c-.12-.73.76-1.29,1.38-1.46.47-.11,1.01-.14,1.45.07-.01,0-.04,0-.05,0-.87.19-2.35.56-2.77,1.4Z"/>
  <path class="cls-2" d="m8.5,50.07s-.03-.03-.02-.05c.05-.15.16-.29.26-.41.32-.4.74-.75,1.24-.9.68-.19,1.36.24,1.87.65-.02,0-.04-.01-.06-.01-1.37-.22-1.99-.1-3.16.67,0,0,.03,0,.03,0-.05.03-.1.09-.16.06Z"/>
  <path class="cls-2" d="m11.94,50.18c-.53-.44-1.03-1.07-1.74-1.18.78-.41,1.59.46,1.74,1.18Z"/>
  <path class="cls-2" d="m12.14,51.67c-.26-.58-.51-1.16-.68-1.77-.11-.28-.11-.65-.37-.81.9.15,1.06,1.84,1.05,2.58Z"/>
  <path class="cls-2" d="m8.52,50.35c.29-.62.72-1.24,1.34-1.55.54-.28,1.32-.12,1.45.53-.31-.28-.74-.35-1.1-.12-.59.33-1.18.71-1.69,1.13Z"/>
  <path class="cls-2" d="m8.6,50c-.51-.4.36-.91.67-1.11.44-.25.95-.41,1.46-.4.57.03.96.5,1.22.95-1.18-.8-1.98-.04-3.02.56-.1.07-.22.07-.33.01Z"/>
  <path class="cls-2" d="m11.89,50.98c-.25-.73-.47-1.5-.42-2.27.3.71.45,1.5.42,2.27Z"/>
  <path class="cls-4" d="m8.84,50.63c.39-1.38,1.61-1.96,2.75-.95-1.3-.17-1.81.12-2.75.95Z"/>
  <path class="cls-4" d="m8.54,50.62c-.15-.36.1-.72.31-1,.67-.95,1.74-.93,2.48-.08-.58-.13-1.18-.25-1.72.07-.41.25-.94.52-1.07,1Z"/>
  <path class="cls-4" d="m11.92,50.26c-.34-.5-1.23-2.05-1.9-1.29-.02-.55.63-.57,1.01-.41.65.28.86,1.06.89,1.7Z"/>
  <path class="cls-4" d="m11.76,50.92c-.14-.28-.22-.56-.3-.86-.11-.36-.04-.77-.32-1.04.76.23.64,1.28.62,1.9Z"/>
  <path class="cls-4" d="m28.97,37.44c-.83-.83-1.89-1.43-3.02-1.73-.89-.19-1.81-.09-2.71-.19-.27-.01-.53-.05-.73-.25.1,0,.22.04.32.04.95-.24,1.86-.73,2.86-.68,1.54.07,2.85,1.39,3.28,2.81Z"/>
  <path class="cls-4" d="m28.91,46.29c-2.09-.79-4.44-.1-6.47-1.05-.62-.34-1.15-.78-1.76-1.12.83.1,1.59.54,2.44.56,2.03-.06,4.25.12,5.79,1.61Z"/>
  <path class="cls-4" d="m29.17,46.87c-.94-1.22-1.96-1.26-3.37-1.37-1.38-.13-2.75-.35-4.03-.9-.31-.12-.62-.23-.89-.43.44.12.92.14,1.37.18,1.46.1,2.96-.13,4.38.28,1.27.17,2.18,1.03,2.53,2.24Z"/>
  <path class="cls-4" d="m40.26,46.74c1.18-.91,2.36-1.32,3.85-1.21,2.15-.03,3.46.32,5.46-.81-1.61,2.01-3.51,1.95-5.88,1.73-1.37-.29-2.15-.12-3.44.29Z"/>
  <path class="cls-4" d="m40.53,39.17c.94-1.14,2.04-2.22,3.54-2.53,1.59-.33,3.33-.13,4.76.65.12.06.26.12.38.16-.45.02-.9-.07-1.36-.09-1.7.05-3.45.13-5.07.65-.82.25-1.51.78-2.25,1.16Z"/>
  <path class="cls-4" d="m57.96,50.87c.21-1.74,1.48-1.76,2.44-.51-1.31-.37-1.51-.67-2.44.51Z"/>
  <path class="cls-4" d="m57.75,51.42c-.05-.12-.05-.25-.05-.38-.48-.32-.05-.92.05-1.34.1-.23.13-.54.37-.65.16-.18.43-.27.64-.14.47.32.08.95-.1,1.35-.05.41-.32.98-.82.85-.04.1-.08.21-.1.31Z"/>
  <path class="cls-4" d="m57.86,51.72c-.1-.67-.14-1.41.14-2.04.07.68.07,1.39-.14,2.04Z"/>
  <path class="cls-4" d="m58.04,49.6c-.32-.39-.38-.95-.36-1.44.27.43.29.96.36,1.44Z"/>
  <path class="cls-4" d="m58.06,49.6c-.15-.06-.15-.25-.19-.39-.06-.29-.12-.55-.15-.85,0,0,0,0,0,0,0-.13.17-.21.27-.11.1.12.13.29.17.43.03-.11.04-.23.07-.33.07.29.38,1.33-.17,1.24Z"/>
  <path class="cls-4" d="m13.3,38.5c.04-1.35.79-2.72,1.47-3.85,1.42-2.13,3.44-3.71,5.47-5.22.91-.76,1.95-1.34,2.98-1.9.97-.56,1.97-1.09,3.04-1.45.98-.36,1.89-.89,2.91-1.11,1.27-.22,2.7-.36,3.86.3-.86-.09-1.69.15-2.51.38-.71.18-1.39.42-2.08.64-2.8,1.08-5.62,2.24-7.96,4.16-1.85,1.29-3.59,2.76-4.99,4.54-.85,1.07-1.71,2.23-2.19,3.51Z"/>
  <path class="cls-4" d="m36.54,26c.52-.62,1.33-.91,2.06-1.21,1.23-.49,2.59-.58,3.89-.38.19.03.39.07.56.12-.25.02-.51.03-.76.04-1.26.09-2.5.38-3.7.75-.68.23-1.42.36-2.05.69Z"/>
  <path class="cls-4" d="m35.45,26.58c-.15-.07-.62-.19-.61-.37.05-.03.16-.05.06.01.15.04.31.05.46.09-.02-.04-.02-.07,0-.11.09-.15.29.08.36.14-.02,0-.05,0-.08,0,.16.15,0,.34-.18.25Z"/>
  <path class="cls-3" d="m40.41,46.49c1.17-.79,2.53-.68,3.88-.56.7.06,1.4.12,2.07.05,1.27-.09,2.67-.5,3.41-1.61.05-.06.08-.13.12-.19-.09.57-.36,1.11-.75,1.53-1.3,1.54-3.48,1.36-5.45,1.18-1.84-.17-3.5-.34-4.06.91-.04-.57.32-1.04.79-1.32Z"/>
  <path class="cls-3" d="m47.14,47.58c-.73-.38-1.4-.9-2.21-1.1,1.17-.33,2.04.34,3.09.67.45.11.9-.05,1.32-.17-.36.47-.92.75-1.49.75-.24,0-.48-.05-.71-.15Z"/>
  <path class="cls-3" d="m48.1,46.25c-.28-.02-.57-.06-.83-.15,1-.34,2.07-.47,3.05-.88.31-.15.56-.34.8-.56-.07.3-.21.58-.41.82-.49.61-1.24.8-1.99.8-.21,0-.41-.01-.61-.04Z"/>
  <path class="cls-3" d="m49.05,37.85c.39.19.74.45,1.04.76-.46-.17-.99-.28-1.47-.31-2.64-.05-6.79-.24-8.57,2.01,1.03-3.3,6.29-3.74,9-2.45Z"/>
  <path class="cls-3" d="m34.12,55.38c-2.09-.16-3.68-2.87-2.16-4.56.3-.36.72-.64,1.2-.67-.16.1-.35.2-.48.36-1.13,1.29-.17,3.44,1.44,3.74,1.22.22,2.5-.05,3.62-.56.91-.33,1.11-1.38.92-2.23-.06-.29-.16-.57-.28-.84.84.71,1.33,2.02.83,3.06-.78,1.33-2.65,1.73-4.22,1.73-.3,0-.6-.02-.87-.04Z"/>
  <path class="cls-3" d="m28.31,46.35c-.81-.22-1.66-.21-2.51-.21-.47,0-.93,0-1.39-.03-1.65-.14-4.03-.74-4.26-2.69.83,1.38,2.7,1.3,4.12,1.51,2.17.08,5-.15,5.45,2.6-.41-.46-.77-1.01-1.4-1.19Z"/>
  <path class="cls-3" d="m20.73,46.51c.8-.13,1.41-.74,2.17-.99.52-.18,1.56-.23,1.87,0-1.05.29-2.11,1.16-3.21,1.16-.27,0-.55-.05-.82-.18Z"/>
  <path class="cls-3" d="m20.07,45.15c-.29-.04-.76-.26-.82-.48.34.07.69.04,1.04,0,.55-.05,1.1-.11,1.58.25-.28,0-.54.06-.81.12-.26.06-.51.12-.77.12-.07,0-.14,0-.21-.01Z"/>
  <path class="cls-3" d="m22.11,35.95c-.47.03-.93.13-1.37.27.21-.19.42-.36.66-.51,2.8-1.55,7.3-.81,7.99,2.76-1.61-2.33-4.7-2.55-7.27-2.52Z"/>
  <path class="cls-3" d="m35.11,59.59c-1.34-.18-2.58-.87-3.94-.97-3.69,0-5.74,1.64-9.26-.76.43-.07,1.46.25,2.11.25,1.17.07,2.34-.09,3.5-.26,2.53-.53,4.38-.54,6.78.46,1.81.82,2.7-.62,4.33-.77.49-.02.98.05,1.47.12.57.08,1.15.16,1.73.1,1.28-.11,2.53-.42,3.81-.45,1.04-.03,1.91-.48,2.88-.71-1.06.89-2.25,1.66-3.68,1.78-1.03.17-2.07.35-3.11.41-.57.05-1.12-.03-1.68-.1-.43-.06-.87-.12-1.31-.12-1.16.17-2.04,1.06-3.26,1.06-.12,0-.25,0-.38-.03Z"/>
  <path class="cls-3" d="m32.39,69.44c-1.81-1.74-3.69-3.44-5.25-5.42-1.41-1.7-2.44-3.76-4.1-5.22-.72-.6-.99-.68.12-.26,2.78,1.1,3.91,4.1,5.9,6.11,1.1,1.23,2.31,2.34,3.48,3.5.85.94,2.09,1.82,3.33,1.03,2.32-1.28,3.93-3.4,5.76-5.25,2.29-2.43,4.88-4.59,7.18-6.98-1.17,3.4-4.48,5.36-6.75,7.98-1.83,1.75-4.6,5.56-7.36,5.56-.78,0-1.56-.31-2.32-1.05Z"/>
  <path class="cls-3" d="m34.11,67.6c-1.61-.25-3.04-1.1-4.4-1.93-.9-.68-1.7-1.52-2.46-2.33,1.9,1.17,3.87,2.25,5.94,3.08,3.22,1.05,6.37-.98,9.05-2.54-1.7,2.25-4.44,3.77-7.28,3.77-.28,0-.57-.02-.85-.05Z"/>
  <path class="cls-3" d="m48.32,57.5c.08-.16.17-.31.26-.46-.37.08-.81.27-1.17.12.06.01.12-.01.17-.03.39-.16.71-.43,1.06-.65.29-.24.94-.69.96,0-.39.92-1.22,1.62-1.91,2.31.19-.44.39-.87.62-1.29Z"/>
  <path class="cls-3" d="m46.67,57.91c-.22-.03-.44-.09-.64-.17,1.03-.09,2-.51,2.97-.85-.5.6-1.24,1.05-2.04,1.05-.1,0-.19,0-.29-.02Z"/>
  <path class="cls-3" d="m48.36,57.11c-.28.26-.65.43-1.03.47.29-.24.66-.41,1.03-.47Z"/>
  <path class="cls-3" d="m48,57.12c-.25.22-.59.33-.91.34.26-.2.59-.32.91-.34Z"/>
  <path class="cls-3" d="m47.18,57.33c.13-.09.27-.14.42-.15-.12.09-.26.15-.41.15,0,0,0,0-.01,0Z"/>
  <path class="cls-3" d="m27.74,63c-1.02-.43-1.97-1.25-2.43-2.26.6.67,1.44,1.02,2.25,1.35,1.75.46,3.54.28,5.33.1,1.54-.15,3.08-.31,4.6-.06.82.07,1.64.06,2.47.06.31,0,.63,0,.94,0,1.1.04,2.22.01,3.27-.37.05-.01.09-.04.13-.05-.41.36-.89.63-1.39.84-1.8.66-3.7.54-5.59.42-.87-.06-1.74-.11-2.59-.09-1.52.08-3.08.37-4.62.37-.8,0-1.59-.08-2.37-.31Z"/>
  <path class="cls-3" d="m10.16,57.1c-3.77-.71-4.21-8.81.17-8.9.47,0,1.01.17,1.21.64-.63-.58-1.59-.11-2.15.36-2.59,2.04-.51,9.31,3.06,6.49.1-.09.2-.19.3-.28-.34.96-1.23,1.72-2.25,1.72-.11,0-.22,0-.33-.03Z"/>
  <path class="cls-3" d="m58.13,57.36c-.29-.21-.55-.51-.68-.84.68.75,1.85.7,2.45-.11,1.59-2.02,1.78-6.09-1.11-7.03-.47-.14-.85.22-1.03.61.02-.64.53-1.16,1.19-1.11,1.84.02,3.11,1.85,3.1,3.58,0,1.31-.18,2.71-.87,3.85-.44.72-1.29,1.33-2.13,1.33-.32,0-.63-.09-.93-.29Z"/>
  <path class="cls-3" d="m34.37,76.75c-2.71-.27-4.71-2.39-6.73-4.01-1.34-1.16-2.75-2.23-4.14-3.33-1.57-1.3-3.08-2.68-4.85-3.71-1.76-1.07-3.7-2.15-4.66-4.06-.97-1.72-1.06-3.72-1.4-5.62.42.65.68,1.41.98,2.13,1.92,6.09,4.3,5.25,8.54,8.92,1.96,1.76,4.12,3.28,6.12,5,1.93,1.55,3.87,3.59,6.47,3.78,2.53.21,4.31-1.91,6.03-3.43,1.3-1.3,2.76-2.41,4.23-3.5,2.1-1.71,4.45-3.04,6.78-4.39,2.03-1.1,3.78-2.69,4.84-4.77.31-.62.53-1.29.79-1.92.05,1.74-.46,3.48-1.67,4.76-1.2,1.41-2.84,2.3-4.4,3.24-1.92,1.05-3.79,2.19-5.5,3.57-1.79,1.27-3.47,2.67-5.03,4.22-1.59,1.52-3.47,3.18-5.75,3.18-.21,0-.43-.01-.65-.05Z"/>
  <path class="cls-3" d="m14.21,34.69c2.51-4.56,8.16-8.13,12.96-9.89,2.89-1.03,6.52-.83,8.55,1.72-2.64-1.39-5.86-1.78-8.67-.67-3.86,1.49-7.45,3.79-10.29,6.8-3.77,4.46-4.7,10.47-5.34,16.07-1.01-4.79.65-9.78,2.79-14.03Z"/>
  <path class="cls-3" d="m54.05,35.29c-2.52-4.58-7.3-11.17-13.15-10.66-1.81.2-3.84.53-5.18,1.86.87-1.76,2.96-2.63,4.84-2.79,5.3-.64,9.36,3.73,12.19,7.66,2.15,2.9,3.54,6.29,4.28,9.81.56,2.47,1.26,4.93,1.47,7.45-2.27-4.17-2.22-9.15-4.45-13.34Z"/>
  <path class="cls-3" d="m40.55,9.99c-.77-.09-1.55-.36-2.32-.78.14,0,.28-.04.41-.07.1-.02.19-.05.28-.09,0,0-.01,0-.02,0,0,0-.01,0-.02,0,0,0,.01,0,.02,0,.11-.04.22-.08.33-.1.05,0,.11,0,.16,0,.14,0,.27.02.4.04.3.06.59.15.88.23.07.02.15.03.22.03.04,0,.09,0,.13-.01.18.07.36.15.54.23-.03-.01-.05-.02-.08-.04.05.02.09.04.14.07.02,0,.03.02.05.03.13.11.27.22.41.33-.4.08-.82.13-1.25.13-.09,0-.18,0-.28,0Z"/>
  <path class="cls-3" d="m9.85,43.64c.4-4.84,1.66-9.62,3.76-14,1.13-2.51,2.66-4.89,4.85-6.61,2.4-2.18,5.3-3.65,8.43-4.42,2.15-.64,4.5-1.03,6.63-.12-.09,0-.18,0-.27,0-.07,0-.14,0-.21,0-2.16.09-4.27.59-6.33,1.19-3.9.96-7.37,3.28-9.94,6.34-2.83,3.84-4.4,8.47-5.42,13.08-.34,1.55-.62,3.12-.74,4.7-.22,1.51-.1,3.22-.84,4.58.22-1.56-.13-3.17.07-4.75Z"/>
  <path class="cls-3" d="m59.02,47.34c-.24-1.1-.5-2.2-.62-3.33-.46-3.45-.82-7.03-1.98-10.32-1.12-3.67-3.12-7.03-5.94-9.65-2.58-2.69-6.08-4.49-9.69-5.34-1.92-.43-3.89-.6-5.84-.39-.66,0-1.32.08-1.97.17-.8.11-1.61.22-2.41.14,1.11-.31,2.09-1,3.24-1.23,1.84-.33,3.77-.4,5.61-.07,6.42.94,11.81,4.73,15.29,10.14,1,1.36,1.67,2.89,2.2,4.48.73,1.94,1.31,3.9,1.59,5.96.4,2.71.89,5.43.85,8.17-.07.68.16,1.54-.3,2.09.14-.27.03-.56-.02-.84Z"/>
  <path class="cls-3" d="m32.08,14.01c1.96-.93,6.11-.78,7.13,1.47.32.64.48,1.33.68,2.01-.41-.46-.75-1-1.17-1.47-1.3-1.51-4.38-1.76-6.14-1.01-1.59.75-2.27,2.76-3.98,3.26,1.42-1.19,1.61-3.51,3.48-4.26Z"/>
  <path class="cls-3" d="m51.64,19.35c-.66.45-3.74.74-3.7-.44.48-1.32,2.97.2,2.85-4.32-.75.77-1.83,1.18-2.89,1.25-1.43.06-2.51-1.14-3.4-2.06-1.29-1.41-2.36-3.23-4.36-3.61-1.32-.32-2.61.21-3.79.77-1.04.47-1.84,1.36-2.09,2.47-.27-2.13,1.71-3.57,3.56-4.09.11-.04.22-.07.32-.1.17,0,.34-.03.5-.07.06-.01.12-.03.18-.05,1.06-.11,2.16.15,3.11.66.26.2.54.39.83.54.09.07.17.14.25.21,1.09,1.1,1.99,2.42,3.17,3.43,1.01,1.21,2.81.99,3.84-.08.32-.3.41-.86.86-1,1.43-.23.86,3.17.68,3.98-.18.79-.64,1.51-1.35,1.92.51-.04.99-.19,1.46-.38.97-.3,1.1.78.5,1.31-.49.51-1.16.84-1.84.97.53-.34,1-.76,1.32-1.31Z"/>
  <path class="cls-3" d="m57.11,28.97c.7-.31,1.16-1.02,1.32-1.76-1.06.6-2.29.27-3.44.19-.76.03-1.2-.8-.43-1.2,2.39-1.1,1.54-4.79.76-6.72-.75,1.3-3.46,1.8-4.82,1.49.99-.1,1.89-.59,2.79-1,.68-.31,1.28-.82,1.44-1.58.04-.33.38-.6.72-.5.69.36.86,1.65,1.15,2.34.55,1.92.97,4.71-.6,6.24,2.14.39,1.97-.52,3.02-.56,1.27.57-.64,3.05-1.78,3.05-.04,0-.08,0-.11,0Z"/>
  <path class="cls-3" d="m65.39,42.82c-2.22-.18-4.1-1.65-5.51-3.29-.3-.43-1.17-.94-.68-1.51.27-.26.52-.12.79.02.18.09.36.19.56.16.96.09,1.68-.68,2.19-1.39.97-1.31,1.15-3,.89-4.57-.87.41-1.89.68-2.84.47-1.3-.41-2.62-1.49-2.8-2.9.91,1.8,3.39,2.74,5.16,1.62.24-.12.25-.43.46-.59.22-.17.53-.15.73.04.6,1.24.44,3.79-.07,5.08-.62,1.42-1.75,3.03-3.41,3.21,1.29,1.55,4.32,3.78,6.4,2.84.12-.06.24-.13.35-.19-.46.66-1.24,1-2.03,1-.06,0-.12,0-.18,0Z"/>
  <path class="cls-3" d="m65.45,46.98c-.62-.09-2.57-1.45-2.59-2.08,0-.33.38-.55.66-.37.45.38.95.75,1.56.79,1.63-.08,2.57-1.77,2.9-3.19.04,1.23-.41,2.54-1.4,3.31-.54.41-1.23.7-1.92.55.42.47.91.91,1.55,1.01-.1.02-.21.03-.31.03-.15,0-.3-.02-.44-.05Z"/>
  <path class="cls-3" d="m65.18,51.17s0,0,0,0c.01,0,.02,0,.03,0h0c.64-.19,1.18-.71,1.48-1.29-1.18.78-2.21-.42-.94-1.18-.83.05-1.81-.14-1.98-1.09.15.15.29.37.47.49.78.34,1.56-.17,2.3-.28.5.08.61.73.39,1.12,1.6.65-.43,2.27-1.55,2.27-.08,0-.15,0-.22-.02Z"/>
  <path class="cls-3" d="m63.96,56.86c1.09-.26,2.09-1.17,2.14-2.34-1.28.31-2.82-.68-2.57-2.09.09.21.16.45.26.67.79.95,1.44.78,2,.61.3-.09.58-.18.85-.11.63.32.42,1.22.19,1.74-.45.95-1.45,1.56-2.49,1.56-.13,0-.25,0-.38-.03Z"/>
  <path class="cls-3" d="m55.46,73c-1.92-.96-4.03-1.91-5.2-3.8-.47-.72-.73-1.56-.71-2.42.13.29.23.62.38.9,1.28,2.27,3.76,3.49,6.07,4.45,1.33.34,2.77-.1,3.87-.84.45-.27.77-.71,1.03-1.15-.25,1.88-2.2,3.12-4.05,3.12-.48,0-.96-.08-1.4-.26Z"/>
  <path class="cls-3" d="m55.08,68.6c.49-.77,1.19.33,1.69.57,1.13.8,2.71.93,3.84.08-.35.5-.89.89-1.48,1.08,1.02.26,1.8.04,2.28-.92-.19,1.23-1.01,1.63-2.19,1.6-.02,0-.04,0-.06,0-.86,0-4.45-1.56-4.08-2.41Z"/>
  <path class="cls-3" d="m59.92,68.49c-.52-.04-2.7-.53-1.89-1.32.43-.18.79.35,1.18.48.54.31,1.28.5,1.88.32.07-.04.11-.11.16-.16-.01.16-.1.3-.23.38,0,0,.02,0,.03,0,.02,0,.03,0,.04,0-.29.18-.6.34-.94.34-.08,0-.16,0-.24-.03Z"/>
  <path class="cls-3" d="m60.66,66.32c-.2-.08-.38-.37-.14-.52.25-.05.51,0,.78.05.29.05.59.11.88.03-.27.23-.63.35-.99.35.27.23.43.58.55.9-.34-.31-.67-.59-1.07-.81Z"/>
  <path class="cls-3" d="m62.41,64.36c-1.51-.54-2.72-2.12-2.83-3.73-.12-1.12.75-1.87,1.37-.61.42,1,1.23,2.22,2.46,1.56-.9.98-2.28.25-2.89-.69.22,1.23.98,2.39,1.95,3.15.26.15.58-.01.86-.02-.25.12-.52.34-.82.34-.03,0-.06,0-.1,0Z"/>
  <path class="cls-3" d="m63.17,60.78c-.03-.11.05-.22.04-.33,0-.23-.02-.53.24-.61-.21.25.11.59-.04.88.15.16.3.33.42.51-.22-.13-.5-.23-.66-.44Z"/>
  <path class="cls-3" d="m18.83,15.58c-2.52-.66-1.37-3.47.44-4.21-.64.66-1.21,1.68-1.04,2.63.72,1.15,2.55.77,3.6.27,1.87-.89,2.46-3.05,3.77-4.5,1.64-1.86,4.43-1.72,6.4-.48,1.17.68,1.98,1.92,2.14,3.27-1.03-1.89-3.22-3.19-5.37-3.27-2.74.04-3.39,3.05-4.96,4.72-1,1.03-2.43,1.73-3.87,1.73-.38,0-.76-.05-1.13-.15Z"/>
  <path class="cls-3" d="m16.96,12.16c.28-.08.57-.16.84-.22-.16.1-.33.21-.49.31-1.68.99-.66,3.6.58,4.56-2-.51-2.99-3.61-.93-4.65Z"/>
  <path class="cls-3" d="m15.92,19.13c-1.77-.38-1.86-3.04-.55-2.15.24.45.64.71,1.15.78.85.14.96.23,1.7-.25-.19.23-.38.53-.66.66-.71.17-1.57.22-2.23-.15.24.64.89.95,1.47,1.21-.29,0-.6-.04-.88-.11Z"/>
  <path class="cls-3" d="m11.91,23.81c-1.09-.39-1.96-1.46-2.28-2.55,0-.47.62-.68.9-.31.24.73.64.97,1.41,1.02,1.51.05,3.95-.27,4.3-2.03.22.7-.21,1.31-.71,1.77-1.11,1.07-2.76,1.29-4.23,1.06.35.54.9.95,1.51,1.16-.05,0-.1,0-.15,0-.25,0-.51-.06-.75-.13Z"/>
  <path class="cls-3" d="m8.32,29.14c-.74-.27-1.25-.91-1.65-1.55-.28-.57-1.44-1.57-.46-2.01.4-.12.66.26.99.41.57.31,1.21.46,1.86.5,1.31.08,2.6-.59,3.32-1.66-.44,2.19-3.02,3.05-4.95,2.31.33.97.91,1.86,1.94,2.14-.03,0-.06,0-.09,0-.32,0-.66-.02-.96-.14Z"/>
  <path class="cls-3" d="m7.51,32.11c-.52-.19-.5-.84-.23-1.23-.35-.16-.78-.27-1.02-.59-.22-.35.18-.82.56-.64.4.17.81.32,1.23.41.51.15.98-.16,1.44-.29-.25.22-.49.46-.77.65.23.57-.5.69-.76,1.04.62.09,1.22-.13,1.8-.26-.56.39-1.21.95-1.91.95-.12,0-.23-.01-.35-.05Z"/>
  <path class="cls-3" d="m2.13,38.97c-.78-.27-1.52-.91-1.63-1.75,1.27,2.01,3.63.95,5.02-.31,1.02-.98,2-2.04,2.67-3.29.22-.45.39-.94.57-1.39,0,.27-.02.55-.04.82-.21,2.35-3.21,6.04-5.85,6.04-.25,0-.49-.03-.73-.1Z"/>
  <path class="cls-3" d="m.33,37.67c0,.29-.08.61-.03.89.21.67.6,1.27,1.03,1.82.91,1.28,2.64,1.17,3.96.69-.68.62-1.6.95-2.52.95,0,0,0,0,0,0-1.85,0-3.47-2.79-2.43-4.36Z"/>
  <path class="cls-3" d="m3.08,44.56c-.33-.04-.58-.26-.84-.44.01.08.05.16.07.23-.57-.57.15-.41.5-.28,1.66.07,3.03-1.74,2.98-3.32-.02-.06-.08-.02-.15.02-.04.03-.09.05-.12.05.12-.08.26-.32.38-.12.71,1.76-.76,3.87-2.63,3.87-.07,0-.13,0-.2,0Z"/>
  <path class="cls-3" d="m3.86,48.76c-.51-.09-1.41-.76-.96-1.32.63-.34,1.38-.48,1.83-1.09-.95.42-2.4-.01-2.36-1.22.47,1.22,1.99.84,2.64-.02,1.63-.63.99,2.35-1.5,2.79.27.65,1.03.66,1.61.52-.32.2-.68.35-1.06.35-.07,0-.13,0-.2-.02Z"/>
  <path class="cls-3" d="m5.35,53.02c-.57-.27.92-2.59,1.05-3.2-1.09.28-.94.28-.13-.32.19-.14.31-.36.51-.47.39-.12.46.35.36.63-.13,1-.57,1.9-1.09,2.76.46-.04.9-.15,1.33-.25-.44.32-1.12.92-1.73.92-.11,0-.21-.02-.31-.06Z"/>
  <path class="cls-3" d="m9.35,68.78c-.76.02-1.22-1-.36-1.28,1.29-.4,2.21-1.56,2.48-2.86-.96.63-2.07,1.1-3.24,1.07-.74.07-2.03-.56-1.07-1.29,1.01-.41,1.68-1.43,2.06-2.41.37-1.17.65-2.4.55-3.63-.02-.38-.12-.76-.2-1.12.14.22.29.44.4.68.93,2.3.27,5.15-1.56,6.83.92,0,1.8-.34,2.55-.85.34-.2.61-.61,1.04-.57.86.19.39,1.35.24,1.92-.42,1.16-1.23,2.22-2.35,2.78.87.04,1.74-.15,2.53-.53-.79.73-1.87,1.26-2.96,1.26-.03,0-.06,0-.09,0Z"/>
  <path class="cls-3" d="m13.19,71.85c.38-.78.52-1.64.61-2.49-.24.44-.99.72-1.16.08-.29.36-1.2,1.26-1.02.18.04.11.06.25.12.36.53-.3.67-1.96,1.46-1.26.38-.48.49-1.81,1.35-1.44.74.54-.13,3.6-.37,4.43.92-.82,1.41-1.98,2.12-2.96-.55,1.67-1.05,4.04-3.04,4.49-.76-.16-.33-.96-.08-1.39Z"/>
  <path class="cls-3" d="m17.39,68.86c.41.49.61,1.1.04,1.56.21-.53,0-1.03-.04-1.56Z"/>
  <path class="cls-3" d="m16.63,71.61c.21-.45.38-.95.41-1.44-.05-.23-.21-.43-.29-.64.73.5.61,1.37.47,2.13,1.05-.59,2.05-1.38,2.79-2.34.55-1.05,1.37-.31,1.02.63.42-.17.65-.62,1.05-.79.84-.11.38,1.45,1.1,1.46.08-.02.15-.07.21-.1-.48.67-.98-.27-1.21-.68-.39.61-1.7,1.8-2.14.68-.9.73-1.77,1.76-2.98,1.92-.02,0-.04,0-.05,0-.45,0-.66-.49-.37-.84Z"/>
  <path class="cls-3" d="m29.77,52.87c-1.54,1.1-3.08,2.21-4.76,3.09-1.03.62-2.25.93-3.19,1.68-.31.25-.19.49-.03.78-2.13-1.46,6.87-5.17,7.98-5.55Z"/>
  <path class="cls-3" d="m49.94,56.59c-.9-.87-2.12-1.13-3.26-1.5-1.59-.67-3.35-1.01-4.74-2.09-.28-.22-.49-.52-.73-.79.25.15.5.35.75.51,1.44.74,3.09.85,4.55,1.51,1.26.48,2.64.9,3.42,2.08.18.2.31.47.24.74-.01-.18-.09-.35-.23-.47Z"/>
  <path class="cls-3" d="m11.06,51.7c-.29-.37-.6-.58-1.06-.34-.03.01-.07.04-.1.05.1-.25.34-.48.62-.5.43-.04.88.35.91.77-.06.27-.3.49-.48.69.02-.23.07-.45.11-.67Z"/>
  <path class="cls-3" d="m10.79,53.68c-.14-.06-.09-.19.04-.17,0,.02-.03.03-.05.05.09,0,.19,0,.28,0,.18,0,.36-.02.53.01-.17.1-.36.17-.55.17-.09,0-.18-.02-.26-.06Z"/>
  <path class="cls-3" d="m59.32,52.04c-.18-.16-.44-.51-.69-.34-.41.34-.63.8-.77,1.3-.6-1.15,1.15-2.73,1.46-.95Z"/>
  <path class="cls-3" d="m58.48,54.21c.13-.1.32-.14.45-.24-.03.18-.2.24-.37.24-.03,0-.06,0-.08,0Z"/>
</svg>