<?xml version="1.0" encoding="UTF-8"?>
<svg id="Layer_4" data-name="Layer 4" xmlns="http://www.w3.org/2000/svg" viewBox="0 0 72.25 81.34">
  <defs>
    <style>
      .cls-1 {
        fill: #265e2f;
      }

      .cls-1, .cls-2, .cls-3, .cls-4, .cls-5, .cls-6, .cls-7, .cls-8, .cls-9, .cls-10, .cls-11, .cls-12 {
        stroke-width: 0px;
      }

      .cls-2 {
        fill: #010101;
      }

      .cls-3 {
        fill: #9ccf82;
      }

      .cls-4 {
        fill: #192e18;
      }

      .cls-5 {
        fill: #6abd67;
      }

      .cls-6 {
        fill: #308440;
      }

      .cls-7 {
        fill: #fff;
      }

      .cls-8 {
        fill: #255d2e;
      }

      .cls-9 {
        fill: #6abd65;
      }

      .cls-10 {
        fill: #1c391c;
      }

      .cls-11 {
        fill: #20562a;
      }

      .cls-12 {
        fill: #51924d;
      }
    </style>
  </defs>
  <path class="cls-2" d="m41.55,47.7c-1.92-.73-1.39-4.99,1.01-3.92.79.09,1.27.86,1.4,1.58.14.69-.21,1.37-.62,1.89-.45.46-1.19.59-1.8.45Z"/>
  <path class="cls-2" d="m45.72,48.27c-.33,0-.66-.12-.89-.35-.11,0-.22,0-.33-.02-.22-.03-.43-.14-.6-.28-.28.11-.6.14-.9.05-.07-.02-.13-.04-.19-.07-.29.06-.61.04-.88-.1-1.93,1.01-2.58-1.66-.77-1.97.05-.2.13-.39.25-.56.25-.36.76-.48,1.16-.34.45-.63,1.08-.58,1.77-.5.29-.19.63-.29.98-.25.07,0,.13.02.2.04.54-.23,1.24-.07,1.56.44.05,0,.11.02.16.04.08.02.15.05.22.09.12-.02.24-.03.36-.01.19-.1.41-.16.62-.17.24-.16.53-.25.82-.21.16.02.32.07.46.16.7-.03,1.62.09,2,.76.32.45.37,1.06,0,1.49-.47.71-1.04.91-1.87.84-.11.05-.23.1-.34.12-.03,0-.06.01-.1.02-.28.23-.62.39-.99.4-.38.23-.88.3-1.3.13-.18.05-.37.08-.56.05-.05,0-.09-.01-.13-.02-.22.11-.47.21-.72.21Z"/>
  <path class="cls-2" d="m41.47,44.29c-.01-.15.15-.72.35-.54.06,0-.01.04-.04.04-.04.21-.14.38-.31.51Z"/>
  <path class="cls-2" d="m41.7,43.77c.2-.09.43-.1.64-.01-.22.08-.42.1-.64.01Z"/>
  <path class="cls-2" d="m43.98,43.84c-.75-.07-1.57-.31-2.28-.02.36-.95,1.98-.59,2.28.02Z"/>
  <path class="cls-2" d="m44.53,44.35c-.81.02-1.58-.28-2.32-.58-.11-.04-.23-.07-.34-.11.17-.07.35-.14.53-.18,1.21-.18,2.42.27,3.53.72-.44.13-.94.15-1.4.15Z"/>
  <path class="cls-2" d="m42.37,44.38c-1.15-.48.33-.68.8-.79.8-.16,1.63-.06,2.39.22.35.12.7.25,1.02.42-.55.07-1.11.05-1.67.05-.88.02-1.77.03-2.64-.08.03.06.07.12.09.18Z"/>
  <path class="cls-2" d="m40.9,44.12c-.19-.18.03-.4.07-.59.06-.17.24-.22.4-.22.17.03.18.21.11.34-.04.23-.18.64-.48.55-.01.03.02.04.03.06-.08.02-.12-.05-.14-.13Z"/>
  <path class="cls-2" d="m44.61,43.94c-.59-.1-1.2-.18-1.78-.31-.33-.06-.63-.18-.96-.11.36-.5,1.09-.52,1.65-.42.55.12,1.05.48,1.4.91-.1-.01-.21-.05-.31-.07Z"/>
  <path class="cls-2" d="m46.7,44.09c-.73,0-1.46-.12-2.16-.3-.37-.08-.71-.27-1.09-.17.11-.12.25-.24.42-.28,1.59-.35,3.29.1,4.76.71-.64.07-1.29.07-1.93.04Z"/>
  <path class="cls-2" d="m47.54,44.49c-.96.02-1.83-.52-2.75-.55.74-.58,1.84-.32,2.7-.16.69.2,1.41.39,2.07.64-.67.15-1.38.13-2.06.07,0,0,.05,0,.05,0Z"/>
  <path class="cls-2" d="m47.77,45.3c-.47-.06-.87-.37-.95-.84-.02-.12-.01-.28.05-.4-.16-.27-.09-.65.17-.84.46-.25,1.06-.11,1.58-.13.63.02,1.35.43,1.29,1.13.54.33.56.28-.07.27-.36.75-1.35.74-2.07.81Z"/>
  <path class="cls-2" d="m51.42,44.43c-.4-.13-.82-.16-1.23-.24-.45-.03-.84-.38-1.28-.24.44-.75,2.18-.2,2.5.48Z"/>
  <path class="cls-2" d="m51.26,45.15c-.48-.14-1-.49-1.15-.99.44.21,1.01.52,1.15.99Z"/>
  <path class="cls-2" d="m50.45,45.72c-.6-.33-1.16-.58-1.68-1.01-.67-.43-.1-1.53.64-1.23.8.28,1.73.59,2.24,1.3.44.75-.57,1.54-1.19.94Z"/>
  <path class="cls-2" d="m40.69,45c-.16-.65-.06-1.65.64-1.93.38-.11.63.33.51.66.27.07.12.08-.05.16-.14.34-.48.93-.91.71-.08.12-.14.27-.2.39Z"/>
  <path class="cls-2" d="m23.02,48.49c-.21-.02-.41-.12-.58-.22-.1-.06-.19-.12-.27-.2-2.48-.31-1.77-4.72.49-3.13.12,0,.23.03.35.07.02-.01.05-.03.07-.04.05-.02.1-.04.15-.06.23-.42.68-.69,1.16-.63.11.01.22.04.32.08.16-.05.33-.07.5-.05.1.01.21.04.3.08.28-.12.6-.13.89-.02.29-.18.65-.21.98-.12.11-.04.22-.07.33-.09.07-.05.15-.09.22-.13.26-.64,1.02-.72,1.62-.62.47,0,1,.12,1.2.6.41.43.52,1.11.33,1.66.04.85-.51,1.79-1.42,1.84-.41.62-1.33.89-1.93.39-.16.02-.33,0-.49-.04-.17.05-.36.05-.54.03-.45.35-1.12.48-1.62.15-.17.02-.34,0-.51-.05,0,0-.01,0-.02,0-.12.05-.24.08-.36.1-.31.3-.76.43-1.19.37Z"/>
  <path class="cls-2" d="m21.4,47.75c-.39-.27.2-.54.44-.62-.06.14-.17.29-.28.4,0,.04-.04.08-.08.1.01.06.04.11.11.1-.06.07-.12.06-.19.02Z"/>
  <path class="cls-2" d="m23.14,46.51c.4-.34.94-.46,1.42-.64,0,0-.01,0-.02.01.23-.13.54-.17.8-.21-.24.23-.5.47-.78.65-.45.22-.94.2-1.42.19Z"/>
  <path class="cls-2" d="m21.15,47.9c-.1-.2.04-.46.13-.64.05.28-.08.6.14.84-.11-.02-.2-.12-.27-.2Z"/>
  <path class="cls-2" d="m21.43,47.91c-.07-.04-.13-.12-.16-.18.13.04.48.38.16.18Z"/>
  <path class="cls-2" d="m21.88,48.41c-.29-.1-.5-.49-.33-.77.03.22.19.37.35.5-.03-.09-.11-.3.07-.21,0,0-.03,0-.04.02,0,0,0,0,0,0,.22.12.31.53-.05.46Z"/>
  <path class="cls-7" d="m39.89,25.77c0-.09.08-.18.17-.18s.18.07.18.17c0,.09-.08.18-.17.18s-.18-.07-.18-.17Z"/>
  <path class="cls-7" d="m44.68,57.09s-.06-.03-.08-.05c-.2.13-.4-.1-.26-.29-.24-.1-.1-.35.02-.49.23-.31.83-1.2,1.26-1.07.16-.12.36.09.25.25.05.14-.06.28-.12.4-.15.27-.31.53-.49.78-.14.19-.3.54-.59.47Z"/>
  <path class="cls-7" d="m44.15,57.22c-.43-.18.18-.62.31-.82.41-.48.83-.94,1.27-1.39.07-.07.18-.07.25,0,.07.07.07.18,0,.25-.16.17-.32.33-.48.5.09-.08.18-.16.3-.18.16-.12.32-.49.55-.31.07.07.07.18,0,.25-.3.31-.59.63-.89.94-.17.14-.32.34-.54.39-.24.15-.49.39-.79.37Z"/>
  <path class="cls-7" d="m35.37,10.11c0-.09.08-.18.17-.18s.18.07.18.17c0,.09-.08.18-.17.18s-.18-.07-.18-.17Z"/>
  <path class="cls-7" d="m56.23,19.33c.04-.58.87-.32,1.27-.4.19,0,.36.15.36.35-.05.59-.87.3-1.27.4-.19.01-.36-.16-.36-.35Z"/>
  <path class="cls-7" d="m41.43,45.29c-.61.05-.76-.94-.24-1.16.38-.17.9.19.9.6-.02.32-.34.62-.66.56Z"/>
  <path class="cls-7" d="m21.35,46.46c-.12-.02-.23-.09-.29-.21-.03-.06-.05-.12-.06-.18-.35-.57.57-1.07.94-.55.38.38-.04,1.21-.59.95Z"/>
  <path class="cls-7" d="m22.01,45.71c0-.19.15-.36.35-.36s.36.15.36.35c0,.19-.15.36-.35.36s-.36-.15-.36-.35Z"/>
  <path class="cls-7" d="m42.11,44.31c0-.19.15-.36.35-.36s.36.15.36.35c0,.19-.15.36-.35.36s-.36-.15-.36-.35Z"/>
  <path class="cls-9" d="m31.09,45.7c.19-.56.08-1.23-.33-1.67-.2-.48-.73-.6-1.2-.6-.6-.1-1.36-.02-1.62.62-.08.04-.15.09-.22.13-.11.02-.22.05-.33.09-.33-.09-.69-.06-.99.12-.29-.11-.61-.11-.89.02-.1-.04-.2-.07-.3-.08-.17-.02-.34,0-.5.05-.1-.04-.2-.07-.32-.08-.49-.05-.93.21-1.16.63-.05.01-.11.03-.15.06-.02.01-.05.02-.07.04-.11-.04-.23-.07-.35-.07-.71-.5-1.26-.41-1.61-.04-.02.02-.04.05-.06.07,0,.01-.02.02-.02.03-.02.03-.05.07-.07.1-.06.09-.11.19-.15.3-.02.04-.03.09-.04.13,0,.03-.02.06-.02.09h0s-.01.06-.02.09h0s0,.03,0,.05h0s-.01.06-.01.1c0,.02,0,.03,0,.05h0s0,.03,0,.05,0,.03,0,.05c0,.02,0,.03,0,.05h0s0,.07,0,.1,0,.06,0,.1c0,0,0,.02,0,.03,0,.02,0,.04,0,.05,0,.09.02.17.03.26,0,0,0,0,0,.01,0,.03.01.06.02.08,0,.02,0,.03.01.05,0,.03.02.06.03.09h0s.02.07.03.09c0,.02.01.03.02.05.01.03.02.06.04.09.01.03.03.06.04.09,0,.01.01.03.02.04,0,.01.02.03.02.04,0,.01.02.03.02.04,0,.01.02.03.03.04.02.03.04.05.06.08,0,.01.02.03.03.04.02.03.04.05.06.08,0,0,.01.02.02.02.01.02.03.03.04.05,0,.02-.01.05-.02.07,0,.02,0,.04,0,.06,0,.02,0,.05,0,.07v.02s0,.03.01.04c0,0,0,.01,0,.02,0,.01.01.03.02.04.05.07.11.14.19.18.02.01.05.02.08.03,0,0-.01-.02-.02-.02-.01-.01-.02-.03-.03-.04,0,0,0,0,0-.01,0,0,0,0,0,0h0s0,0,0,0c-.01-.02-.02-.04-.03-.06,0,0,0-.01,0-.02,0-.03-.01-.05-.02-.08,0,0,0-.01,0-.02,0,0,0-.02,0-.03,0-.01,0-.03,0-.04,0,0,0-.01,0-.02,0,0,0,.01.01.02,0,0,0,.01.01.02,0,0,.01.02.02.02.01.01.02.03.04.04.01.01.02.02.04.04,0,0,.01,0,.02.01,0,0,.01.01.02.02.02.02.04.03.06.04h0s0,.03,0,.04c0,.01,0,.03.01.04,0,.01,0,.02.01.04,0,.02.02.05.03.07,0,.01.01.02.02.03,0,.01.01.02.02.03,0,0,.01.02.02.02,0,0,.01.01.02.02.01.02.03.03.05.05,0,0,.01.01.02.02h0s.01.02.02.02c.04.03.09.06.14.08.02,0,.04,0,.05,0,.07,0,.11-.01.14-.04.04-.04.05-.09.03-.15,0,0,0,0,0-.01,0,0,0-.01,0-.02,0,0,0,0,0,0,0,0,0-.02,0-.03,0,0,0-.02-.01-.03,0,0,0-.02-.01-.03,0,0-.01-.02-.02-.03,0,0-.01-.02-.02-.02.01,0,.03,0,.04,0,.01,0,.02,0,.03,0,.02,0,.04,0,.05,0,.09.08.18.15.27.2.18.1.38.2.58.22.42.05.87-.07,1.19-.37.12-.02.25-.05.36-.1,0,0,.01,0,.02,0,.17.05.34.06.51.05.5.32,1.17.2,1.62-.15.18.02.37.02.54-.03.16.04.32.06.49.04.61.5,1.52.23,1.93-.39.91-.04,1.46-.99,1.42-1.83Zm15.28,9.81c.07-.07.07-.18,0-.25-.04-.03-.08-.05-.12-.05,0,0-.01,0-.02,0,0,0-.01,0-.02,0,0,0,0,0-.01,0,0,0,0,0,0,0-.01,0-.02,0-.04.02,0,0,0,0-.01,0,0,0-.02,0-.02.02,0,0,0,0-.01,0,0,0,0,0-.01,0,0,0-.02.01-.02.02,0,0,0,0-.01.01-.01.01-.02.02-.03.03h0s-.02.03-.03.04c0,0,0,0,0,0,0,0-.01.01-.02.02,0,0,0,0-.01.01,0,0-.01.02-.02.02,0,.01-.02.02-.03.03,0,0,0,0-.01.01,0,0,0,0,0,0,0,0-.01.02-.02.02,0-.03,0-.05-.01-.08,0,0,.01-.02.01-.02,0,0,0-.01,0-.02,0,0,0-.02,0-.03,0,0,0-.01,0-.02.03-.03.06-.06.09-.1.07-.07.07-.18,0-.25-.07-.07-.18-.07-.25,0-.06.06-.11.12-.17.18-.43-.06-.99.78-1.21,1.08-.07.08-.15.21-.15.31,0,0,0,.01,0,.02,0,0,0,0,0,0,0,0,0,.01,0,.02,0,0,0,.02,0,.02,0,0,0,.01,0,.02-.06.07-.12.14-.17.21,0,0,0,.01-.01.02,0,0,0,.01,0,.02,0,0,0,.01,0,.02,0,0,0,.02-.01.03,0,0,0,.01,0,.02,0,0,0,.02,0,.02,0,0,0,.01,0,.02,0,0,0,.01,0,.02,0,.07.04.13.15.18,0,0,.02,0,.03,0s.02,0,.03,0c0,0,.02,0,.02,0,0,0,.02,0,.03,0,0,0,.02,0,.03,0,.06-.01.12-.03.18-.06,0,0,.02,0,.02-.01.03-.02.06-.03.1-.05,0,0,.02,0,.02-.01,0,0,.01,0,.02-.01,0,0,0,0,0,0,0,0,.01,0,.02.01,0,0,0,0,0,0,0,0,.02,0,.03.01.02,0,.05,0,.07,0,0,0,.01,0,.02,0s.01,0,.02,0c0,0,.01,0,.02,0,0,0,0,0,0,0,0,0,0,0,.01,0,0,0,0,0,.01,0,0,0,.02,0,.02-.01,0,0,.01,0,.02-.01.02-.01.04-.02.06-.04,0,0,.01,0,.02-.01.02-.01.03-.03.05-.05,0,0,.01-.01.02-.02,0,0,.01-.01.02-.02.02-.02.03-.04.05-.06,0,0,.01-.02.02-.03.02-.02.03-.05.05-.07,0-.01.02-.03.03-.04,0,0,0,0,0,0,.01-.01.03-.02.04-.04.02-.02.05-.04.07-.06,0,0,0,0,.01,0,0,0,0,0,.01-.01,0,0,0,0,.01-.01.04-.04.08-.07.11-.11.01,0,.02-.02.03-.03.3-.31.58-.64.89-.94Zm5.36-8.99c.19-.22.26-.49.25-.76,0-.03,0-.06,0-.09,0-.02,0-.04,0-.06,0-.01,0-.02,0-.03,0,0,0-.02,0-.03,0-.01,0-.03,0-.04,0-.01,0-.02,0-.04,0,0,0,0,0-.01,0-.01,0-.03-.01-.04,0,0,0,0,0,0,0-.01,0-.02-.01-.03,0-.01-.01-.03-.02-.04,0-.01,0-.02-.01-.03-.01-.03-.02-.06-.04-.09,0-.01-.01-.02-.02-.03,0,0,0,0,0,0,0-.01-.01-.03-.02-.04-.01-.02-.02-.04-.03-.06,0-.01-.01-.02-.02-.03h0s0-.02,0-.03c0-.01,0-.02,0-.03,0-.03-.02-.06-.03-.09,0,0,0-.02,0-.02-.01-.03-.03-.06-.05-.1-.02-.03-.04-.05-.06-.08-.01-.01-.02-.03-.03-.04-.02-.03-.05-.05-.07-.08,0,0-.02-.02-.02-.03-.01-.01-.02-.02-.03-.04-.05-.05-.09-.09-.14-.13,0,0,0,0,0,0,.05.01.1.03.14.04-.21-.45-1.04-.85-1.71-.84h0s0,0,0,0c0,0,0,0,0,0-.02-.03-.04-.05-.07-.08-.01-.01-.02-.02-.04-.03,0,0-.02-.02-.03-.02-.03-.03-.06-.05-.09-.07-.01,0-.02-.02-.03-.02-.02-.01-.04-.03-.06-.04,0,0-.02-.01-.03-.01,0,0-.02,0-.03-.01,0,0-.02,0-.03-.01-.07-.04-.14-.07-.21-.09,0,0-.02,0-.02,0,0,0,0,0-.01,0,0,0-.02,0-.03,0-.02,0-.04-.01-.06-.02-.02,0-.04,0-.06-.01-.01,0-.02,0-.03,0-.02,0-.03,0-.05,0-.02,0-.04,0-.06-.01,0,0-.02,0-.03,0-.02,0-.04,0-.06,0,0,0-.02,0-.03,0-.02,0-.04,0-.06,0-.51.01-1.12-.13-1.58.13-.02.02-.04.03-.06.05-.02.02-.03.03-.05.05,0,.01-.02.02-.03.03,0,0-.01.02-.02.03-.02.02-.03.05-.04.08-.25-.06-.51-.11-.77-.15-.04,0-.08-.01-.12-.02-.04,0-.08-.01-.12-.01-.02,0-.04,0-.07,0-.02,0-.04,0-.06,0-.07,0-.15-.01-.22-.02-.15-.01-.31-.02-.46-.02-.04,0-.08,0-.12,0-.03,0-.07,0-.1,0-.01,0-.03,0-.04,0-.08,0-.15,0-.23.01-.04,0-.08,0-.12.01,0,0,0,0,0,0-.08,0-.15.02-.23.03-.01,0-.02,0-.03,0-.03,0-.07.01-.1.02h0s-.04-.02-.06-.03-.04-.02-.07-.03c-.02,0-.04-.02-.06-.03,0,0,0,0-.01,0-.02,0-.04-.02-.06-.02-.02,0-.05-.02-.07-.02,0,0,0,0,0,0-.02,0-.04-.01-.06-.02-.02,0-.05-.01-.07-.02-.02,0-.05-.01-.07-.02-.28-.05-.59-.07-.89-.01-.02,0-.04,0-.07.01-.22.05-.43.14-.59.3,0,0-.01.01-.02.02-.03.03-.06.07-.09.1,0,0,0-.01,0-.02,0-.02,0-.03,0-.05,0,0,0-.01,0-.02,0-.02-.01-.04-.02-.06,0,0,0-.01,0-.02-.02-.05-.05-.09-.08-.13,0,0,0-.01-.01-.02,0,0,0,0-.01-.01,0,0,0-.01-.01-.01,0,0,0,0-.02-.01-.01-.01-.03-.02-.04-.03,0,0-.01,0-.02-.01,0,0-.01,0-.02-.01,0,0-.01,0-.02,0,0,0-.01,0-.02,0-.02,0-.04-.01-.07-.02,0,0,0,0-.01,0,0,0,0,0-.01,0,0,0,0,0,0,0-.01,0-.02,0-.04,0-.04,0-.08,0-.12.02-.13.05-.24.13-.33.22-.02.02-.04.05-.06.07-.02.03-.04.06-.06.09h0s-.05.08-.07.12c-.02.03-.03.06-.04.09,0,.02-.01.03-.02.05h0s-.01.03-.02.05c-.01.04-.03.08-.04.12-.01.04-.02.09-.03.13h0s0,.05-.01.07c0,.02,0,.05,0,.07s0,.05,0,.07c0,.08,0,.16,0,.23h0s-.02.04-.03.06c0,.02-.01.03-.02.05-.02.04-.03.08-.05.13,0,.01,0,.03-.01.04-.02.05-.03.1-.04.15,0,.02,0,.04-.01.05,0,.02-.01.05-.02.07,0,0,0,0,0,0,0,.02,0,.05-.01.07v.02s0,.04-.01.06c0,.02,0,.05,0,.07,0,.02,0,.04,0,.06,0,.01,0,.03,0,.04-.01.12-.02.24-.01.36,0,.02,0,.04,0,.06,0,.03,0,.06,0,.09,0,.02,0,.04,0,.06,0,0,0,0,0,0,0,0,0,0,0,0-.01.01-.02.03-.03.04-.01.01-.02.03-.03.04,0,0-.01.02-.02.03-.02.03-.04.05-.05.08,0,0-.01.02-.02.03-.02.03-.03.06-.04.08,0,.01-.01.03-.02.04,0,0,0,0,0,0,0,.01,0,.02-.01.03,0,.01,0,.02-.01.04,0,.01,0,.02,0,.03,0,0,0,.01,0,.02,0,0,0,.02,0,.03,0,.01,0,.02,0,.03,0,.01,0,.03,0,.04,0,0,0,0,0,.01h0s0,.02,0,.03c0,.01,0,.03,0,.04,0,.01,0,.02,0,.03,0,0,0,.02,0,.02-.01.35.13.7.41.91.17.13.4.2.66.19.01,0,.03,0,.04,0,.02,0,.03,0,.05,0,.01,0,.03,0,.04,0,.03,0,.07-.01.1-.02.02,0,.03,0,.05-.01.01,0,.02,0,.04,0,.02,0,.04.02.06.02.2.05.42.06.63.05.02,0,.03,0,.05,0,.04,0,.09,0,.13-.02.01,0,.02,0,.04,0,.13-.02.25-.05.37-.1.02,0,.03-.01.05-.02,0,0,0,0,0,0,0,0,0,0,.01,0,.06.03.12.05.19.07.3.08.61.06.9-.05.17.14.38.25.6.28.11.02.22.02.33.02.23.23.56.36.89.35.25,0,.51-.1.72-.21.04,0,.09.02.13.02.19.02.38,0,.56-.05.42.17.92.1,1.3-.13.37,0,.71-.16.99-.4.03,0,.06-.01.1-.02.12-.03.23-.07.34-.12.83.07,1.4-.13,1.87-.84Zm4.73-1.77c.02.1.03.2.05.3-.11.42-.28.98.08,1.12-.12.24-.24.46-.32.63h0s-.04.08-.05.11c-.13.27-.25.54-.37.81-.17.4-.34.8-.51,1.2-.37.98-.62,1.99-1.18,2.89-.57,1.14-1.13,2.3-1.88,3.34-1.04,1.55-2.09,3.1-3.34,4.49-.7.89-1.24,1.91-2.06,2.7-.57.54-1.21,1-1.78,1.54-1.13.89-2.2,1.92-3.62,2.31-.66.23-1.32.54-2.03.46-1.55-.15-3.15-.08-4.62-.64-.52-.3-2.91-.29-2.29-1.27.37-1.06,1.43-1.68,2.14-2.51,1.08-1.33,2.19-2.65,3.47-3.79.23-.21.48-.47.76-.72,0,0,0,0,0,0,.18-.16.37-.31.56-.43.05-.03.1-.06.15-.09.13-.07.27-.13.41-.16-.24-.19-.48-.36-.75-.51-.77-.26-1.57-.31-2.38-.25h-.02c-.26.02-.52.05-.78.08-.2.02-.39.05-.59.08-.12.02-.23.03-.35.05-.06,0-.11.02-.17.03-.01,0-.03,0-.04,0-.16.03-.32.03-.48.04-.04.02-.1.03-.16.04-.02,0-.04,0-.05,0-.06.02-.12.04-.18.07-.01,0-.02.01-.03.02-.02,0-.04.02-.06.02-.14.03-.26-.02-.33-.11-.06,0-.12-.01-.18-.02-.15-.06-.29-.1-.41-.14,0,0-.01,0-.02,0-.77-.24-1.04-.11-2.02.05-.74.16-1.42.48-2.02.96-.71.43-1.4,1.01-1.91,1.63-.07.09-.14.17-.21.26-.41.5-.79,1.03-1.09,1.61,0,0,0,.02,0,.03-.02.07-.06.14-.11.19.36.34-.21.87-.54.47-.33-.31-.67-.61-1.02-.91-.06,0-.12-.03-.18-.07-.17-.17-.34-.34-.51-.52,0,0,0,0,0,0-.28-.24-.55-.48-.82-.72-.09.03-.19.03-.28-.03-.98-.83-1.75-1.88-2.53-2.91-.1.04-.21.03-.32-.06-.93-.83-1.85-2.02-2.66-3.37-.56-.17-.89-1.23-1.16-1.71-.05-.11-.1-.22-.15-.33-.03-.07-.06-.13-.09-.2-.04-.09-.08-.17-.11-.26-.04-.1-.09-.21-.13-.31-.01-.03-.03-.06-.04-.1-.06-.14-.11-.27-.17-.41-.08.01-.17,0-.28-.04-.08-.07-.15-.17-.21-.28-.31-.51-.52-1.37-.69-2.21-.08-.42-.15-.83-.21-1.18,0-.02,0-.04-.01-.07,0-.02,0-.04,0-.05,0,0,0-.02,0-.03-.03-.17-.05-.32-.08-.45,0-.01,0-.03,0-.04-.47-.22-.21-.89-.34-1.3-.05-.02-.09-.06-.12-.1,0-.12,0-.25-.04-.36.01-.03.03-.07.06-.09,0-.09.01-.18.07-.25.31-.39.6-.79.9-1.19.2-.27.41-.53.6-.8.1-.16.19-.35.38-.4.12-.27.32-.52.58-.65-.08-.28.21-.69.29-.96-.37-.23-.04-.65.09-.93.38-.72.74-1.44,1.16-2.14-.13-.18-.04-.4.11-.54.22-.27.42-.55.63-.83.26-.35.53-.69.77-1.05.06-.1.12-.21.24-.25.6-.74,1.24-1.45,1.89-2.14.48-.5.93-1.08,1.49-1.49.17-.69,2.54-1.34,2.98-1.61.32-.15.65-.27.99-.35.12-.01.24-.02.36-.02.53-.04,1.07-.13,1.61-.17.73.04,1.45.21,2.12.51.05.03.12.05.18.08.2.15.39.33.56.52,0,.01,0,.03,0,.04-.08.32-.44.31-.67.16-.28-.13-.56-.24-.83-.33.82.42,1.56,1.02,2.17,1.7.11.13.22.27.33.4.1-.08.23-.11.36-.05.06.1.14.18.24.21,0,0,0,0,.01.01.03.11.1.2.19.27.03.02.06.04.09.06.06.08.12.16.17.24.06-.08.12-.15.19-.22h0s.06-.03.09-.06c.05-.04.09-.08.12-.13.22-.17.47-.32.69-.49.64-.5,1.26-1.02,1.9-1.53.89-.71,1.96-1.14,3.03-1.52,1.53-.54,3.24-.19,4.56.7,2.31,1.13,2.63,2.64,4.11,4.46.88,1.09,1.7,2.27,2.25,3.57.54,1.55,1.2,3.02,1.96,4.47.53,1.33,1.47,2.41,2.56,3.3.09-.12.26-.19.41-.12.37.18.71.41,1.1.53.06,0,.13.02.19.05.03.05.06.09.09.14.01.03.03.05.04.08Z"/>
  <path class="cls-7" d="m20.89,48.36c-.12-.01-.23-.08-.32-.16-.05.03-.1.05-.15.07-.2.06-.41-.02-.56-.14-.28.14-.61.1-.86-.1-.03.02-.06.03-.09.04-.26.34-.81.01-.96-.28-.44-.34-.57-.9-.32-1.4.14-.31.51-.42.82-.46.01-.01.02-.03.04-.04-.11-.4.38-.5.67-.57.35-.06.76-.29,1.09-.05.15-.05.32-.02.43.09.47.22.06.66-.07.95.25.29.35.66.49,1.01.39.28.41,1.09-.2,1.05Z"/>
  <path class="cls-7" d="m39.93,47.79c-.17-.1-.27-.19-.39-.31-.08.03-.18.04-.26,0-.09.06-.19.08-.3.06-.1-.02-.18-.08-.25-.15-.31.16-.59-.12-.74-.37-.16.06-.34.04-.48-.06-.47.07-.68-.47-.77-.85-.36-.55-.46-1.59.21-1.94.18-.36.68-.42,1.03-.53.32-.2.71-.32,1.09-.26.25-.16.6-.14.88-.06.27-.08.65-.26.87,0,.15.18.08.45-.12.56-.69.38-.91,1.3-.79,2.04.1.49.42.89.61,1.34.12.34-.23.72-.57.52Z"/>
  <path class="cls-6" d="m26.81,64.49c.05-.79.5-1.51.74-2.26.54-1.1.72-2.75,2.1-3.1.45-.13.64.54.2.68-.17.06-.35.12-.49.24-.38.4-.53.96-.75,1.46-.36.88-.71,1.76-1.02,2.65-.08.24-.04.58-.36.63-.19.03-.37-.11-.41-.3Z"/>
  <path class="cls-6" d="m26.68,69.26c-.44-.34-.35-1.12-.4-1.61-.12-.51-.08-.96-.21-1.45-1.19-.35.3-6.16,1.26-6.61.78-1.65,2.81-2.37,4.46-2.81.43-.09,1.14-.53,1.53-.28.83-.34,1.13.45.32.8.01.03.02.07.02.11,0,.08-.03.16-.07.22.25-.27.77-.32.79.15.26-.16.64,0,.61.33.36-.28.71-.59,1.12-.82.26-.16.61.09.53.39-.11.29-.42.44-.61.67.12-.02.25.04.32.13.04.05.06.1.07.16.19-.09.44.03.5.23.09.37-.34.53-.56.73-.73.58-1.38,1.26-2.03,1.94-.98,1.04-1.81,2.16-2.58,3.35-.43.54-1.26,2.43-1.86,2.48-.08.08-.18.14-.29.17-.22.27-.39.66-.73.8-.11.19-.29.37-.52.35-.16.35-.69.51-.9.12-.12.29-.43.62-.76.44Zm6.7-11.46s.05-.04.07-.06c-.03.01-.05.02-.08.03,0,.01,0,.02,0,.03Z"/>
  <path class="cls-6" d="m35.98,59.25c-.1-.13-.1-.31,0-.44-.15-.12-.19-.34-.09-.5-.43.06-1.2.56-1.46.01-.22.06-.44.18-.67.13-.23-.05-.33-.32-.23-.52-.27-.02-.44-.37-.27-.58.58-.46,1.4-.81,2.14-.89.42-.11,1.35-.85,1.52-.12.08-.03.17-.06.25-.08.16-.04.35.03.42.19.26-.15.65,0,.61.34.26-.11.65-.22.77.13.51-.28.94.38.39.63-.52.14-.94.41-1.38.68-.39.26-.78.51-1.15.8-.24.19-.58.56-.86.22Z"/>
  <path class="cls-8" d="m35.95,59.75c-.38-.45.35-.75.61-1.03.71-.52,1.28-1.23,2.04-1.68.28-.14.6.18.47.46-.05.14-.19.19-.3.26-.21.16-.41.34-.6.51-.55.5-1.13.96-1.69,1.44-.14.15-.38.18-.53.03Z"/>
  <path class="cls-8" d="m26.83,69.1c-.26-.03-.57-.18-.49-.49.04-.18.25-.32.43-.26.63.17,1.55-.42,2.01-.83,1.82-1.86,3.24-4.07,5.09-5.91,1.36-1.73,2.73-3.57,4.74-4.58.91-.44,1.21.67.44.62-1.81.75-3.1,2.49-4.29,3.99-.82,1.03-1.82,1.92-2.59,2.99-.7.86-1.34,1.76-2.12,2.55-.76,1-1.9,1.93-3.21,1.91Z"/>
  <path class="cls-8" d="m27.28,68.85c-.3-.04-.8-.11-.71-.53.05-.18.24-.31.43-.26.29.11.65.08.88-.14.7-.65,1.31-1.4,1.95-2.11.75-.96,1.38-2.02,2.19-2.94.91-.99,1.73-2.04,2.72-2.94.99-1.13,2.13-2.13,3.45-2.85.19-.11.4-.17.61-.24.18-.06.39.06.44.24.09.34-.26.46-.52.53-1.47.7-2.58,1.83-3.67,2.99-1.3,1.29-2.52,2.67-3.6,4.15-.58.87-1.24,1.72-1.94,2.49-.64.64-1.22,1.62-2.23,1.6Z"/>
  <path class="cls-8" d="m29.28,61.97c-.67-.38.97-1.93,1.23-2.32,1.82-2.38,3.23-2.74,5.94-3.62.19-.05.39.06.44.24.11.43-.4.47-.7.58-1.08.44-2.27.66-3.23,1.35-.93.65-1.64,1.58-2.36,2.43-.21.25-.41.5-.59.77-.18.26-.32.78-.73.57Z"/>
  <path class="cls-8" d="m29.32,62.08c-.66-.36.88-1.77,1.11-2.15,1.41-1.71,3.24-2.99,5.35-3.66.44-.13.64.54.2.68-1.98.64-3.65,1.8-4.97,3.39-.35.43-.68.79-.98,1.23-.17.25-.34.71-.71.51Z"/>
  <path class="cls-8" d="m25.85,61.01c-.14-.14-.14-.36,0-.5.31-.33.59-.68.9-1.01,1.05-1.17,2.38-2.07,3.9-2.49.99-.27,2.02-.67,3.06-.57.46.06.39.75-.08.71-.92-.06-1.83.29-2.71.53-1.01.32-2.01.73-2.79,1.47-.34.31-.68.63-.99.97-.32.27-.83,1.32-1.29.9Z"/>
  <path class="cls-5" d="m43.68,59.54c-.41-.11-.71-.55-.63-.97.05-.31.28-.53.41-.81-.1-.28-.03-.61.17-.84.07-.26.13-.52.2-.78.23-.92,1.19-3.27,2.42-2.35.42-.27,1-.1,1.2.37.25.7-.44,1.3-.75,1.87-.33.83-.64,1.66-1.1,2.42-.16.3-.48.5-.45.87.04.3-.1-.12-.1-.23-.14.1-.31.15-.49.19,0,0,0,0,0,0-.24.21-.57.33-.88.24Z"/>
  <path class="cls-5" d="m18.94,42.21c.03-.15.11-.29.23-.37-.03.15-.11.28-.23.37Z"/>
  <path class="cls-5" d="m14.6,47.58c.14.52.14,1.27-.09,1.82-.22.53-.65.88-1.36.66-.34-.13-.7-.23-.89-.58-.37-.51-.65-1.02-.78-1.64-.24-.49-.58-1.54-.31-2.1.03-.06.07-.12.12-.17.07-.05.14-.11.21-.16.08-.06.16-.11.24-.16.02-.01.04-.02.06-.03.08-.04.16-.07.25-.1.03,0,.07-.01.1-.02.06,0,.12-.01.18,0h0s.03,0,.05,0c.01,0,.03.01.04.02.06.03.13.06.21.09h0s.06,0,.09,0c.25.12.51.31.75.55.04.04.08.08.12.13.02.02.04.04.06.06.04.04.07.09.11.13.42.51.74,1.1.83,1.49,0,0,0,0,0,0Z"/>
  <path class="cls-5" d="m10.99,52.34c-1.44-.4-2.79-1.54-3.12-3.04-.65-2.25,1.01-5.73,3.72-4.55.71.45,1.21,1.2,1.49,1.98-.31-.3-.67-.58-1.06-.78-1.91-.94-2.47,1.46-2.09,2.87.2.82.93,1.36,1.59,1.82,1.07.44,3.01.48,3.7-.61-.15,1.77-2.72,2.63-4.24,2.31Z"/>
  <path class="cls-5" d="m14.14,51.73c-.31-.05-.64-.13-.92-.26-.3-.37-.41-.42.11-.25.59-.07,1.15-.24,1.67-.54.26-.14.56-.22.76-.44.01-.01.02-.04.04-.04.03.39-.2.73-.45,1.01-.31.34-.75.57-1.22.52Z"/>
  <path class="cls-5" d="m12.54,51.84c-.22-.03-.45-.15-.59-.33,0-.01-.02-.03-.03-.04-.39.35-1.08.31-1.4-.12-.19-.36-.41-.69-.5-1.1-1.01-.17-.97-1.58-.83-2.37-.22-.94-.08-2.58,1.2-2.5.59-.45,1.53,0,1.45.77.25.03.49.15.64.35.02.02.03.04.04.06.59-.2.99.15,1.29.61.41,0,.78.28.92.65.19.33.4.64.49,1.02.33.64.68,1.62.02,2.17-.27.21-.64.27-.95.12-.03,0-.07.01-.1.02-.02,0-.03,0-.05,0-.04.03-.08.06-.13.08-.15.08-.33.12-.5.12-.22.31-.6.52-.98.47Z"/>
  <path class="cls-5" d="m13.72,45.96s-.04,0-.06-.01c-.02,0-.03,0-.05-.01-.1-.02-.2-.04-.29-.07-.18-.04-.35-.09-.52-.16-.09-.01-.2-.06-.32-.13-.24-.13-.51-.31-.72-.34-.09-.01-.16,0-.22.07.01-.09.05-.17.12-.22.06-.05.14-.07.22-.06.03,0,.07,0,.1,0,.13,0,.25.03.37.06h0s.06.02.08.03c.06.03.13.06.21.09h0c.3.14.58.34.84.55.04.03.08.07.12.1.04.04.08.07.12.11Z"/>
  <path class="cls-5" d="m14.41,46.46c-.21-.15-.42-.27-.65-.39-.05-.02-.1-.05-.15-.07-.1-.05-.2-.09-.3-.14-.3-.13-.61-.25-.91-.39,0,0-.02,0-.02-.01-.18-.09-.39-.15-.57-.26-.06-.03-.12-.07-.17-.12-.05-.04-.1-.09-.13-.15.13,0,.25.01.37.02.12,0,.23.02.34.03.05.04.11.07.16.1.01,0,.03.01.04.02.06.03.13.06.21.09h0s.06,0,.09,0c.08,0,.14-.03.19-.07.21.06.41.15.6.27.34.22.64.55.9,1.06Z"/>
  <path class="cls-5" d="m60.01,46.96s0,0,0,0c-.11-.05-.21-.1-.32-.14.03.05.07.1.1.14.04,0,.08,0,.11,0,.04,0,.08,0,.12,0Zm2.53.51c0,.08.01.15.01.23-.02.12-.02.27-.01.42-.01.17-.04.34-.07.51-.18,1.03-.41,2.2-1.32,2.83-.59.83-1.67,1.72-2.73,1.2-.19.02-.36,0-.52-.06-.45-.16-.82-.57-1.13-.93-.79-.41-.77-1.49-.77-2.26-.22-.36-.27-.81-.22-1.26.02-.15.05-.3.08-.45.05-.2.11-.39.18-.57.07-.12.15-.24.23-.36h0c.15-.21.31-.42.49-.61.14-.02.27-.12.3-.26,0-.02,0-.04.01-.05.1-.1.2-.19.31-.28.4-.21.82-.42,1.29-.44,1.06-.08,2.2-.09,3.13.5.2.21.35.45.47.71.03.11.05.22.08.31-.01.28-.12.7.19.81Z"/>
  <path class="cls-5" d="m56.93,52.93c-.91-.14-1.37-.98-1.72-1.73-.53-.88.27-2.75.87-3.48.36-.5.82-.98,1.42-1.17.1-.07.18.03.21.12.26-.23.54-.48.91-.51.27-.14.57-.22.88-.21,1.14.03,1.92,1.3,1.68,2.36-.11.42-.34.8-.62,1.12-.08.28-.22.55-.42.77-.33,1.01-.96,2.06-2.09,2.25-.23.35-.68.55-1.1.49Zm.72-2.35c.08,0,.17-.03.24-.08-.4-.35-.56-.89-.64-1.4-.33-.76-.25-1.74.35-2.35-.01-.01-.02-.02-.03-.04-.89.65-1.16,1.95-.85,2.97.39.24.38.92.93.89Z"/>
  <path class="cls-1" d="m53.9,59.14c-.25-.22-.46-.49-.72-.7-.51.07-.93-.35-1.15-.77-.51-.32-.71-1.25-.08-1.55.28-.61,1.13-.79,1.63-.34.04-.04.08-.07.13-.11-.01.04-.05.1-.08.15.41.36.64,1,.44,1.53.02.33-.11.66-.36.87.25.36.29.88.67,1.13,0,0,.03,0,.03,0-.18.05-.38-.12-.5-.22Z"/>
  <path class="cls-1" d="m54.68,59.21c-.51-.57-.92-1.27-.99-2.05.5.58.83,1.31.99,2.05Z"/>
  <path class="cls-1" d="m54.52,60.16c-.66.04-1.52-2.03-1.19-2.55-.45-.98.7-1.87,1.37-.94,0,0,0,0,0,0,.24.7.67,1.36.74,2.12.03.23.03.47-.03.7.07.3.05.6-.25.78-.2.12-.48.07-.64-.09Z"/>
  <path class="cls-1" d="m55.25,54.55c-.17-.07-.28-.28-.2-.46.15-.28.35-.79.75-.59.16.09.24.32.13.48-.17.24-.3.71-.68.56Z"/>
  <path class="cls-1" d="m52.8,56.76c-.15-.02-.26-.13-.3-.26-.34-.32.1-.68.29-.95.29-.37.56-.76.86-1.12.21-.47.32-.98.48-1.47.07-.24.14-.59.45-.6.08-.29-.06-.7.24-.86.07-.19.3-.3.49-.22.46.28.39,1.33.61,1.8.07.18-.06.39-.24.44-.29.09-.46-.19-.5-.44-.1.43-.21.87-.4,1.27.31.28-.41,1.48-.79,1.4-.07.07-.15.11-.24.13-.31.27-.48.88-.94.88Z"/>
  <path class="cls-1" d="m55.61,53c-.27-.5-.47-1.03-.68-1.56-.07-.18,0-.39.18-.47.17-.07.4,0,.47.18.19.5.39.99.63,1.47.24.4-.37.77-.61.37Z"/>
  <path class="cls-1" d="m55.23,51.97c-.05-.16-.11-.33-.18-.49-.44-.19-.15-1.05.33-.79.32.25.38.71.53,1.07.13.44-.54.64-.68.2Z"/>
  <path class="cls-1" d="m57.53,59.51c-.43-.11-.68-.54-1-.82-.5-.4-1.03-.75-1.48-1.22-.11-.02-.21-.07-.29-.14-.05-.05-.09-.1-.13-.15-.09,0-.18-.01-.26-.05-.55.2-1.18-.09-1.1-.73.06-.49.42-.87.65-1.29.14-.4.31-.79.55-1.14.15-.5.41-1,.86-1.3-.06-.3-.22-.79.21-.87.34-.05.43.31.46.57.19-.25.51-.09.73.03.41.19.8.44,1.24.56,1.72.29,1.69,1.24,3.08,1.11.39-.05.78-.11,1.13-.28.23-.18.63-.35.8,0,.1.19-.05.42-.15.55-.82,1.28-2.25,2.26-3.81,2.17.61.37,1.29.57,1.99.65.59.05,1.26-.2,1.79.16.6.47-.21,1.01-.64,1.22-.88.38-1.96.4-2.85.04-.72-.34-1.46-.66-2.11-1.1.16.46,1.38,1.96.34,2.02Zm3.47-1.4c.33-.03.67-.09.96-.27-.9.1-1.81-.03-2.65-.38-.58-.21-1.76-.94-.91-1.56.35-.16.75-.08,1.13-.11.8-.11,1.56-.51,2.11-1.1-2.13.44-2.05-.69-3.8-1.04-.21.12-.4-.04-.55-.17-.14-.04-.29-.08-.43-.13.17.34.04.9-.42.88-.01.11-.05.22-.09.33.22.53-.12,1.05-.45,1.45-.08.22-.19.4-.33.57.04.07.07.14.09.22.02.08.03.19,0,.28.3.26.53.53.88.72-.52-.8-.11-2.04.85-1.06.45.41,1.05.61,1.57.91.63.33,1.31.55,2.03.46Z"/>
  <path class="cls-1" d="m56.29,58.25c-.1,0-.2-.02-.28-.08-.12-.09-.18-.24-.21-.39-.03-.02-.05-.04-.07-.07,0,0,0-.01-.01-.02-.21.16-.55.12-.66-.14-.15-.64.4-1.22.43-1.84.17-.77.32-1.6.8-2.25.22-.36.84-.54,1-.03.07,0,.13.03.19.07.04,0,.09,0,.13,0,.04,0,.07.02.1.04.18-.64,1.4-.01,1.77.2.2-.25.81.02.94.24.17.08.26.24.27.42.03,0,.05,0,.08,0,.1,0,.19,0,.29,0,.07-.05.14-.09.23-.1.17-.03.35.08.41.24.55.34-.05.92-.46,1.04-.32.18-.63.63-1.05.43-.13.05-.27.05-.39-.03-.19.27-.58.61-.89.3-.1.06-.22.07-.33.03-.19.17-.53.13-.63-.12-.07,0-.14,0-.21-.02-.03-.01-.06-.03-.08-.05-.22.66-.6,1.94-1.36,2.12Z"/>
  <path class="cls-1" d="m59.26,58.27c-.1-.02-.19-.07-.25-.15-.02-.02-.03-.05-.04-.08-.1-.03-.19-.09-.25-.18,0,0,0,0,0,0-.08.02-.16,0-.24-.02-.09-.03-.15-.1-.19-.18-.04,0-.09,0-.13-.03-.02-.01-.05-.02-.07-.04-.24.18-.6-.03-.58-.32-.1-.07-.16-.18-.16-.3,0-.1.02-.21.05-.31-.26-.32.05-.66.3-.85.28-.29.77.08.56.43,0,.03,0,.05-.01.08-.01.04-.02.08-.04.12.04.04.07.09.09.15,0,0,0,0,0,0,.09.03.17.1.22.19.04,0,.08,0,.12.01.2-.25.49-.1.65.1.54.31,1.11.55,1.72.63.19-.15.47-.26.67-.06,0,0,0,0,0,0,.1-.05.22-.05.32-.01.01,0,.03.01.04.02.35-.11.68.32.4.6-.18.17-.43.13-.65.15-.17.1-.39.16-.56.03-.16.03-.34.14-.51.02-.11.05-.22.09-.33.08-.08,0-.15-.04-.21-.08-.06.03-.13.04-.21.03-.04,0-.08-.02-.12-.04-.17.12-.44.15-.59,0Z"/>
  <path class="cls-1" d="m10.38,56.91c-.45-.21-.08-.7.05-1.01.27-.59.41-1.24.44-1.89.05-.55-.19-1.09-.09-1.64.05-.46.75-.39.71.08-.08.41.1.81.09,1.23.02.58-.07,1.15-.22,1.71-.09.38-.25.73-.42,1.08-.08.25-.25.57-.56.44Z"/>
  <path class="cls-1" d="m13.96,60.66c-.17-.39.21-.8.31-1.18.29-.68.42-1.45.33-2.19-.49.95-1.22,1.78-2.2,2.24-.59.3-1.22.48-1.83.73-.2.08-.44.24-.64.07-.13-.11-.19-.3-.1-.46,1.24-1.09,1.79-2.09,2.32-3.64-.21,0-.37-.2-.34-.41-.14.45-1.31,1.68-1.55.82-.03-.2.11-.36.19-.53.24-.49.45-1.01.55-1.55.18-.65-.3-1.37.01-1.97.25-.4.79-.3,1.05.04.01-.19.2-.38.4-.38,1.16.19,2.41-1.28,3.06-.86.2.2.25.52.4.76.32.58.66,1.04,1.06,1.55.71.9,1.26,1.93,2.04,2.77.38.62,1.18.91,1.41,1.61.16.62-.65,2.56-1.42,1.72-.16-.25-.13-.56-.2-.83-.06-.25-.11-.5-.17-.74,0,0,0,0,0,0-.24.61-.73,1.88-1.48,1.93-.37.19-.59-.2-.55-.53-.04-.38-.1-.76-.2-1.13,0,0-.02,0-.02,0-.14,0-.26-.06-.33-.17-.27.55-.66,1.04-.97,1.57-.25.34-.63,1.32-1.13.76Zm3.24-2.42c.15.29.19.62.19.94.28-.4.5-.88.64-1.33.12-.3.17-.71.49-.86-.59-.64-1.07-1.38-1.56-2.1-.64-.92-1.43-1.76-1.86-2.8-.71.37-1.42.83-2.24.89.19.93.36,1.89.16,2.83-.33,1.18-.78,2.38-1.53,3.36,1.31-.43,2.16-1.43,2.72-2.66.08-.18.26-.3.46-.28.78.23.67,1.33.64,1.98.2-.32.24-.7.38-1.04.08-.16.26-.24.44-.26.57-.07.75.61.87,1.04.08.08.14.19.19.28Zm2.33.74c.31-.56.3-.84-.26-1.21.09.41.19.8.26,1.21Z"/>
  <path class="cls-1" d="m17.08,59.77c-.08-.1-.11-.22-.14-.34-.42,0-.42-.52-.47-.82-.07,0-.14,0-.2-.04-.06-.03-.11-.07-.14-.13-.1.04-.23.02-.32-.03-.2,1.09-1.04.86-.9-.19-.62.22-.57-.5-.53-.9-.02,0-.03,0-.05,0-.1.18-.22.4-.45.41-.14.34-.23.7-.32,1.06-.09.39-.69.33-.7-.07-.13.09-.3.12-.44.03-.05.17-.08.36-.16.52-.27.42-.83.04-.62-.39-.32-.18-.17-.6-.12-.88.06-.68.16-1.35.34-2.01.21-.56.73-3.95,1.66-3.17.04-.03.08-.04.12-.05.11-.33.28-1.01.75-.69.19-.09.38-.19.59-.2.78-.67,1.3.78,1.33,1.38.61.5,1.09,1.13,1.56,1.75.56.45.89,1.1,1.26,1.7.22.24.42.49.58.78.08.12.18.26.17.41.11.35.21.85-.07,1.14.02.47-.67.51-.71.04-.16-.18-.09-.44-.11-.65-.1-.39-.26-.75-.47-1.09,0,0,0,0-.01.01.09.23-.07.5-.32.5-.03.02-.06.04-.1.06,0,.12,0,.23-.01.35-.01.1-.05.18-.12.25-.02.47-.12,1.85-.87,1.28Zm-1.71-7.04s.05-.03.08-.05c0-.02-.02-.04-.03-.06-.02-.03-.03-.06-.05-.09,0,0,0,0,0,0,0,.06,0,.12,0,.19,0,0,0,0,0,0Z"/>
  <path class="cls-1" d="m10.94,59.54c-.23-.08-.3-.41-.12-.58.03-.03.07-.06.11-.09-.09-.3.22-.53.38-.74.19-.27.64-.12.64.2.27.07.34.45.12.62-.11.09-.25.13-.36.22-.25.14-.45.49-.76.37Z"/>
  <path class="cls-1" d="m66.97,38.47s0,0,0,0c0,0,0,0,0,0Z"/>
  <path class="cls-1" d="m40.07,25.94c.1,0,.18-.09.17-.18,0-.1-.09-.17-.18-.17s-.18.09-.17.18c0,.1.09.17.18.17Zm30.09,13.92c.43-.03,1.07.13.75.69-.08.13-.24.19-.39.21-.4.14-.83.23-1.25.14-.33-.06-.66-.15-.98-.25-.02.02-.05.03-.07.05-.94.23-1.92-.1-2.79-.44.25.3.61.47.97.6.59.25,1.19.52,1.72.88.26.2.65.33.73.68.06.95-1.88.78-2.54.89-.76,0-1.43-.38-2.03-.8.08.42.1.85.23,1.25.39,0,.59.46.86.69.14.19.41.37.49.59.17.05.34.1.44.25.22.13.28.46.07.62-.08.06-.17.08-.26.08-.04.1-.13.16-.23.19.22.25.45.47.68.71.29.54-.35.76-.77.55-.47-.2-.95-.34-1.41-.55-.45-.25-.82-.6-1.21-.93.06.47.17.92.42,1.34.43.75.96,1.46,1.69,1.92.61-.46.92.61.18.7-.27.19-.65.16-.97.22-.41.06-.84.15-1.25.07-.7-.2-.96-.62-.73-1.32.08-.19.05-.48.03-.74,0-.15-.01-.3.01-.42.02-.08.04-.15.09-.21,0,0,0,0,0,0-.03,0-.06-.01-.09-.02-.31-.11-.2-.54-.19-.81-.03-.1-.05-.21-.08-.31-.07-.25-.16-.5-.37-.64-.03-.02-.06-.04-.1-.06-.93-.59-2.07-.58-3.13-.5-.47.02-.88.23-1.29.44-.08.04-.15.08-.23.12-.02.01-.04.02-.06.03,0,.04-.02.08-.02.13,0,.02,0,.04-.01.05-.03.14-.16.25-.3.26-.04,0-.09,0-.13,0-.01,0-.02,0-.04-.01-.36-.13-.19-.7-.08-1.12-.02-.1-.03-.2-.05-.3-.01-.03-.03-.05-.04-.08-.03-.05-.05-.1-.09-.14,0,0,0,0,0,0-.02-.03-.04-.05-.06-.08-.02-.02-.05-.05-.07-.07,0,0-.01-.01-.02-.02h-.02c-.1-.06-.2-.12-.29-.19-.1-.08-.19-.17-.29-.25-.14-.12-.28-.23-.42-.34-.09-.07-.17-.15-.25-.23-.1-.11-.2-.23-.29-.34-.04-.06-.09-.11-.13-.17-.15.09-.36.08-.47-.08-.52-.74-1.06-1.47-1.47-2.28-.66-1.38-1.13-2.85-1.83-4.21-.43-.84-.93-1.64-1.48-2.41-.28-.5-.55-1.01-.81-1.52-.15-.21-.31-.41-.47-.61-.21-.26-.41-.53-.61-.8-.2-.27-.4-.54-.6-.8-.16-.21-.32-.41-.5-.61-.12-.13-.26-.26-.39-.38-.15-.14-.28-.29-.42-.41h0c-.09-.08-.19-.16-.28-.24-.1-.09-.2-.18-.3-.26-.19-.16-.4-.32-.57-.44-.02-.01-.05-.03-.06-.04-.15-.09-.3-.18-.45-.26-.16-.07-.33-.13-.5-.19-.15-.05-.3-.08-.4-.1-.06-.01-.12-.02-.16-.03-.1-.02-.19-.03-.29-.05-.34-.06-.67-.1-1.01-.12-.53,0-1.06.04-1.58.09-.28.03-.55.07-.82.13-.19.05-.38.1-.57.17-.26.1-.51.21-.75.33-.23.12-.47.25-.7.37-.22.12-.43.25-.64.38-.15.09-.31.18-.46.28,0,0,0,0,0,0-.07.07-.15.14-.23.21-.09.07-.18.15-.27.22-.09.07-.18.14-.26.22-.34.39-.76.76-.9.92-.14.15-.31.43-.51.59,0,.05-.03.1-.06.14-.02.02-.04.05-.06.07-.04.05-.08.09-.12.13-.03.02-.06.04-.09.06h0c-.07.03-.14.04-.22.04-.05,0-.1-.02-.15-.05-.03-.02-.06-.04-.09-.06-.09-.07-.16-.16-.19-.27,0,0,0,0,0-.01,0,0,0,0-.01,0-.1-.02-.18-.11-.24-.21-.07-.11-.12-.25-.17-.36-.36-.52-.74-1.08-1.19-1.56-.18-.19-.36-.36-.56-.52-.24-.18-.49-.34-.77-.45-.5-.16-1.02-.17-1.54-.13-.54.04-1.08.13-1.61.17-.12,0-.24.01-.36.02-1.1.09-2.14.38-3.11.91-2,1.16-3.56,2.88-4.89,4.75-.88.94-1.47,2.03-2.1,3.14-.66,1-1.06,2.12-1.57,3.19-.14.29-.3.58-.46.86.07.07.12.17.1.29-.11.39-.36.74-.52,1.11-.24.37-.34,1-.83,1.1-.07,0-.13-.02-.19-.05-.02.04-.04.08-.06.13.15-.03.3.03.4.23,0,0,0,.02,0,.03.04.12.03.24.04.36,0,.05,0,.09,0,.14.04.31.12.84-.14,1.03-.05.04-.12.06-.19.07-.03,0-.06,0-.09,0h0c-.08-.02-.15-.05-.21-.09-.01,0-.03-.01-.04-.02-.06-.03-.11-.07-.16-.1-.12-.08-.24-.17-.39-.23-.83-.33-1.87-.34-2.68.03-1.5.83-.8,3.22-3.82,3.13-.76-.1-1.74-.68-1.88-1.48-.05-.19.05-.38.24-.44.08-.02.14-.02.2,0,.07-.04.16-.05.27-.04,1.05.11,2.38,0,2.7-1.16-.25-.19-.51-.35-.83-.4-.53-.08-2.05-.22-1.75-1.03.52-.58,1.48.15,1.93-1.08-.49-.6-1.39-.65-2.04-1.03-.61-.31-1.18-.65-1.62-1.12-.17-.27.1-.61.41-.54,1.06.15,2.54.1,3.08-.99,0,0,0,0,0,0-.23-.19-.53-.19-.84-.18-.2,0-.4,0-.58-.05-.34-.06-.66-.17-.97-.32-.48-.23-.87-.6-1.29-.92-.27-.16-.23-.6.08-.68,1.06-.08,2.31-.02,3.08-.86-.42-.3-2.27-.27-1.49-1.1.53-.17,1.09-.22,1.58-.5,1.46-.75,2.56-2.02,3.65-3.22.8-.95,1.45-1.99,2.08-3.06.24-.08.44-.26.54-.5.01-.03.02-.06.03-.08.09-.16.18-.32.27-.47.04-.02.08-.05.11-.08h0s.01-.01.02-.02c-.23-.17-.08-.51.03-.74.05-.13.11-.29.25-.35.18-.24.28-.68.65-.66.03-.05.06-.09.09-.14,0-.03-.02-.06-.03-.08l.05-.09c.16-.18.34-.36.51-.54.32-.39.67-.75,1.03-1.09.48-.48,1-.91,1.56-1.28,0,0,0,0,0,0,.05-.04.11-.08.16-.12.77-.48,1.51-1.01,2.31-1.44.23-.09.41.04.47.21.33-.11.65-.22.99-.31.39-.25.89-.3,1.31-.48,1.13-.42,2.32-.65,3.52-.6,1.12.02,2.2.32,3.27.6.99.21,1.87.61,2.74,1.07.19.06.38.12.57.18.57.22,1.2.3,1.7.67.08.05.15.1.21.15.47-.36.94-.73,1.43-1.08.54-.41,1.15-.7,1.77-.96.39-.19.78-.38,1.18-.54-.2-.48.52-.63.84-.78.68-.24,1.39-.45,2.08-.6,2.56-.56,5.3-.63,7.75.39.26.11.27.4.13.56.73.3,1.43.67,2.13,1.03,1.56.79,3.02,1.81,4.3,3,.92.91,1.73,1.94,2.47,3,.11.02.21.09.26.2.06.14.12.28.18.42.32.41.76.96.79,1.33.99,1.37,2.11,2.69,3.49,3.67.61.41,1.31.63,1.97.93.94.44,1.92.82,2.92,1.1.52.15,1.04.29,1.57.4.34.04.8.06.87.49.03.86-1.05.93-1.65,1.14-.26.1-.52.21-.79.3.47.1.96,0,1.42.14.44.12.79.42,1.23.53.21-.1.39-.3.64-.25.4.1.31.63-.01.77-1.45.55-3.08.82-4.62.62.29.37.51.85.89,1.13,0,0,0,0,0,0,.47.38.86.91,1.37,1.24.1-.02.2,0,.3.09.03.03.05.06.07.1.09.03.18.06.28.08.39-.08.76-.17,1.16-.12Z"/>
  <path class="cls-12" d="m32.97,53.65c-1.14-.17-1.83-1.3-1.86-2.38,0-.54.27-1.06.53-1.52.96-.9-.65.63.86,2.11.67.96,1.81,1.02,2.88,1.02-.68.52-1.53.95-2.41.78Z"/>
  <path class="cls-12" d="m33.55,46.99c.08-.47.21-.91.38-1.35.21.46.05,1.08-.38,1.35Z"/>
  <path class="cls-12" d="m44.89,56.78c-.01-.18-.02-.4.14-.52.19-.18.49-.35.75-.24-.32.23-.65.46-.89.76Z"/>
  <path class="cls-12" d="m34.21,65.51c-.62-1.95,1.07-4.02,2.32-5.37,1.17-1.05,2.6-2,4.2-2.12.16-.02.32-.01.47-.07.01,0,.02-.02.03-.03.01-.03,0-.07,0-.1.24.29-.4.54-.58.69-1.27.93-2.22,2.22-3.36,3.29-1.1,1.15-2.74,2.05-3.09,3.71Z"/>
  <path class="cls-12" d="m37.45,60.01c.28-1.07,1.41-2.82,2.68-2.5-.41.15-.68.56-.95.86-.54.59-1.09,1.18-1.73,1.64Z"/>
  <path class="cls-12" d="m34.01,65.3c-1.13-1.14-.28-2.21.46-3.26.79-1.11,1.65-2.13,2.75-2.92.59-.46,1.19-.92,1.87-1.24.2-.1.4-.13.62-.17-.11.11-.24.19-.34.3-.57.66-1.11,1.35-1.61,2.08-.42.7-.8,1.43-1.39,2.01-.4.47-.9.92-1.36,1.31-.69.56-1.19.91-.99,1.89Z"/>
  <path class="cls-12" d="m34.37,66.27s-.07-.05-.11-.07c-.63.12-1.28-.37-1.5-.95-.13,0-.13-.16-.1-.26,0-.14-.02-.28-.03-.43-.33-.81.44-1.67,1.21-1.09.6,0,.93.56.91,1.11.11.37.31.71.6.97-.02-.01-.03-.03-.05-.04,0,0,0,0,0,0,.36.25.25.87-.19.98-.27.07-.52-.07-.74-.22Z"/>
  <path class="cls-12" d="m39.2,58.52s.01-.07.02-.11c-.18-.17-.1-.44.07-.59.34-.31.69-.75,1.18-.78.56.11.36.69-.06.87.09.01.26.07.23.08-.22.09-.45.21-.68.31-.21.11-.46.3-.69.15-.02.02-.05.06-.07.07Z"/>
  <path class="cls-12" d="m39.65,58.25c-.2-.12,0-.4.14-.48.47-.24,1.03-.03,1.47.17-.46.14-.99-.04-1.43.17.17.01.35,0,.51.01-.22.06-.47.22-.7.14Z"/>
  <path class="cls-12" d="m40.48,58.12c-.09-.03-.2,0-.29,0,.09-.09.14-.14.27-.19.54-.13,1.15.02,1.64.26-.54.1-1.09.1-1.62-.07Z"/>
  <path class="cls-12" d="m42.46,58.5c-.37-.2-.78-.27-1.18-.4-.34-.12-.65-.24-1.02-.17.65-.64,1.76-.08,2.19.57Z"/>
  <path class="cls-12" d="m33.03,64.87c.02-.88.61-1.75,1.44-2.05-.5.68-1.02,1.33-1.44,2.05Z"/>
  <path class="cls-12" d="m33.16,64.6c.05-.14.11-.28.2-.39-.05.14-.11.28-.2.39Z"/>
  <path class="cls-12" d="m42.53,49.73c-1.16-.08-2.47-.33-3.57-.61-1.53-.27-2.88-1.37-2.99-2.98.54,1.09,1.77,1.49,2.93,1.36.87-.03,1.77-.04,2.63.03,1.18.13,2.37.21,3.56.12.64-.07,1.28-.13,1.92-.12,1.6.1,3.1.09,4.24-1.23.14-.21.29-.42.35-.67.06.21.06.44.03.65-.33,2.27-2.74,3.2-4.78,3.28-1.47.22-2.98.26-4.47.15,0,0,.14,0,.14,0Z"/>
  <path class="cls-12" d="m21.34,50.22c-.89-.13-1.73-.52-2.43-1.08-.3-.24-.54-.5-.82-.73-.22-.45-.29-.47.14-.14,2.32.91,3.82.17,6.04-.29.92-.19,1.86-.35,2.8-.39,1.03-.08,2.73-.19,3.3-1.16.17-.27.29-.55.29-.87.14.26.22.53.18.83.06.78-.44,1.45-1.04,1.9-.95.82-2.19,1.13-3.39,1.4-1.68.32-3.37.67-5.09.53Z"/>
  <path class="cls-12" d="m58.05,52.92c-1.18-.18-2.27-.94-2.26-2.24-.06-.66.13-1.33.37-1.94.04.16.06.35.1.52.16,1.38.8,1.88,2.16,1.91,1.14.17,2.17-.35,3.03-1.05.21-.19.4-.38.56-.6,0,.45-.11.96-.32,1.35-.52,1.47-2.12,2.35-3.64,2.06Z"/>
  <path class="cls-12" d="m55.91,51.12c-.22-.21-.15-.58,0-.81.04.09.06.21.08.31.19.13.26.63-.09.5Z"/>
  <path class="cls-12" d="m11.04,51.73c-1.24-.38-2.14-1.72-2.11-3,.49.81,1.34,1.46,2.31,1.56,1.6.11,2.24-.37,2.65-1.9.22.56.41,1.17.26,1.75-.35,1.27-1.89,2-3.11,1.59Z"/>
  <path class="cls-12" d="m13.28,52.42c-.63-.07-.99-.78-.73-1.34.22-.36.46-.74.67-1.06-.24-1.27,1.54-1.69,1.77-.39.15,1.12-.36,2.84-1.72,2.79Z"/>
  <path class="cls-12" d="m14.97,40.05c1.06-1.11,1.59-2.59,2.36-3.9.78-1.3,1.54-2.66,2.65-3.72.62-.61,1.33-1.13,2.07-1.58.94-.6,1.88-1.23,2.94-1.61,2.05-.72,4.66-.83,6.37.7.31.31.54.68.82,1.02-.56-.21-1.08-.57-1.69-.67-1.87-.22-3.77.22-5.48.96-1.23.73-2.51,1.42-3.63,2.33-.75.63-1.32,1.42-1.93,2.18-.64.71-1.29,1.37-1.92,2.06-.83.76-1.53,1.75-2.56,2.24Z"/>
  <path class="cls-12" d="m20.68,32.53c-.13-1.03.99-1.95,1.67-2.6,1.57-1.48,4.34-1.84,6.27-.94-.71.05-1.39.39-2.09.54-1.55.41-3.19.7-4.53,1.62-.5.4-1.13.74-1.33,1.38Z"/>
  <path class="cls-12" d="m29.04,29.08c-1.09-.16-2.32-.65-3.32.05.49-.94,1.72-1.15,2.69-1.11.95.11,1.69.78,2.32,1.44-.57-.06-1.13-.25-1.69-.38Z"/>
  <path class="cls-12" d="m51.33,38.68c-.91-.61-1.66-1.4-2.46-2.14-1.1-.89-1.98-1.91-2.73-3.08-.63-.8-1.11-1.73-1.89-2.4-1.18-.99-2.74-1.52-4.28-1.48-1.37-.13-2.62.62-3.94.87-.66.11-1.28.37-1.89.64.36-.38.76-.76,1.22-1.03,1.04-.6,1.9-1.26,2.95-1.8,1.62-.81,3.61-.62,5.23.1,1.27.53,2.44,1.37,3.23,2.51.54.75,1.12,1.47,1.57,2.28.67,1.18,1.5,2.27,2.05,3.51.28.69.62,1.36.94,2.02Z"/>
  <path class="cls-12" d="m42.51,28.76c-.48-.09-.95-.24-1.44-.28-.37.07-.78-.17-.77-.58-.34.03-.64.1-.59.5-.59-.88,1.46-1.31,2.04-1.16.61-.05,1.41-.1,1.76.51,0,0,0,0,0,0,.36.67-.39,1.17-1.02,1.02Z"/>
  <path class="cls-12" d="m24.92,60.52c-.26-.03-.52-.1-.77-.18-.29-.1-.57-.22-.85-.36-.23-.2-.45-.39-.67-.59-.09.03-.19.03-.28-.03-.98-.83-1.75-1.88-2.53-2.91-.1.04-.21.03-.32-.06-.73-.66-1.46-1.53-2.13-2.53-.02-.04-.03-.07-.05-.11,0,0,0,0,0,0,.33.34.68.66,1.01,1,.18.18.35.35.53.53.15.15.32.29.47.43.35.3.71.58,1.07.86.19.14.37.29.56.44.09.07.17.13.26.2.09.07.18.15.27.23.18.15.35.29.53.44.16.13.32.25.48.38.39.31.74.67,1.11,1,.29.25.58.49.89.71.14.09.28.17.43.26.25.12.51.23.78.34,0,0,0,0,0,0-.04,0-.09,0-.13,0-.23,0-.46,0-.69-.03Z"/>
  <path class="cls-12" d="m25.17,61.62c-.33-.31-.67-.61-1.02-.91-.06,0-.12-.03-.18-.07-.17-.17-.34-.34-.51-.52,0,0,0,0,0,0-.17-.14-.33-.28-.49-.43.05-.08.12-.15.21-.21.17-.1.4-.12.58-.04.04.02.08.04.12.06.02,0,.04.02.06.03.31.1.63.15.93.26.23.08.44.17.65.28.1.05.2.13.29.2.05.04.09.08.14.12-.03.04-.07.08-.1.11-.12.13-.13.32-.03.46-.02.07-.06.14-.11.19.27.26.02.61-.26.61-.09,0-.19-.04-.28-.14Z"/>
  <path class="cls-12" d="m25.78,60.52c-.16-.03-.31-.06-.46-.09-.41-.08-.81-.21-1.19-.38-.25-.11-.5-.22-.74-.35-.22-.12-.44-.24-.65-.37-.48-.3-.96-.62-1.39-.99-.01-.01-.03-.02-.04-.04-.52-.59-.99-1.22-1.47-1.85-.1.04-.21.03-.32-.06-.75-.67-1.49-1.57-2.17-2.6.48.38.93.79,1.39,1.19,0,0-.01,0-.02-.01.23.2.47.39.73.57-.01,0-.02-.01-.03-.02.16.11.32.22.48.33.18.12.36.22.54.33.18.11.35.22.53.33.2.12.39.24.58.37.17.12.33.24.5.36.35.23.71.45,1.06.67.34.21.66.44.98.67.08.05.15.1.22.15-.02-.02-.05-.03-.07-.05.2.14.41.26.62.38.17.11.34.22.52.33.27.16.54.33.82.48.05.02.09.04.14.07-.16.19-.32.37-.49.55,0,0-.01.02-.02.02-.02,0-.03,0-.05,0Z"/>
  <path class="cls-12" d="m39.45,66.64c-1.33-.13-2.7-.09-3.99-.44.08-.17.08-.37-.02-.53.24.05.47.09.71.11.23.01.45,0,.68-.01.7-.06,1.39-.15,2.08-.28.16-.03.31-.08.46-.11.21-.05.41-.08.62-.12.13-.03.26-.06.39-.08.19-.04.37-.09.55-.15.12-.05.24-.1.36-.16-.03.01-.05.03-.07.04.12-.06.24-.12.35-.17.1-.05.21-.11.31-.17.15-.08.3-.15.45-.22.07-.04.15-.08.22-.13.09-.06.19-.13.28-.18.04-.03.08-.06.12-.08.12-.08.24-.16.36-.23.07-.04.13-.09.2-.13.32-.22.64-.45.93-.7-.02.02-.05.04-.07.06.2-.18.42-.34.63-.51.19-.17.37-.36.55-.54.2-.19.4-.38.59-.58.11-.13.22-.25.33-.38.19-.22.39-.44.6-.65.2-.2.4-.39.6-.59.37-.38.74-.76,1.1-1.16.04-.04.08-.09.12-.13.28-.33.54-.68.82-1.01.29-.34.55-.68.8-1.05-.02.03-.05.07-.07.1.48-.71,1.03-1.35,1.59-1.99,0,0-.01.01-.02.02,0,0,0,0,0,0,.19-.21.37-.43.56-.64-.03.03-.06.06-.08.09.06-.07.11-.13.17-.2.09-.1.17-.21.25-.32.21-.33.41-.65.62-.97.21-.31.42-.63.62-.95.21-.33.42-.65.65-.96-.17.44-.36.87-.61,1.27-.57,1.14-1.13,2.3-1.88,3.34-1.04,1.55-2.09,3.1-3.34,4.49-.7.89-1.24,1.91-2.06,2.7-.57.54-1.21,1-1.78,1.54-1.13.89-2.2,1.92-3.62,2.31-.58.2-1.17.47-1.79.47-.08,0-.16,0-.24-.01Z"/>
  <path class="cls-12" d="m24.18,43.39c-.18-.01-.37-.03-.55-.06-.18-.03-.35-.08-.52-.11,0,0,0,0,.01,0-.12-.02-.24-.05-.36-.08,0,0,0,0,0,0-.09-.02-.18-.03-.27-.05-.04,0-.09-.02-.13-.04-.04-.02-.07-.07-.09-.11,0,0,0,0,0,0,0,0,.02.01.02.01h0s.03.02.04.03c0,0,.02,0,.03.01,0,0,.01,0,.02,0,.02,0,.03,0,.05,0h0c.14-.01.28-.04.41-.05.13-.01.26-.03.39-.05.27-.03.54-.05.81-.11h-.04c.2-.03.39-.08.58-.15.28-.1.55-.22.83-.31-.01,0-.03,0-.04.01.34-.12.68-.23,1.03-.34.17-.05.34-.09.5-.14.15-.05.31-.1.46-.15.27-.09.55-.16.83-.24.13-.04.26-.08.39-.12.14-.04.28-.08.42-.12,0,0,0,0,.01,0,0,0-.01,0-.02,0,0,0,.01,0,.02,0,0,0,0,0,0,0,0,0,0,0,0,0,0,0,0,0,0,0,0,0,0,0,0,0,0,0,0,0,0,0,.02,0,.05-.02.07-.03-.01,0-.02,0-.03.01.19-.07.38-.14.57-.2.3-.11.59-.24.88-.38,0,0,0,0,0,0-.15.17-.31.34-.47.49-.12.11-.25.21-.38.3-.24.17-.47.36-.73.5-.26.14-.51.3-.78.42-.13.06-.25.12-.38.17-.14.06-.28.14-.43.19-.61.24-1.25.41-1.89.54.02,0,.04,0,.06-.01-.09.02-.18.04-.27.05.01,0,.03,0,.04,0-.2.04-.4.09-.59.11-.11.01-.22.02-.33.02-.06,0-.13,0-.19,0Z"/>
  <path class="cls-12" d="m23.1,43.21s0,0,0,0c0,0,0,0,0,0Z"/>
  <path class="cls-12" d="m25.38,42.34s-.01,0-.02,0c0,0,.01,0,.02,0Z"/>
  <path class="cls-12" d="m29.03,41.22s0,0,0,0c0,0,0,0,0,0Z"/>
  <path class="cls-12" d="m45.29,42c-.36-.02-.71-.04-1.07-.04-.16,0-.32,0-.48,0-.2,0-.4,0-.6,0-.56-.01-1.11-.06-1.67-.12-.48-.06-.97-.11-1.44-.21-.25-.05-.51-.11-.75-.19-.09-.03-.19-.07-.28-.1-.1-.04-.2-.07-.28-.13,0,0,.02.01.03.02-.06-.03-.11-.07-.17-.1-.09-.05-.18-.1-.26-.16-.05-.04-.11-.09-.16-.14-.1-.09-.19-.19-.29-.28-.03-.03-.06-.05-.08-.09-.07-.11-.14-.23-.21-.34,0,0,0,0,0,0,.11.09.23.18.34.27,0,0,0,0,0,0,.05.02.09.04.13.06,0,0,0,0,0,0,.01,0,.02.01.04.02,0,0,0,0-.01,0,.14.07.27.13.41.18.13.04.27.07.4.1.06,0,.13,0,.2,0,.08,0,.17,0,.25.01.13,0,.27.01.4,0,.15,0,.3-.01.45,0,0,0,0,0,0,0,0,0-.02,0-.02,0,0,0,.02,0,.03,0,.34.02.68,0,1.02.03.19.01.37.02.56.05.19.02.38.05.57.06.18.01.36.02.54.03.28.01.55.01.83.01.25,0,.5-.01.75-.01.3,0,.59.03.89.06.03,0,.06,0,.09,0,.06,0,.12,0,.17.01.31.02.62.02.93.04-.02,0-.04,0-.06,0,.08,0,.15,0,.23.01,0,0-.02,0-.02,0,.02,0,.03,0,.05,0,0,0,0,0,0,0,0,0,0,0,0,0,.09,0,.18.01.27.02.05,0,.09,0,.14.01-.01,0-.03,0-.05,0,.08,0,.16.01.24.02.05,0,.1,0,.15,0,0,0,0,0-.01,0,.16.01.32.02.47.03.14,0,.28.02.42.03,0,0-.01,0-.02,0,.09,0,.18.01.27.02,0,0,0,0-.01,0,.09,0,.17.01.26.02h0s.09,0,.13,0c0,0,0,0,0,0-.14.06-.28.1-.43.15-.18.06-.37.12-.55.18-.23.07-.46.13-.69.17-.51.1-1.03.2-1.54.26-.1.01-.2.02-.3.03-.03,0-.06,0-.1,0,0,0-.01,0-.02,0-.03,0-.06,0-.09,0Z"/>
  <path class="cls-12" d="m39.28,41.46s0,0,0,0h0s0,0,0,0Z"/>
  <path class="cls-12" d="m39.26,41.45s.01,0,.02,0c0,0-.01,0-.02,0Z"/>
  <path class="cls-12" d="m39.24,41.44s.01,0,.02,0c0,0-.01,0-.02,0Z"/>
  <path class="cls-12" d="m40.14,40.77s.02,0,.03,0c0,0-.02,0-.03,0Z"/>
  <path class="cls-3" d="m17.56,46.13c-.02-.07-.04-.15-.06-.23-.01-.04-.02-.08-.02-.12,0-.05.05-.09.07-.14.06-.1.12-.21.19-.3.19-.27.42-.51.68-.72.24-.2.51-.37.78-.52.25-.14.51-.27.78-.36.36-.12.74-.19,1.12-.27.08-.02.16-.03.24-.05.24-.05.48-.11.72-.15.28-.05.56-.09.84-.12.55-.07,1.1-.12,1.65-.15.4-.03.81-.04,1.21-.06.43-.01.85,0,1.28.01.44.01.88.07,1.31.11s.85.07,1.26.17c.09.02.17.05.25.07,0,0,0,0,0,0-.07,0-.15,0-.22.01-.16.01-.31.03-.47.06-.27,0-.54.04-.76.15-.13.03-.27.05-.4.07-.17.03-.34.05-.51.07-.16.02-.32.04-.49.06-.16.03-.32.05-.48.07-.16.02-.33.04-.49.06-.32.03-.64.04-.96.07,0,0,0,0,0,0-.06,0-.13,0-.19.01-.13.01-.26.02-.4.03-.44.03-.88.09-1.31.13-.42.04-.85.11-1.26.19-.18.04-.37.08-.55.12-.2.05-.4.08-.6.12.01,0,.02,0,.03,0-.19.04-.39.07-.58.11-.32.07-.64.16-.95.26,0,0,0,0,0,0,0,0,0,0-.01,0,0,0,0,0,.01,0-.26.09-.52.19-.78.31-.15.08-.29.16-.42.25,0,0,0,0,0,0-.1.07-.21.14-.3.22,0,0,0,0,0,0-.05.05-.11.1-.16.15,0,0,0,0,0,0,0,0,0,0,0,0-.02.1-.02.2-.03.3,0,0,0,0,0,0s0,0,0,0Z"/>
  <path class="cls-3" d="m19.24,44.91s-.01,0-.02,0c0,0,.01,0,.02,0Z"/>
  <path class="cls-3" d="m49.71,43.59h0s0,0,0,0c0,0,0,0,0,0-.01-.01-.02-.03-.03-.04-.01-.01-.02-.02-.03-.04s-.02-.02-.04-.03c0,0-.02-.02-.03-.02-.03-.03-.06-.05-.09-.07-.01,0-.02-.02-.03-.02-.06-.04-.13-.08-.19-.11-.02,0-.03-.02-.05-.02-.03-.01-.07-.03-.11-.04,0,0-.02,0-.02,0-.01,0-.03,0-.04-.01-.02,0-.04-.01-.06-.02-.02,0-.04,0-.06-.01-.09-.02-.17-.03-.26-.04-.02,0-.04,0-.06,0-.14,0-.29,0-.44-.01-.39-.02-.8-.04-1.14.14-.04.03-.07.06-.1.1,0,0,0,0,0,.01,0,0,0,0,0,0-.15-.03-.3-.05-.45-.07-.18-.02-.37-.04-.55-.06-.16-.02-.32-.04-.48-.05-.03,0-.06,0-.08,0-.19-.01-.38-.02-.57-.02-.19,0-.39,0-.58,0-.19,0-.37,0-.56-.01-.22-.01-.43-.04-.65-.06-.27-.01-.54-.01-.8-.02-.28,0-.56-.02-.83-.02-.29,0-.57.01-.86.03-.3.01-.61.03-.91.05.01,0,.02,0,.04,0-.01,0-.03,0-.04,0,0,0,0,0-.01,0,0,0,0,0,.01,0-.21.01-.41.03-.62.06-.24.03-.48.07-.71.11-.46.07-.91.15-1.36.24,0,0,0,0,0,0-.08.02-.17.03-.25.05,0,0,0,0,.01,0-.06.01-.12.03-.18.04,0,0,0,0,0,0-.1.03-.19.07-.29.11,0,0,0,0,0,0,.09-.08.19-.17.3-.24.08-.05.17-.09.26-.13.17-.09.35-.17.53-.24.33-.15.67-.3,1.01-.43.36-.14.73-.24,1.1-.32.19-.04.38-.07.58-.09.2-.02.4-.03.6-.04.51-.03,1.03-.04,1.54-.04.08,0,.15,0,.23,0,.19,0,.38,0,.58,0,.25.01.5.04.75.06.29.02.58,0,.86.01.33,0,.66,0,.99.03.29.02.57.07.86.1.16.02.32.05.48.07.17.03.34.06.51.09-.02,0-.04,0-.06-.01.09.02.17.04.26.05-.02,0-.04,0-.06-.01.14.03.28.05.42.08-.02,0-.04,0-.06-.01.24.05.48.1.72.16.23.06.45.13.67.21.17.06.35.12.51.19.18.08.35.17.52.27.16.09.32.2.45.33.05.05.1.1.14.15-.35-.2-.8-.34-1.19-.34Z"/>
  <path class="cls-3" d="m39.6,43.07s0,0,0,0c0,0,0,0,0,0,0,0,0,0,0,0Z"/>
  <path class="cls-3" d="m32.17,49.84c.01-.08.02-.16.06-.24.04-.06.09-.11.14-.16.09-.08.19-.14.3-.18.1-.04.21-.06.31-.07.13-.01.26.02.38.09,0,0,0,0,0,0-.01,0-.03,0-.04,0h0c-.05,0-.1.01-.15.02-.03,0-.06.02-.1.03,0,0,0,0,0,0-.06.02-.11.05-.17.07,0,0,0,0,.01,0-.03.01-.05.03-.08.04-.03.01-.05.03-.08.04-.11.06-.23.11-.35.16,0,0,0,0,0,0-.03.02-.06.03-.09.05-.02.01-.04.03-.05.04-.01.01-.02.02-.03.03,0,0,0,0,0,0-.02.03-.05.05-.07.08,0,0,0,0,0,0,0,0,0,0,0,0Z"/>
  <path class="cls-3" d="m31.85,50.06c-.02-.14.07-.26.16-.35.11-.11.24-.2.38-.28.12-.07.26-.11.4-.13.09-.02.17-.02.26,0,.12.02.24.05.37.08,0,0,0,0,0,0-.14.03-.29.06-.43.08-.01,0-.03,0-.04.01,0,0,0,0,0,0-.01,0-.02,0-.03.01,0,0,0,0,0,0-.22.08-.43.17-.64.26-.03.01-.05.03-.08.04-.07.04-.14.07-.21.12-.02.02-.04.03-.06.05,0,0-.02.02-.03.03,0,0-.01.02-.02.02h0s-.01.02-.02.02c0,0,0,.02-.01.02,0,0,0,0,0,0,0,0,0,.02,0,.03,0,0,0,0,0,0,0,0,0,0,0,0Z"/>
  <path class="cls-3" d="m31.86,50.04s0,0,0,0c0,0,0,0,0,0Z"/>
  <path class="cls-3" d="m32.14,50.32c-.02-.15,0-.29.05-.42.04-.09.1-.17.16-.25.07-.08.16-.15.26-.2.08-.04.14-.05.22-.05.13.01.26.04.39.07,0,0,0,0,0,0-.14.05-.29.08-.43.13,0,0-.02,0-.02.01-.05.04-.1.08-.15.12-.04.03-.08.07-.11.1-.02.02-.04.03-.06.05-.03.03-.06.06-.09.09-.02.03-.04.05-.06.08-.03.04-.05.08-.07.12-.02.05-.05.1-.07.14,0,0,0,0,0,0,0,0,0,0,0,0Z"/>
  <path class="cls-3" d="m32.01,50.57c-.04-.09-.07-.18-.08-.27-.01-.08,0-.16,0-.24.02-.12.07-.24.13-.34.09-.15.2-.27.34-.36.07-.05.14-.09.22-.11.05-.01.1,0,.15,0,.11.01.22.03.33.05,0,0,0,0,0,0-.11.02-.21.05-.32.07,0,0,0,0,0,0-.04,0-.07.02-.11.03,0,0-.01,0-.02.01-.03.02-.06.05-.09.07-.06.06-.13.12-.19.19-.06.07-.11.14-.17.21-.02.02-.03.05-.05.07,0,0,0,0,0-.01-.02.04-.04.07-.06.11-.02.04-.03.07-.04.11-.01.04-.02.08-.03.12,0,.05-.02.11-.02.16h0s0,.09,0,.14c0,0,0,0,0,0,0,0,0,0,0,0Z"/>
  <path class="cls-3" d="m32.77,49.37s0,0,0,0h0Z"/>
  <path class="cls-3" d="m32.12,50.25c.03-.08.06-.17.09-.25.03-.09.07-.17.13-.24.11-.13.25-.22.41-.29.19-.08.39-.1.59-.08,0,0,0,0,0,0-.04.01-.09.03-.13.04-.03,0-.06.02-.09.03,0,0,0,0,0,0-.06.03-.12.05-.19.08-.08.04-.15.08-.22.13,0,0,0,0,0,0-.05.03-.1.07-.15.1,0,0,0,0,0,0-.06.04-.11.08-.16.12-.02.02-.04.04-.05.06,0,0,0,0,0,0-.08.1-.16.21-.24.31,0,0,0,0,0,0,0,0,0,0,0,0Z"/>
  <path class="cls-3" d="m31.82,50.34c.02-.09.04-.17.06-.25.03-.09.09-.16.15-.23.14-.17.34-.29.54-.36.2-.07.41-.09.62-.07.18.02.35.1.51.18,0,0,0,0,0,0-.11-.01-.22-.03-.34-.04-.05,0-.1,0-.15,0,0,0,0,0,.01,0-.06,0-.13.01-.19.03h.01c-.1.02-.19.04-.28.07,0,0,0,0,.01,0-.1.04-.2.08-.29.12,0,0,0,0,0,0-.1.05-.2.11-.3.18,0,0,0,0,0,0,0,0,0,0,0,0,0,0,0,0-.01,0,0,0,0,0,0,0-.04.03-.09.06-.13.1,0,0,0,0,0,0-.02.02-.04.03-.05.05-.02.02-.03.04-.05.07,0,0,0,0,0,0-.05.08-.1.17-.16.25,0-.03,0-.06,0-.08Z"/>
  <path class="cls-3" d="m32.2,49.96h0s0,0,0,0c0,0,0,0,0,0Z"/>
  <path class="cls-3" d="m31.92,50.29c.03-.13.06-.26.12-.39.05-.1.13-.18.22-.24.14-.1.31-.17.48-.21.16-.04.32-.06.49-.05.15.01.29.04.44.07,0,0,0,0,0,0-.18.01-.37.03-.55.06,0,0,0,0,0,0,0,0,0,0,0,0,0,0,0,0,0,0,0,0,0,0,0,0-.07.02-.15.04-.22.06,0,0,0,0,.01,0-.05.02-.09.03-.14.05,0,0,0,0,0,0-.05.02-.1.04-.15.06,0,0,0,0,0,0,0,0,0,0,0,0h0s0,0,0,0c-.09.03-.18.07-.27.11,0,0,0,0,0,0,0,0,0,0,0,0,0,0,0,0,0,0,0,0,0,0,0,0-.04.02-.08.05-.12.07-.02.01-.03.03-.05.04,0,0,0,0,0,0-.02.01-.03.03-.04.04,0,0,0,0,0,0,0,0,0,0,0,0,0,0,0,0,0,0,0,0,0,0,0,0-.03.04-.06.07-.08.11,0,0,0,0,0,0-.01.02-.03.04-.04.06,0,0,0,0,0,0-.03.05-.06.1-.1.15,0,0,0,0,0,0,0,0,0,0,0,0Z"/>
  <path class="cls-3" d="m32.02,50.13s0,0,0,0c0,0,0,0,0,0Z"/>
  <path class="cls-3" d="m32.14,49.97s0,0,0,0c0,0,0,0,0,0,0,0,0,0,0,0Z"/>
  <path class="cls-3" d="m32.36,49.81s0,0,0,0c0,0,0,0,0,0,0,0,0,0,0,0Z"/>
  <path class="cls-3" d="m32.62,49.7s0,0,0,0c0,0,0,0,0,0,0,0,0,0,0,0Z"/>
  <path class="cls-3" d="m33.13,49.54s0,0,0,0c0,0,0,0,0,0,0,0,0,0,0,0Z"/>
  <path class="cls-3" d="m31.42,52c-.42-.7-.16-1.67.44-2.19.14-.13.32-.26.5-.29-.08.09-.13.2-.18.29-.3.71-.7,1.43-.76,2.19Z"/>
  <path class="cls-3" d="m31.5,51.92c-.2-.27-.24-.59-.2-.91.03-.63.36-1.2.89-1.53.09-.11.92-.43.62-.2-.66.71-1.33,1.65-1.31,2.65Z"/>
  <path class="cls-3" d="m32.55,47.47c.09-.54.35-1.78.81-2.06-.14.2-.08.49-.16.72-.11.49-.38.94-.65,1.35Z"/>
  <path class="cls-3" d="m22.47,42.38c2.44-1.2,5.08-1.95,7.7-2.62-.98.56-1.93,1.2-2.98,1.61-1.07.44-2.27.56-3.39.79-.44.09-.89.19-1.33.22Z"/>
  <path class="cls-3" d="m45.16,41.74c-2.48-.13-5.03-.56-7.22-1.77-.3-.15-.63-.26-.93-.38,1.2.04,2.38.34,3.55.58,2.41.53,4.87.86,7.25,1.48-.87.09-1.77.09-2.65.1Z"/>
  <path class="cls-3" d="m8.69,48.25c-.41-.97.05-2.05.74-2.77.87-.91,2.34-.89,3.4-.36.13.07.28.14.4.22-.37-.03-.79-.03-1.14,0-1.58.12-3.28,1.25-3.4,2.92Z"/>
  <path class="cls-3" d="m15.8,50.69c-.76-1.15-1.53-2.34-1.93-3.67-.34-1.44-.53-3.03-.09-4.46-.02,1.36.4,2.65.8,3.92.4,1.4.78,2.82,1.23,4.2Z"/>
  <path class="cls-3" d="m15.58,50.43c-.39-.73-.66-1.51-.92-2.29-.39-1-.61-2.04-.72-3.11-.21-1.62-.21-3.39.79-4.78.19-.28.39-.56.59-.83-.06.24-.15.5-.22.75-.47,1.61-.39,3.3-.34,4.96.14,1.78.35,3.59.82,5.3Z"/>
  <path class="cls-3" d="m13.27,44.63c-.05-.08-.03-.16,0-.24,0-.03,0-.06.01-.09-.23,0-.34-.26-.27-.45.06-.38.11-.78.27-1.13.16-.42.73-.41.76.07-.08.3-.19,2.45-.77,1.85Z"/>
  <path class="cls-3" d="m55.7,49.18c.24-1.75.36-3.3-.59-4.88-.08-.12-.19-.23-.26-.34.08.05.16.1.24.15.53.38.86.99,1.1,1.58.46,1.16.03,2.44-.48,3.5Z"/>
  <path class="cls-3" d="m56.26,46.82c-.15-.67-.1-1.38-.24-2.05.54.53.44,1.39.24,2.05,0,0,0,0,0,0Z"/>
  <path class="cls-3" d="m56.44,46.42c-.22-.59-.55-1.16-.62-1.79.34.53.66,1.15.62,1.79Z"/>
  <path class="cls-3" d="m56.08,46.14c-.21-.39-.16-.88-.4-1.22.47.17.44.81.4,1.22,0,0,0,0,0,0Z"/>
  <path class="cls-3" d="m56.21,46.25c-.14-.41-.23-.84-.35-1.24.32.33.41.81.35,1.24Z"/>
  <path class="cls-3" d="m56.3,46.6c-.05-.33-.1-.67-.06-1.01,0-.16.09-.41-.1-.47.49-.01.26,1.19.16,1.48Z"/>
  <path class="cls-3" d="m56.03,45.91c-.18-.4-.32-.86-.22-1.29.17.41.29.86.22,1.29Z"/>
  <path class="cls-3" d="m55.99,46.22c-.15-.54-.21-1.1-.2-1.65.3.5.32,1.1.2,1.65Z"/>
  <path class="cls-3" d="m56.29,45.82c-.06-.2-.14-.39-.2-.58-.04-.16-.11-.29-.28-.3.47-.18.58.57.48.89,0,0,0,0,0,0Z"/>
  <path class="cls-3" d="m56.11,45.41c-.17-.32-.33-.66-.49-.98.34.19.53.6.49.98Z"/>
  <path class="cls-3" d="m56.5,45.65c-.16-.4-.38-.84-.81-.99.55-.14.92.51.81.99Z"/>
  <path class="cls-3" d="m56.16,46.56c-.03-.33-.07-.65-.11-.98-.03-.32-.03-.65-.2-.94.55.44.47,1.3.31,1.91Z"/>
  <path class="cls-3" d="m56,47.25c-.03-.73.07-1.48.15-2.2.21.72.06,1.5-.15,2.2Z"/>
  <path class="cls-3" d="m56.22,47.69c.48-2.31,4.36-3.75,5.5-1.17.07.17.12.36.12.53-.15-.27-.38-.46-.63-.63-1.27-.97-4.22-.01-4.99,1.26Z"/>
  <path class="cls-3" d="m56.53,46.57c.28-.76,1.17-1.16,1.94-1.13-.66.34-1.33.71-1.94,1.13Z"/>
  <path class="cls-3" d="m56.96,46.52c.32-.85,1.71-1.1,2.52-.95-.11.02-.23.03-.35.06-.46.11-.9.28-1.35.43-.3.12-.62.21-.82.46Z"/>
  <path class="cls-4" d="m51.72,27.23s-.09-.04-.12-.07c-.09.02-.19.01-.28-.01-.05-.01-.1-.04-.15-.07-.3.3-.85.22-.98-.21-.05.01-.11.02-.17.02-.17,0-.35-.1-.44-.25-.1-.01-.19-.05-.27-.11-.07.02-.15.02-.22.02-.17.38-.71.59-1.01.23-.26.19-.68.16-.86-.14-.15.08-.34.08-.49.02-.03-.01-.06-.03-.09-.05-.29.37-.91.33-1.04-.15-.05.02-.1.03-.16.04-.13,0-.27-.02-.38-.09-.25.22-.7.2-.87-.11-.27.23-.74.22-.93-.11-.12.08-.25.12-.4.1-.1,0-.19-.04-.27-.09-.26.29-.78.32-.99-.05-.27.16-.66.11-.84-.17-.03.01-.05.03-.08.04-.07.03-.14.04-.21.04-.22.3-.69.38-.94.08-.16.03-.33-.01-.45-.11-.12.06-.26.09-.4.05-.02,0-.05-.01-.07-.02-.22.28-.69.36-.94.07-.22.18-.52.27-.78.14-.29.3-.83.26-1-.14-.12.05-.25.05-.38.03-.14-.02-.25-.1-.34-.19-.22.29-.67.41-.95.13-.22.17-.54.22-.79.08-.22.18-.55.25-.81.09-.33.33-.9.25-1.07-.19-.11.05-.24.07-.36.06-.07,0-.14-.03-.2-.06-.25.31-.76.41-1.04.09-.25.28-.67.45-1.01.22-.19.22-.45.38-.75.34-.11-.01-.19-.06-.27-.12-.24.2-.6.25-.85.04-.04-.03-.07-.07-.1-.11-.09.03-.18.05-.28.04-.11,0-.23-.04-.32-.11-.23.23-.62.34-.9.13-.27.26-.74.35-1.01.05-.21.18-.54.2-.77.05-.31.26-.81.15-.95-.24-.02,0-.04-.01-.06-.02-.18.24-.43.43-.74.34-.04-.01-.07-.03-.11-.04-.2.28-.59.47-.91.26-.09.06-.19.1-.31.1-.08,0-.17-.01-.24-.05-.05.02-.11.04-.16.05-.05,0-.11,0-.16,0-.24.21-.66.17-.82-.11-.02,0-.03,0-.05,0-.08-.01-.14-.04-.21-.08-.09.02-.18.03-.26.02-.22.11-.49.11-.69-.06-.35.04-.62-.28-.71-.59-.18-.54-.04-1.2.39-1.57.09-.38.48-.75.88-.55.21-.06.43.03.55.2.1-.01.19,0,.28.04.05-.03.1-.05.16-.07.14-.4.69-.65,1.01-.29.05,0,.09.01.14.02,0,0,0,0,0,0,.07-.06.15-.1.25-.12.18-.05.36.01.49.14.05-.02.11-.03.17-.03.05,0,.1,0,.14.02.01,0,.03-.01.04-.02.14-.06.31-.05.45.02.26-.37.87-.26.95.2.1.03.18.09.24.17.2-.18.52-.17.71.02.18-.56,1.03-.52,1.06.1.18-.12.43-.11.61.02.05.04.09.08.13.13.06-.43.65-.61.92-.27.23-.23.65-.16.8.12.21-.24.64-.23.82.03.19-.37.79-.34.94.05.07.17.02.35.05.53.25-.33-.02-.86.4-1.09.26-.16.63-.03.74.25.16-.35.69-.42.91-.09.24-.31.77-.25.9.13.22-.24.64-.23.82.04.02,0,.04-.02.07-.02.23-.06.46.04.58.22,0-.01,0-.03,0-.04,0,0,0,0,0,0,.04-.42.62-.61.9-.29-.02-.58.72-.83.99-.29.2-.29.65-.3.86-.02.23-.2.63-.13.77.14.2-.27.63-.27.83,0,.07-.11.17-.2.31-.24.11-.03.23-.02.33.02.13-.12.33-.16.49-.12.07.02.14.06.2.1.2-.14.48-.13.66.04.15-.1.35-.1.51-.02.28-.15.65.02.73.32.21-.29.68-.27.86.03.16-.16.42-.21.63-.08,0,0,.01,0,.02.01.11-.56.88-.62,1.02-.05.12-.4.73-.48.94-.11.2-.08.44-.02.58.14.11-.36.62-.51.89-.23.17-.23.55-.27.76-.06.31-.33.89-.11.88.35.11-.07.24-.1.37-.08.02-.55.85-.65,1.01-.13.26-.08.57.11.62.38,0,0,0,0,0,0,.07,0,.13.03.19.07.14-.14.36-.17.54-.1.05.02.09.05.13.08.21-.36.79-.37.94.04.04,0,.08.02.12.04.05-.02.1-.03.15-.03.05-.03.1-.06.16-.08.03-.16.04-.34.06-.5.04.16.08.32.12.48.06,0,.11.02.17.05.17.07.29.23.32.42,0,0,0,0,0,0-.01.66.38,2.19-.63,2.22-.17.16-.42.26-.64.16Z"/>
  <path class="cls-4" d="m50.91,26.67c-.91-.03-1.8-.35-2.71-.34.69-.38,3.46-.34,3.7-.93-.43.07-.9-.24-.77-.71-.47.01-.94.01-1.4,0-.21.1-.45,0-.67,0-.5-.06-1-.12-1.51-.16-.74-.02-1.49-.02-2.23-.03-.81.04-1.63.11-2.44.12-.32-.02-.71.07-.99-.13-.56-.01-1.12-.03-1.68-.07-.25-.05-.48-.11-.74-.1-.01.03-.03.06-.05.09-.08.11-.21.16-.34.16,0,0,0,0,0,0-.05,0-.11,0-.16-.01-.1,0-.21-.01-.31-.02-.04.66-1.02.49-1.49.53-1.1,0-2.19-.12-3.29-.12-1.44,0-2.88.02-4.32.05-.51.04-1.01.14-1.51.18-.24.01-.53.08-.72-.12-1.46.11-2.91.31-4.37.35-.52-.02-1.67.25-1.59-.59-.54.05-1.08.1-1.62.09-.26,0-.57,0-.71-.27-.18-.35.15-.64.5-.56,1.46,0,2.91-.24,4.36-.33,1.08-.06,2.16,0,3.24-.02.72,0,1.44-.02,2.15-.04.43,0,.87-.1,1.29-.02h0c.06.02.12.06.16.11,0,0,0,0,0,0,.97-.07,1.94-.12,2.92-.09.45-.17.96-.14,1.43-.19,1.01-.04,2.02,0,3.03.02.76-.05,1.52-.09,2.28-.08.3.03.66-.03.92.16,1.37.02,2.73-.15,4.09-.15.41,0,.81-.01,1.22,0,.28.02.66-.03.8.27.62,0,1.25,0,1.87.08.22-.16.51-.1.77-.13.23,0,.48-.02.68.11.17.02.34.04.52.06.33.05.66.08,1,.12.32.07.72,0,.95.28.24.3.07.74-.24.92.06,1.3-.9,1.62-2.02,1.54Zm-25.36-2.11c.2,0,.4,0,.61,0,.35,0,.7-.01,1.06-.02,0,0,.01-.02.02-.03-.63.01-1.26,0-1.88.05.07,0,.13,0,.2,0Z"/>
  <path class="cls-4" d="m32.35,27.13c-1.02-.05-2.03-.14-3.05-.14-.48-.02-.95-.06-1.43-.09-.3,0-.6.03-.89,0-.5-.06-1.05.24-1.54.02-.53-.01-1.75.27-1.81-.5-.26,0-.5.04-.74.12-.33.1-.78.25-.97-.14-.52.08-2.3.51-2.6.03-.26-.32,0-.83.4-.82.28,0,.56,0,.83-.05.19-.24.5-.3.79-.29.42-.03.83-.1,1.25-.17-.04-.04-.08-.08-.1-.13.07.04.14.08.21.11.31-.05.62-.1.93-.13,1.23-.14,2.46-.3,3.7-.36.5-.02,1-.03,1.48.08.71-.1,1.41-.21,2.12-.26.27-.01.59-.07.8.13.14.14.18.39.06.56-.18.28-.56.22-.86.25.69.04,1.38.07,2.08.1.39.03.78.06,1.17.13.12.03.23.02.35,0,1.66-.15,3.33.02,4.99-.06,2.1-.06,4.18.24,6.27.45.91.08,1.87.15,2.78.21.38.07,1.26-.08,1.23.48.4.09.81.16,1.2,0-.45.42-1.04.36-1.62.36-.51-.01-1.02-.11-1.54-.09-.25,0-.5,0-.75,0-.39-.03-1.02.1-1.16-.38-2.49-.32-5.01-.52-7.51-.23-1.19.1-2.4-.02-3.59.16-.17.31-.54.22-.83.2-.16.06-.31.16-.45.26,0,0,0,0,0,0-.34.25-.79.21-1.19.21Z"/>
  <path class="cls-11" d="m17.98,25.42c-.13-.82,1.34-1.34,1.98-1.09-.49.08-.94.35-1.36.58-.23.14-.55.23-.62.52,0,0,0,0,0,0Z"/>
  <path class="cls-11" d="m17.94,25.37c0-.13-.02-.27.08-.37.21-.26.51-.45.81-.61,1.05-.53,2.27-.55,3.41-.44.13.01.28.02.41.04-.87.17-1.74.34-2.6.57-.46.12-.93.22-1.38.36-.27.11-.63.14-.73.45Z"/>
  <path class="cls-11" d="m17.05,25.29c-.15-.38.68-.56.93-.69,2.14-.73,4.44-.72,6.66-.81,1.76-.05,3.53-.06,5.29-.09,5.82.16,11.64-.4,17.46-.26,1.74.02,3.76-.1,5.15,1.12-.85-.27-1.79-.24-2.68-.2-1.99.14-3.98-.16-5.97-.06-3.64.1-7.26.36-10.9.41-3.49-.08-6.98-.09-10.47.03-1.16.04-2.37.07-3.51.1-.42.08-1.96.06-1.97.46Z"/>
  <path class="cls-10" d="m10,44.78c1.64-1.17,2.47-3.09,3.53-4.74.67-1.12,1.14-2.35,1.86-3.44.8-1.44,1.81-2.74,2.89-3.97.26-.32.57-.63.93-.83-.38.4-.64.89-.91,1.37-.95,1.54-1.9,3.07-2.72,4.69-1.28,2.64-2.48,6.04-5.59,6.93Z"/>
  <path class="cls-10" d="m11.31,44.36c.24-.58.76-1.03,1.38-1.15-.42.41-.88.79-1.36,1.13,0,0,0,0,0,.01.02,0-.02.02-.01,0Z"/>
  <path class="cls-10" d="m12.76,45.03c-.14,0-.28,0-.39-.1-.15,0-.3-.04-.4-.15-.12,0-.23-.05-.31-.15-.02-.03-.04-.06-.05-.1-.04,0-.08,0-.11-.02-.07-.05-.05-.14-.02-.21-.1,0-.27.05-.34-.02.01-.01.03-.03.01,0,0,0,0,0,0,0,.17-.03.42-.21.51-.24,0,0,.02,0,.02-.01.2-.4.24-1,.73-1.16.58-.14.72.47.68.92.05.37.3,1.28-.32,1.24Zm-1.18-.71h0s0,0,0-.01c0,0,0-.01,0-.02,0,0,0,0,0,0,0,0,0,.02,0,.03Z"/>
  <path class="cls-10" d="m11.4,44.2c.13-.04.3-.06.43-.03-.14.04-.29.05-.43.03Z"/>
  <path class="cls-10" d="m20.29,59.22c.03-.44-.17-.71-.47-1-.4-.42-.83-.75-1.25-1.12-.41-.37-.82-.76-1.13-1.23-.23-.32-.36-.73-.68-.98-.25.46-.15,1.27-.79,1.4-.82.15-.97-1.7-1.19-2.27-.69.52-1.64.92-2.33.17-.78.74-1.22,1.79-2.05,2.48.61-1.13.73-2.52,1.66-3.44.44-.32.91.02,1.25.31.52.06.91-.5,1.39-.64.91-.23,1.08.9,1.21,1.55.22-.53.95-.73,1.39-.33.56.43.74,1.16,1.22,1.66.65.76,2.32,2.42,1.75,3.44Z"/>
  <path class="cls-10" d="m11.22,54.79c-.23-.61-.28-1.29-.16-1.93.3.6.3,1.29.16,1.93Z"/>
  <path class="cls-10" d="m10.87,54.32c0-.55-.81-2.35.17-2.31,0,0,0,0,0,0,.23.02.36.24.39.44.25.11.22.42.24.64.04.36.17.71.13,1.08-.03.53-.78.69-.94.15Z"/>
  <path class="cls-10" d="m15.98,54.33c-.24-.25-.41-.57-.6-.86-.04.03-.09.05-.13.06-.08.3-.44.51-.72.35,0,0,0,0-.01,0-.09.04-.2.05-.3.03-.17.18-.44.22-.66.09,0,0-.01,0-.02-.01-.07.04-.16.06-.25.06-.07,0-.14-.02-.21-.04-.11.05-.24.07-.36.03-.12-.03-.24-.12-.31-.23-.06,0-.13-.03-.18-.06-.06-.04-.12-.09-.16-.14-.07,0-.13,0-.19-.04-.06-.03-.09-.08-.12-.14-.19.09-.06-.25-.09-.34-.02-.12-.03-.25-.05-.38-.02-.16.18-.26.3-.14.09-.18.32-.28.5-.18.07-.03.14-.05.22-.05.02,0,.05,0,.07,0,.11-.1.25-.16.4-.14.14-.2.42-.28.65-.16.12-.09.27-.13.41-.11.01-.01.03-.02.04-.04.1-.08.22-.11.34-.1.34-.36,1.04-.05,1.01.44.06.71.21,1.42.44,2.09Z"/>
  <path class="cls-10" d="m16.21,54.48c-.58-.65-.98-1.51-1.09-2.38.1-.4.69,1.03.73,1.15.15.4.23.82.36,1.22,0,0,0,0,0,0Z"/>
  <path class="cls-10" d="m16.45,54.52c-.6-.57-.97-1.43-1.05-2.25.08-.34.62.91.66,1.01.15.4.25.83.4,1.22,0,0,0,0,0,0,.02-.04.02.04-.01.02Z"/>
  <path class="cls-10" d="m16.95,54.5c-.63-.49-.97-1.21-1.17-1.96.42.32.7.87.97,1.34.02.11.49.68.2.62Z"/>
  <path class="cls-10" d="m16.45,54.83h0s-.03-.08-.03-.08c-.01-.03-.03-.05-.04-.08-.2.24-.61.12-.65-.19-.02-.15-.06-.29-.11-.43-.15-.48-.44-1.04-.22-1.53.15-.26.54-.32.75-.1.42.71.94,1.47.98,2.31-.03.35-.55.41-.67.09Z"/>
  <path class="cls-10" d="m15.62,53.52c-.1-.01-.18-.07-.23-.14-.05-.05-.08-.11-.1-.17,0,0,0,0,0,0-.13-.52-.79-1.29-.52-1.81.16-.29.62-.3.78,0,.16.43.3.88.42,1.32.09.18.15.4.04.58-.09.13-.22.25-.39.22Z"/>
  <path class="cls-10" d="m15.62,57.6c0-1.15-.18-2.29-.2-3.43.5,1.06.56,2.31.2,3.43Z"/>
  <path class="cls-10" d="m15.56,57.57c-.12-.99-.39-1.99-.31-2.99.02-.08.05-.17.09-.24,0,.09,0,.17.01.25.32.96.44,2.01.2,2.99Z"/>
  <path class="cls-10" d="m15.52,57.74c.03-.64-.03-1.28-.09-1.92-.06-.58-.06-1.16-.21-1.72.68,1.05.64,2.47.3,3.64Z"/>
  <path class="cls-10" d="m16.26,57.84c.06-1.18-.13-2.34.04-3.51.33,1.14.37,2.4-.04,3.51Z"/>
  <path class="cls-10" d="m16.35,57.97c.05-.55.08-1.12.12-1.67.04-.67.18-1.34.14-2.01.58,1.16.18,2.55-.26,3.68Z"/>
  <path class="cls-10" d="m16.82,58.31c.04-.68,0-1.36.01-2.04,0-.6.08-1.21-.08-1.79.78,1.07.44,2.66.06,3.83Z"/>
  <path class="cls-10" d="m17.53,57.97c-.06-.67-.2-1.32-.24-1.99-.04-.47-.03-.96-.25-1.4.86.77.67,2.36.49,3.39Z"/>
  <path class="cls-10" d="m53.1,58.25c-.57-.63-.89-3.27.61-2.25.07-.84.47-2.55,1.63-1.8.03-.44.05-.89.18-1.31.2-.49.83-.4,1.12-.04.37.41.66.95,1.24,1.1,0-.41.45-.49.75-.31.22.06.45.05.67.07-.06-.07-.2-.19-.14-.3.07-.12.2-.03.27.03.14.16.41.19.45.43.03.27-.3.31-.5.36.19.11.44.02.61.18.39.29.15.94-.33.93-.59.08-1.15-.15-1.7-.32-.66-.14-1.23-.5-1.64-1.03-.02.36,0,.73-.09,1.09-.23.76-.93.51-1.34.06-.19.37-.18.8-.28,1.2-.25.91-.91.74-1.46.2-.14.55-.22,1.18-.04,1.72Z"/>
  <path class="cls-10" d="m57.25,53.88c-.36-.22-.57-.62-.76-.97.93.69,1.57.51,2.62.69.16,0,.34,0,.49.03-.58.32-1.76.57-2.36.25Z"/>
  <path class="cls-10" d="m58.8,53.9c-.65-.07-1.3-.14-1.9-.45-.31-.2-.79-.23-.98-.56-.15-.37.27-.67.61-.53.98.35,1.77,1.08,2.72,1.5.2.07-.36.04-.44.04Z"/>
  <path class="cls-10" d="m59.27,53.81s0,0,0,0c.03-.01.06-.03.09-.04-.21-.04-.42-.11-.63-.09-.12,0-.26,0-.33-.11-.06-.1,0-.25.11-.29,0,0-.02-.02-.01-.03.36,0,.73.04,1.03.26.45.26.06.42-.25.3Z"/>
  <path class="cls-10" d="m59.42,54.89c-.15-.02-.32-.03-.46-.07.16-.06.34-.14.5-.15.45-.02.89.06,1.34.03-.39.31-.92.33-1.38.2Z"/>
  <path class="cls-10" d="m59.61,55.36c-.22-.04-.31-.14-.21-.35.02.04.02.11.06.15.55-.06,1.06-.26,1.62-.25-.41.29-.94.55-1.47.45Z"/>
  <path class="cls-10" d="m59.81,55.19c-.1-.02-.27,0-.29-.12.03-.22.02-.37.11-.06.61-.2,1.25-.33,1.87-.49-.41.47-1.09.69-1.7.67Z"/>
  <path class="cls-10" d="m53.08,58.74c-.11-.1-.2-.22-.29-.34-.5.18-.62-.46-.77-.79-.15-.38-.85-1.21-.09-1.31.02-.3.08-.67.37-.83.11-.32.3-.68.65-.77.03-.08.08-.15.12-.22.03-.05.08-.1.13-.13.04-.09.09-.17.15-.24.05-.05.1-.09.16-.12.12-.36.2-.8.54-1.01.11-.32.23-.7.58-.82,0-.35-.09-.85.31-1.02.09-.4.66-.48.86-.12.08.13.11.27.15.42.25.29.29.7.43,1.05.12.24.29.49.22.77,0,0,0,0,0,0-.05.21-.26.36-.48.35-.06.11-.18.2-.3.23-.02,0-.05,0-.07.01-.02.39.02.88-.31,1.16-.21.16-.54.12-.69-.11-.05.05-.1.08-.17.11-.05.03-.12.04-.18.04-.05.07-.11.13-.19.18-.03.02-.06.03-.08.04-.06.36-.13.93-.6.92-.05.09-.11.17-.21.23-.09.05-.2.07-.3.06-.04.11-.11.21-.2.27,0,.09,0,.18,0,.27.08.09.14.19.17.3.03.14.02.28-.05.4.06.13.09.28.06.42-.02.09-.07.16-.14.21.04.14.12.28.17.41Z"/>
  <path class="cls-10" d="m54.1,59.62c-.66-.62-1.88-2.11-1.4-3.05-.03.6.44,1.08.67,1.61.23.48.51.96.73,1.44Z"/>
  <path class="cls-10" d="m53.76,59.17c-.59-.81-1.06-1.77-1.08-2.78.34.93.71,1.87,1.08,2.78Z"/>
  <path class="cls-10" d="m59.41,44.49c-2.9-.15-4.6-2.04-6.21-4.22-1.59-2.17-2.98-4.49-4.22-6.87-.2-.41-.44-.81-.73-1.16.66.37,1.07,1.05,1.57,1.61,1.46,1.37,2.28,3.24,3.41,4.86,1.69,2.46,3.88,4.65,6.18,5.77Z"/>
  <path class="cls-10" d="m58.19,45.3c-1.28-.61-2.59-1.28-3.63-2.26-1.13-1.3-1.87-2.9-2.64-4.43-.09-.22-.15-.45-.2-.67.1.16.19.32.29.47.87,1.11,1.67,2.27,2.5,3.41.5.59,1.11,1.04,1.71,1.52.71.6,1.35,1.3,1.97,1.97Z"/>
  <path class="cls-10" d="m57.01,45.55c.01-.33-.1-.65-.33-.9-.1-.13-.21-.19-.26-.33-.91-.68-1.77-1.58-2.04-2.71.44.68.99,1.26,1.64,1.72.29.23.52.52.81.73,0,0,0,0,0,0,.36.39.48,1.03.18,1.48Z"/>
  <path class="cls-10" d="m32.4,28.6c-.34-.29-.82-.28-1.22-.38-.53-.1-1.02-.34-1.53-.53-.12-.06-.29-.1-.36-.22.46.07.99,0,1.45.12.62.15,1.45.33,1.66,1Z"/>
  <path class="cls-10" d="m32.86,28.81c-.33-.07-.61-.26-.9-.42-.41-.21-.86-.35-1.28-.52.76-.07,1.5.15,2.25.2.74-.06,1.4-.44,2.14-.53.88-.09,1.77-.16,2.65-.27.36-.02.59-.13.11.14-.9.54-1.87.92-2.89,1.13-.67.2-1.38.43-2.08.27Z"/>
  <path class="cls-10" d="m33.28,28.13c-.55.01-1.11-.05-1.66-.08-.25-.02-.52.04-.74-.13-.26-.19-.27-.59-.05-.81.2-.21.49-.17.75-.14,1.11.28,2.16,0,3.29.07.68-.1,1.35-.46,2.04-.43,0,0,0,0,0,0,.06.02.12.05.17.08.09.07.16.18.18.29,1.7.07,1.3.13-.06.4-.18.49-.79.44-1.22.52-.9.11-1.8.2-2.71.21Z"/>
  <path class="cls-10" d="m65.53,47.79c-1.64-.62-3.3-2.47-4.04-4.05.68.71,1.47,1.33,2.26,1.92.52.32,1.01.69,1.55.98.21.12.46.21.62.41.24.3,0,.78-.39.75Z"/>
  <path class="cls-10" d="m65.99,47.2c-.84-.01-1.68-.43-2.12-1.15.12.14,2.81,1.24,2.12,1.15Z"/>
  <path class="cls-10" d="m67.18,43.31c-.79-.04-1.62-.17-2.24-.7-.82-.69-1.58-1.52-1.93-2.55.69.83,1.6,1.54,2.54,2.07.72.24,2.6,1.04,3.22.62-.31.52-1.04.52-1.58.57Z"/>
  <path class="cls-10" d="m66.79,42.56c-1.32-.29-2.61-1.06-3.44-2.12.9.66,2,.93,3.04,1.28.75.23,1.66.57,2.43.28-.42.59-1.35.67-2.03.56Z"/>
  <path class="cls-10" d="m66.92,42.88c-.38-.07-.7-.34-.9-.66.32.25.71.44,1.13.36.09-.36.51-.56.85-.61.3-.06.64.21.49.52-.32.49-1.05.48-1.57.39Z"/>
  <path class="cls-10" d="m67.91,40.8c-1.58-.28-3.13-1.24-3.9-2.68.31.3.66.57,1.01.82,1.54.89,3.3,1.36,5.04,1.68-.69.21-1.44.26-2.16.18Z"/>
  <path class="cls-10" d="m67.21,37.1c-.66-.21-1.27-.55-1.84-.93.93.11,1.85.33,2.77.52.68,0,1.37-.12,2.02-.27-.82.63-1.94,1.16-2.96.68Z"/>
  <path class="cls-10" d="m66.54,37.28c-.43-.04-.77-.32-1.01-.67.42.24.91.37,1.4.34.3.02.6,0,.9-.06-.34.31-.84.41-1.3.39Z"/>
  <path class="cls-10" d="m66.54,37.2c-.27-.05-1.1-.17-1.1-.5.17-.49,1.01.07,1.36.03-.15.11-.37.08-.55.11.22.13.44.24.68.32-.12.03-.26.05-.39.04Z"/>
  <path class="cls-10" d="m69.42,36.88s-.01-.01-.02-.02c0,0-.02,0,0,0-.25-.39,1.02-.92,1.33-.89.48-.04.61.6.09.65-.33.07-.66.16-.99.25-.13.07-.29.13-.4.01Z"/>
  <path class="cls-10" d="m63.24,50.25c-.55.23-.85-.56-.76-.99-.13-.27-.04-.53.16-.72-.12-.16-.27-.32-.3-.52-.08-.46.52-.73.82-.38.42.61.93,1.15,1.42,1.71.23.2.61.38.91.21-.17.24-.5.25-.77.19,0,.32-.35.56-.65.45-.21.2-.59.2-.83.05Z"/>
  <path class="cls-10" d="m65.24,49.49c-.08-.02-.17-.06-.23-.1.14-.02.26.08.38.07-.03.06-.1.05-.16.04Z"/>
  <path class="cls-10" d="m5.32,47.85c-.63-.17-1.07-.76-1.34-1.32.92.63,1.47.7,2.53.42.78-.17,1.55-.4,2.25-.78-.72,1.11-2.08,1.99-3.44,1.69Z"/>
  <path class="cls-10" d="m6.03,47.68c-.73-.13-1.4-.55-1.97-1.01-.17-.11-.14-.32-.13-.49.08.32.39.37.68.43.62.12,1.21.34,1.85.36.71.06,1.35-.12,1.97-.39-.53.77-1.46,1.27-2.41,1.1Z"/>
  <path class="cls-10" d="m5.44,44.49c-.4-.25-.83-.64-.84-1.14.56.8,1.62.72,2.46.52.66-.13,1.29-.36,1.9-.61-.8,1.01-2.25,1.92-3.52,1.24Z"/>
  <path class="cls-10" d="m5.42,43.97c-.2-.12-.39-.33-.4-.57,0-.06.01-.14.03-.19.02.06.04.11.07.17.28.4.81.52,1.27.57-.31.12-.66.18-.96.02Z"/>
  <path class="cls-10" d="m5.08,43.75c-.13-.06-.14-.23-.16-.35.08.07.12.2.2.27.06.04.14.07.19.11-.08,0-.16,0-.23-.02Z"/>
  <path class="cls-10" d="m5,43.66c-.14-.09-.16-.27-.16-.42.13.2.27.39.48.51-.11.01-.23-.02-.32-.09Z"/>
  <path class="cls-10" d="m4.69,41.57c-.67-.14-1.89-1-1.65-1.78.22.76,1.22.96,1.93.99,1.61.15,2.09-.05,3.56-.59-1.09,1.15-2.21,1.89-3.84,1.38Z"/>
  <path class="cls-10" d="m6.37,41.72c.55-.09,1.03-.41,1.5-.69.55-.32,1.08-.66,1.59-1.04,0,0,0,0,0,0-.67.96-1.83,2.03-3.09,1.73Z"/>
  <path class="cls-10" d="m7.7,41.8c.28-.21.59-.4.89-.57-.22.29-.55.48-.89.57Z"/>
  <path class="cls-10" d="m5.15,38.42c-.98-.27-1.96-.67-2.63-1.46-.06-.07-.08-.14-.08-.23,0-.07-.02-.15-.01-.21.07.12.12.28.26.33.99.54,2.13.68,3.24.72.9-.11,1.74-.53,2.57-.89.07-.03.15-.08.21-.11-.89.95-2.11,2.24-3.55,1.85Z"/>
  <path class="cls-10" d="m4.3,35.63c-.43-.04-.75-.18-.93-.58.39.3.86.18,1.31.09.5-.11,1.02-.13,1.52-.23.27-.05.53-.12.79-.16-.72.68-1.71,1.04-2.69.89Z"/>
  <path class="cls-10" d="m14.3,35.05c.28-.48.48-1,.67-1.52.19-.53.48-1.02.58-1.58.36,1.13-.38,2.4-1.25,3.1Z"/>
  <path class="cls-10" d="m15.22,34.38c.21-.56.46-1.13.81-1.61-.1.61-.39,1.17-.81,1.61Z"/>
  <path class="cls-10" d="m16.33,33.41c0-.67.19-1.32.54-1.89-.05.65-.29,1.29-.54,1.89Z"/>
  <path class="cls-10" d="m14.87,32.67c.1-.69.27-1.39.67-1.97-.22.65-.41,1.34-.67,1.97Z"/>
  <path class="cls-10" d="m54.01,34.01c-.26-.18-.39-.5-.52-.77-.41-.85-.7-1.76-.83-2.69.28.46.57,1,.74,1.51.24.64.27,1.37.61,1.95Z"/>
  <path class="cls-10" d="m54.88,34.5c-.53-.88-1.06-2.53-.85-3.55.14.66.43,1.29.55,1.97.1.53.17,1.07.3,1.58Z"/>
  <path class="cls-10" d="m55.75,34.56c-.96-1.19-1.84-3.19-1.4-4.73.01.05,0,.11.01.17.07.7.32,1.36.51,2.03.23.86.46,1.74.87,2.53Z"/>
  <path class="cls-10" d="m54.62,34.69c-.27-.38-.48-.79-.67-1.21-.39-.84-.73-1.76-.63-2.7.13.73.43,1.38.67,2.08.19.62.4,1.24.63,1.83Z"/>
  <path class="cls-10" d="m53.67,34.39c-.96-1.12-1.4-2.6-1.49-4.05.2.51.42,1.02.59,1.55.25.85.49,1.72.9,2.5Z"/>
  <path class="cls-2" d="m40.91,57.05c.38.29.78.61,1.06,1-.36-.21-.76-.36-1.16-.49-2.85-1.1-6.13-1.08-8.43,1.16-1.34,1.22-2.55,2.61-3.44,4.19.53-5.26,7.5-9.27,11.97-5.85Z"/>
  <path class="cls-2" d="m27.02,69.31c-1.86-.62-1.9-3.29-1.94-4.94-.02-2.91,1.38-5.98,4-7.4,1.59-.94,3.53-1.04,5.31-.65,1.17.12-.76.23-1.1.35-1.71.36-3.52.72-4.84,1.95-2.44,2.27-3,6.14-1.8,9.18,1.25,2.08,3.56-1.31,4.33-2.37,1.52-1.98,3.24-3.8,4.97-5.61,1.21-1.3,2.62-2.94,4.58-2.67-1.32.35-2.17,1.41-3.03,2.38-.6.66-1.23,1.31-1.86,1.95-1.28,1.34-2.52,2.69-3.64,4.14-1.16,1.45-2.39,3.73-4.45,3.73-.16,0-.33-.01-.51-.05Z"/>
  <path class="cls-2" d="m45.06,56.04c-.2.26-.47.47-.64.75-.18-.58.98-1.08.64-.75Z"/>
  <path class="cls-2" d="m46.04,55.78s-.06.02-.09.03c-.5.17-1.12.46-1.25,1.02-.37-.79.66-1.41,1.34-1.05Z"/>
  <path class="cls-2" d="m33.28,54.29c-3.99-.19-3.71-6.13.02-5.25.13.06.24.14.31.26-.06-.04-.13-.08-.21-.1-1.47-.15-2.34,1.52-1.87,2.79.74,1.71,3.37,1.73,4.65.64-.46,1.06-1.71,1.66-2.84,1.66-.02,0-.05,0-.07,0Z"/>
  <path class="cls-2" d="m33.04,46.59c.2-.6.49-1.16.72-1.74.33.96-.11,2.31-1.14,2.62.21-.26.32-.57.43-.88Z"/>
  <path class="cls-2" d="m21.16,31.63c0-.06.05-.11.11-.11s.11.05.11.11-.05.11-.11.11-.11-.05-.11-.11Z"/>
  <path class="cls-2" d="m17.37,47.27c-.88-1.61,1.83-2.73,3.4-2.91,1.89-.34,3.8-.59,5.7-.88,1.53-.1,3.38-.74,4.75.17,1.01.88.68,2.58-.17,3.47-.61.63-1.45.92-2.29,1.1-2.77.5-5.63.71-8.44.77-1.16-.04-2.74-.37-2.95-1.72Zm11.72-3.02c-1.82.14-3.63.46-5.44.72-1.41.21-2.81.45-4.2.73-.82.16-1.91.39-2.05,1.38.55,1.09,1.79,1.02,2.91.94.3-.02.6-.04.87-.04,1.69-.07,3.29-.18,4.95-.36,1.2-.15,2.46-.22,3.58-.73.83-.38,1.42-1.48.98-2.34-.23-.28-.59-.33-.95-.33-.22,0-.44.02-.64.02Z"/>
  <path class="cls-2" d="m20.86,47.72c-.79-.76-.72-2.51.48-2.79-.67.73-.36,1.98,0,2.8.08.13.21.24.31.34-.3-.01-.58-.13-.8-.34Z"/>
  <path class="cls-2" d="m39.85,48.42c-1.25-.1-2.62-.36-3.52-1.32-.79-.86-1.14-2.37-.23-3.27.63-.62,1.57-.72,2.41-.69,1.84-.54,3.75-.47,5.65-.41.7.02,1.39.05,2.08.04,2.24.13,6.65-.16,6.44,3.11-.66,2.22-5.69,2.62-9.44,2.62-1.42,0-2.65-.06-3.4-.09Zm-2.99-3.99c-.71.85-.01,2.1.88,2.5,1.72.75,3.65.59,5.47.63,2.36-.07,4.78-.06,7.05-.77,2.43-.73,1.71-2.32-.34-2.82-3.35-.5-6.77-.08-10.13-.58-.94.04-2.16.37-2.93,1.03Z"/>
  <path class="cls-2" d="m39.88,45.59c0-.78.43-1.5,1.03-1.97.08-.09.58-.35.39-.16-.64.97-.99,2.93-.48,3.99-.69-.31-.94-1.16-.94-1.86Z"/>
  <path class="cls-2" d="m44.6,41.71c-2.43-.09-5.27.11-7.22-1.59-.21-.12-1.04-1.37-.56-.88,1.13.96,2.67,1.05,4.06,1.28,3.01.37,6.01.11,9,.71-1.53.32-3.11.49-4.68.49-.2,0-.39,0-.59,0Z"/>
  <path class="cls-2" d="m21.63,43.05c3.24-1.41,6.98-1.56,10-3.49-2,2.73-6.68,3.49-9.91,3.49-.03,0-.06,0-.09,0Z"/>
  <path class="cls-2" d="m19.5,57.28c-3.4-3.73-6.4-8.32-6.71-13.48-.02-.34-.03-.69-.01-1.02.25.68.5,1.35.78,2.02,1.07,2.68,1.95,5.56,3.61,7.93,1.77,2.63,3.97,4.92,6.3,7.05.77.72,1.43,1.62,2.4,2.07-2.7-.35-4.56-2.74-6.36-4.56Z"/>
  <path class="cls-2" d="m36.21,66.95c-1.5-.3-2.85-1.02-4.06-1.92.61.07,1.23.34,1.85.43,1.43.24,2.84.59,4.28.73,1.9.06,3.91-.52,5.49-1.55,1.47-1,2.68-2.47,3.86-3.75,2.17-2.5,4.27-5.12,5.81-8.06,1.21-2.42,1.96-5.03,3.25-7.41-.02.66-.08,1.33-.19,1.98-.92,4.81-3.79,8.96-6.85,12.68-1.62,1.86-3.18,3.83-5.17,5.32-1.73,1.2-3.8,1.85-5.88,1.85-.8,0-1.6-.1-2.38-.3Z"/>
  <path class="cls-2" d="m11.56,44.41c.49.14.98.39,1.26.82-1.3-.72-3.26-.19-3.91,1.18-.87,1.9.22,4.41,2.2,5.07,1.28.36,2.91.53,4.04-.3.05-.04.09-.09.13-.12-.52,1.24-2.08,1.64-3.3,1.64-5.63-.26-5.96-9.56-.42-8.28Z"/>
  <path class="cls-2" d="m58.21,53.45c-1.4-.18-2.84-1.4-2.66-2.91.42,1.37,2,1.99,3.33,1.93.98-.08,1.82-.74,2.35-1.54,1.63-2.88.62-6.03-3.15-5.28-.62.12-1.2.44-1.63.88.56-1.34,2.1-2.02,3.5-1.91,2.33.29,3.2,2.2,3.02,4.18-.01.09-.02.17-.03.26-.31,2.22-1.9,4.43-4.19,4.43-.17,0-.35-.01-.53-.04Z"/>
  <path class="cls-2" d="m10.96,47.13c.45-.59,1.41-.07,1.51.56-.43-.29-.97-.67-1.51-.56Z"/>
  <path class="cls-2" d="m11.71,49.24c-.42-.35-.69-.88-1.17-1.15.95-.03,1.47.9,1.98,1.56.02.04.02.05,0,.05-.13,0-.72-.35-.81-.46Z"/>
  <path class="cls-2" d="m12.46,47.98c.31.24.51.62.55,1.01-.27-.27-.47-.64-.55-1.01Z"/>
  <path class="cls-2" d="m59.67,47.34c-.21.06-.42.06-.63.06-.22,0-.44,0-.64.07-.67.33-1.17.96-1.56,1.57.06-1.76,1.24-2.72,2.84-1.7Z"/>
  <path class="cls-2" d="m58.41,48.77c.33-.04.6-.3.9-.42.02,0,.04-.03.06-.03-.11.27-.4.53-.69.53-.09,0-.19-.03-.27-.08Z"/>
  <path class="cls-2" d="m57.78,50.11c-.18-.22-.13-.56-.03-.8.09.71.69.82,1.26.54-.13.28-.45.48-.76.48-.17,0-.34-.07-.47-.23Z"/>
  <path class="cls-2" d="m14.13,40.55c1.46-2.95,2.63-6.01,4.88-8.45,1.43-1.55,2.96-3.09,4.89-4,3.01-1.57,7.2-.92,8.72,2.38.28.49.55.99.86,1.46.51.74-1.82-1.42-1.98-1.66-1.8-2.24-5.03-2.44-7.44-1.11-2.31,1.26-4.13,3.31-5.67,5.39-1.08,1.67-1.89,3.5-2.74,5.28-.74,1.8-1.93,3.67-3.86,4.29,1.09-.95,1.71-2.34,2.35-3.57Z"/>
  <path class="cls-2" d="m54.96,44.27c-2.26-1.49-3.37-4.11-4.48-6.48-.73-1.6-1.58-3.14-2.56-4.6-1.98-2.72-4.77-6.66-8.63-5.32-1.58.57-2.91,1.72-4.28,2.63-.73.48-1.45,1.03-2.25,1.37.69-.68,1.24-1.47,1.91-2.15,6.59-6.37,11.07-2.02,14.98,4.33,1.43,2.28,2.28,4.86,3.72,7.12,1.07,1.46,2.2,3.06,3.91,3.8,0,0,0,0-.01,0-.81,0-1.63-.28-2.32-.7Z"/>
  <path class="cls-2" d="m13.83,59.23c-.83.82-1.93,1.34-3.06,1.6-.59.1-3.09.71-2.74-.45.34-.47,1-.55,1.44-.9.77-.56,1.36-1.3,1.82-2.11-.56.34-3.3,1.58-3.34.37,0-.28.21-.5.47-.53,0,0,0,0,0,0,.92-.22,1.57-1.12,2.04-1.89.41-.84.38-1.8.38-2.72.61,1.28.74,2.94-.24,4.08.27-.14.54-.3.74-.54.26-.38.65-.9,1.07-.41.5,1.64-1.42,3.52-2.59,4.48,1.46-.14,3-.73,3.88-1.96.28-.32.27-.85.65-1.08,1.5-.19,0,2.8-.36,3.38.74-.5,1.27-1.21,1.76-1.94.17-.28.4-.69.79-.53.69.45.18,1.5.44,2.17,1.56-.95,1.09-2.71,1.9-2.59.81.27.48,1.54.46,2.21.5-.4.86-.94,1.23-1.44-.27.77-.53,1.67-1.22,2.16-.66.3-.77-.59-.71-1.05-.96,1.73-2.62,2.48-2.51-.22-.71.95-1.55,2.1-2.76,2.38-1.29-.14.37-1.8.48-2.46Z"/>
  <path class="cls-2" d="m54.27,60.31c-.69-.54-1.17-1.29-1.66-2-.32-.53-.93-1.13-1.02-1.66.45.53,1.07.88,1.54,1.4.64.57,1.17,1.31,1.92,1.69.02-.73-1.14-1.95-.21-2.39.8-.07,2.04,1.63,2.98,1.95-.3-.61-.94-1.23-.92-1.93.09-.37.56-.46.82-.21,1.49,1.35,3.1,1.94,4.74.44-.85.18-1.76.09-2.55-.29-.37-.21-1.02-.35-.97-.88.09-.43.5-.42.91-.4.28,0,.56.02.76-.1.9-.38,1.72-1.05,2.15-1.94-1.17.43-2.59.22-3.56-.57-.12-.08-.28-.1-.42-.15.25-.05.5-.02.72.09,1.03.35,2.27.28,3.22-.28.18-.11.32-.28.49-.4.3-.18.72.04.75.39-.16,1.69-1.62,3.1-3.16,3.65.78.26,1.59.03,2.34-.21,2.3.32-2.01,4.32-4.66,2.23.17.32.52.55.58.92.06.42-.33.77-.73.75-1.06-.12-1.85-.98-2.64-1.62.47.94.2,1.88-.54,1.88-.24,0-.53-.1-.86-.33Z"/>
  <path class="cls-2" d="m7.07,47.84s.02-.02.03-.02c.2-.07.4-.18.58-.32-.17.3-.42.53-.71.69.03-.12.07-.23.1-.35Z"/>
  <path class="cls-2" d="m25.43,18.45s.08,0,.12,0h-.12Z"/>
  <path class="cls-2" d="m69.96,35.18c-.01-.06-.02-.11-.03-.17.02,0,.04,0,.05,0,0,.06-.01.13-.02.19,0,0,0,0,0-.01Z"/>
  <path class="cls-2" d="m63.27,31.44s.03-.01.05-.02l.02.12s-.04-.07-.06-.1Z"/>
  <path class="cls-2" d="m62.59,49.42c-.45-.12-.35-.82.11-.81h0c.1,0,.2-.02.3-.02,0,0,0,0,0,0,0,0,0,0,0,0-.04.2-.07.4-.07.61,0,.08,0,.16,0,.24-.02,0-.04,0-.06,0-.09,0-.18,0-.26-.02Z"/>
  <path class="cls-2" d="m63.49,48.68s0,0,0,0c0,0,0,.01,0,.02,0,0,0-.01,0-.02Z"/>
  <path class="cls-2" d="m5.08,48.43c-.77-.07-1.36-.63-1.85-1.18-.33-.46-1.33-1.43-.47-1.82,1.29.03,2.39.77,3.74.08-.71.78-1.84.92-2.85.84.63,1,1.77,1.61,2.95,1.33.61-.08.94-.57,1.31-.98-.26,1.14-1.31,1.77-2.42,1.77-.14,0-.28,0-.42-.03Z"/>
  <path class="cls-2" d="m6.48,44.9c-.69.02-1.38-.18-1.97-.52-.48-.34-1.9-.96-1.07-1.62.61-.18,1.31-.04,1.88-.42-.84-.42-1.71-.77-2.51-1.27-.76-.45-1.39-1.07-2.02-1.68-.31-.28-.11-.82.31-.82.34.03.61.29.94.39.94.3,1.99.31,2.95.06-.58-.33-6.57-2.86-4.57-3.58,1.22.21,2.46.79,3.7.32-.76-.22-2.36-.87-2.66-1.6-.06-.45.41-.66.79-.52,1.52.45,3.48.42,4.36-1.13,1.57-1.28,2.73-2.94,3.91-4.58,1.04-1.44,1.97-2.91,3.07-4.29,1.77-1.99,4.02-3.71,6.57-4.55,3.27-1.21,8.24-1.21,11.29.57.91.51,1.72,1.19,2.43,1.95.06.1.19.09.27.03-.2.36-.7-.12-.99-.22-1.14-.55-2.29-1.06-3.44-1.57-2.77-.77-5.75-.97-8.53-.15-3.01.8-5.63,2.74-7.49,5.21-2.05,2.7-3.68,5.73-6.2,8.03-.89,1.17-2.3,1.9-3.79,1.79.53.3,1.47.08,1.79.59.1.21.02.43-.13.58-.81.87-2.09.93-3.2.79,1.23.6,2.44,1.35,3.78,1.65.53.21.36.85-.02,1.12-.87.7-2.15.59-3.21.53.82.59,1.68.95,2.58,1.32.46.19,1.16.45,1.11,1.07-.14.75-1.08.95-1.71,1.1.38.27.78.51,1.22.67.36.2,1.02.07,1.19.5.02.13-.06.22-.15.3-.35.37-.73.73-1.25.82.34-.23.62-.49.79-.87Z"/>
  <path class="cls-2" d="m72.11,40.55c-1.75-.04-3.54-.36-4.98-1.43-.64-.49-2.25-1.57-1.99-2.48.48-.62,1.12.32,1.66.41,1.26.29,2.96.02,4.04-.72-1.08.03-2.95.32-3.7-.6-.13-.29.06-.63.35-.71.77-.12,2.01.03,2.25-.94-1.95-.01-3.92-.69-5.61-1.65-1.87-1.19-3.58-2.67-5.01-4.35-1.58-1.93-2.6-4.32-4.55-5.94-1.98-1.77-3.97-3.16-6.62-3.71-2.64-.76-5.51-1.01-8.13-.08-2.13.67-4.08,1.78-5.87,3.1-.09.08-.15.18-.24.26.06-.18.13-.36.25-.5.87-1.21,2.02-2.21,3.37-2.85,3.25-1.52,6.33-1.95,9.83-1.1,2.39.51,4.79,1.35,6.63,3.01,1.33,1.06,2.61,2.18,3.59,3.58.97,1.36,1.74,2.86,2.87,4.1,1.52,1.55,3.13,3.05,5.04,4.06,1.47.65,3.08,1.2,4.71,1.11,1.37.11.57,2.07-.3,2.39.24,0,.48-.02.72-.05.45-.06.91-.12,1.32.09.59.39.15,1.13-.29,1.45-1.27.94-3.05,1.13-4.59.95,1.07.89,2.34,1.49,3.64,1.96.23.09,2.05.65,1.69.65-.02,0-.05,0-.09,0Z"/>
  <path class="cls-2" d="m66.78,45.63c-1.53-.37-2.85-2.06-2.91-3.61.09-.38.56-.46.84-.23,1.01.98,2.76,1.75,3.88.52-1.08-.16-2.12-.6-3.03-1.19-.46-.29-1.33-1.26-.43-1.53.45,0,.78.42,1.22.52,1.6.57,3.31.61,4.98.52-1.24.48-2.65.69-3.98.47.51.21,1.05.33,1.59.37.41-.03.93.15.85.65-.24.74-1,1.22-1.69,1.53-1.05.42-2.24,0-3.13-.59.78,2.2,2.45,2.62,2.25,2.62-.05,0-.19-.02-.46-.05Z"/>
  <path class="cls-2" d="m64.31,50.68c-1.1-.11-2.13-.64-3.08-1.17,1.44.23,3.1.82,4.41-.09-.68-.23-1.31-.62-1.75-1.18-.29-.47-1.75-2.29-.74-2.52.43-.03.67.43.96.66.59.45,1.43,1.08,2.19.85,0-.06-.05-.12-.09-.17-.29-.21-.48-.55-.69-.82.24.17.48.36.73.52.19.06.36.19.43.39.06,1.12-1.73.68-2.34.33.66,1.07,1.49.87,2.25,1.49.6,1.04-1.24,1.72-2.14,1.72-.05,0-.1,0-.15,0Z"/>
  <path class="cls-2" d="m16.39,25.4c.35-1.57,1.67-2.13,3.14-2.26,1.22-.14,2.45-.13,3.67-.13.35,0,.7,0,1.05,0,3.26-.01,6.57-.2,9.75.72-1.75.37-3.52.34-5.3.31-.77-.01-1.55-.03-2.32,0-.82.03-1.64.02-2.47.01-1.81-.02-3.63-.05-5.38.39-1.46.52-1.29,2.67-1.61,3.94-.26,1.84-.54,3.73-1.38,5.41,0-2.8.18-5.66.84-8.39Z"/>
  <path class="cls-2" d="m53.2,29.43c-.26-1.69.19-3.81-.95-5.21-1.86-.46-3.84-.17-5.74-.39-3.38-.27-6.82-.12-10.17.01-.38,0-.75-.03-1.12-.06-.67-.05-1.34-.11-2,.03.62-.44,1.4-.54,2.14-.69,1.96-.35,3.95-.37,5.93-.45,2.87-.09,5.73.24,8.6.24,1.09.11,2.44-.17,3.3.66,1.5,2.46.89,5.92.49,8.62-.17-.92-.38-1.83-.47-2.77Z"/>
  <path class="cls-2" d="m32.99,27.86c-2.2-.37-4.51-.33-6.8-.29-.92.02-1.84.03-2.74.02-.55-.05-1.25.01-1.99.08-2.1.19-4.47.38-4.3-2.24.36-1.44-.13.72,1.01,1.24.87.26,1.78.15,2.68.04.59-.07,1.19-.14,1.77-.11,3-.04,6.01-.07,9.01.06.2.02.41,0,.61-.02.39-.04.77-.07,1.1.16,1.35-.73,1.48-.7,2.41-.67.22,0,.48.01.82,0,1.1-.08,2.21-.14,3.32-.11,2.97.1,5.96.45,8.89.67,1.28.02,2.61.36,3.87.17.16-.12.26-.31.32-.49.16.8-.59,1.01-1.21,1.16-1.62.44-3.32.13-4.97,0-1.67-.16-3.34-.25-5.02-.39-1.38-.13-2.76-.07-4.13,0-.89.04-1.78.08-2.67.06-.56.18-1.08.7-1.67.7-.11,0-.22-.02-.33-.06Z"/>
</svg>